<?xml version="1.0" encoding="utf-8" standalone="no"?>
<!DOCTYPE svg PUBLIC "-//W3C//DTD SVG 1.1//EN"
  "http://www.w3.org/Graphics/SVG/1.1/DTD/svg11.dtd">
<svg xmlns:xlink="http://www.w3.org/1999/xlink" width="622.467642pt" height="502.331618pt" viewBox="0 0 622.467642 502.331618" xmlns="http://www.w3.org/2000/svg" version="1.1">
 <metadata>
  <rdf:RDF xmlns:dc="http://purl.org/dc/elements/1.1/" xmlns:cc="http://creativecommons.org/ns#" xmlns:rdf="http://www.w3.org/1999/02/22-rdf-syntax-ns#">
   <cc:Work>
    <dc:type rdf:resource="http://purl.org/dc/dcmitype/StillImage"/>
    <dc:date>2023-03-29T17:44:25.688905</dc:date>
    <dc:format>image/svg+xml</dc:format>
    <dc:creator>
     <cc:Agent>
      <dc:title>Matplotlib v3.6.0, https://matplotlib.org/</dc:title>
     </cc:Agent>
    </dc:creator>
   </cc:Work>
  </rdf:RDF>
 </metadata>
 <defs>
  <style type="text/css">*{stroke-linejoin: round; stroke-linecap: butt}</style>
 </defs>
 <g id="figure_1">
  <g id="patch_1">
   <path d="M -0 502.331618 
L 622.467642 502.331618 
L 622.467642 0 
L -0 0 
L -0 502.331618 
z
" style="fill: none"/>
  </g>
  <g id="axes_1">
   <g id="patch_2">
    <path d="M 93.24407 365.066287 
L 595.44407 365.066287 
L 595.44407 32.426287 
L 93.24407 32.426287 
L 93.24407 365.066287 
z
" style="fill: none"/>
   </g>
   <g id="matplotlib.axis_1">
    <g id="xtick_1">
     <g id="line2d_1">
      <defs>
       <path id="m66976ce31e" d="M 0 0 
L 0 3.5 
" style="stroke: #000000; stroke-width: 0.8"/>
      </defs>
      <g>
       <use xlink:href="#m66976ce31e" x="116.071343" y="365.066287" style="stroke: #000000; stroke-width: 0.8"/>
      </g>
     </g>
     <g id="text_1">
      <!-- $\mathdefault{0.0}$ -->
      <g transform="translate(103.038748 387.682592) scale(0.22 -0.22)">
       <defs>
        <path id="CMR17-30" d="M 2688 2025 
C 2688 2416 2682 3080 2413 3591 
C 2176 4039 1798 4198 1466 4198 
C 1158 4198 768 4058 525 3597 
C 269 3118 243 2524 243 2025 
C 243 1661 250 1106 448 619 
C 723 -39 1216 -128 1466 -128 
C 1760 -128 2208 -7 2470 600 
C 2662 1042 2688 1559 2688 2025 
z
M 1466 -26 
C 1056 -26 813 325 723 812 
C 653 1188 653 1738 653 2096 
C 653 2588 653 2997 736 3387 
C 858 3929 1216 4096 1466 4096 
C 1728 4096 2067 3923 2189 3400 
C 2272 3036 2278 2607 2278 2096 
C 2278 1680 2278 1169 2202 792 
C 2067 95 1690 -26 1466 -26 
z
" transform="scale(0.015625)"/>
        <path id="CMMI12-3a" d="M 1178 307 
C 1178 492 1024 619 870 619 
C 685 619 557 466 557 313 
C 557 128 710 0 864 0 
C 1050 0 1178 153 1178 307 
z
" transform="scale(0.015625)"/>
       </defs>
       <use xlink:href="#CMR17-30" transform="scale(0.996264)"/>
       <use xlink:href="#CMMI12-3a" transform="translate(45.690477 0) scale(0.996264)"/>
       <use xlink:href="#CMR17-30" transform="translate(72.787654 0) scale(0.996264)"/>
      </g>
     </g>
    </g>
    <g id="xtick_2">
     <g id="line2d_2">
      <g>
       <use xlink:href="#m66976ce31e" x="207.380434" y="365.066287" style="stroke: #000000; stroke-width: 0.8"/>
      </g>
     </g>
     <g id="text_2">
      <!-- $\mathdefault{0.2}$ -->
      <g transform="translate(194.347839 387.682592) scale(0.22 -0.22)">
       <defs>
        <path id="CMR17-32" d="M 2669 989 
L 2554 989 
C 2490 536 2438 459 2413 420 
C 2381 369 1920 369 1830 369 
L 602 369 
C 832 619 1280 1072 1824 1597 
C 2214 1967 2669 2402 2669 3035 
C 2669 3790 2067 4224 1395 4224 
C 691 4224 262 3604 262 3030 
C 262 2780 448 2748 525 2748 
C 589 2748 781 2787 781 3010 
C 781 3207 614 3264 525 3264 
C 486 3264 448 3258 422 3245 
C 544 3790 915 4058 1306 4058 
C 1862 4058 2227 3617 2227 3035 
C 2227 2479 1901 2000 1536 1584 
L 262 146 
L 262 0 
L 2515 0 
L 2669 989 
z
" transform="scale(0.015625)"/>
       </defs>
       <use xlink:href="#CMR17-30" transform="scale(0.996264)"/>
       <use xlink:href="#CMMI12-3a" transform="translate(45.690477 0) scale(0.996264)"/>
       <use xlink:href="#CMR17-32" transform="translate(72.787654 0) scale(0.996264)"/>
      </g>
     </g>
    </g>
    <g id="xtick_3">
     <g id="line2d_3">
      <g>
       <use xlink:href="#m66976ce31e" x="298.689525" y="365.066287" style="stroke: #000000; stroke-width: 0.8"/>
      </g>
     </g>
     <g id="text_3">
      <!-- $\mathdefault{0.4}$ -->
      <g transform="translate(285.65693 387.682592) scale(0.22 -0.22)">
       <defs>
        <path id="CMR17-34" d="M 2150 4122 
C 2150 4256 2144 4256 2029 4256 
L 128 1254 
L 128 1088 
L 1779 1088 
L 1779 457 
C 1779 224 1766 160 1318 160 
L 1197 160 
L 1197 0 
C 1402 0 1747 0 1965 0 
C 2182 0 2528 0 2733 0 
L 2733 160 
L 2611 160 
C 2163 160 2150 224 2150 457 
L 2150 1088 
L 2803 1088 
L 2803 1254 
L 2150 1254 
L 2150 4122 
z
M 1798 3703 
L 1798 1254 
L 256 1254 
L 1798 3703 
z
" transform="scale(0.015625)"/>
       </defs>
       <use xlink:href="#CMR17-30" transform="scale(0.996264)"/>
       <use xlink:href="#CMMI12-3a" transform="translate(45.690477 0) scale(0.996264)"/>
       <use xlink:href="#CMR17-34" transform="translate(72.787654 0) scale(0.996264)"/>
      </g>
     </g>
    </g>
    <g id="xtick_4">
     <g id="line2d_4">
      <g>
       <use xlink:href="#m66976ce31e" x="389.998615" y="365.066287" style="stroke: #000000; stroke-width: 0.8"/>
      </g>
     </g>
     <g id="text_4">
      <!-- $\mathdefault{0.6}$ -->
      <g transform="translate(376.966021 387.682592) scale(0.22 -0.22)">
       <defs>
        <path id="CMR17-36" d="M 678 2176 
C 678 3690 1395 4032 1811 4032 
C 1946 4032 2272 4009 2400 3776 
C 2298 3776 2106 3776 2106 3553 
C 2106 3381 2246 3323 2336 3323 
C 2394 3323 2566 3348 2566 3560 
C 2566 3954 2246 4179 1805 4179 
C 1043 4179 243 3390 243 1984 
C 243 253 966 -128 1478 -128 
C 2099 -128 2688 427 2688 1283 
C 2688 2081 2170 2662 1517 2662 
C 1126 2662 838 2407 678 1960 
L 678 2176 
z
M 1478 25 
C 691 25 691 1200 691 1436 
C 691 1896 909 2560 1504 2560 
C 1613 2560 1926 2560 2138 2120 
C 2253 1870 2253 1609 2253 1289 
C 2253 944 2253 690 2118 434 
C 1978 171 1773 25 1478 25 
z
" transform="scale(0.015625)"/>
       </defs>
       <use xlink:href="#CMR17-30" transform="scale(0.996264)"/>
       <use xlink:href="#CMMI12-3a" transform="translate(45.690477 0) scale(0.996264)"/>
       <use xlink:href="#CMR17-36" transform="translate(72.787654 0) scale(0.996264)"/>
      </g>
     </g>
    </g>
    <g id="xtick_5">
     <g id="line2d_5">
      <g>
       <use xlink:href="#m66976ce31e" x="481.307706" y="365.066287" style="stroke: #000000; stroke-width: 0.8"/>
      </g>
     </g>
     <g id="text_5">
      <!-- $\mathdefault{0.8}$ -->
      <g transform="translate(468.275112 387.682592) scale(0.22 -0.22)">
       <defs>
        <path id="CMR17-38" d="M 1741 2264 
C 2144 2467 2554 2773 2554 3263 
C 2554 3841 1990 4179 1472 4179 
C 890 4179 378 3759 378 3180 
C 378 3021 416 2747 666 2505 
C 730 2442 998 2251 1171 2130 
C 883 1983 211 1634 211 934 
C 211 279 838 -128 1459 -128 
C 2144 -128 2720 362 2720 1010 
C 2720 1590 2330 1857 2074 2029 
L 1741 2264 
z
M 902 2822 
C 851 2854 595 3051 595 3351 
C 595 3739 998 4032 1459 4032 
C 1965 4032 2336 3676 2336 3262 
C 2336 2669 1670 2331 1638 2331 
C 1632 2331 1626 2331 1574 2370 
L 902 2822 
z
M 2080 1519 
C 2176 1449 2483 1240 2483 851 
C 2483 381 2010 25 1472 25 
C 890 25 448 438 448 940 
C 448 1443 838 1862 1280 2060 
L 2080 1519 
z
" transform="scale(0.015625)"/>
       </defs>
       <use xlink:href="#CMR17-30" transform="scale(0.996264)"/>
       <use xlink:href="#CMMI12-3a" transform="translate(45.690477 0) scale(0.996264)"/>
       <use xlink:href="#CMR17-38" transform="translate(72.787654 0) scale(0.996264)"/>
      </g>
     </g>
    </g>
    <g id="xtick_6">
     <g id="line2d_6">
      <g>
       <use xlink:href="#m66976ce31e" x="572.616797" y="365.066287" style="stroke: #000000; stroke-width: 0.8"/>
      </g>
     </g>
     <g id="text_6">
      <!-- $\mathdefault{1.0}$ -->
      <g transform="translate(559.584203 387.682592) scale(0.22 -0.22)">
       <defs>
        <path id="CMR17-31" d="M 1702 4058 
C 1702 4192 1696 4192 1606 4192 
C 1357 3916 979 3827 621 3827 
C 602 3827 570 3827 563 3808 
C 557 3795 557 3782 557 3648 
C 755 3648 1088 3686 1344 3839 
L 1344 461 
C 1344 236 1331 160 781 160 
L 589 160 
L 589 0 
C 896 0 1216 0 1523 0 
C 1830 0 2150 0 2458 0 
L 2458 160 
L 2266 160 
C 1715 160 1702 230 1702 458 
L 1702 4058 
z
" transform="scale(0.015625)"/>
       </defs>
       <use xlink:href="#CMR17-31" transform="scale(0.996264)"/>
       <use xlink:href="#CMMI12-3a" transform="translate(45.690477 0) scale(0.996264)"/>
       <use xlink:href="#CMR17-30" transform="translate(72.787654 0) scale(0.996264)"/>
      </g>
     </g>
    </g>
    <g id="text_7">
     <!-- $s$ -->
     <g transform="translate(339.289569 411.967257) scale(0.22 -0.22)">
      <defs>
       <path id="CMMI12-73" d="M 1459 1280 
C 1568 1261 1741 1223 1779 1216 
C 1862 1192 2150 1090 2150 783 
C 2150 586 1971 70 1229 70 
C 1094 70 614 70 486 436 
C 742 404 870 603 870 745 
C 870 880 781 950 653 950 
C 512 950 326 841 326 552 
C 326 173 710 -64 1222 -64 
C 2195 -64 2483 651 2483 984 
C 2483 1079 2483 1258 2278 1462 
C 2118 1616 1965 1648 1619 1718 
C 1446 1756 1171 1814 1171 2101 
C 1171 2229 1286 2689 1894 2689 
C 2163 2689 2426 2589 2490 2368 
C 2208 2368 2195 2125 2195 2119 
C 2195 1984 2317 1946 2374 1946 
C 2464 1946 2643 2015 2643 2281 
C 2643 2545 2400 2816 1901 2816 
C 1062 2816 838 2160 838 1899 
C 838 1414 1312 1312 1459 1280 
z
" transform="scale(0.015625)"/>
      </defs>
      <use xlink:href="#CMMI12-73" transform="scale(0.996264)"/>
     </g>
    </g>
   </g>
   <g id="matplotlib.axis_2">
    <g id="ytick_1">
     <g id="line2d_7">
      <defs>
       <path id="m20069a3147" d="M 0 0 
L -3.5 0 
" style="stroke: #000000; stroke-width: 0.8"/>
      </defs>
      <g>
       <use xlink:href="#m20069a3147" x="93.24407" y="355.098661" style="stroke: #000000; stroke-width: 0.8"/>
      </g>
     </g>
     <g id="text_8">
      <!-- $\mathdefault{−0.02}$ -->
      <g transform="translate(33.079743 362.906813) scale(0.22 -0.22)">
       <defs>
        <path id="CMSY10-0" d="M 4218 1472 
C 4326 1472 4442 1472 4442 1600 
C 4442 1728 4326 1728 4218 1728 
L 755 1728 
C 646 1728 531 1728 531 1600 
C 531 1472 646 1472 755 1472 
L 4218 1472 
z
" transform="scale(0.015625)"/>
       </defs>
       <use xlink:href="#CMSY10-0" transform="scale(0.996264)"/>
       <use xlink:href="#CMR17-30" transform="translate(77.487468 0) scale(0.996264)"/>
       <use xlink:href="#CMMI12-3a" transform="translate(123.177945 0) scale(0.996264)"/>
       <use xlink:href="#CMR17-30" transform="translate(150.275122 0) scale(0.996264)"/>
       <use xlink:href="#CMR17-32" transform="translate(195.965599 0) scale(0.996264)"/>
      </g>
     </g>
    </g>
    <g id="ytick_2">
     <g id="line2d_8">
      <g>
       <use xlink:href="#m20069a3147" x="93.24407" y="283.576244" style="stroke: #000000; stroke-width: 0.8"/>
      </g>
     </g>
     <g id="text_9">
      <!-- $\mathdefault{−0.01}$ -->
      <g transform="translate(33.079743 291.384397) scale(0.22 -0.22)">
       <use xlink:href="#CMSY10-0" transform="scale(0.996264)"/>
       <use xlink:href="#CMR17-30" transform="translate(77.487468 0) scale(0.996264)"/>
       <use xlink:href="#CMMI12-3a" transform="translate(123.177945 0) scale(0.996264)"/>
       <use xlink:href="#CMR17-30" transform="translate(150.275122 0) scale(0.996264)"/>
       <use xlink:href="#CMR17-31" transform="translate(195.965599 0) scale(0.996264)"/>
      </g>
     </g>
    </g>
    <g id="ytick_3">
     <g id="line2d_9">
      <g>
       <use xlink:href="#m20069a3147" x="93.24407" y="212.053828" style="stroke: #000000; stroke-width: 0.8"/>
      </g>
     </g>
     <g id="text_10">
      <!-- $\mathdefault{0.00}$ -->
      <g transform="translate(50.126976 219.86198) scale(0.22 -0.22)">
       <use xlink:href="#CMR17-30" transform="scale(0.996264)"/>
       <use xlink:href="#CMMI12-3a" transform="translate(45.690477 0) scale(0.996264)"/>
       <use xlink:href="#CMR17-30" transform="translate(72.787654 0) scale(0.996264)"/>
       <use xlink:href="#CMR17-30" transform="translate(118.478131 0) scale(0.996264)"/>
      </g>
     </g>
    </g>
    <g id="ytick_4">
     <g id="line2d_10">
      <g>
       <use xlink:href="#m20069a3147" x="93.24407" y="140.531411" style="stroke: #000000; stroke-width: 0.8"/>
      </g>
     </g>
     <g id="text_11">
      <!-- $\mathdefault{0.01}$ -->
      <g transform="translate(50.126976 148.339563) scale(0.22 -0.22)">
       <use xlink:href="#CMR17-30" transform="scale(0.996264)"/>
       <use xlink:href="#CMMI12-3a" transform="translate(45.690477 0) scale(0.996264)"/>
       <use xlink:href="#CMR17-30" transform="translate(72.787654 0) scale(0.996264)"/>
       <use xlink:href="#CMR17-31" transform="translate(118.478131 0) scale(0.996264)"/>
      </g>
     </g>
    </g>
    <g id="ytick_5">
     <g id="line2d_11">
      <g>
       <use xlink:href="#m20069a3147" x="93.24407" y="69.008994" style="stroke: #000000; stroke-width: 0.8"/>
      </g>
     </g>
     <g id="text_12">
      <!-- $\mathdefault{0.02}$ -->
      <g transform="translate(50.126976 76.817146) scale(0.22 -0.22)">
       <use xlink:href="#CMR17-30" transform="scale(0.996264)"/>
       <use xlink:href="#CMMI12-3a" transform="translate(45.690477 0) scale(0.996264)"/>
       <use xlink:href="#CMR17-30" transform="translate(72.787654 0) scale(0.996264)"/>
       <use xlink:href="#CMR17-32" transform="translate(118.478131 0) scale(0.996264)"/>
      </g>
     </g>
    </g>
    <g id="text_13">
     <!-- $\Delta\varepsilon(s)$ -->
     <g transform="translate(23.618624 225.045219) rotate(-90) scale(0.22 -0.22)">
      <defs>
       <path id="CMR17-1" d="M 2598 4403 
C 2547 4512 2522 4512 2470 4512 
C 2394 4512 2387 4499 2342 4409 
L 269 109 
C 262 96 237 38 237 32 
C 237 6 243 0 358 0 
L 4576 0 
C 4691 0 4698 6 4698 32 
C 4698 38 4672 96 4666 109 
L 2598 4403 
z
M 2310 4038 
L 4083 358 
L 531 358 
L 2310 4038 
z
" transform="scale(0.015625)"/>
       <path id="CMMI12-22" d="M 890 1427 
C 1094 1345 1312 1345 1434 1345 
C 1600 1345 1933 1345 1933 1550 
C 1933 1678 1811 1728 1485 1728 
C 1325 1728 1133 1709 909 1613 
C 710 1708 634 1852 634 1990 
C 634 2379 1261 2606 1830 2606 
C 1939 2606 2170 2606 2438 2411 
C 2477 2387 2496 2367 2541 2367 
C 2618 2367 2701 2449 2701 2526 
C 2701 2639 2330 2880 1888 2880 
C 1171 2880 493 2449 493 1972 
C 493 1734 646 1586 755 1509 
C 384 1301 166 961 166 652 
C 166 219 563 -128 1178 -128 
C 2022 -128 2362 424 2362 512 
C 2362 543 2336 568 2304 568 
C 2272 568 2259 549 2234 512 
C 2163 395 1997 146 1235 146 
C 838 146 314 245 314 686 
C 314 898 474 1214 890 1427 
z
M 1088 1518 
C 1261 1600 1427 1600 1472 1600 
C 1651 1600 1683 1583 1786 1545 
C 1677 1472 1664 1472 1434 1472 
C 1318 1472 1216 1472 1088 1518 
z
" transform="scale(0.015625)"/>
       <path id="CMR17-28" d="M 1958 -1561 
C 1958 -1555 1958 -1542 1939 -1523 
C 1645 -1224 858 -407 858 1581 
C 858 3569 1632 4379 1946 4697 
C 1946 4704 1958 4717 1958 4736 
C 1958 4755 1939 4768 1914 4768 
C 1843 4768 1299 4296 986 3594 
C 666 2887 576 2199 576 1588 
C 576 1128 621 351 1005 -471 
C 1312 -1135 1837 -1600 1914 -1600 
C 1946 -1600 1958 -1587 1958 -1561 
z
" transform="scale(0.015625)"/>
       <path id="CMR17-29" d="M 1683 1581 
C 1683 2040 1638 2817 1254 3639 
C 947 4303 422 4768 346 4768 
C 326 4768 301 4761 301 4729 
C 301 4717 307 4710 314 4697 
C 621 4378 1402 3568 1402 1584 
C 1402 -407 627 -1217 314 -1537 
C 307 -1549 301 -1556 301 -1568 
C 301 -1600 326 -1600 346 -1600 
C 416 -1600 960 -1128 1274 -426 
C 1594 281 1683 969 1683 1581 
z
" transform="scale(0.015625)"/>
      </defs>
      <use xlink:href="#CMR17-1" transform="scale(0.996264)"/>
      <use xlink:href="#CMMI12-22" transform="translate(76.91959 0) scale(0.996264)"/>
      <use xlink:href="#CMR17-28" transform="translate(122.569782 0) scale(0.996264)"/>
      <use xlink:href="#CMMI12-73" transform="translate(157.85055 0) scale(0.996264)"/>
      <use xlink:href="#CMR17-29" transform="translate(203.800598 0) scale(0.996264)"/>
     </g>
    </g>
   </g>
   <g id="line2d_12">
    <path d="M 116.071343 212.054041 
L 120.636797 213.120021 
L 125.202252 208.955216 
L 129.767706 221.841619 
L 134.333161 225.468851 
L 138.898615 213.871387 
L 143.46407 219.51441 
L 148.029525 213.031989 
L 152.594979 217.792344 
L 157.160434 217.80897 
L 161.725888 211.771826 
L 166.291343 221.84844 
L 170.856797 209.923786 
L 175.422252 213.723885 
L 179.987706 214.034023 
L 184.553161 210.917507 
L 189.118615 210.494184 
L 193.68407 214.14337 
L 198.249525 204.54827 
L 202.814979 209.6064 
L 207.380434 204.846684 
L 211.945888 206.548501 
L 216.511343 201.790278 
L 221.076797 210.836295 
L 225.642252 210.724177 
L 230.207706 221.559404 
L 234.773161 232.15185 
L 239.338615 245.829052 
L 243.90407 268.014272 
L 248.469525 279.063932 
L 253.034979 309.147765 
L 257.600434 305.217855 
L 262.165888 337.502391 
L 266.731343 320.374129 
L 271.296797 332.255193 
L 275.862252 317.256121 
L 280.427706 315.180539 
L 284.993161 304.452848 
L 289.558615 288.457176 
L 294.12407 275.248699 
L 298.689525 280.070549 
L 303.254979 246.810623 
L 307.820434 288.236349 
L 312.385888 234.421507 
L 316.951343 279.99019 
L 321.516797 243.76967 
L 326.082252 260.729647 
L 330.647706 243.703486 
L 335.213161 242.457497 
L 339.778615 271.179067 
L 344.34407 232.662139 
L 348.909525 258.914753 
L 353.474979 227.065157 
L 358.040434 241.039175 
L 362.605888 228.074012 
L 367.171343 210.537241 
L 371.736797 236.018772 
L 376.302252 213.877675 
L 380.867706 192.768133 
L 385.433161 217.478582 
L 389.998615 211.428862 
L 394.56407 178.281481 
L 399.129525 193.378818 
L 403.694979 203.719955 
L 408.260434 188.086964 
L 412.825888 181.518536 
L 417.391343 177.731172 
L 421.956797 193.815409 
L 426.522252 185.286555 
L 431.087706 161.569454 
L 435.653161 165.860606 
L 440.218615 187.738832 
L 444.78407 186.183505 
L 449.349525 169.017567 
L 453.914979 155.363599 
L 458.480434 173.406023 
L 463.045888 184.668144 
L 467.611343 180.745801 
L 472.176797 175.223422 
L 476.742252 165.266174 
L 481.307706 163.421944 
L 485.873161 173.867927 
L 490.438615 189.335804 
L 495.00407 195.955763 
L 499.569525 193.793774 
L 504.134979 185.987323 
L 508.700434 179.64156 
L 513.265888 179.376584 
L 517.831343 183.272948 
L 522.396797 189.932154 
L 526.962252 194.588903 
L 531.527706 195.766722 
L 536.093161 194.172308 
L 540.658615 190.899577 
L 545.22407 187.366286 
L 549.789525 184.70815 
L 554.354979 183.291586 
L 558.920434 182.971795 
L 563.485888 183.448836 
L 568.051343 184.437788 
L 572.616797 185.75784 
" clip-path="url(#pa6973f5cb1)" style="fill: none; stroke: #0d0887; stroke-width: 2; stroke-linecap: square"/>
   </g>
   <g id="line2d_13">
    <path d="M 116.071343 212.054041 
L 120.636797 211.60919 
L 125.202252 205.573111 
L 129.767706 217.294204 
L 134.333161 214.08923 
L 138.898615 211.307791 
L 143.46407 211.237876 
L 148.029525 212.533849 
L 152.594979 209.424367 
L 157.160434 211.403923 
L 161.725888 212.198132 
L 166.291343 210.784925 
L 170.856797 204.622234 
L 175.422252 215.264557 
L 179.987706 201.133765 
L 184.553161 211.124479 
L 189.118615 206.686198 
L 193.68407 200.822987 
L 198.249525 210.604811 
L 202.814979 194.315627 
L 207.380434 207.899681 
L 211.945888 195.555967 
L 216.511343 210.673446 
L 221.076797 197.124989 
L 225.642252 212.769384 
L 230.207706 216.111416 
L 234.773161 227.948678 
L 239.338615 243.904916 
L 243.90407 256.627617 
L 248.469525 283.735402 
L 253.034979 296.172477 
L 257.600434 313.48565 
L 262.165888 323.131588 
L 266.731343 332.499574 
L 271.296797 325.422028 
L 275.862252 331.463755 
L 280.427706 309.0187 
L 284.993161 319.05343 
L 289.558615 294.525547 
L 294.12407 293.99714 
L 298.689525 281.138341 
L 303.254979 268.245224 
L 307.820434 277.315434 
L 312.385888 254.802917 
L 316.951343 277.569833 
L 321.516797 274.548383 
L 326.082252 249.725709 
L 330.647706 291.961418 
L 335.213161 239.100225 
L 339.778615 270.921684 
L 344.34407 272.188455 
L 348.909525 230.936982 
L 353.474979 291.617708 
L 358.040434 237.211899 
L 362.605888 236.781435 
L 367.171343 252.129547 
L 371.736797 237.210513 
L 376.302252 233.120099 
L 380.867706 230.443745 
L 385.433161 220.405391 
L 389.998615 222.908345 
L 394.56407 229.16557 
L 399.129525 213.072914 
L 403.694979 218.189981 
L 408.260434 227.403644 
L 412.825888 214.873581 
L 417.391343 216.73814 
L 421.956797 206.56161 
L 426.522252 204.09809 
L 431.087706 208.708065 
L 435.653161 202.891215 
L 440.218615 200.3735 
L 444.78407 187.727908 
L 449.349525 195.408518 
L 453.914979 216.127722 
L 458.480434 213.874531 
L 463.045888 192.999245 
L 467.611343 189.489674 
L 472.176797 190.542545 
L 476.742252 192.743567 
L 481.307706 197.936624 
L 485.873161 207.758893 
L 490.438615 208.977251 
L 495.00407 200.396068 
L 499.569525 194.187921 
L 504.134979 195.786306 
L 508.700434 201.033903 
L 513.265888 204.232057 
L 517.831343 204.951689 
L 522.396797 203.541146 
L 526.962252 201.538956 
L 531.527706 200.70522 
L 536.093161 201.619249 
L 540.658615 203.601442 
L 545.22407 205.716903 
L 549.789525 207.760238 
L 554.354979 209.57444 
L 558.920434 211.088915 
L 563.485888 212.244477 
L 568.051343 213.032345 
L 572.616797 213.578597 
" clip-path="url(#pa6973f5cb1)" style="fill: none; stroke: #46039f; stroke-width: 2; stroke-linecap: square"/>
   </g>
   <g id="line2d_14">
    <path d="M 116.071343 212.054041 
L 120.636797 208.790449 
L 125.202252 206.827093 
L 129.767706 214.530031 
L 134.333161 216.712509 
L 138.898615 210.785565 
L 143.46407 209.096111 
L 148.029525 210.354995 
L 152.594979 207.355074 
L 157.160434 209.30223 
L 161.725888 208.579853 
L 166.291343 206.125605 
L 170.856797 208.43363 
L 175.422252 205.733829 
L 179.987706 207.06753 
L 184.553161 205.303046 
L 189.118615 203.712921 
L 193.68407 206.607118 
L 198.249525 201.115221 
L 202.814979 205.18773 
L 207.380434 200.589158 
L 211.945888 206.139247 
L 216.511343 204.525249 
L 221.076797 208.440664 
L 225.642252 214.728263 
L 230.207706 223.405526 
L 234.773161 237.967527 
L 239.338615 247.932023 
L 243.90407 276.177408 
L 248.469525 288.665427 
L 253.034979 316.520528 
L 257.600434 321.99175 
L 262.165888 343.668173 
L 266.731343 340.591836 
L 271.296797 349.946287 
L 275.862252 333.054519 
L 280.427706 339.921789 
L 284.993161 318.965185 
L 289.558615 321.761757 
L 294.12407 304.049135 
L 298.689525 303.460405 
L 303.254979 296.170026 
L 307.820434 282.933092 
L 312.385888 305.943749 
L 316.951343 281.304813 
L 321.516797 310.083082 
L 326.082252 286.137001 
L 330.647706 290.551622 
L 335.213161 296.378277 
L 339.778615 290.731736 
L 344.34407 299.840634 
L 348.909525 284.869058 
L 353.474979 287.31542 
L 358.040434 281.432173 
L 362.605888 284.226507 
L 367.171343 271.461602 
L 371.736797 270.340202 
L 376.302252 275.206814 
L 380.867706 265.902241 
L 385.433161 267.118814 
L 389.998615 258.602057 
L 394.56407 256.461677 
L 399.129525 262.541984 
L 403.694979 254.811976 
L 408.260434 249.038502 
L 412.825888 246.282802 
L 417.391343 248.351136 
L 421.956797 243.529499 
L 426.522252 238.781454 
L 431.087706 234.057441 
L 435.653161 234.350207 
L 440.218615 230.61965 
L 444.78407 232.36852 
L 449.349525 230.036036 
L 453.914979 225.48958 
L 458.480434 224.454507 
L 463.045888 224.458344 
L 467.611343 225.037748 
L 472.176797 222.723062 
L 476.742252 221.37476 
L 481.307706 221.050287 
L 485.873161 217.20063 
L 490.438615 215.017779 
L 495.00407 214.987032 
L 499.569525 213.128307 
L 504.134979 212.222565 
L 508.700434 213.309461 
L 513.265888 214.245071 
L 517.831343 213.496636 
L 522.396797 212.529533 
L 526.962252 212.01931 
L 531.527706 212.307001 
L 536.093161 213.193026 
L 540.658615 214.684487 
L 545.22407 216.374707 
L 549.789525 217.605128 
L 554.354979 218.191727 
L 558.920434 218.260862 
L 563.485888 218.092207 
L 568.051343 217.958214 
L 572.616797 217.933561 
" clip-path="url(#pa6973f5cb1)" style="fill: none; stroke: #7201a8; stroke-width: 2; stroke-linecap: square"/>
   </g>
   <g id="line2d_15">
    <path d="M 116.071343 212.054041 
L 120.636797 208.881892 
L 125.202252 203.896447 
L 129.767706 213.534818 
L 134.333161 213.235337 
L 138.898615 211.474477 
L 143.46407 210.622289 
L 148.029525 208.184454 
L 152.594979 210.279112 
L 157.160434 209.389197 
L 161.725888 209.12915 
L 166.291343 206.444056 
L 170.856797 209.732374 
L 175.422252 207.533696 
L 179.987706 204.796167 
L 184.553161 208.046543 
L 189.118615 205.498294 
L 193.68407 206.082122 
L 198.249525 202.496242 
L 202.814979 208.426809 
L 207.380434 202.354921 
L 211.945888 207.206293 
L 216.511343 203.871721 
L 221.076797 213.40991 
L 225.642252 210.180635 
L 230.207706 223.966545 
L 234.773161 229.024037 
L 239.338615 249.84678 
L 243.90407 257.757969 
L 248.469525 282.841223 
L 253.034979 289.188719 
L 257.600434 309.848826 
L 262.165888 302.25822 
L 266.731343 314.46477 
L 271.296797 300.122423 
L 275.862252 304.358954 
L 280.427706 290.896717 
L 284.993161 293.983818 
L 289.558615 287.826562 
L 294.12407 290.189261 
L 298.689525 283.890258 
L 303.254979 288.011046 
L 307.820434 286.183149 
L 312.385888 289.59339 
L 316.951343 291.618241 
L 321.516797 288.49565 
L 326.082252 292.05819 
L 330.647706 286.04428 
L 335.213161 293.51552 
L 339.778615 290.572937 
L 344.34407 292.03016 
L 348.909525 288.658713 
L 353.474979 280.571779 
L 358.040434 285.445105 
L 362.605888 282.677415 
L 367.171343 269.708948 
L 371.736797 272.667837 
L 376.302252 274.494029 
L 380.867706 263.027228 
L 385.433161 266.88296 
L 389.998615 261.482825 
L 394.56407 258.524575 
L 399.129525 263.494247 
L 403.694979 253.198404 
L 408.260434 248.779841 
L 412.825888 255.059021 
L 417.391343 245.011875 
L 421.956797 236.529648 
L 426.522252 244.063182 
L 431.087706 244.216653 
L 435.653161 237.263961 
L 440.218615 229.62385 
L 444.78407 235.036561 
L 449.349525 236.753299 
L 453.914979 232.340597 
L 458.480434 226.296685 
L 463.045888 224.409212 
L 467.611343 224.959414 
L 472.176797 226.205136 
L 476.742252 226.586041 
L 481.307706 226.590064 
L 485.873161 222.56357 
L 490.438615 217.944802 
L 495.00407 217.527501 
L 499.569525 218.53084 
L 504.134979 218.961437 
L 508.700434 217.719339 
L 513.265888 215.745405 
L 517.831343 214.004181 
L 522.396797 213.344605 
L 526.962252 214.150231 
L 531.527706 215.474167 
L 536.093161 216.547181 
L 540.658615 217.369128 
L 545.22407 217.741287 
L 549.789525 217.766379 
L 554.354979 217.658257 
L 558.920434 217.551087 
L 563.485888 217.46535 
L 568.051343 217.386243 
L 572.616797 217.254348 
" clip-path="url(#pa6973f5cb1)" style="fill: none; stroke: #9c179e; stroke-width: 2; stroke-linecap: square"/>
   </g>
   <g id="line2d_16">
    <path d="M 116.071343 212.054041 
L 120.636797 207.519415 
L 125.202252 202.758847 
L 129.767706 210.599482 
L 134.333161 213.943859 
L 138.898615 212.240337 
L 143.46407 212.064059 
L 148.029525 211.148565 
L 152.594979 210.918146 
L 157.160434 212.222219 
L 161.725888 211.958974 
L 166.291343 209.323332 
L 170.856797 212.610371 
L 175.422252 210.629536 
L 179.987706 210.885107 
L 184.553161 208.672149 
L 189.118615 211.220185 
L 193.68407 208.632289 
L 198.249525 209.595956 
L 202.814979 208.417644 
L 207.380434 209.678659 
L 211.945888 207.40751 
L 216.511343 208.324069 
L 221.076797 210.390805 
L 225.642252 213.24365 
L 230.207706 213.263473 
L 234.773161 218.064328 
L 239.338615 225.861266 
L 243.90407 230.210448 
L 248.469525 232.472432 
L 253.034979 230.717967 
L 257.600434 235.676128 
L 262.165888 226.214888 
L 266.731343 224.374095 
L 271.296797 217.673191 
L 275.862252 221.812204 
L 280.427706 222.223697 
L 284.993161 225.735612 
L 289.558615 236.047868 
L 294.12407 243.691975 
L 298.689525 247.588207 
L 303.254979 251.252207 
L 307.820434 244.877215 
L 312.385888 254.163243 
L 316.951343 261.182598 
L 321.516797 259.38337 
L 326.082252 267.80325 
L 330.647706 267.190008 
L 335.213161 275.12443 
L 339.778615 278.455379 
L 344.34407 278.075219 
L 348.909525 276.307112 
L 353.474979 278.423512 
L 358.040434 277.867608 
L 362.605888 272.086781 
L 367.171343 277.234329 
L 371.736797 266.82786 
L 376.302252 267.832772 
L 380.867706 269.343603 
L 385.433161 263.189544 
L 389.998615 258.572428 
L 394.56407 259.542809 
L 399.129525 260.316236 
L 403.694979 257.125117 
L 408.260434 249.503657 
L 412.825888 253.353207 
L 417.391343 249.571972 
L 421.956797 241.185291 
L 426.522252 240.726265 
L 431.087706 244.217878 
L 435.653161 238.818756 
L 440.218615 235.373823 
L 444.78407 235.631259 
L 449.349525 236.327312 
L 453.914979 233.311511 
L 458.480434 225.844054 
L 463.045888 228.3728 
L 467.611343 229.175855 
L 472.176797 228.568581 
L 476.742252 230.628815 
L 481.307706 227.516376 
L 485.873161 223.179503 
L 490.438615 220.661122 
L 495.00407 221.150869 
L 499.569525 221.316516 
L 504.134979 220.105538 
L 508.700434 218.462871 
L 513.265888 218.201145 
L 517.831343 218.577734 
L 522.396797 218.386402 
L 526.962252 218.148004 
L 531.527706 217.97419 
L 536.093161 217.391189 
L 540.658615 216.854948 
L 545.22407 216.849693 
L 549.789525 217.097131 
L 554.354979 217.26014 
L 558.920434 217.208497 
L 563.485888 216.977788 
L 568.051343 216.704898 
L 572.616797 216.448308 
" clip-path="url(#pa6973f5cb1)" style="fill: none; stroke: #bd3786; stroke-width: 2; stroke-linecap: square"/>
   </g>
   <g id="line2d_17">
    <path d="M 116.071343 212.054041 
L 120.636797 215.209777 
L 125.202252 219.707527 
L 129.767706 209.372145 
L 134.333161 206.688756 
L 138.898615 213.520749 
L 143.46407 212.465427 
L 148.029525 211.79378 
L 152.594979 212.909852 
L 157.160434 213.544196 
L 161.725888 212.504221 
L 166.291343 211.604074 
L 170.856797 215.29312 
L 175.422252 211.931051 
L 179.987706 213.478758 
L 184.553161 212.816491 
L 189.118615 214.634263 
L 193.68407 212.691583 
L 198.249525 213.757989 
L 202.814979 214.782831 
L 207.380434 213.374526 
L 211.945888 213.415452 
L 216.511343 213.181409 
L 221.076797 213.323156 
L 225.642252 211.813391 
L 230.207706 208.622058 
L 234.773161 209.472327 
L 239.338615 203.332016 
L 243.90407 198.385152 
L 248.469525 190.068119 
L 253.034979 181.152977 
L 257.600434 173.954787 
L 262.165888 160.287816 
L 266.731343 160.465373 
L 271.296797 160.704531 
L 275.862252 161.709336 
L 280.427706 173.031193 
L 284.993161 171.690138 
L 289.558615 191.291939 
L 294.12407 197.527423 
L 298.689525 201.285104 
L 303.254979 222.359795 
L 307.820434 203.347257 
L 312.385888 223.028884 
L 316.951343 218.982486 
L 321.516797 224.381662 
L 326.082252 244.633154 
L 330.647706 238.002485 
L 335.213161 242.913219 
L 339.778615 247.997994 
L 344.34407 252.092565 
L 348.909525 257.890977 
L 353.474979 262.603372 
L 358.040434 255.534246 
L 362.605888 253.852572 
L 367.171343 267.734508 
L 371.736797 258.042529 
L 376.302252 254.277494 
L 380.867706 271.285857 
L 385.433161 258.64554 
L 389.998615 259.216365 
L 394.56407 262.817911 
L 399.129525 253.539237 
L 403.694979 254.983138 
L 408.260434 252.747052 
L 412.825888 247.753933 
L 417.391343 249.552415 
L 421.956797 244.802824 
L 426.522252 241.934472 
L 431.087706 241.749828 
L 435.653161 240.228019 
L 440.218615 236.190734 
L 444.78407 233.303731 
L 449.349525 232.9062 
L 453.914979 232.999134 
L 458.480434 230.378893 
L 463.045888 230.077494 
L 467.611343 228.475966 
L 472.176797 229.404142 
L 476.742252 229.157337 
L 481.307706 227.511953 
L 485.873161 224.157051 
L 490.438615 220.900094 
L 495.00407 219.643768 
L 499.569525 220.818509 
L 504.134979 221.771572 
L 508.700434 220.497127 
L 513.265888 219.871575 
L 517.831343 220.038981 
L 522.396797 218.884249 
L 526.962252 217.573848 
L 531.527706 216.986597 
L 536.093161 217.166365 
L 540.658615 217.299027 
L 545.22407 217.108354 
L 549.789525 216.768368 
L 554.354979 216.454233 
L 558.920434 216.250212 
L 563.485888 216.091203 
L 568.051343 215.863662 
L 572.616797 215.552504 
" clip-path="url(#pa6973f5cb1)" style="fill: none; stroke: #d8576b; stroke-width: 2; stroke-linecap: square"/>
   </g>
   <g id="line2d_18">
    <path d="M 116.071343 212.054041 
L 120.636797 214.451803 
L 125.202252 219.984627 
L 129.767706 207.409215 
L 134.333161 204.429543 
L 138.898615 212.831624 
L 143.46407 210.862513 
L 148.029525 212.9787 
L 152.594979 213.996081 
L 157.160434 212.439422 
L 161.725888 213.890997 
L 166.291343 214.429636 
L 170.856797 216.762386 
L 175.422252 214.082409 
L 179.987706 218.025747 
L 184.553161 217.97395 
L 189.118615 218.993463 
L 193.68407 218.798428 
L 198.249525 221.779591 
L 202.814979 222.177123 
L 207.380434 221.799841 
L 211.945888 222.555257 
L 216.511343 221.548533 
L 221.076797 219.157591 
L 225.642252 212.999376 
L 230.207706 204.587064 
L 234.773161 192.923096 
L 239.338615 176.773954 
L 243.90407 156.124291 
L 248.469525 135.511716 
L 253.034979 113.925457 
L 257.600434 100.930133 
L 262.165888 88.995886 
L 266.731343 88.526096 
L 271.296797 90.762715 
L 275.862252 95.466158 
L 280.427706 103.525915 
L 284.993161 112.012405 
L 289.558615 117.738771 
L 294.12407 124.657412 
L 298.689525 127.946049 
L 303.254979 138.302214 
L 307.820434 135.833684 
L 312.385888 143.947689 
L 316.951343 132.479396 
L 321.516797 140.457195 
L 326.082252 144.27829 
L 330.647706 141.361925 
L 335.213161 151.663949 
L 339.778615 134.284912 
L 344.34407 145.606022 
L 348.909525 158.938981 
L 353.474979 149.337593 
L 358.040434 163.612157 
L 362.605888 172.634088 
L 367.171343 187.805176 
L 371.736797 186.973131 
L 376.302252 192.100856 
L 380.867706 207.11517 
L 385.433161 210.876901 
L 389.998615 215.069629 
L 394.56407 221.572087 
L 399.129525 216.550832 
L 403.694979 216.680749 
L 408.260434 225.684455 
L 412.825888 225.830412 
L 417.391343 223.867429 
L 421.956797 229.563528 
L 426.522252 230.647946 
L 431.087706 231.676784 
L 435.653161 231.381407 
L 440.218615 227.707015 
L 444.78407 224.906659 
L 449.349525 224.213164 
L 453.914979 224.18199 
L 458.480434 222.524936 
L 463.045888 223.122618 
L 467.611343 221.123239 
L 472.176797 221.092278 
L 476.742252 223.333107 
L 481.307706 223.204389 
L 485.873161 220.006155 
L 490.438615 216.62818 
L 495.00407 216.778879 
L 499.569525 219.254843 
L 504.134979 220.855438 
L 508.700434 219.781385 
L 513.265888 218.981713 
L 517.831343 219.023571 
L 522.396797 219.117119 
L 526.962252 218.890337 
L 531.527706 218.301008 
L 536.093161 217.827487 
L 540.658615 217.550708 
L 545.22407 217.316525 
L 549.789525 216.979257 
L 554.354979 216.567764 
L 558.920434 216.168175 
L 563.485888 215.831023 
L 568.051343 215.483503 
L 572.616797 215.094065 
" clip-path="url(#pa6973f5cb1)" style="fill: none; stroke: #ed7953; stroke-width: 2; stroke-linecap: square"/>
   </g>
   <g id="line2d_19">
    <path d="M 116.071343 212.054041 
L 120.636797 214.451803 
L 125.202252 220.39111 
L 129.767706 208.458356 
L 134.333161 207.733847 
L 138.898615 211.546736 
L 143.46407 210.943725 
L 148.029525 214.109479 
L 152.594979 213.334027 
L 157.160434 211.406054 
L 161.725888 214.696717 
L 166.291343 214.841661 
L 170.856797 215.970948 
L 175.422252 214.276591 
L 179.987706 219.488619 
L 184.553161 217.323193 
L 189.118615 218.748337 
L 193.68407 220.015747 
L 198.249525 222.670573 
L 202.814979 223.037836 
L 207.380434 223.284241 
L 211.945888 224.811912 
L 216.511343 222.147494 
L 221.076797 218.114845 
L 225.642252 211.213577 
L 230.207706 199.932859 
L 234.773161 182.667432 
L 239.338615 160.53955 
L 243.90407 136.771027 
L 248.469525 113.385326 
L 253.034979 91.138078 
L 257.600434 78.838061 
L 262.165888 67.927377 
L 266.731343 68.95776 
L 271.296797 71.092066 
L 275.862252 77.376468 
L 280.427706 83.62847 
L 284.993161 88.747776 
L 289.558615 93.926764 
L 294.12407 97.4941 
L 298.689525 100.323925 
L 303.254979 107.438559 
L 307.820434 104.377143 
L 312.385888 110.76226 
L 316.951343 92.97578 
L 321.516797 95.798891 
L 326.082252 94.456451 
L 330.647706 88.942811 
L 335.213161 97.05106 
L 339.778615 76.675939 
L 344.34407 84.149204 
L 348.909525 93.58476 
L 353.474979 84.003834 
L 358.040434 101.842429 
L 362.605888 108.933297 
L 367.171343 107.780244 
L 371.736797 113.682462 
L 376.302252 123.140399 
L 380.867706 130.088028 
L 385.433161 128.807508 
L 389.998615 138.219084 
L 394.56407 148.42487 
L 399.129525 150.652536 
L 403.694979 152.651808 
L 408.260434 161.15194 
L 412.825888 168.854345 
L 417.391343 175.628627 
L 421.956797 181.772614 
L 426.522252 185.854609 
L 431.087706 195.025694 
L 435.653161 201.150178 
L 440.218615 201.751377 
L 444.78407 205.347861 
L 449.349525 208.823967 
L 453.914979 209.566647 
L 458.480434 208.798069 
L 463.045888 211.461847 
L 467.611343 214.359774 
L 472.176797 215.370655 
L 476.742252 216.213463 
L 481.307706 216.321399 
L 485.873161 214.38871 
L 490.438615 212.966977 
L 495.00407 213.82055 
L 499.569525 215.792698 
L 504.134979 218.002087 
L 508.700434 218.697713 
L 513.265888 219.480252 
L 517.831343 219.704303 
L 522.396797 219.235659 
L 526.962252 218.509272 
L 531.527706 217.735778 
L 536.093161 217.201376 
L 540.658615 216.855748 
L 545.22407 216.612826 
L 549.789525 216.281739 
L 554.354979 215.911598 
L 558.920434 215.57718 
L 563.485888 215.278263 
L 568.051343 214.9414 
L 572.616797 214.550843 
" clip-path="url(#pa6973f5cb1)" style="fill: none; stroke: #fb9f3a; stroke-width: 2; stroke-linecap: square"/>
   </g>
   <g id="line2d_20">
    <path d="M 116.071343 212.054041 
L 120.636797 214.451803 
L 125.202252 220.39111 
L 129.767706 205.444793 
L 134.333161 206.182517 
L 138.898615 210.905144 
L 143.46407 211.679317 
L 148.029525 214.348637 
L 152.594979 212.472887 
L 157.160434 210.967385 
L 161.725888 213.754366 
L 166.291343 213.083359 
L 170.856797 215.136665 
L 175.422252 215.311664 
L 179.987706 219.575585 
L 184.553161 216.307943 
L 189.118615 218.498308 
L 193.68407 220.69123 
L 198.249525 221.916223 
L 202.814979 222.532449 
L 207.380434 224.65631 
L 211.945888 224.84559 
L 216.511343 222.423741 
L 221.076797 217.687046 
L 225.642252 210.813275 
L 230.207706 197.03653 
L 234.773161 178.266667 
L 239.338615 154.465531 
L 243.90407 128.417544 
L 248.469525 102.741724 
L 253.034979 80.52112 
L 257.600434 68.541685 
L 262.165888 58.498109 
L 266.731343 58.229749 
L 271.296797 60.50772 
L 275.862252 65.98896 
L 280.427706 71.058387 
L 284.993161 73.843876 
L 289.558615 76.909235 
L 294.12407 81.630157 
L 298.689525 82.782571 
L 303.254979 89.89582 
L 307.820434 85.381764 
L 312.385888 91.821342 
L 316.951343 72.38175 
L 321.516797 71.566865 
L 326.082252 68.663289 
L 330.647706 60.726202 
L 335.213161 70.281656 
L 339.778615 47.665866 
L 344.34407 51.839623 
L 348.909525 58.384818 
L 353.474979 47.546287 
L 358.040434 64.499977 
L 362.605888 69.218021 
L 367.171343 64.09328 
L 371.736797 66.720396 
L 376.302252 74.433778 
L 380.867706 78.509911 
L 385.433161 75.07878 
L 389.998615 82.986133 
L 394.56407 93.69464 
L 399.129525 94.938604 
L 403.694979 97.123213 
L 408.260434 106.088872 
L 412.825888 114.958718 
L 417.391343 122.031521 
L 421.956797 130.724077 
L 426.522252 137.091929 
L 431.087706 147.262544 
L 435.653161 156.540046 
L 440.218615 159.105667 
L 444.78407 167.978818 
L 449.349525 174.997746 
L 453.914979 179.103028 
L 458.480434 182.906964 
L 463.045888 188.915012 
L 467.611343 195.116977 
L 472.176797 199.354787 
L 476.742252 203.181264 
L 481.307706 204.93144 
L 485.873161 205.362409 
L 490.438615 206.052467 
L 495.00407 208.22418 
L 499.569525 211.661252 
L 504.134979 214.792156 
L 508.700434 219.34077 
L 513.265888 218.350513 
L 517.831343 215.414564 
L 522.396797 213.513715 
L 526.962252 213.0656 
L 531.527706 213.233792 
L 536.093161 213.366266 
L 540.658615 213.369357 
L 545.22407 213.39794 
L 549.789525 213.518072 
L 554.354979 213.574637 
L 558.920434 213.407678 
L 563.485888 213.055312 
L 568.051343 212.676405 
L 572.616797 212.314384 
" clip-path="url(#pa6973f5cb1)" style="fill: none; stroke: #fdca26; stroke-width: 2; stroke-linecap: square"/>
   </g>
   <g id="patch_3">
    <path d="M 93.24407 365.066287 
L 93.24407 32.426287 
" style="fill: none; stroke: #000000; stroke-width: 0.8; stroke-linejoin: miter; stroke-linecap: square"/>
   </g>
   <g id="patch_4">
    <path d="M 595.44407 365.066287 
L 595.44407 32.426287 
" style="fill: none; stroke: #000000; stroke-width: 0.8; stroke-linejoin: miter; stroke-linecap: square"/>
   </g>
   <g id="patch_5">
    <path d="M 93.24407 365.066287 
L 595.44407 365.066287 
" style="fill: none; stroke: #000000; stroke-width: 0.8; stroke-linejoin: miter; stroke-linecap: square"/>
   </g>
   <g id="patch_6">
    <path d="M 93.24407 32.426287 
L 595.44407 32.426287 
" style="fill: none; stroke: #000000; stroke-width: 0.8; stroke-linejoin: miter; stroke-linecap: square"/>
   </g>
   <g id="text_14">
    <!-- deviation from mean ($N = 21$, $P = 100$) -->
    <g transform="translate(120.409198 26.426287) scale(0.264 -0.264)">
     <defs>
      <path id="NimbusSanL-Regu-64" d="M 3168 4672 
L 2637 4672 
L 2637 2937 
C 2413 3276 2054 3456 1606 3456 
C 736 3456 166 2761 166 1695 
C 166 566 723 -128 1626 -128 
C 2086 -128 2406 45 2694 461 
L 2694 -2 
L 3168 -2 
L 3168 4672 
z
M 1696 2956 
C 2272 2956 2637 2447 2637 1651 
C 2637 881 2266 372 1702 372 
C 1114 372 723 887 723 1664 
C 723 2440 1114 2956 1696 2956 
z
" transform="scale(0.015625)"/>
      <path id="NimbusSanL-Regu-65" d="M 3283 1529 
C 3283 2034 3245 2338 3149 2584 
C 2931 3127 2419 3456 1792 3456 
C 858 3456 256 2742 256 1645 
C 256 547 838 -128 1779 -128 
C 2547 -128 3078 310 3213 1044 
L 2675 1044 
C 2528 598 2227 365 1798 365 
C 1459 365 1171 520 992 805 
C 864 998 819 1193 813 1529 
L 3283 1529 
z
M 826 1984 
C 870 2577 1248 2962 1786 2962 
C 2310 2962 2714 2530 2714 1984 
C 2714 1984 2714 1984 2707 1984 
L 826 1984 
z
" transform="scale(0.015625)"/>
      <path id="NimbusSanL-Regu-76" d="M 1824 0 
L 3110 3360 
L 2509 3360 
L 1562 635 
L 666 3360 
L 64 3360 
L 1242 0 
L 1824 0 
z
" transform="scale(0.015625)"/>
      <path id="NimbusSanL-Regu-69" d="M 960 3359 
L 429 3359 
L 429 0 
L 960 0 
L 960 3359 
z
M 960 4672 
L 422 4672 
L 422 3999 
L 960 3999 
L 960 4672 
z
" transform="scale(0.015625)"/>
      <path id="NimbusSanL-Regu-61" d="M 3424 333 
C 3366 320 3341 320 3309 320 
C 3123 320 3021 415 3021 581 
L 3021 2545 
C 3021 3137 2586 3456 1760 3456 
C 1274 3456 870 3316 646 3066 
C 493 2893 429 2702 416 2370 
L 954 2370 
C 998 2777 1242 2962 1741 2962 
C 2221 2962 2490 2783 2490 2465 
L 2490 2325 
C 2490 2101 2355 2006 1933 1955 
C 1178 1860 1062 1834 858 1751 
C 467 1592 269 1292 269 859 
C 269 254 691 -128 1370 -128 
C 1792 -128 2131 19 2509 365 
C 2547 25 2714 -128 3059 -128 
C 3168 -128 3251 -116 3424 -70 
L 3424 333 
z
M 2490 1072 
C 2490 893 2438 785 2278 639 
C 2061 441 1798 340 1485 340 
C 1069 340 826 537 826 874 
C 826 1225 1062 1403 1632 1486 
C 2195 1562 2310 1588 2490 1670 
L 2490 1072 
z
" transform="scale(0.015625)"/>
      <path id="NimbusSanL-Regu-74" d="M 1626 3380 
L 1075 3380 
L 1075 4288 
L 544 4288 
L 544 3380 
L 90 3380 
L 90 2944 
L 544 2944 
L 544 404 
C 544 64 774 -128 1190 -128 
C 1318 -128 1446 -116 1626 -83 
L 1626 366 
C 1555 346 1472 340 1370 340 
C 1139 340 1075 404 1075 641 
L 1075 2944 
L 1626 2944 
L 1626 3380 
z
" transform="scale(0.015625)"/>
      <path id="NimbusSanL-Regu-6f" d="M 1741 3456 
C 800 3456 230 2786 230 1663 
C 230 541 794 -128 1747 -128 
C 2688 -128 3264 541 3264 1638 
C 3264 2792 2707 3456 1741 3456 
z
M 1747 2962 
C 2349 2962 2707 2472 2707 1645 
C 2707 861 2336 365 1747 365 
C 1152 365 787 855 787 1663 
C 787 2466 1152 2962 1747 2962 
z
" transform="scale(0.015625)"/>
      <path id="NimbusSanL-Regu-6e" d="M 448 3359 
L 448 0 
L 986 0 
L 986 1853 
C 986 2539 1344 2988 1894 2988 
C 2317 2988 2586 2731 2586 2327 
L 2586 0 
L 3117 0 
L 3117 2539 
C 3117 3097 2701 3456 2054 3456 
C 1555 3456 1235 3263 941 2796 
L 941 3359 
L 448 3359 
z
" transform="scale(0.015625)"/>
      <path id="NimbusSanL-Regu-66" d="M 1651 3328 
L 1094 3328 
L 1094 3856 
C 1094 4082 1222 4198 1466 4198 
C 1510 4198 1530 4198 1651 4198 
L 1651 4640 
C 1530 4666 1459 4672 1350 4672 
C 858 4672 563 4388 563 3903 
L 563 3328 
L 115 3328 
L 115 2892 
L 563 2892 
L 563 -26 
L 1094 -26 
L 1094 2892 
L 1651 2892 
L 1651 3328 
z
" transform="scale(0.015625)"/>
      <path id="NimbusSanL-Regu-72" d="M 442 3359 
L 442 0 
L 979 0 
L 979 1741 
C 979 2221 1101 2535 1357 2720 
C 1523 2842 1683 2880 2054 2880 
L 2054 3432 
C 1965 3444 1920 3444 1850 3444 
C 1504 3444 1242 3240 934 2746 
L 934 3359 
L 442 3359 
z
" transform="scale(0.015625)"/>
      <path id="NimbusSanL-Regu-6d" d="M 448 3359 
L 448 0 
L 986 0 
L 986 2109 
C 986 2597 1338 2988 1773 2988 
C 2170 2988 2394 2744 2394 2314 
L 2394 0 
L 2931 0 
L 2931 2109 
C 2931 2597 3283 2988 3718 2988 
C 4109 2988 4339 2738 4339 2314 
L 4339 0 
L 4877 0 
L 4877 2520 
C 4877 3122 4531 3456 3904 3456 
C 3456 3456 3187 3321 2874 2943 
C 2675 3302 2406 3456 1971 3456 
C 1523 3456 1229 3289 941 2885 
L 941 3359 
L 448 3359 
z
" transform="scale(0.015625)"/>
      <path id="NimbusSanL-Regu-28" d="M 1510 4672 
C 870 3830 467 2660 467 1651 
C 467 636 870 -534 1510 -1376 
L 1862 -1376 
C 1299 -457 986 623 986 1651 
C 986 2673 1299 3759 1862 4672 
L 1510 4672 
z
" transform="scale(0.015625)"/>
      <path id="CMMI12-4e" d="M 4736 3698 
C 4806 3974 4909 4166 5395 4166 
C 5414 4166 5491 4166 5491 4279 
C 5491 4352 5434 4352 5408 4352 
C 5280 4352 4954 4352 4826 4352 
L 4518 4352 
C 4429 4352 4314 4352 4224 4352 
C 4186 4352 4109 4352 4109 4230 
C 4109 4166 4160 4166 4205 4166 
C 4589 4166 4614 4019 4614 3903 
C 4614 3846 4608 3826 4589 3737 
L 3866 850 
L 2496 4249 
C 2451 4352 2445 4352 2304 4352 
L 1523 4352 
C 1395 4352 1338 4352 1338 4230 
C 1338 4166 1382 4166 1504 4166 
C 1536 4166 1914 4166 1914 4115 
C 1914 4102 1901 4051 1894 4032 
L 1043 635 
C 966 320 813 186 390 186 
C 358 186 294 186 294 67 
C 294 0 358 0 378 0 
C 506 0 832 0 960 0 
L 1267 0 
C 1357 0 1466 0 1555 0 
C 1600 0 1670 0 1670 122 
C 1670 180 1606 186 1581 186 
C 1370 186 1165 224 1165 454 
C 1165 505 1178 562 1190 613 
L 2054 4032 
C 2093 3968 2093 3956 2118 3898 
L 3642 115 
C 3674 38 3686 0 3744 0 
C 3808 0 3814 19 3840 128 
L 4736 3698 
z
" transform="scale(0.015625)"/>
      <path id="CMR17-3d" d="M 4115 2017 
C 4211 2017 4307 2017 4307 2125 
C 4307 2240 4198 2240 4090 2240 
L 512 2240 
C 403 2240 294 2240 294 2125 
C 294 2017 390 2017 486 2017 
L 4115 2017 
z
M 4090 896 
C 4198 896 4307 896 4307 1011 
C 4307 1119 4211 1119 4115 1119 
L 486 1119 
C 390 1119 294 1119 294 1011 
C 294 896 403 896 512 896 
L 4090 896 
z
" transform="scale(0.015625)"/>
      <path id="NimbusSanL-Regu-2c" d="M 557 640 
L 557 -27 
L 941 -27 
L 941 -142 
C 941 -583 858 -710 557 -710 
L 557 -960 
C 1005 -960 1229 -674 1229 -126 
L 1229 640 
L 557 640 
z
" transform="scale(0.015625)"/>
      <path id="CMMI12-50" d="M 1894 2023 
L 2970 2023 
C 3853 2023 4736 2673 4736 3401 
C 4736 3898 4314 4352 3507 4352 
L 1530 4352 
C 1408 4352 1350 4352 1350 4231 
C 1350 4167 1408 4167 1504 4167 
C 1894 4167 1894 4116 1894 4046 
C 1894 4034 1894 3995 1869 3899 
L 1005 472 
C 947 249 934 185 486 185 
C 365 185 301 185 301 70 
C 301 0 358 0 397 0 
C 518 0 646 0 768 0 
L 1517 0 
C 1638 0 1773 0 1894 0 
C 1946 0 2016 0 2016 121 
C 2016 185 1958 185 1862 185 
C 1478 185 1472 230 1472 293 
C 1472 325 1478 369 1485 401 
L 1894 2023 
z
M 2355 3930 
C 2413 4167 2438 4167 2688 4167 
L 3322 4167 
C 3802 4167 4198 4013 4198 3535 
C 4198 3369 4115 2827 3821 2534 
C 3712 2419 3405 2176 2822 2176 
L 1920 2176 
L 2355 3930 
z
" transform="scale(0.015625)"/>
      <path id="NimbusSanL-Regu-29" d="M 595 -1376 
C 1235 -534 1638 636 1638 1644 
C 1638 2660 1235 3830 595 4672 
L 243 4672 
C 806 3753 1120 2673 1120 1644 
C 1120 623 806 -464 243 -1376 
L 595 -1376 
z
" transform="scale(0.015625)"/>
     </defs>
     <use xlink:href="#NimbusSanL-Regu-64" transform="scale(0.996264)"/>
     <use xlink:href="#NimbusSanL-Regu-65" transform="translate(55.391677 0) scale(0.996264)"/>
     <use xlink:href="#NimbusSanL-Regu-76" transform="translate(107.795246 0) scale(0.996264)"/>
     <use xlink:href="#NimbusSanL-Regu-69" transform="translate(157.608446 0) scale(0.996264)"/>
     <use xlink:href="#NimbusSanL-Regu-61" transform="translate(179.725231 0) scale(0.996264)"/>
     <use xlink:href="#NimbusSanL-Regu-74" transform="translate(235.116908 0) scale(0.996264)"/>
     <use xlink:href="#NimbusSanL-Regu-69" transform="translate(262.812077 0) scale(0.996264)"/>
     <use xlink:href="#NimbusSanL-Regu-6f" transform="translate(284.928862 0) scale(0.996264)"/>
     <use xlink:href="#NimbusSanL-Regu-6e" transform="translate(340.320539 0) scale(0.996264)"/>
     <use xlink:href="#NimbusSanL-Regu-66" transform="translate(423.407385 0) scale(0.996264)"/>
     <use xlink:href="#NimbusSanL-Regu-72" transform="translate(451.102555 0) scale(0.996264)"/>
     <use xlink:href="#NimbusSanL-Regu-6f" transform="translate(484.277785 0) scale(0.996264)"/>
     <use xlink:href="#NimbusSanL-Regu-6d" transform="translate(539.669462 0) scale(0.996264)"/>
     <use xlink:href="#NimbusSanL-Regu-6d" transform="translate(650.353061 0) scale(0.996264)"/>
     <use xlink:href="#NimbusSanL-Regu-65" transform="translate(733.341492 0) scale(0.996264)"/>
     <use xlink:href="#NimbusSanL-Regu-61" transform="translate(788.733169 0) scale(0.996264)"/>
     <use xlink:href="#NimbusSanL-Regu-6e" transform="translate(844.124846 0) scale(0.996264)"/>
     <use xlink:href="#NimbusSanL-Regu-28" transform="translate(927.211692 0) scale(0.996264)"/>
     <use xlink:href="#CMMI12-4e" transform="translate(960.386922 0) scale(0.996264)"/>
     <use xlink:href="#CMR17-3d" transform="translate(1076.582703 0) scale(0.996264)"/>
     <use xlink:href="#CMR17-32" transform="translate(1175.9715 0) scale(0.996264)"/>
     <use xlink:href="#CMR17-31" transform="translate(1221.661977 0) scale(0.996264)"/>
     <use xlink:href="#NimbusSanL-Regu-2c" transform="translate(1267.352455 0) scale(0.996264)"/>
     <use xlink:href="#CMMI12-50" transform="translate(1322.742794 0) scale(0.996264)"/>
     <use xlink:href="#CMR17-3d" transform="translate(1426.842623 0) scale(0.996264)"/>
     <use xlink:href="#CMR17-31" transform="translate(1526.23142 0) scale(0.996264)"/>
     <use xlink:href="#CMR17-30" transform="translate(1571.921897 0) scale(0.996264)"/>
     <use xlink:href="#CMR17-30" transform="translate(1617.612375 0) scale(0.996264)"/>
     <use xlink:href="#NimbusSanL-Regu-29" transform="translate(1663.302852 0) scale(0.996264)"/>
    </g>
   </g>
   <g id="legend_1">
    <g id="patch_7">
     <path d="M 27.600498 495.131618 
L 610.867642 495.131618 
Q 615.267642 495.131618 615.267642 490.731618 
L 615.267642 430.362287 
Q 615.267642 425.962287 610.867642 425.962287 
L 27.600498 425.962287 
Q 23.200498 425.962287 23.200498 430.362287 
L 23.200498 490.731618 
Q 23.200498 495.131618 27.600498 495.131618 
z
" style="fill: #ffffff; opacity: 0.8; stroke: #cccccc; stroke-linejoin: miter"/>
    </g>
    <g id="line2d_21">
     <path d="M 32.000498 442.678592 
L 54.000498 442.678592 
L 76.000498 442.678592 
" style="fill: none; stroke: #0d0887; stroke-width: 2; stroke-linecap: square"/>
    </g>
    <g id="text_15">
     <!-- $2$ -->
     <g transform="translate(93.600498 450.378592) scale(0.22 -0.22)">
      <use xlink:href="#CMR17-32" transform="scale(0.996264)"/>
     </g>
    </g>
    <g id="line2d_22">
     <path d="M 32.000498 473.963257 
L 54.000498 473.963257 
L 76.000498 473.963257 
" style="fill: none; stroke: #46039f; stroke-width: 2; stroke-linecap: square"/>
    </g>
    <g id="text_16">
     <!-- $4$ -->
     <g transform="translate(93.600498 481.663257) scale(0.22 -0.22)">
      <use xlink:href="#CMR17-34" transform="scale(0.996264)"/>
     </g>
    </g>
    <g id="line2d_23">
     <path d="M 147.652403 442.678592 
L 169.652403 442.678592 
L 191.652403 442.678592 
" style="fill: none; stroke: #7201a8; stroke-width: 2; stroke-linecap: square"/>
    </g>
    <g id="text_17">
     <!-- $8$ -->
     <g transform="translate(209.252403 450.378592) scale(0.22 -0.22)">
      <use xlink:href="#CMR17-38" transform="scale(0.996264)"/>
     </g>
    </g>
    <g id="line2d_24">
     <path d="M 147.652403 473.963257 
L 169.652403 473.963257 
L 191.652403 473.963257 
" style="fill: none; stroke: #9c179e; stroke-width: 2; stroke-linecap: square"/>
    </g>
    <g id="text_18">
     <!-- $10$ -->
     <g transform="translate(209.252403 481.663257) scale(0.22 -0.22)">
      <use xlink:href="#CMR17-31" transform="scale(0.996264)"/>
      <use xlink:href="#CMR17-30" transform="translate(45.690477 0) scale(0.996264)"/>
     </g>
    </g>
    <g id="line2d_25">
     <path d="M 273.356213 442.678592 
L 295.356213 442.678592 
L 317.356213 442.678592 
" style="fill: none; stroke: #bd3786; stroke-width: 2; stroke-linecap: square"/>
    </g>
    <g id="text_19">
     <!-- $15$ -->
     <g transform="translate(334.956213 450.378592) scale(0.22 -0.22)">
      <defs>
       <path id="CMR17-35" d="M 730 3692 
C 794 3666 1056 3584 1325 3584 
C 1920 3584 2246 3911 2432 4100 
C 2432 4157 2432 4192 2394 4192 
C 2387 4192 2374 4192 2323 4163 
C 2099 4058 1837 3973 1517 3973 
C 1325 3973 1037 3999 723 4139 
C 653 4171 640 4171 634 4171 
C 602 4171 595 4164 595 4037 
L 595 2203 
C 595 2089 595 2057 659 2057 
C 691 2057 704 2070 736 2114 
C 941 2401 1222 2522 1542 2522 
C 1766 2522 2246 2382 2246 1289 
C 2246 1085 2246 715 2054 421 
C 1894 159 1645 25 1370 25 
C 947 25 518 320 403 814 
C 429 807 480 795 506 795 
C 589 795 749 840 749 1038 
C 749 1210 627 1280 506 1280 
C 358 1280 262 1190 262 1011 
C 262 454 704 -128 1382 -128 
C 2042 -128 2669 440 2669 1264 
C 2669 2030 2170 2624 1549 2624 
C 1222 2624 947 2503 730 2274 
L 730 3692 
z
" transform="scale(0.015625)"/>
      </defs>
      <use xlink:href="#CMR17-31" transform="scale(0.996264)"/>
      <use xlink:href="#CMR17-35" transform="translate(45.690477 0) scale(0.996264)"/>
     </g>
    </g>
    <g id="line2d_26">
     <path d="M 273.356213 473.963257 
L 295.356213 473.963257 
L 317.356213 473.963257 
" style="fill: none; stroke: #d8576b; stroke-width: 2; stroke-linecap: square"/>
    </g>
    <g id="text_20">
     <!-- $20$ -->
     <g transform="translate(334.956213 481.663257) scale(0.22 -0.22)">
      <use xlink:href="#CMR17-32" transform="scale(0.996264)"/>
      <use xlink:href="#CMR17-30" transform="translate(45.690477 0) scale(0.996264)"/>
     </g>
    </g>
    <g id="line2d_27">
     <path d="M 399.060022 442.678592 
L 421.060022 442.678592 
L 443.060022 442.678592 
" style="fill: none; stroke: #ed7953; stroke-width: 2; stroke-linecap: square"/>
    </g>
    <g id="text_21">
     <!-- $40$ -->
     <g transform="translate(460.660022 450.378592) scale(0.22 -0.22)">
      <use xlink:href="#CMR17-34" transform="scale(0.996264)"/>
      <use xlink:href="#CMR17-30" transform="translate(45.690477 0) scale(0.996264)"/>
     </g>
    </g>
    <g id="line2d_28">
     <path d="M 399.060022 473.963257 
L 421.060022 473.963257 
L 443.060022 473.963257 
" style="fill: none; stroke: #fb9f3a; stroke-width: 2; stroke-linecap: square"/>
    </g>
    <g id="text_22">
     <!-- $60$ -->
     <g transform="translate(460.660022 481.663257) scale(0.22 -0.22)">
      <use xlink:href="#CMR17-36" transform="scale(0.996264)"/>
      <use xlink:href="#CMR17-30" transform="translate(45.690477 0) scale(0.996264)"/>
     </g>
    </g>
    <g id="line2d_29">
     <path d="M 524.763832 442.678592 
L 546.763832 442.678592 
L 568.763832 442.678592 
" style="fill: none; stroke: #fdca26; stroke-width: 2; stroke-linecap: square"/>
    </g>
    <g id="text_23">
     <!-- $80$ -->
     <g transform="translate(586.363832 450.378592) scale(0.22 -0.22)">
      <use xlink:href="#CMR17-38" transform="scale(0.996264)"/>
      <use xlink:href="#CMR17-30" transform="translate(45.690477 0) scale(0.996264)"/>
     </g>
    </g>
   </g>
  </g>
 </g>
 <defs>
  <clipPath id="pa6973f5cb1">
   <rect x="93.24407" y="32.426287" width="502.2" height="332.64"/>
  </clipPath>
 </defs>
</svg>
