<?xml version="1.0" encoding="utf-8" standalone="no"?>
<!DOCTYPE svg PUBLIC "-//W3C//DTD SVG 1.1//EN"
  "http://www.w3.org/Graphics/SVG/1.1/DTD/svg11.dtd">
<svg xmlns:xlink="http://www.w3.org/1999/xlink" width="648pt" height="432pt" viewBox="0 0 648 432" xmlns="http://www.w3.org/2000/svg" version="1.1">
 <metadata>
  <rdf:RDF xmlns:dc="http://purl.org/dc/elements/1.1/" xmlns:cc="http://creativecommons.org/ns#" xmlns:rdf="http://www.w3.org/1999/02/22-rdf-syntax-ns#">
   <cc:Work>
    <dc:type rdf:resource="http://purl.org/dc/dcmitype/StillImage"/>
    <dc:date>2023-03-28T12:07:30.543386</dc:date>
    <dc:format>image/svg+xml</dc:format>
    <dc:creator>
     <cc:Agent>
      <dc:title>Matplotlib v3.6.0, https://matplotlib.org/</dc:title>
     </cc:Agent>
    </dc:creator>
   </cc:Work>
  </rdf:RDF>
 </metadata>
 <defs>
  <style type="text/css">*{stroke-linejoin: round; stroke-linecap: butt}</style>
 </defs>
 <g id="figure_1">
  <g id="patch_1">
   <path d="M 0 432 
L 648 432 
L 648 0 
L 0 0 
L 0 432 
z
" style="fill: none"/>
  </g>
  <g id="axes_1">
   <g id="patch_2">
    <path d="M 81 384.48 
L 583.2 384.48 
L 583.2 51.84 
L 81 51.84 
L 81 384.48 
z
" style="fill: none"/>
   </g>
   <g id="matplotlib.axis_1">
    <g id="xtick_1">
     <g id="line2d_1">
      <defs>
       <path id="m787af427f1" d="M 0 0 
L 0 3.5 
" style="stroke: #000000; stroke-width: 0.8"/>
      </defs>
      <g>
       <use xlink:href="#m787af427f1" x="103.827273" y="384.48" style="stroke: #000000; stroke-width: 0.8"/>
      </g>
     </g>
     <g id="text_1">
      <!-- $\mathdefault{0.0}$ -->
      <g transform="translate(90.794678 407.096305) scale(0.22 -0.22)">
       <defs>
        <path id="CMR17-30" d="M 2688 2025 
C 2688 2416 2682 3080 2413 3591 
C 2176 4039 1798 4198 1466 4198 
C 1158 4198 768 4058 525 3597 
C 269 3118 243 2524 243 2025 
C 243 1661 250 1106 448 619 
C 723 -39 1216 -128 1466 -128 
C 1760 -128 2208 -7 2470 600 
C 2662 1042 2688 1559 2688 2025 
z
M 1466 -26 
C 1056 -26 813 325 723 812 
C 653 1188 653 1738 653 2096 
C 653 2588 653 2997 736 3387 
C 858 3929 1216 4096 1466 4096 
C 1728 4096 2067 3923 2189 3400 
C 2272 3036 2278 2607 2278 2096 
C 2278 1680 2278 1169 2202 792 
C 2067 95 1690 -26 1466 -26 
z
" transform="scale(0.015625)"/>
        <path id="CMMI12-3a" d="M 1178 307 
C 1178 492 1024 619 870 619 
C 685 619 557 466 557 313 
C 557 128 710 0 864 0 
C 1050 0 1178 153 1178 307 
z
" transform="scale(0.015625)"/>
       </defs>
       <use xlink:href="#CMR17-30" transform="scale(0.996264)"/>
       <use xlink:href="#CMMI12-3a" transform="translate(45.690477 0) scale(0.996264)"/>
       <use xlink:href="#CMR17-30" transform="translate(72.787654 0) scale(0.996264)"/>
      </g>
     </g>
    </g>
    <g id="xtick_2">
     <g id="line2d_2">
      <g>
       <use xlink:href="#m787af427f1" x="195.136364" y="384.48" style="stroke: #000000; stroke-width: 0.8"/>
      </g>
     </g>
     <g id="text_2">
      <!-- $\mathdefault{0.2}$ -->
      <g transform="translate(182.103769 407.096305) scale(0.22 -0.22)">
       <defs>
        <path id="CMR17-32" d="M 2669 989 
L 2554 989 
C 2490 536 2438 459 2413 420 
C 2381 369 1920 369 1830 369 
L 602 369 
C 832 619 1280 1072 1824 1597 
C 2214 1967 2669 2402 2669 3035 
C 2669 3790 2067 4224 1395 4224 
C 691 4224 262 3604 262 3030 
C 262 2780 448 2748 525 2748 
C 589 2748 781 2787 781 3010 
C 781 3207 614 3264 525 3264 
C 486 3264 448 3258 422 3245 
C 544 3790 915 4058 1306 4058 
C 1862 4058 2227 3617 2227 3035 
C 2227 2479 1901 2000 1536 1584 
L 262 146 
L 262 0 
L 2515 0 
L 2669 989 
z
" transform="scale(0.015625)"/>
       </defs>
       <use xlink:href="#CMR17-30" transform="scale(0.996264)"/>
       <use xlink:href="#CMMI12-3a" transform="translate(45.690477 0) scale(0.996264)"/>
       <use xlink:href="#CMR17-32" transform="translate(72.787654 0) scale(0.996264)"/>
      </g>
     </g>
    </g>
    <g id="xtick_3">
     <g id="line2d_3">
      <g>
       <use xlink:href="#m787af427f1" x="286.445455" y="384.48" style="stroke: #000000; stroke-width: 0.8"/>
      </g>
     </g>
     <g id="text_3">
      <!-- $\mathdefault{0.4}$ -->
      <g transform="translate(273.41286 407.096305) scale(0.22 -0.22)">
       <defs>
        <path id="CMR17-34" d="M 2150 4122 
C 2150 4256 2144 4256 2029 4256 
L 128 1254 
L 128 1088 
L 1779 1088 
L 1779 457 
C 1779 224 1766 160 1318 160 
L 1197 160 
L 1197 0 
C 1402 0 1747 0 1965 0 
C 2182 0 2528 0 2733 0 
L 2733 160 
L 2611 160 
C 2163 160 2150 224 2150 457 
L 2150 1088 
L 2803 1088 
L 2803 1254 
L 2150 1254 
L 2150 4122 
z
M 1798 3703 
L 1798 1254 
L 256 1254 
L 1798 3703 
z
" transform="scale(0.015625)"/>
       </defs>
       <use xlink:href="#CMR17-30" transform="scale(0.996264)"/>
       <use xlink:href="#CMMI12-3a" transform="translate(45.690477 0) scale(0.996264)"/>
       <use xlink:href="#CMR17-34" transform="translate(72.787654 0) scale(0.996264)"/>
      </g>
     </g>
    </g>
    <g id="xtick_4">
     <g id="line2d_4">
      <g>
       <use xlink:href="#m787af427f1" x="377.754545" y="384.48" style="stroke: #000000; stroke-width: 0.8"/>
      </g>
     </g>
     <g id="text_4">
      <!-- $\mathdefault{0.6}$ -->
      <g transform="translate(364.721951 407.096305) scale(0.22 -0.22)">
       <defs>
        <path id="CMR17-36" d="M 678 2176 
C 678 3690 1395 4032 1811 4032 
C 1946 4032 2272 4009 2400 3776 
C 2298 3776 2106 3776 2106 3553 
C 2106 3381 2246 3323 2336 3323 
C 2394 3323 2566 3348 2566 3560 
C 2566 3954 2246 4179 1805 4179 
C 1043 4179 243 3390 243 1984 
C 243 253 966 -128 1478 -128 
C 2099 -128 2688 427 2688 1283 
C 2688 2081 2170 2662 1517 2662 
C 1126 2662 838 2407 678 1960 
L 678 2176 
z
M 1478 25 
C 691 25 691 1200 691 1436 
C 691 1896 909 2560 1504 2560 
C 1613 2560 1926 2560 2138 2120 
C 2253 1870 2253 1609 2253 1289 
C 2253 944 2253 690 2118 434 
C 1978 171 1773 25 1478 25 
z
" transform="scale(0.015625)"/>
       </defs>
       <use xlink:href="#CMR17-30" transform="scale(0.996264)"/>
       <use xlink:href="#CMMI12-3a" transform="translate(45.690477 0) scale(0.996264)"/>
       <use xlink:href="#CMR17-36" transform="translate(72.787654 0) scale(0.996264)"/>
      </g>
     </g>
    </g>
    <g id="xtick_5">
     <g id="line2d_5">
      <g>
       <use xlink:href="#m787af427f1" x="469.063636" y="384.48" style="stroke: #000000; stroke-width: 0.8"/>
      </g>
     </g>
     <g id="text_5">
      <!-- $\mathdefault{0.8}$ -->
      <g transform="translate(456.031042 407.096305) scale(0.22 -0.22)">
       <defs>
        <path id="CMR17-38" d="M 1741 2264 
C 2144 2467 2554 2773 2554 3263 
C 2554 3841 1990 4179 1472 4179 
C 890 4179 378 3759 378 3180 
C 378 3021 416 2747 666 2505 
C 730 2442 998 2251 1171 2130 
C 883 1983 211 1634 211 934 
C 211 279 838 -128 1459 -128 
C 2144 -128 2720 362 2720 1010 
C 2720 1590 2330 1857 2074 2029 
L 1741 2264 
z
M 902 2822 
C 851 2854 595 3051 595 3351 
C 595 3739 998 4032 1459 4032 
C 1965 4032 2336 3676 2336 3262 
C 2336 2669 1670 2331 1638 2331 
C 1632 2331 1626 2331 1574 2370 
L 902 2822 
z
M 2080 1519 
C 2176 1449 2483 1240 2483 851 
C 2483 381 2010 25 1472 25 
C 890 25 448 438 448 940 
C 448 1443 838 1862 1280 2060 
L 2080 1519 
z
" transform="scale(0.015625)"/>
       </defs>
       <use xlink:href="#CMR17-30" transform="scale(0.996264)"/>
       <use xlink:href="#CMMI12-3a" transform="translate(45.690477 0) scale(0.996264)"/>
       <use xlink:href="#CMR17-38" transform="translate(72.787654 0) scale(0.996264)"/>
      </g>
     </g>
    </g>
    <g id="xtick_6">
     <g id="line2d_6">
      <g>
       <use xlink:href="#m787af427f1" x="560.372727" y="384.48" style="stroke: #000000; stroke-width: 0.8"/>
      </g>
     </g>
     <g id="text_6">
      <!-- $\mathdefault{1.0}$ -->
      <g transform="translate(547.340133 407.096305) scale(0.22 -0.22)">
       <defs>
        <path id="CMR17-31" d="M 1702 4058 
C 1702 4192 1696 4192 1606 4192 
C 1357 3916 979 3827 621 3827 
C 602 3827 570 3827 563 3808 
C 557 3795 557 3782 557 3648 
C 755 3648 1088 3686 1344 3839 
L 1344 461 
C 1344 236 1331 160 781 160 
L 589 160 
L 589 0 
C 896 0 1216 0 1523 0 
C 1830 0 2150 0 2458 0 
L 2458 160 
L 2266 160 
C 1715 160 1702 230 1702 458 
L 1702 4058 
z
" transform="scale(0.015625)"/>
       </defs>
       <use xlink:href="#CMR17-31" transform="scale(0.996264)"/>
       <use xlink:href="#CMMI12-3a" transform="translate(45.690477 0) scale(0.996264)"/>
       <use xlink:href="#CMR17-30" transform="translate(72.787654 0) scale(0.996264)"/>
      </g>
     </g>
    </g>
    <g id="text_7">
     <!-- $s$ -->
     <g transform="translate(327.045499 431.38097) scale(0.22 -0.22)">
      <defs>
       <path id="CMMI12-73" d="M 1459 1280 
C 1568 1261 1741 1223 1779 1216 
C 1862 1192 2150 1090 2150 783 
C 2150 586 1971 70 1229 70 
C 1094 70 614 70 486 436 
C 742 404 870 603 870 745 
C 870 880 781 950 653 950 
C 512 950 326 841 326 552 
C 326 173 710 -64 1222 -64 
C 2195 -64 2483 651 2483 984 
C 2483 1079 2483 1258 2278 1462 
C 2118 1616 1965 1648 1619 1718 
C 1446 1756 1171 1814 1171 2101 
C 1171 2229 1286 2689 1894 2689 
C 2163 2689 2426 2589 2490 2368 
C 2208 2368 2195 2125 2195 2119 
C 2195 1984 2317 1946 2374 1946 
C 2464 1946 2643 2015 2643 2281 
C 2643 2545 2400 2816 1901 2816 
C 1062 2816 838 2160 838 1899 
C 838 1414 1312 1312 1459 1280 
z
" transform="scale(0.015625)"/>
      </defs>
      <use xlink:href="#CMMI12-73" transform="scale(0.996264)"/>
     </g>
    </g>
   </g>
   <g id="matplotlib.axis_2">
    <g id="ytick_1">
     <g id="line2d_7">
      <defs>
       <path id="mffb35f4a2e" d="M 0 0 
L -3.5 0 
" style="stroke: #000000; stroke-width: 0.8"/>
      </defs>
      <g>
       <use xlink:href="#mffb35f4a2e" x="81" y="374.512374" style="stroke: #000000; stroke-width: 0.8"/>
      </g>
     </g>
     <g id="text_8">
      <!-- $\mathdefault{−0.02}$ -->
      <g transform="translate(20.835673 382.320526) scale(0.22 -0.22)">
       <defs>
        <path id="CMSY10-0" d="M 4218 1472 
C 4326 1472 4442 1472 4442 1600 
C 4442 1728 4326 1728 4218 1728 
L 755 1728 
C 646 1728 531 1728 531 1600 
C 531 1472 646 1472 755 1472 
L 4218 1472 
z
" transform="scale(0.015625)"/>
       </defs>
       <use xlink:href="#CMSY10-0" transform="scale(0.996264)"/>
       <use xlink:href="#CMR17-30" transform="translate(77.487468 0) scale(0.996264)"/>
       <use xlink:href="#CMMI12-3a" transform="translate(123.177945 0) scale(0.996264)"/>
       <use xlink:href="#CMR17-30" transform="translate(150.275122 0) scale(0.996264)"/>
       <use xlink:href="#CMR17-32" transform="translate(195.965599 0) scale(0.996264)"/>
      </g>
     </g>
    </g>
    <g id="ytick_2">
     <g id="line2d_8">
      <g>
       <use xlink:href="#mffb35f4a2e" x="81" y="302.989957" style="stroke: #000000; stroke-width: 0.8"/>
      </g>
     </g>
     <g id="text_9">
      <!-- $\mathdefault{−0.01}$ -->
      <g transform="translate(20.835673 310.79811) scale(0.22 -0.22)">
       <use xlink:href="#CMSY10-0" transform="scale(0.996264)"/>
       <use xlink:href="#CMR17-30" transform="translate(77.487468 0) scale(0.996264)"/>
       <use xlink:href="#CMMI12-3a" transform="translate(123.177945 0) scale(0.996264)"/>
       <use xlink:href="#CMR17-30" transform="translate(150.275122 0) scale(0.996264)"/>
       <use xlink:href="#CMR17-31" transform="translate(195.965599 0) scale(0.996264)"/>
      </g>
     </g>
    </g>
    <g id="ytick_3">
     <g id="line2d_9">
      <g>
       <use xlink:href="#mffb35f4a2e" x="81" y="231.467541" style="stroke: #000000; stroke-width: 0.8"/>
      </g>
     </g>
     <g id="text_10">
      <!-- $\mathdefault{0.00}$ -->
      <g transform="translate(37.882906 239.275693) scale(0.22 -0.22)">
       <use xlink:href="#CMR17-30" transform="scale(0.996264)"/>
       <use xlink:href="#CMMI12-3a" transform="translate(45.690477 0) scale(0.996264)"/>
       <use xlink:href="#CMR17-30" transform="translate(72.787654 0) scale(0.996264)"/>
       <use xlink:href="#CMR17-30" transform="translate(118.478131 0) scale(0.996264)"/>
      </g>
     </g>
    </g>
    <g id="ytick_4">
     <g id="line2d_10">
      <g>
       <use xlink:href="#mffb35f4a2e" x="81" y="159.945124" style="stroke: #000000; stroke-width: 0.8"/>
      </g>
     </g>
     <g id="text_11">
      <!-- $\mathdefault{0.01}$ -->
      <g transform="translate(37.882906 167.753276) scale(0.22 -0.22)">
       <use xlink:href="#CMR17-30" transform="scale(0.996264)"/>
       <use xlink:href="#CMMI12-3a" transform="translate(45.690477 0) scale(0.996264)"/>
       <use xlink:href="#CMR17-30" transform="translate(72.787654 0) scale(0.996264)"/>
       <use xlink:href="#CMR17-31" transform="translate(118.478131 0) scale(0.996264)"/>
      </g>
     </g>
    </g>
    <g id="ytick_5">
     <g id="line2d_11">
      <g>
       <use xlink:href="#mffb35f4a2e" x="81" y="88.422707" style="stroke: #000000; stroke-width: 0.8"/>
      </g>
     </g>
     <g id="text_12">
      <!-- $\mathdefault{0.02}$ -->
      <g transform="translate(37.882906 96.230859) scale(0.22 -0.22)">
       <use xlink:href="#CMR17-30" transform="scale(0.996264)"/>
       <use xlink:href="#CMMI12-3a" transform="translate(45.690477 0) scale(0.996264)"/>
       <use xlink:href="#CMR17-30" transform="translate(72.787654 0) scale(0.996264)"/>
       <use xlink:href="#CMR17-32" transform="translate(118.478131 0) scale(0.996264)"/>
      </g>
     </g>
    </g>
    <g id="text_13">
     <!-- $\Delta\varepsilon(s)$ -->
     <g transform="translate(11.374554 244.458931) rotate(-90) scale(0.22 -0.22)">
      <defs>
       <path id="CMR17-1" d="M 2598 4403 
C 2547 4512 2522 4512 2470 4512 
C 2394 4512 2387 4499 2342 4409 
L 269 109 
C 262 96 237 38 237 32 
C 237 6 243 0 358 0 
L 4576 0 
C 4691 0 4698 6 4698 32 
C 4698 38 4672 96 4666 109 
L 2598 4403 
z
M 2310 4038 
L 4083 358 
L 531 358 
L 2310 4038 
z
" transform="scale(0.015625)"/>
       <path id="CMMI12-22" d="M 890 1427 
C 1094 1345 1312 1345 1434 1345 
C 1600 1345 1933 1345 1933 1550 
C 1933 1678 1811 1728 1485 1728 
C 1325 1728 1133 1709 909 1613 
C 710 1708 634 1852 634 1990 
C 634 2379 1261 2606 1830 2606 
C 1939 2606 2170 2606 2438 2411 
C 2477 2387 2496 2367 2541 2367 
C 2618 2367 2701 2449 2701 2526 
C 2701 2639 2330 2880 1888 2880 
C 1171 2880 493 2449 493 1972 
C 493 1734 646 1586 755 1509 
C 384 1301 166 961 166 652 
C 166 219 563 -128 1178 -128 
C 2022 -128 2362 424 2362 512 
C 2362 543 2336 568 2304 568 
C 2272 568 2259 549 2234 512 
C 2163 395 1997 146 1235 146 
C 838 146 314 245 314 686 
C 314 898 474 1214 890 1427 
z
M 1088 1518 
C 1261 1600 1427 1600 1472 1600 
C 1651 1600 1683 1583 1786 1545 
C 1677 1472 1664 1472 1434 1472 
C 1318 1472 1216 1472 1088 1518 
z
" transform="scale(0.015625)"/>
       <path id="CMR17-28" d="M 1958 -1561 
C 1958 -1555 1958 -1542 1939 -1523 
C 1645 -1224 858 -407 858 1581 
C 858 3569 1632 4379 1946 4697 
C 1946 4704 1958 4717 1958 4736 
C 1958 4755 1939 4768 1914 4768 
C 1843 4768 1299 4296 986 3594 
C 666 2887 576 2199 576 1588 
C 576 1128 621 351 1005 -471 
C 1312 -1135 1837 -1600 1914 -1600 
C 1946 -1600 1958 -1587 1958 -1561 
z
" transform="scale(0.015625)"/>
       <path id="CMR17-29" d="M 1683 1581 
C 1683 2040 1638 2817 1254 3639 
C 947 4303 422 4768 346 4768 
C 326 4768 301 4761 301 4729 
C 301 4717 307 4710 314 4697 
C 621 4378 1402 3568 1402 1584 
C 1402 -407 627 -1217 314 -1537 
C 307 -1549 301 -1556 301 -1568 
C 301 -1600 326 -1600 346 -1600 
C 416 -1600 960 -1128 1274 -426 
C 1594 281 1683 969 1683 1581 
z
" transform="scale(0.015625)"/>
      </defs>
      <use xlink:href="#CMR17-1" transform="scale(0.996264)"/>
      <use xlink:href="#CMMI12-22" transform="translate(76.91959 0) scale(0.996264)"/>
      <use xlink:href="#CMR17-28" transform="translate(122.569782 0) scale(0.996264)"/>
      <use xlink:href="#CMMI12-73" transform="translate(157.85055 0) scale(0.996264)"/>
      <use xlink:href="#CMR17-29" transform="translate(203.800598 0) scale(0.996264)"/>
     </g>
    </g>
   </g>
   <g id="line2d_12">
    <path d="M 103.827273 231.467754 
L 108.392727 232.533734 
L 112.958182 228.368929 
L 117.523636 241.255332 
L 122.089091 244.882564 
L 126.654545 233.2851 
L 131.22 238.928123 
L 135.785455 232.445702 
L 140.350909 237.206057 
L 144.916364 237.222683 
L 149.481818 231.185539 
L 154.047273 241.262153 
L 158.612727 229.337498 
L 163.178182 233.137598 
L 167.743636 233.447736 
L 172.309091 230.33122 
L 176.874545 229.907897 
L 181.44 233.557083 
L 186.005455 223.961983 
L 190.570909 229.020113 
L 195.136364 224.260397 
L 199.701818 225.962214 
L 204.267273 221.203991 
L 208.832727 230.250008 
L 213.398182 230.13789 
L 217.963636 240.973117 
L 222.529091 251.565563 
L 227.094545 265.242764 
L 231.66 287.427985 
L 236.225455 298.477645 
L 240.790909 328.561478 
L 245.356364 324.631568 
L 249.921818 356.916104 
L 254.487273 339.787842 
L 259.052727 351.668906 
L 263.618182 336.669833 
L 268.183636 334.594252 
L 272.749091 323.866561 
L 277.314545 307.870889 
L 281.88 294.662412 
L 286.445455 299.484262 
L 291.010909 266.224336 
L 295.576364 307.650062 
L 300.141818 253.83522 
L 304.707273 299.403903 
L 309.272727 263.183383 
L 313.838182 280.14336 
L 318.403636 263.117199 
L 322.969091 261.87121 
L 327.534545 290.59278 
L 332.1 252.075852 
L 336.665455 278.328466 
L 341.230909 246.47887 
L 345.796364 260.452888 
L 350.361818 247.487725 
L 354.927273 229.950954 
L 359.492727 255.432485 
L 364.058182 233.291388 
L 368.623636 212.181846 
L 373.189091 236.892295 
L 377.754545 230.842575 
L 382.32 197.695194 
L 386.885455 212.792531 
L 391.450909 223.133668 
L 396.016364 207.500677 
L 400.581818 200.932248 
L 405.147273 197.144885 
L 409.712727 213.229122 
L 414.278182 204.700268 
L 418.843636 180.983167 
L 423.409091 185.274319 
L 427.974545 207.152545 
L 432.54 205.597217 
L 437.105455 188.43128 
L 441.670909 174.777312 
L 446.236364 192.819736 
L 450.801818 204.081857 
L 455.367273 200.159514 
L 459.932727 194.637135 
L 464.498182 184.679887 
L 469.063636 182.835657 
L 473.629091 193.28164 
L 478.194545 208.749517 
L 482.76 215.369475 
L 487.325455 213.207487 
L 491.890909 205.401036 
L 496.456364 199.055273 
L 501.021818 198.790296 
L 505.587273 202.686661 
L 510.152727 209.345867 
L 514.718182 214.002616 
L 519.283636 215.180435 
L 523.849091 213.586021 
L 528.414545 210.31329 
L 532.98 206.779999 
L 537.545455 204.121863 
L 542.110909 202.705299 
L 546.676364 202.385508 
L 551.241818 202.862549 
L 555.807273 203.851501 
L 560.372727 205.171553 
" clip-path="url(#pacea96ca05)" style="fill: none; stroke: #0d0887; stroke-width: 2; stroke-linecap: square"/>
   </g>
   <g id="line2d_13">
    <path d="M 103.827273 231.467754 
L 108.392727 231.022903 
L 112.958182 224.986824 
L 117.523636 236.707917 
L 122.089091 233.502942 
L 126.654545 230.721504 
L 131.22 230.651589 
L 135.785455 231.947562 
L 140.350909 228.83808 
L 144.916364 230.817636 
L 149.481818 231.611845 
L 154.047273 230.198638 
L 158.612727 224.035947 
L 163.178182 234.67827 
L 167.743636 220.547478 
L 172.309091 230.538192 
L 176.874545 226.099911 
L 181.44 220.2367 
L 186.005455 230.018524 
L 190.570909 213.72934 
L 195.136364 227.313394 
L 199.701818 214.96968 
L 204.267273 230.087159 
L 208.832727 216.538702 
L 213.398182 232.183097 
L 217.963636 235.525129 
L 222.529091 247.362391 
L 227.094545 263.318629 
L 231.66 276.04133 
L 236.225455 303.149115 
L 240.790909 315.58619 
L 245.356364 332.899363 
L 249.921818 342.545301 
L 254.487273 351.913287 
L 259.052727 344.835741 
L 263.618182 350.877468 
L 268.183636 328.432413 
L 272.749091 338.467143 
L 277.314545 313.93926 
L 281.88 313.410853 
L 286.445455 300.552054 
L 291.010909 287.658937 
L 295.576364 296.729147 
L 300.141818 274.21663 
L 304.707273 296.983546 
L 309.272727 293.962096 
L 313.838182 269.139422 
L 318.403636 311.375131 
L 322.969091 258.513938 
L 327.534545 290.335397 
L 332.1 291.602168 
L 336.665455 250.350695 
L 341.230909 311.031421 
L 345.796364 256.625611 
L 350.361818 256.195148 
L 354.927273 271.54326 
L 359.492727 256.624226 
L 364.058182 252.533812 
L 368.623636 249.857458 
L 373.189091 239.819104 
L 377.754545 242.322058 
L 382.32 248.579283 
L 386.885455 232.486627 
L 391.450909 237.603694 
L 396.016364 246.817357 
L 400.581818 234.287294 
L 405.147273 236.151853 
L 409.712727 225.975323 
L 414.278182 223.511803 
L 418.843636 228.121778 
L 423.409091 222.304928 
L 427.974545 219.787213 
L 432.54 207.141621 
L 437.105455 214.822231 
L 441.670909 235.541435 
L 446.236364 233.288244 
L 450.801818 212.412958 
L 455.367273 208.903387 
L 459.932727 209.956258 
L 464.498182 212.15728 
L 469.063636 217.350337 
L 473.629091 227.172606 
L 478.194545 228.390964 
L 482.76 219.809781 
L 487.325455 213.601634 
L 491.890909 215.200018 
L 496.456364 220.447616 
L 501.021818 223.64577 
L 505.587273 224.365402 
L 510.152727 222.954859 
L 514.718182 220.952669 
L 519.283636 220.118933 
L 523.849091 221.032962 
L 528.414545 223.015155 
L 532.98 225.130616 
L 537.545455 227.173951 
L 542.110909 228.988153 
L 546.676364 230.502628 
L 551.241818 231.65819 
L 555.807273 232.446058 
L 560.372727 232.99231 
" clip-path="url(#pacea96ca05)" style="fill: none; stroke: #46039f; stroke-width: 2; stroke-linecap: square"/>
   </g>
   <g id="line2d_14">
    <path d="M 103.827273 231.467754 
L 108.392727 228.204162 
L 112.958182 226.240806 
L 117.523636 233.943744 
L 122.089091 236.126222 
L 126.654545 230.199278 
L 131.22 228.509824 
L 135.785455 229.768708 
L 140.350909 226.768787 
L 144.916364 228.715943 
L 149.481818 227.993566 
L 154.047273 225.539318 
L 158.612727 227.847343 
L 163.178182 225.147542 
L 167.743636 226.481243 
L 172.309091 224.716759 
L 176.874545 223.126634 
L 181.44 226.020831 
L 186.005455 220.528934 
L 190.570909 224.601443 
L 195.136364 220.002871 
L 199.701818 225.55296 
L 204.267273 223.938962 
L 208.832727 227.854377 
L 213.398182 234.141976 
L 217.963636 242.819239 
L 222.529091 257.38124 
L 227.094545 267.345736 
L 231.66 295.591121 
L 236.225455 308.07914 
L 240.790909 335.934241 
L 245.356364 341.405463 
L 249.921818 363.081886 
L 254.487273 360.005549 
L 259.052727 369.36 
L 263.618182 352.468232 
L 268.183636 359.335502 
L 272.749091 338.378898 
L 277.314545 341.17547 
L 281.88 323.462848 
L 286.445455 322.874118 
L 291.010909 315.583739 
L 295.576364 302.346805 
L 300.141818 325.357462 
L 304.707273 300.718526 
L 309.272727 329.496795 
L 313.838182 305.550714 
L 318.403636 309.965335 
L 322.969091 315.79199 
L 327.534545 310.145449 
L 332.1 319.254347 
L 336.665455 304.282771 
L 341.230909 306.729133 
L 345.796364 300.845886 
L 350.361818 303.64022 
L 354.927273 290.875315 
L 359.492727 289.753915 
L 364.058182 294.620527 
L 368.623636 285.315954 
L 373.189091 286.532527 
L 377.754545 278.01577 
L 382.32 275.87539 
L 386.885455 281.955697 
L 391.450909 274.225689 
L 396.016364 268.452215 
L 400.581818 265.696515 
L 405.147273 267.764849 
L 409.712727 262.943212 
L 414.278182 258.195167 
L 418.843636 253.471154 
L 423.409091 253.76392 
L 427.974545 250.033363 
L 432.54 251.782233 
L 437.105455 249.449749 
L 441.670909 244.903293 
L 446.236364 243.86822 
L 450.801818 243.872057 
L 455.367273 244.451461 
L 459.932727 242.136775 
L 464.498182 240.788473 
L 469.063636 240.464 
L 473.629091 236.614343 
L 478.194545 234.431492 
L 482.76 234.400745 
L 487.325455 232.54202 
L 491.890909 231.636278 
L 496.456364 232.723174 
L 501.021818 233.658784 
L 505.587273 232.910349 
L 510.152727 231.943246 
L 514.718182 231.433023 
L 519.283636 231.720714 
L 523.849091 232.606739 
L 528.414545 234.0982 
L 532.98 235.78842 
L 537.545455 237.018841 
L 542.110909 237.60544 
L 546.676364 237.674575 
L 551.241818 237.50592 
L 555.807273 237.371927 
L 560.372727 237.347274 
" clip-path="url(#pacea96ca05)" style="fill: none; stroke: #7201a8; stroke-width: 2; stroke-linecap: square"/>
   </g>
   <g id="line2d_15">
    <path d="M 103.827273 231.467754 
L 108.392727 228.295605 
L 112.958182 223.310159 
L 117.523636 232.94853 
L 122.089091 232.64905 
L 126.654545 230.88819 
L 131.22 230.036002 
L 135.785455 227.598167 
L 140.350909 229.692825 
L 144.916364 228.80291 
L 149.481818 228.542863 
L 154.047273 225.857769 
L 158.612727 229.146087 
L 163.178182 226.947409 
L 167.743636 224.20988 
L 172.309091 227.460256 
L 176.874545 224.912007 
L 181.44 225.495835 
L 186.005455 221.909955 
L 190.570909 227.840522 
L 195.136364 221.768634 
L 199.701818 226.620006 
L 204.267273 223.285434 
L 208.832727 232.823623 
L 213.398182 229.594348 
L 217.963636 243.380258 
L 222.529091 248.437749 
L 227.094545 269.260493 
L 231.66 277.171682 
L 236.225455 302.254936 
L 240.790909 308.602432 
L 245.356364 329.262539 
L 249.921818 321.671933 
L 254.487273 333.878483 
L 259.052727 319.536136 
L 263.618182 323.772667 
L 268.183636 310.31043 
L 272.749091 313.397531 
L 277.314545 307.240275 
L 281.88 309.602974 
L 286.445455 303.303971 
L 291.010909 307.424759 
L 295.576364 305.596862 
L 300.141818 309.007103 
L 304.707273 311.031954 
L 309.272727 307.909363 
L 313.838182 311.471903 
L 318.403636 305.457992 
L 322.969091 312.929233 
L 327.534545 309.98665 
L 332.1 311.443873 
L 336.665455 308.072426 
L 341.230909 299.985492 
L 345.796364 304.858818 
L 350.361818 302.091128 
L 354.927273 289.122661 
L 359.492727 292.08155 
L 364.058182 293.907742 
L 368.623636 282.440941 
L 373.189091 286.296673 
L 377.754545 280.896538 
L 382.32 277.938288 
L 386.885455 282.90796 
L 391.450909 272.612117 
L 396.016364 268.193554 
L 400.581818 274.472734 
L 405.147273 264.425588 
L 409.712727 255.943361 
L 414.278182 263.476895 
L 418.843636 263.630366 
L 423.409091 256.677674 
L 427.974545 249.037563 
L 432.54 254.450274 
L 437.105455 256.167012 
L 441.670909 251.75431 
L 446.236364 245.710398 
L 450.801818 243.822925 
L 455.367273 244.373127 
L 459.932727 245.618849 
L 464.498182 245.999754 
L 469.063636 246.003777 
L 473.629091 241.977283 
L 478.194545 237.358515 
L 482.76 236.941214 
L 487.325455 237.944553 
L 491.890909 238.37515 
L 496.456364 237.133052 
L 501.021818 235.159118 
L 505.587273 233.417894 
L 510.152727 232.758318 
L 514.718182 233.563944 
L 519.283636 234.88788 
L 523.849091 235.960894 
L 528.414545 236.782841 
L 532.98 237.155 
L 537.545455 237.180092 
L 542.110909 237.07197 
L 546.676364 236.9648 
L 551.241818 236.879063 
L 555.807273 236.799956 
L 560.372727 236.668061 
" clip-path="url(#pacea96ca05)" style="fill: none; stroke: #9c179e; stroke-width: 2; stroke-linecap: square"/>
   </g>
   <g id="line2d_16">
    <path d="M 103.827273 231.467754 
L 108.392727 226.933128 
L 112.958182 222.17256 
L 117.523636 230.013195 
L 122.089091 233.357572 
L 126.654545 231.65405 
L 131.22 231.477772 
L 135.785455 230.562278 
L 140.350909 230.331859 
L 144.916364 231.635932 
L 149.481818 231.372687 
L 154.047273 228.737045 
L 158.612727 232.024084 
L 163.178182 230.043249 
L 167.743636 230.29882 
L 172.309091 228.085862 
L 176.874545 230.633898 
L 181.44 228.046002 
L 186.005455 229.009669 
L 190.570909 227.831356 
L 195.136364 229.092372 
L 199.701818 226.821222 
L 204.267273 227.737782 
L 208.832727 229.804518 
L 213.398182 232.657363 
L 217.963636 232.677186 
L 222.529091 237.47804 
L 227.094545 245.274979 
L 231.66 249.624161 
L 236.225455 251.886145 
L 240.790909 250.13168 
L 245.356364 255.089841 
L 249.921818 245.628601 
L 254.487273 243.787808 
L 259.052727 237.086904 
L 263.618182 241.225917 
L 268.183636 241.63741 
L 272.749091 245.149325 
L 277.314545 255.461581 
L 281.88 263.105688 
L 286.445455 267.00192 
L 291.010909 270.66592 
L 295.576364 264.290928 
L 300.141818 273.576956 
L 304.707273 280.596311 
L 309.272727 278.797083 
L 313.838182 287.216963 
L 318.403636 286.603721 
L 322.969091 294.538143 
L 327.534545 297.869092 
L 332.1 297.488932 
L 336.665455 295.720825 
L 341.230909 297.837225 
L 345.796364 297.281321 
L 350.361818 291.500494 
L 354.927273 296.648042 
L 359.492727 286.241573 
L 364.058182 287.246485 
L 368.623636 288.757316 
L 373.189091 282.603257 
L 377.754545 277.986141 
L 382.32 278.956522 
L 386.885455 279.729949 
L 391.450909 276.53883 
L 396.016364 268.917369 
L 400.581818 272.76692 
L 405.147273 268.985685 
L 409.712727 260.599004 
L 414.278182 260.139978 
L 418.843636 263.631591 
L 423.409091 258.232468 
L 427.974545 254.787536 
L 432.54 255.044972 
L 437.105455 255.741025 
L 441.670909 252.725224 
L 446.236364 245.257767 
L 450.801818 247.786513 
L 455.367273 248.589568 
L 459.932727 247.982294 
L 464.498182 250.042528 
L 469.063636 246.930089 
L 473.629091 242.593216 
L 478.194545 240.074835 
L 482.76 240.564582 
L 487.325455 240.730229 
L 491.890909 239.519251 
L 496.456364 237.876584 
L 501.021818 237.614858 
L 505.587273 237.991447 
L 510.152727 237.800115 
L 514.718182 237.561717 
L 519.283636 237.387903 
L 523.849091 236.804902 
L 528.414545 236.268661 
L 532.98 236.263406 
L 537.545455 236.510844 
L 542.110909 236.673853 
L 546.676364 236.62221 
L 551.241818 236.391501 
L 555.807273 236.118611 
L 560.372727 235.862021 
" clip-path="url(#pacea96ca05)" style="fill: none; stroke: #bd3786; stroke-width: 2; stroke-linecap: square"/>
   </g>
   <g id="line2d_17">
    <path d="M 103.827273 231.467754 
L 108.392727 234.62349 
L 112.958182 239.12124 
L 117.523636 228.785857 
L 122.089091 226.102469 
L 126.654545 232.934462 
L 131.22 231.87914 
L 135.785455 231.207493 
L 140.350909 232.323565 
L 144.916364 232.957909 
L 149.481818 231.917934 
L 154.047273 231.017787 
L 158.612727 234.706833 
L 163.178182 231.344764 
L 167.743636 232.892471 
L 172.309091 232.230203 
L 176.874545 234.047976 
L 181.44 232.105296 
L 186.005455 233.171702 
L 190.570909 234.196544 
L 195.136364 232.788239 
L 199.701818 232.829165 
L 204.267273 232.595122 
L 208.832727 232.736869 
L 213.398182 231.227103 
L 217.963636 228.035771 
L 222.529091 228.88604 
L 227.094545 222.745729 
L 231.66 217.798865 
L 236.225455 209.481832 
L 240.790909 200.56669 
L 245.356364 193.3685 
L 249.921818 179.701529 
L 254.487273 179.879086 
L 259.052727 180.118244 
L 263.618182 181.123049 
L 268.183636 192.444906 
L 272.749091 191.103851 
L 277.314545 210.705652 
L 281.88 216.941136 
L 286.445455 220.698817 
L 291.010909 241.773508 
L 295.576364 222.76097 
L 300.141818 242.442597 
L 304.707273 238.396199 
L 309.272727 243.795375 
L 313.838182 264.046867 
L 318.403636 257.416198 
L 322.969091 262.326932 
L 327.534545 267.411707 
L 332.1 271.506278 
L 336.665455 277.30469 
L 341.230909 282.017085 
L 345.796364 274.947959 
L 350.361818 273.266285 
L 354.927273 287.148221 
L 359.492727 277.456242 
L 364.058182 273.691207 
L 368.623636 290.69957 
L 373.189091 278.059253 
L 377.754545 278.630078 
L 382.32 282.231624 
L 386.885455 272.95295 
L 391.450909 274.396851 
L 396.016364 272.160765 
L 400.581818 267.167646 
L 405.147273 268.966128 
L 409.712727 264.216537 
L 414.278182 261.348185 
L 418.843636 261.163541 
L 423.409091 259.641732 
L 427.974545 255.604447 
L 432.54 252.717444 
L 437.105455 252.319913 
L 441.670909 252.412847 
L 446.236364 249.792606 
L 450.801818 249.491207 
L 455.367273 247.889679 
L 459.932727 248.817855 
L 464.498182 248.57105 
L 469.063636 246.925666 
L 473.629091 243.570764 
L 478.194545 240.313807 
L 482.76 239.057481 
L 487.325455 240.232222 
L 491.890909 241.185285 
L 496.456364 239.91084 
L 501.021818 239.285288 
L 505.587273 239.452694 
L 510.152727 238.297962 
L 514.718182 236.987561 
L 519.283636 236.40031 
L 523.849091 236.580078 
L 528.414545 236.71274 
L 532.98 236.522067 
L 537.545455 236.182081 
L 542.110909 235.867946 
L 546.676364 235.663925 
L 551.241818 235.504916 
L 555.807273 235.277375 
L 560.372727 234.966217 
" clip-path="url(#pacea96ca05)" style="fill: none; stroke: #d8576b; stroke-width: 2; stroke-linecap: square"/>
   </g>
   <g id="line2d_18">
    <path d="M 103.827273 231.467754 
L 108.392727 233.865516 
L 112.958182 239.39834 
L 117.523636 226.822928 
L 122.089091 223.843256 
L 126.654545 232.245337 
L 131.22 230.276226 
L 135.785455 232.392413 
L 140.350909 233.409794 
L 144.916364 231.853135 
L 149.481818 233.30471 
L 154.047273 233.843348 
L 158.612727 236.176099 
L 163.178182 233.496122 
L 167.743636 237.43946 
L 172.309091 237.387663 
L 176.874545 238.407176 
L 181.44 238.212141 
L 186.005455 241.193304 
L 190.570909 241.590836 
L 195.136364 241.213554 
L 199.701818 241.96897 
L 204.267273 240.962246 
L 208.832727 238.571304 
L 213.398182 232.413089 
L 217.963636 224.000777 
L 222.529091 212.336809 
L 227.094545 196.187667 
L 231.66 175.538004 
L 236.225455 154.925429 
L 240.790909 133.33917 
L 245.356364 120.343846 
L 249.921818 108.409599 
L 254.487273 107.939809 
L 259.052727 110.176428 
L 263.618182 114.879871 
L 268.183636 122.939628 
L 272.749091 131.426118 
L 277.314545 137.152484 
L 281.88 144.071124 
L 286.445455 147.359762 
L 291.010909 157.715927 
L 295.576364 155.247397 
L 300.141818 163.361402 
L 304.707273 151.893109 
L 309.272727 159.870908 
L 313.838182 163.692003 
L 318.403636 160.775638 
L 322.969091 171.077662 
L 327.534545 153.698625 
L 332.1 165.019735 
L 336.665455 178.352694 
L 341.230909 168.751305 
L 345.796364 183.02587 
L 350.361818 192.047801 
L 354.927273 207.218889 
L 359.492727 206.386844 
L 364.058182 211.514569 
L 368.623636 226.528883 
L 373.189091 230.290614 
L 377.754545 234.483342 
L 382.32 240.9858 
L 386.885455 235.964545 
L 391.450909 236.094462 
L 396.016364 245.098168 
L 400.581818 245.244125 
L 405.147273 243.281142 
L 409.712727 248.977241 
L 414.278182 250.061659 
L 418.843636 251.090497 
L 423.409091 250.79512 
L 427.974545 247.120728 
L 432.54 244.320372 
L 437.105455 243.626877 
L 441.670909 243.595703 
L 446.236364 241.938649 
L 450.801818 242.536331 
L 455.367273 240.536952 
L 459.932727 240.505991 
L 464.498182 242.74682 
L 469.063636 242.618102 
L 473.629091 239.419868 
L 478.194545 236.041893 
L 482.76 236.192592 
L 487.325455 238.668556 
L 491.890909 240.269151 
L 496.456364 239.195098 
L 501.021818 238.395426 
L 505.587273 238.437284 
L 510.152727 238.530832 
L 514.718182 238.30405 
L 519.283636 237.714721 
L 523.849091 237.2412 
L 528.414545 236.964421 
L 532.98 236.730238 
L 537.545455 236.39297 
L 542.110909 235.981477 
L 546.676364 235.581888 
L 551.241818 235.244736 
L 555.807273 234.897216 
L 560.372727 234.507778 
" clip-path="url(#pacea96ca05)" style="fill: none; stroke: #ed7953; stroke-width: 2; stroke-linecap: square"/>
   </g>
   <g id="line2d_19">
    <path d="M 103.827273 231.467754 
L 108.392727 233.865516 
L 112.958182 239.804823 
L 117.523636 227.872069 
L 122.089091 227.14756 
L 126.654545 230.960449 
L 131.22 230.357438 
L 135.785455 233.523192 
L 140.350909 232.74774 
L 144.916364 230.819767 
L 149.481818 234.11043 
L 154.047273 234.255374 
L 158.612727 235.384661 
L 163.178182 233.690304 
L 167.743636 238.902332 
L 172.309091 236.736906 
L 176.874545 238.16205 
L 181.44 239.42946 
L 186.005455 242.084286 
L 190.570909 242.451549 
L 195.136364 242.697954 
L 199.701818 244.225625 
L 204.267273 241.561207 
L 208.832727 237.528558 
L 213.398182 230.62729 
L 217.963636 219.346572 
L 222.529091 202.081145 
L 227.094545 179.953263 
L 231.66 156.184739 
L 236.225455 132.799039 
L 240.790909 110.551791 
L 245.356364 98.251774 
L 249.921818 87.34109 
L 254.487273 88.371473 
L 259.052727 90.505779 
L 263.618182 96.790181 
L 268.183636 103.042183 
L 272.749091 108.161489 
L 277.314545 113.340477 
L 281.88 116.907813 
L 286.445455 119.737638 
L 291.010909 126.852272 
L 295.576364 123.790856 
L 300.141818 130.175973 
L 304.707273 112.389493 
L 309.272727 115.212604 
L 313.838182 113.870164 
L 318.403636 108.356524 
L 322.969091 116.464773 
L 327.534545 96.089652 
L 332.1 103.562917 
L 336.665455 112.998473 
L 341.230909 103.417546 
L 345.796364 121.256142 
L 350.361818 128.34701 
L 354.927273 127.193957 
L 359.492727 133.096175 
L 364.058182 142.554112 
L 368.623636 149.501741 
L 373.189091 148.221221 
L 377.754545 157.632797 
L 382.32 167.838583 
L 386.885455 170.066249 
L 391.450909 172.065521 
L 396.016364 180.565653 
L 400.581818 188.268058 
L 405.147273 195.04234 
L 409.712727 201.186327 
L 414.278182 205.268322 
L 418.843636 214.439407 
L 423.409091 220.563891 
L 427.974545 221.16509 
L 432.54 224.761574 
L 437.105455 228.23768 
L 441.670909 228.98036 
L 446.236364 228.211782 
L 450.801818 230.87556 
L 455.367273 233.773487 
L 459.932727 234.784368 
L 464.498182 235.627176 
L 469.063636 235.735112 
L 473.629091 233.802423 
L 478.194545 232.38069 
L 482.76 233.234263 
L 487.325455 235.206411 
L 491.890909 237.4158 
L 496.456364 238.111426 
L 501.021818 238.893965 
L 505.587273 239.118016 
L 510.152727 238.649372 
L 514.718182 237.922985 
L 519.283636 237.149491 
L 523.849091 236.615089 
L 528.414545 236.269461 
L 532.98 236.026539 
L 537.545455 235.695452 
L 542.110909 235.325311 
L 546.676364 234.990893 
L 551.241818 234.691975 
L 555.807273 234.355113 
L 560.372727 233.964556 
" clip-path="url(#pacea96ca05)" style="fill: none; stroke: #fb9f3a; stroke-width: 2; stroke-linecap: square"/>
   </g>
   <g id="line2d_20">
    <path d="M 103.827273 231.467754 
L 108.392727 233.865516 
L 112.958182 239.804823 
L 117.523636 224.858506 
L 122.089091 225.59623 
L 126.654545 230.318857 
L 131.22 231.09303 
L 135.785455 233.76235 
L 140.350909 231.8866 
L 144.916364 230.381098 
L 149.481818 233.168078 
L 154.047273 232.497072 
L 158.612727 234.550378 
L 163.178182 234.725377 
L 167.743636 238.989298 
L 172.309091 235.721656 
L 176.874545 237.912021 
L 181.44 240.104943 
L 186.005455 241.329936 
L 190.570909 241.946162 
L 195.136364 244.070023 
L 199.701818 244.259303 
L 204.267273 241.837454 
L 208.832727 237.100759 
L 213.398182 230.226988 
L 217.963636 216.450243 
L 222.529091 197.68038 
L 227.094545 173.879244 
L 231.66 147.831257 
L 236.225455 122.155437 
L 240.790909 99.934833 
L 245.356364 87.955398 
L 249.921818 77.911822 
L 254.487273 77.643462 
L 259.052727 79.921433 
L 263.618182 85.402673 
L 268.183636 90.4721 
L 272.749091 93.257589 
L 277.314545 96.322948 
L 281.88 101.04387 
L 286.445455 102.196284 
L 291.010909 109.309533 
L 295.576364 104.795477 
L 300.141818 111.235054 
L 304.707273 91.795463 
L 309.272727 90.980578 
L 313.838182 88.077002 
L 318.403636 80.139915 
L 322.969091 89.695369 
L 327.534545 67.079579 
L 332.1 71.253336 
L 336.665455 77.798531 
L 341.230909 66.96 
L 345.796364 83.91369 
L 350.361818 88.631734 
L 354.927273 83.506993 
L 359.492727 86.134109 
L 364.058182 93.847491 
L 368.623636 97.923624 
L 373.189091 94.492493 
L 377.754545 102.399846 
L 382.32 113.108353 
L 386.885455 114.352317 
L 391.450909 116.536926 
L 396.016364 125.502585 
L 400.581818 134.372431 
L 405.147273 141.445234 
L 409.712727 150.13779 
L 414.278182 156.505642 
L 418.843636 166.676257 
L 423.409091 175.953759 
L 427.974545 178.51938 
L 432.54 187.392531 
L 437.105455 194.411459 
L 441.670909 198.516741 
L 446.236364 202.320677 
L 450.801818 208.328725 
L 455.367273 214.53069 
L 459.932727 218.7685 
L 464.498182 222.594976 
L 469.063636 224.345152 
L 473.629091 224.776122 
L 478.194545 225.46618 
L 482.76 227.637893 
L 487.325455 231.074965 
L 491.890909 234.205869 
L 496.456364 238.754483 
L 501.021818 237.764226 
L 505.587273 234.828277 
L 510.152727 232.927428 
L 514.718182 232.479313 
L 519.283636 232.647505 
L 523.849091 232.779979 
L 528.414545 232.78307 
L 532.98 232.811653 
L 537.545455 232.931785 
L 542.110909 232.98835 
L 546.676364 232.821391 
L 551.241818 232.469025 
L 555.807273 232.090118 
L 560.372727 231.728097 
" clip-path="url(#pacea96ca05)" style="fill: none; stroke: #fdca26; stroke-width: 2; stroke-linecap: square"/>
   </g>
   <g id="patch_3">
    <path d="M 81 384.48 
L 81 51.84 
" style="fill: none; stroke: #000000; stroke-width: 0.8; stroke-linejoin: miter; stroke-linecap: square"/>
   </g>
   <g id="patch_4">
    <path d="M 583.2 384.48 
L 583.2 51.84 
" style="fill: none; stroke: #000000; stroke-width: 0.8; stroke-linejoin: miter; stroke-linecap: square"/>
   </g>
   <g id="patch_5">
    <path d="M 81 384.48 
L 583.2 384.48 
" style="fill: none; stroke: #000000; stroke-width: 0.8; stroke-linejoin: miter; stroke-linecap: square"/>
   </g>
   <g id="patch_6">
    <path d="M 81 51.84 
L 583.2 51.84 
" style="fill: none; stroke: #000000; stroke-width: 0.8; stroke-linejoin: miter; stroke-linecap: square"/>
   </g>
   <g id="text_14">
    <!-- deviation from mean ($N = 21$, $P = 100$) -->
    <g transform="translate(108.165128 45.84) scale(0.264 -0.264)">
     <defs>
      <path id="NimbusSanL-Regu-64" d="M 3168 4672 
L 2637 4672 
L 2637 2937 
C 2413 3276 2054 3456 1606 3456 
C 736 3456 166 2761 166 1695 
C 166 566 723 -128 1626 -128 
C 2086 -128 2406 45 2694 461 
L 2694 -2 
L 3168 -2 
L 3168 4672 
z
M 1696 2956 
C 2272 2956 2637 2447 2637 1651 
C 2637 881 2266 372 1702 372 
C 1114 372 723 887 723 1664 
C 723 2440 1114 2956 1696 2956 
z
" transform="scale(0.015625)"/>
      <path id="NimbusSanL-Regu-65" d="M 3283 1529 
C 3283 2034 3245 2338 3149 2584 
C 2931 3127 2419 3456 1792 3456 
C 858 3456 256 2742 256 1645 
C 256 547 838 -128 1779 -128 
C 2547 -128 3078 310 3213 1044 
L 2675 1044 
C 2528 598 2227 365 1798 365 
C 1459 365 1171 520 992 805 
C 864 998 819 1193 813 1529 
L 3283 1529 
z
M 826 1984 
C 870 2577 1248 2962 1786 2962 
C 2310 2962 2714 2530 2714 1984 
C 2714 1984 2714 1984 2707 1984 
L 826 1984 
z
" transform="scale(0.015625)"/>
      <path id="NimbusSanL-Regu-76" d="M 1824 0 
L 3110 3360 
L 2509 3360 
L 1562 635 
L 666 3360 
L 64 3360 
L 1242 0 
L 1824 0 
z
" transform="scale(0.015625)"/>
      <path id="NimbusSanL-Regu-69" d="M 960 3359 
L 429 3359 
L 429 0 
L 960 0 
L 960 3359 
z
M 960 4672 
L 422 4672 
L 422 3999 
L 960 3999 
L 960 4672 
z
" transform="scale(0.015625)"/>
      <path id="NimbusSanL-Regu-61" d="M 3424 333 
C 3366 320 3341 320 3309 320 
C 3123 320 3021 415 3021 581 
L 3021 2545 
C 3021 3137 2586 3456 1760 3456 
C 1274 3456 870 3316 646 3066 
C 493 2893 429 2702 416 2370 
L 954 2370 
C 998 2777 1242 2962 1741 2962 
C 2221 2962 2490 2783 2490 2465 
L 2490 2325 
C 2490 2101 2355 2006 1933 1955 
C 1178 1860 1062 1834 858 1751 
C 467 1592 269 1292 269 859 
C 269 254 691 -128 1370 -128 
C 1792 -128 2131 19 2509 365 
C 2547 25 2714 -128 3059 -128 
C 3168 -128 3251 -116 3424 -70 
L 3424 333 
z
M 2490 1072 
C 2490 893 2438 785 2278 639 
C 2061 441 1798 340 1485 340 
C 1069 340 826 537 826 874 
C 826 1225 1062 1403 1632 1486 
C 2195 1562 2310 1588 2490 1670 
L 2490 1072 
z
" transform="scale(0.015625)"/>
      <path id="NimbusSanL-Regu-74" d="M 1626 3380 
L 1075 3380 
L 1075 4288 
L 544 4288 
L 544 3380 
L 90 3380 
L 90 2944 
L 544 2944 
L 544 404 
C 544 64 774 -128 1190 -128 
C 1318 -128 1446 -116 1626 -83 
L 1626 366 
C 1555 346 1472 340 1370 340 
C 1139 340 1075 404 1075 641 
L 1075 2944 
L 1626 2944 
L 1626 3380 
z
" transform="scale(0.015625)"/>
      <path id="NimbusSanL-Regu-6f" d="M 1741 3456 
C 800 3456 230 2786 230 1663 
C 230 541 794 -128 1747 -128 
C 2688 -128 3264 541 3264 1638 
C 3264 2792 2707 3456 1741 3456 
z
M 1747 2962 
C 2349 2962 2707 2472 2707 1645 
C 2707 861 2336 365 1747 365 
C 1152 365 787 855 787 1663 
C 787 2466 1152 2962 1747 2962 
z
" transform="scale(0.015625)"/>
      <path id="NimbusSanL-Regu-6e" d="M 448 3359 
L 448 0 
L 986 0 
L 986 1853 
C 986 2539 1344 2988 1894 2988 
C 2317 2988 2586 2731 2586 2327 
L 2586 0 
L 3117 0 
L 3117 2539 
C 3117 3097 2701 3456 2054 3456 
C 1555 3456 1235 3263 941 2796 
L 941 3359 
L 448 3359 
z
" transform="scale(0.015625)"/>
      <path id="NimbusSanL-Regu-66" d="M 1651 3328 
L 1094 3328 
L 1094 3856 
C 1094 4082 1222 4198 1466 4198 
C 1510 4198 1530 4198 1651 4198 
L 1651 4640 
C 1530 4666 1459 4672 1350 4672 
C 858 4672 563 4388 563 3903 
L 563 3328 
L 115 3328 
L 115 2892 
L 563 2892 
L 563 -26 
L 1094 -26 
L 1094 2892 
L 1651 2892 
L 1651 3328 
z
" transform="scale(0.015625)"/>
      <path id="NimbusSanL-Regu-72" d="M 442 3359 
L 442 0 
L 979 0 
L 979 1741 
C 979 2221 1101 2535 1357 2720 
C 1523 2842 1683 2880 2054 2880 
L 2054 3432 
C 1965 3444 1920 3444 1850 3444 
C 1504 3444 1242 3240 934 2746 
L 934 3359 
L 442 3359 
z
" transform="scale(0.015625)"/>
      <path id="NimbusSanL-Regu-6d" d="M 448 3359 
L 448 0 
L 986 0 
L 986 2109 
C 986 2597 1338 2988 1773 2988 
C 2170 2988 2394 2744 2394 2314 
L 2394 0 
L 2931 0 
L 2931 2109 
C 2931 2597 3283 2988 3718 2988 
C 4109 2988 4339 2738 4339 2314 
L 4339 0 
L 4877 0 
L 4877 2520 
C 4877 3122 4531 3456 3904 3456 
C 3456 3456 3187 3321 2874 2943 
C 2675 3302 2406 3456 1971 3456 
C 1523 3456 1229 3289 941 2885 
L 941 3359 
L 448 3359 
z
" transform="scale(0.015625)"/>
      <path id="NimbusSanL-Regu-28" d="M 1510 4672 
C 870 3830 467 2660 467 1651 
C 467 636 870 -534 1510 -1376 
L 1862 -1376 
C 1299 -457 986 623 986 1651 
C 986 2673 1299 3759 1862 4672 
L 1510 4672 
z
" transform="scale(0.015625)"/>
      <path id="CMMI12-4e" d="M 4736 3698 
C 4806 3974 4909 4166 5395 4166 
C 5414 4166 5491 4166 5491 4279 
C 5491 4352 5434 4352 5408 4352 
C 5280 4352 4954 4352 4826 4352 
L 4518 4352 
C 4429 4352 4314 4352 4224 4352 
C 4186 4352 4109 4352 4109 4230 
C 4109 4166 4160 4166 4205 4166 
C 4589 4166 4614 4019 4614 3903 
C 4614 3846 4608 3826 4589 3737 
L 3866 850 
L 2496 4249 
C 2451 4352 2445 4352 2304 4352 
L 1523 4352 
C 1395 4352 1338 4352 1338 4230 
C 1338 4166 1382 4166 1504 4166 
C 1536 4166 1914 4166 1914 4115 
C 1914 4102 1901 4051 1894 4032 
L 1043 635 
C 966 320 813 186 390 186 
C 358 186 294 186 294 67 
C 294 0 358 0 378 0 
C 506 0 832 0 960 0 
L 1267 0 
C 1357 0 1466 0 1555 0 
C 1600 0 1670 0 1670 122 
C 1670 180 1606 186 1581 186 
C 1370 186 1165 224 1165 454 
C 1165 505 1178 562 1190 613 
L 2054 4032 
C 2093 3968 2093 3956 2118 3898 
L 3642 115 
C 3674 38 3686 0 3744 0 
C 3808 0 3814 19 3840 128 
L 4736 3698 
z
" transform="scale(0.015625)"/>
      <path id="CMR17-3d" d="M 4115 2017 
C 4211 2017 4307 2017 4307 2125 
C 4307 2240 4198 2240 4090 2240 
L 512 2240 
C 403 2240 294 2240 294 2125 
C 294 2017 390 2017 486 2017 
L 4115 2017 
z
M 4090 896 
C 4198 896 4307 896 4307 1011 
C 4307 1119 4211 1119 4115 1119 
L 486 1119 
C 390 1119 294 1119 294 1011 
C 294 896 403 896 512 896 
L 4090 896 
z
" transform="scale(0.015625)"/>
      <path id="NimbusSanL-Regu-2c" d="M 557 640 
L 557 -27 
L 941 -27 
L 941 -142 
C 941 -583 858 -710 557 -710 
L 557 -960 
C 1005 -960 1229 -674 1229 -126 
L 1229 640 
L 557 640 
z
" transform="scale(0.015625)"/>
      <path id="CMMI12-50" d="M 1894 2023 
L 2970 2023 
C 3853 2023 4736 2673 4736 3401 
C 4736 3898 4314 4352 3507 4352 
L 1530 4352 
C 1408 4352 1350 4352 1350 4231 
C 1350 4167 1408 4167 1504 4167 
C 1894 4167 1894 4116 1894 4046 
C 1894 4034 1894 3995 1869 3899 
L 1005 472 
C 947 249 934 185 486 185 
C 365 185 301 185 301 70 
C 301 0 358 0 397 0 
C 518 0 646 0 768 0 
L 1517 0 
C 1638 0 1773 0 1894 0 
C 1946 0 2016 0 2016 121 
C 2016 185 1958 185 1862 185 
C 1478 185 1472 230 1472 293 
C 1472 325 1478 369 1485 401 
L 1894 2023 
z
M 2355 3930 
C 2413 4167 2438 4167 2688 4167 
L 3322 4167 
C 3802 4167 4198 4013 4198 3535 
C 4198 3369 4115 2827 3821 2534 
C 3712 2419 3405 2176 2822 2176 
L 1920 2176 
L 2355 3930 
z
" transform="scale(0.015625)"/>
      <path id="NimbusSanL-Regu-29" d="M 595 -1376 
C 1235 -534 1638 636 1638 1644 
C 1638 2660 1235 3830 595 4672 
L 243 4672 
C 806 3753 1120 2673 1120 1644 
C 1120 623 806 -464 243 -1376 
L 595 -1376 
z
" transform="scale(0.015625)"/>
     </defs>
     <use xlink:href="#NimbusSanL-Regu-64" transform="scale(0.996264)"/>
     <use xlink:href="#NimbusSanL-Regu-65" transform="translate(55.391677 0) scale(0.996264)"/>
     <use xlink:href="#NimbusSanL-Regu-76" transform="translate(107.795246 0) scale(0.996264)"/>
     <use xlink:href="#NimbusSanL-Regu-69" transform="translate(157.608446 0) scale(0.996264)"/>
     <use xlink:href="#NimbusSanL-Regu-61" transform="translate(179.725231 0) scale(0.996264)"/>
     <use xlink:href="#NimbusSanL-Regu-74" transform="translate(235.116908 0) scale(0.996264)"/>
     <use xlink:href="#NimbusSanL-Regu-69" transform="translate(262.812077 0) scale(0.996264)"/>
     <use xlink:href="#NimbusSanL-Regu-6f" transform="translate(284.928862 0) scale(0.996264)"/>
     <use xlink:href="#NimbusSanL-Regu-6e" transform="translate(340.320539 0) scale(0.996264)"/>
     <use xlink:href="#NimbusSanL-Regu-66" transform="translate(423.407385 0) scale(0.996264)"/>
     <use xlink:href="#NimbusSanL-Regu-72" transform="translate(451.102555 0) scale(0.996264)"/>
     <use xlink:href="#NimbusSanL-Regu-6f" transform="translate(484.277785 0) scale(0.996264)"/>
     <use xlink:href="#NimbusSanL-Regu-6d" transform="translate(539.669462 0) scale(0.996264)"/>
     <use xlink:href="#NimbusSanL-Regu-6d" transform="translate(650.353061 0) scale(0.996264)"/>
     <use xlink:href="#NimbusSanL-Regu-65" transform="translate(733.341492 0) scale(0.996264)"/>
     <use xlink:href="#NimbusSanL-Regu-61" transform="translate(788.733169 0) scale(0.996264)"/>
     <use xlink:href="#NimbusSanL-Regu-6e" transform="translate(844.124846 0) scale(0.996264)"/>
     <use xlink:href="#NimbusSanL-Regu-28" transform="translate(927.211692 0) scale(0.996264)"/>
     <use xlink:href="#CMMI12-4e" transform="translate(960.386922 0) scale(0.996264)"/>
     <use xlink:href="#CMR17-3d" transform="translate(1076.582703 0) scale(0.996264)"/>
     <use xlink:href="#CMR17-32" transform="translate(1175.9715 0) scale(0.996264)"/>
     <use xlink:href="#CMR17-31" transform="translate(1221.661977 0) scale(0.996264)"/>
     <use xlink:href="#NimbusSanL-Regu-2c" transform="translate(1267.352455 0) scale(0.996264)"/>
     <use xlink:href="#CMMI12-50" transform="translate(1322.742794 0) scale(0.996264)"/>
     <use xlink:href="#CMR17-3d" transform="translate(1426.842623 0) scale(0.996264)"/>
     <use xlink:href="#CMR17-31" transform="translate(1526.23142 0) scale(0.996264)"/>
     <use xlink:href="#CMR17-30" transform="translate(1571.921897 0) scale(0.996264)"/>
     <use xlink:href="#CMR17-30" transform="translate(1617.612375 0) scale(0.996264)"/>
     <use xlink:href="#NimbusSanL-Regu-29" transform="translate(1663.302852 0) scale(0.996264)"/>
    </g>
   </g>
   <g id="legend_1">
    <g id="patch_7">
     <path d="M 15.356428 514.545331 
L 598.623572 514.545331 
Q 603.023572 514.545331 603.023572 510.145331 
L 603.023572 449.776 
Q 603.023572 445.376 598.623572 445.376 
L 15.356428 445.376 
Q 10.956428 445.376 10.956428 449.776 
L 10.956428 510.145331 
Q 10.956428 514.545331 15.356428 514.545331 
z
" style="fill: #ffffff; opacity: 0.8; stroke: #cccccc; stroke-linejoin: miter"/>
    </g>
    <g id="line2d_21">
     <path style="fill: none; stroke: #0d0887; stroke-width: 2; stroke-linecap: square"/>
    </g>
    <g id="text_15">
     <!-- $2$ -->
     <g transform="translate(81.356428 469.792305) scale(0.22 -0.22)">
      <use xlink:href="#CMR17-32" transform="scale(0.996264)"/>
     </g>
    </g>
    <g id="line2d_22">
     <path style="fill: none; stroke: #46039f; stroke-width: 2; stroke-linecap: square"/>
    </g>
    <g id="text_16">
     <!-- $4$ -->
     <g transform="translate(81.356428 501.07697) scale(0.22 -0.22)">
      <use xlink:href="#CMR17-34" transform="scale(0.996264)"/>
     </g>
    </g>
    <g id="line2d_23">
     <path style="fill: none; stroke: #7201a8; stroke-width: 2; stroke-linecap: square"/>
    </g>
    <g id="text_17">
     <!-- $8$ -->
     <g transform="translate(197.008333 469.792305) scale(0.22 -0.22)">
      <use xlink:href="#CMR17-38" transform="scale(0.996264)"/>
     </g>
    </g>
    <g id="line2d_24">
     <path style="fill: none; stroke: #9c179e; stroke-width: 2; stroke-linecap: square"/>
    </g>
    <g id="text_18">
     <!-- $10$ -->
     <g transform="translate(197.008333 501.07697) scale(0.22 -0.22)">
      <use xlink:href="#CMR17-31" transform="scale(0.996264)"/>
      <use xlink:href="#CMR17-30" transform="translate(45.690477 0) scale(0.996264)"/>
     </g>
    </g>
    <g id="line2d_25">
     <path style="fill: none; stroke: #bd3786; stroke-width: 2; stroke-linecap: square"/>
    </g>
    <g id="text_19">
     <!-- $15$ -->
     <g transform="translate(322.712143 469.792305) scale(0.22 -0.22)">
      <defs>
       <path id="CMR17-35" d="M 730 3692 
C 794 3666 1056 3584 1325 3584 
C 1920 3584 2246 3911 2432 4100 
C 2432 4157 2432 4192 2394 4192 
C 2387 4192 2374 4192 2323 4163 
C 2099 4058 1837 3973 1517 3973 
C 1325 3973 1037 3999 723 4139 
C 653 4171 640 4171 634 4171 
C 602 4171 595 4164 595 4037 
L 595 2203 
C 595 2089 595 2057 659 2057 
C 691 2057 704 2070 736 2114 
C 941 2401 1222 2522 1542 2522 
C 1766 2522 2246 2382 2246 1289 
C 2246 1085 2246 715 2054 421 
C 1894 159 1645 25 1370 25 
C 947 25 518 320 403 814 
C 429 807 480 795 506 795 
C 589 795 749 840 749 1038 
C 749 1210 627 1280 506 1280 
C 358 1280 262 1190 262 1011 
C 262 454 704 -128 1382 -128 
C 2042 -128 2669 440 2669 1264 
C 2669 2030 2170 2624 1549 2624 
C 1222 2624 947 2503 730 2274 
L 730 3692 
z
" transform="scale(0.015625)"/>
      </defs>
      <use xlink:href="#CMR17-31" transform="scale(0.996264)"/>
      <use xlink:href="#CMR17-35" transform="translate(45.690477 0) scale(0.996264)"/>
     </g>
    </g>
    <g id="line2d_26">
     <path style="fill: none; stroke: #d8576b; stroke-width: 2; stroke-linecap: square"/>
    </g>
    <g id="text_20">
     <!-- $20$ -->
     <g transform="translate(322.712143 501.07697) scale(0.22 -0.22)">
      <use xlink:href="#CMR17-32" transform="scale(0.996264)"/>
      <use xlink:href="#CMR17-30" transform="translate(45.690477 0) scale(0.996264)"/>
     </g>
    </g>
    <g id="line2d_27">
     <path style="fill: none; stroke: #ed7953; stroke-width: 2; stroke-linecap: square"/>
    </g>
    <g id="text_21">
     <!-- $40$ -->
     <g transform="translate(448.415952 469.792305) scale(0.22 -0.22)">
      <use xlink:href="#CMR17-34" transform="scale(0.996264)"/>
      <use xlink:href="#CMR17-30" transform="translate(45.690477 0) scale(0.996264)"/>
     </g>
    </g>
    <g id="line2d_28">
     <path style="fill: none; stroke: #fb9f3a; stroke-width: 2; stroke-linecap: square"/>
    </g>
    <g id="text_22">
     <!-- $60$ -->
     <g transform="translate(448.415952 501.07697) scale(0.22 -0.22)">
      <use xlink:href="#CMR17-36" transform="scale(0.996264)"/>
      <use xlink:href="#CMR17-30" transform="translate(45.690477 0) scale(0.996264)"/>
     </g>
    </g>
    <g id="line2d_29">
     <path style="fill: none; stroke: #fdca26; stroke-width: 2; stroke-linecap: square"/>
    </g>
    <g id="text_23">
     <!-- $80$ -->
     <g transform="translate(574.119762 469.792305) scale(0.22 -0.22)">
      <use xlink:href="#CMR17-38" transform="scale(0.996264)"/>
      <use xlink:href="#CMR17-30" transform="translate(45.690477 0) scale(0.996264)"/>
     </g>
    </g>
   </g>
  </g>
 </g>
 <defs>
  <clipPath id="pacea96ca05">
   <rect x="81" y="51.84" width="502.2" height="332.64"/>
  </clipPath>
 </defs>
</svg>
