<?xml version="1.0" encoding="utf-8" standalone="no"?>
<!DOCTYPE svg PUBLIC "-//W3C//DTD SVG 1.1//EN"
  "http://www.w3.org/Graphics/SVG/1.1/DTD/svg11.dtd">
<svg xmlns:xlink="http://www.w3.org/1999/xlink" width="648pt" height="432pt" viewBox="0 0 648 432" xmlns="http://www.w3.org/2000/svg" version="1.1">
 <metadata>
  <rdf:RDF xmlns:dc="http://purl.org/dc/elements/1.1/" xmlns:cc="http://creativecommons.org/ns#" xmlns:rdf="http://www.w3.org/1999/02/22-rdf-syntax-ns#">
   <cc:Work>
    <dc:type rdf:resource="http://purl.org/dc/dcmitype/StillImage"/>
    <dc:date>2023-03-29T17:44:25.309264</dc:date>
    <dc:format>image/svg+xml</dc:format>
    <dc:creator>
     <cc:Agent>
      <dc:title>Matplotlib v3.6.0, https://matplotlib.org/</dc:title>
     </cc:Agent>
    </dc:creator>
   </cc:Work>
  </rdf:RDF>
 </metadata>
 <defs>
  <style type="text/css">*{stroke-linejoin: round; stroke-linecap: butt}</style>
 </defs>
 <g id="figure_1">
  <g id="patch_1">
   <path d="M 0 432 
L 648 432 
L 648 0 
L 0 0 
L 0 432 
z
" style="fill: none"/>
  </g>
  <g id="axes_1">
   <g id="patch_2">
    <path d="M 81 384.48 
L 583.2 384.48 
L 583.2 51.84 
L 81 51.84 
L 81 384.48 
z
" style="fill: none"/>
   </g>
   <g id="matplotlib.axis_1">
    <g id="xtick_1">
     <g id="line2d_1">
      <defs>
       <path id="m8f597c7bab" d="M 0 0 
L 0 3.5 
" style="stroke: #000000; stroke-width: 0.8"/>
      </defs>
      <g>
       <use xlink:href="#m8f597c7bab" x="103.827273" y="384.48" style="stroke: #000000; stroke-width: 0.8"/>
      </g>
     </g>
     <g id="text_1">
      <!-- $\mathdefault{0.0}$ -->
      <g transform="translate(90.794678 407.096305) scale(0.22 -0.22)">
       <defs>
        <path id="CMR17-30" d="M 2688 2025 
C 2688 2416 2682 3080 2413 3591 
C 2176 4039 1798 4198 1466 4198 
C 1158 4198 768 4058 525 3597 
C 269 3118 243 2524 243 2025 
C 243 1661 250 1106 448 619 
C 723 -39 1216 -128 1466 -128 
C 1760 -128 2208 -7 2470 600 
C 2662 1042 2688 1559 2688 2025 
z
M 1466 -26 
C 1056 -26 813 325 723 812 
C 653 1188 653 1738 653 2096 
C 653 2588 653 2997 736 3387 
C 858 3929 1216 4096 1466 4096 
C 1728 4096 2067 3923 2189 3400 
C 2272 3036 2278 2607 2278 2096 
C 2278 1680 2278 1169 2202 792 
C 2067 95 1690 -26 1466 -26 
z
" transform="scale(0.015625)"/>
        <path id="CMMI12-3a" d="M 1178 307 
C 1178 492 1024 619 870 619 
C 685 619 557 466 557 313 
C 557 128 710 0 864 0 
C 1050 0 1178 153 1178 307 
z
" transform="scale(0.015625)"/>
       </defs>
       <use xlink:href="#CMR17-30" transform="scale(0.996264)"/>
       <use xlink:href="#CMMI12-3a" transform="translate(45.690477 0) scale(0.996264)"/>
       <use xlink:href="#CMR17-30" transform="translate(72.787654 0) scale(0.996264)"/>
      </g>
     </g>
    </g>
    <g id="xtick_2">
     <g id="line2d_2">
      <g>
       <use xlink:href="#m8f597c7bab" x="195.136364" y="384.48" style="stroke: #000000; stroke-width: 0.8"/>
      </g>
     </g>
     <g id="text_2">
      <!-- $\mathdefault{0.2}$ -->
      <g transform="translate(182.103769 407.096305) scale(0.22 -0.22)">
       <defs>
        <path id="CMR17-32" d="M 2669 989 
L 2554 989 
C 2490 536 2438 459 2413 420 
C 2381 369 1920 369 1830 369 
L 602 369 
C 832 619 1280 1072 1824 1597 
C 2214 1967 2669 2402 2669 3035 
C 2669 3790 2067 4224 1395 4224 
C 691 4224 262 3604 262 3030 
C 262 2780 448 2748 525 2748 
C 589 2748 781 2787 781 3010 
C 781 3207 614 3264 525 3264 
C 486 3264 448 3258 422 3245 
C 544 3790 915 4058 1306 4058 
C 1862 4058 2227 3617 2227 3035 
C 2227 2479 1901 2000 1536 1584 
L 262 146 
L 262 0 
L 2515 0 
L 2669 989 
z
" transform="scale(0.015625)"/>
       </defs>
       <use xlink:href="#CMR17-30" transform="scale(0.996264)"/>
       <use xlink:href="#CMMI12-3a" transform="translate(45.690477 0) scale(0.996264)"/>
       <use xlink:href="#CMR17-32" transform="translate(72.787654 0) scale(0.996264)"/>
      </g>
     </g>
    </g>
    <g id="xtick_3">
     <g id="line2d_3">
      <g>
       <use xlink:href="#m8f597c7bab" x="286.445455" y="384.48" style="stroke: #000000; stroke-width: 0.8"/>
      </g>
     </g>
     <g id="text_3">
      <!-- $\mathdefault{0.4}$ -->
      <g transform="translate(273.41286 407.096305) scale(0.22 -0.22)">
       <defs>
        <path id="CMR17-34" d="M 2150 4122 
C 2150 4256 2144 4256 2029 4256 
L 128 1254 
L 128 1088 
L 1779 1088 
L 1779 457 
C 1779 224 1766 160 1318 160 
L 1197 160 
L 1197 0 
C 1402 0 1747 0 1965 0 
C 2182 0 2528 0 2733 0 
L 2733 160 
L 2611 160 
C 2163 160 2150 224 2150 457 
L 2150 1088 
L 2803 1088 
L 2803 1254 
L 2150 1254 
L 2150 4122 
z
M 1798 3703 
L 1798 1254 
L 256 1254 
L 1798 3703 
z
" transform="scale(0.015625)"/>
       </defs>
       <use xlink:href="#CMR17-30" transform="scale(0.996264)"/>
       <use xlink:href="#CMMI12-3a" transform="translate(45.690477 0) scale(0.996264)"/>
       <use xlink:href="#CMR17-34" transform="translate(72.787654 0) scale(0.996264)"/>
      </g>
     </g>
    </g>
    <g id="xtick_4">
     <g id="line2d_4">
      <g>
       <use xlink:href="#m8f597c7bab" x="377.754545" y="384.48" style="stroke: #000000; stroke-width: 0.8"/>
      </g>
     </g>
     <g id="text_4">
      <!-- $\mathdefault{0.6}$ -->
      <g transform="translate(364.721951 407.096305) scale(0.22 -0.22)">
       <defs>
        <path id="CMR17-36" d="M 678 2176 
C 678 3690 1395 4032 1811 4032 
C 1946 4032 2272 4009 2400 3776 
C 2298 3776 2106 3776 2106 3553 
C 2106 3381 2246 3323 2336 3323 
C 2394 3323 2566 3348 2566 3560 
C 2566 3954 2246 4179 1805 4179 
C 1043 4179 243 3390 243 1984 
C 243 253 966 -128 1478 -128 
C 2099 -128 2688 427 2688 1283 
C 2688 2081 2170 2662 1517 2662 
C 1126 2662 838 2407 678 1960 
L 678 2176 
z
M 1478 25 
C 691 25 691 1200 691 1436 
C 691 1896 909 2560 1504 2560 
C 1613 2560 1926 2560 2138 2120 
C 2253 1870 2253 1609 2253 1289 
C 2253 944 2253 690 2118 434 
C 1978 171 1773 25 1478 25 
z
" transform="scale(0.015625)"/>
       </defs>
       <use xlink:href="#CMR17-30" transform="scale(0.996264)"/>
       <use xlink:href="#CMMI12-3a" transform="translate(45.690477 0) scale(0.996264)"/>
       <use xlink:href="#CMR17-36" transform="translate(72.787654 0) scale(0.996264)"/>
      </g>
     </g>
    </g>
    <g id="xtick_5">
     <g id="line2d_5">
      <g>
       <use xlink:href="#m8f597c7bab" x="469.063636" y="384.48" style="stroke: #000000; stroke-width: 0.8"/>
      </g>
     </g>
     <g id="text_5">
      <!-- $\mathdefault{0.8}$ -->
      <g transform="translate(456.031042 407.096305) scale(0.22 -0.22)">
       <defs>
        <path id="CMR17-38" d="M 1741 2264 
C 2144 2467 2554 2773 2554 3263 
C 2554 3841 1990 4179 1472 4179 
C 890 4179 378 3759 378 3180 
C 378 3021 416 2747 666 2505 
C 730 2442 998 2251 1171 2130 
C 883 1983 211 1634 211 934 
C 211 279 838 -128 1459 -128 
C 2144 -128 2720 362 2720 1010 
C 2720 1590 2330 1857 2074 2029 
L 1741 2264 
z
M 902 2822 
C 851 2854 595 3051 595 3351 
C 595 3739 998 4032 1459 4032 
C 1965 4032 2336 3676 2336 3262 
C 2336 2669 1670 2331 1638 2331 
C 1632 2331 1626 2331 1574 2370 
L 902 2822 
z
M 2080 1519 
C 2176 1449 2483 1240 2483 851 
C 2483 381 2010 25 1472 25 
C 890 25 448 438 448 940 
C 448 1443 838 1862 1280 2060 
L 2080 1519 
z
" transform="scale(0.015625)"/>
       </defs>
       <use xlink:href="#CMR17-30" transform="scale(0.996264)"/>
       <use xlink:href="#CMMI12-3a" transform="translate(45.690477 0) scale(0.996264)"/>
       <use xlink:href="#CMR17-38" transform="translate(72.787654 0) scale(0.996264)"/>
      </g>
     </g>
    </g>
    <g id="xtick_6">
     <g id="line2d_6">
      <g>
       <use xlink:href="#m8f597c7bab" x="560.372727" y="384.48" style="stroke: #000000; stroke-width: 0.8"/>
      </g>
     </g>
     <g id="text_6">
      <!-- $\mathdefault{1.0}$ -->
      <g transform="translate(547.340133 407.096305) scale(0.22 -0.22)">
       <defs>
        <path id="CMR17-31" d="M 1702 4058 
C 1702 4192 1696 4192 1606 4192 
C 1357 3916 979 3827 621 3827 
C 602 3827 570 3827 563 3808 
C 557 3795 557 3782 557 3648 
C 755 3648 1088 3686 1344 3839 
L 1344 461 
C 1344 236 1331 160 781 160 
L 589 160 
L 589 0 
C 896 0 1216 0 1523 0 
C 1830 0 2150 0 2458 0 
L 2458 160 
L 2266 160 
C 1715 160 1702 230 1702 458 
L 1702 4058 
z
" transform="scale(0.015625)"/>
       </defs>
       <use xlink:href="#CMR17-31" transform="scale(0.996264)"/>
       <use xlink:href="#CMMI12-3a" transform="translate(45.690477 0) scale(0.996264)"/>
       <use xlink:href="#CMR17-30" transform="translate(72.787654 0) scale(0.996264)"/>
      </g>
     </g>
    </g>
    <g id="text_7">
     <!-- $s$ -->
     <g transform="translate(327.045499 431.38097) scale(0.22 -0.22)">
      <defs>
       <path id="CMMI12-73" d="M 1459 1280 
C 1568 1261 1741 1223 1779 1216 
C 1862 1192 2150 1090 2150 783 
C 2150 586 1971 70 1229 70 
C 1094 70 614 70 486 436 
C 742 404 870 603 870 745 
C 870 880 781 950 653 950 
C 512 950 326 841 326 552 
C 326 173 710 -64 1222 -64 
C 2195 -64 2483 651 2483 984 
C 2483 1079 2483 1258 2278 1462 
C 2118 1616 1965 1648 1619 1718 
C 1446 1756 1171 1814 1171 2101 
C 1171 2229 1286 2689 1894 2689 
C 2163 2689 2426 2589 2490 2368 
C 2208 2368 2195 2125 2195 2119 
C 2195 1984 2317 1946 2374 1946 
C 2464 1946 2643 2015 2643 2281 
C 2643 2545 2400 2816 1901 2816 
C 1062 2816 838 2160 838 1899 
C 838 1414 1312 1312 1459 1280 
z
" transform="scale(0.015625)"/>
      </defs>
      <use xlink:href="#CMMI12-73" transform="scale(0.996264)"/>
     </g>
    </g>
   </g>
   <g id="matplotlib.axis_2">
    <g id="ytick_1">
     <g id="line2d_7">
      <defs>
       <path id="m6542243972" d="M 0 0 
L -3.5 0 
" style="stroke: #000000; stroke-width: 0.8"/>
      </defs>
      <g>
       <use xlink:href="#m6542243972" x="81" y="319.436865" style="stroke: #000000; stroke-width: 0.8"/>
      </g>
     </g>
     <g id="text_8">
      <!-- $\mathdefault{10^{-2}}$ -->
      <g transform="translate(34.451879 327.245017) scale(0.22 -0.22)">
       <defs>
        <path id="CMSY10-0" d="M 4218 1472 
C 4326 1472 4442 1472 4442 1600 
C 4442 1728 4326 1728 4218 1728 
L 755 1728 
C 646 1728 531 1728 531 1600 
C 531 1472 646 1472 755 1472 
L 4218 1472 
z
" transform="scale(0.015625)"/>
       </defs>
       <use xlink:href="#CMR17-31" transform="scale(0.996264)"/>
       <use xlink:href="#CMR17-30" transform="translate(45.690477 0) scale(0.996264)"/>
       <use xlink:href="#CMSY10-0" transform="translate(91.380954 36.153639) scale(0.697382)"/>
       <use xlink:href="#CMR17-32" transform="translate(145.621947 36.153639) scale(0.697382)"/>
      </g>
     </g>
    </g>
    <g id="ytick_2">
     <g id="line2d_8">
      <g>
       <use xlink:href="#m6542243972" x="81" y="152.984906" style="stroke: #000000; stroke-width: 0.8"/>
      </g>
     </g>
     <g id="text_9">
      <!-- $\mathdefault{10^{-1}}$ -->
      <g transform="translate(34.451879 160.793059) scale(0.22 -0.22)">
       <use xlink:href="#CMR17-31" transform="scale(0.996264)"/>
       <use xlink:href="#CMR17-30" transform="translate(45.690477 0) scale(0.996264)"/>
       <use xlink:href="#CMSY10-0" transform="translate(91.380954 36.153639) scale(0.697382)"/>
       <use xlink:href="#CMR17-31" transform="translate(145.621947 36.153639) scale(0.697382)"/>
      </g>
     </g>
    </g>
    <g id="ytick_3">
     <g id="line2d_9">
      <defs>
       <path id="m217fe84ade" d="M 0 0 
L -2 0 
" style="stroke: #000000; stroke-width: 0.6"/>
      </defs>
      <g>
       <use xlink:href="#m217fe84ade" x="81" y="369.543897" style="stroke: #000000; stroke-width: 0.6"/>
      </g>
     </g>
    </g>
    <g id="ytick_4">
     <g id="line2d_10">
      <g>
       <use xlink:href="#m217fe84ade" x="81" y="356.364023" style="stroke: #000000; stroke-width: 0.6"/>
      </g>
     </g>
    </g>
    <g id="ytick_5">
     <g id="line2d_11">
      <g>
       <use xlink:href="#m217fe84ade" x="81" y="345.220599" style="stroke: #000000; stroke-width: 0.6"/>
      </g>
     </g>
    </g>
    <g id="ytick_6">
     <g id="line2d_12">
      <g>
       <use xlink:href="#m217fe84ade" x="81" y="335.567726" style="stroke: #000000; stroke-width: 0.6"/>
      </g>
     </g>
    </g>
    <g id="ytick_7">
     <g id="line2d_13">
      <g>
       <use xlink:href="#m217fe84ade" x="81" y="327.053289" style="stroke: #000000; stroke-width: 0.6"/>
      </g>
     </g>
    </g>
    <g id="ytick_8">
     <g id="line2d_14">
      <g>
       <use xlink:href="#m217fe84ade" x="81" y="269.329832" style="stroke: #000000; stroke-width: 0.6"/>
      </g>
     </g>
    </g>
    <g id="ytick_9">
     <g id="line2d_15">
      <g>
       <use xlink:href="#m217fe84ade" x="81" y="240.019097" style="stroke: #000000; stroke-width: 0.6"/>
      </g>
     </g>
    </g>
    <g id="ytick_10">
     <g id="line2d_16">
      <g>
       <use xlink:href="#m217fe84ade" x="81" y="219.2228" style="stroke: #000000; stroke-width: 0.6"/>
      </g>
     </g>
    </g>
    <g id="ytick_11">
     <g id="line2d_17">
      <g>
       <use xlink:href="#m217fe84ade" x="81" y="203.091939" style="stroke: #000000; stroke-width: 0.6"/>
      </g>
     </g>
    </g>
    <g id="ytick_12">
     <g id="line2d_18">
      <g>
       <use xlink:href="#m217fe84ade" x="81" y="189.912065" style="stroke: #000000; stroke-width: 0.6"/>
      </g>
     </g>
    </g>
    <g id="ytick_13">
     <g id="line2d_19">
      <g>
       <use xlink:href="#m217fe84ade" x="81" y="178.768641" style="stroke: #000000; stroke-width: 0.6"/>
      </g>
     </g>
    </g>
    <g id="ytick_14">
     <g id="line2d_20">
      <g>
       <use xlink:href="#m217fe84ade" x="81" y="169.115768" style="stroke: #000000; stroke-width: 0.6"/>
      </g>
     </g>
    </g>
    <g id="ytick_15">
     <g id="line2d_21">
      <g>
       <use xlink:href="#m217fe84ade" x="81" y="160.60133" style="stroke: #000000; stroke-width: 0.6"/>
      </g>
     </g>
    </g>
    <g id="ytick_16">
     <g id="line2d_22">
      <g>
       <use xlink:href="#m217fe84ade" x="81" y="102.877874" style="stroke: #000000; stroke-width: 0.6"/>
      </g>
     </g>
    </g>
    <g id="ytick_17">
     <g id="line2d_23">
      <g>
       <use xlink:href="#m217fe84ade" x="81" y="73.567139" style="stroke: #000000; stroke-width: 0.6"/>
      </g>
     </g>
    </g>
    <g id="ytick_18">
     <g id="line2d_24">
      <g>
       <use xlink:href="#m217fe84ade" x="81" y="52.770842" style="stroke: #000000; stroke-width: 0.6"/>
      </g>
     </g>
    </g>
    <g id="text_10">
     <!-- $\varepsilon(s)$ -->
     <g transform="translate(24.99076 235.997779) rotate(-90) scale(0.22 -0.22)">
      <defs>
       <path id="CMMI12-22" d="M 890 1427 
C 1094 1345 1312 1345 1434 1345 
C 1600 1345 1933 1345 1933 1550 
C 1933 1678 1811 1728 1485 1728 
C 1325 1728 1133 1709 909 1613 
C 710 1708 634 1852 634 1990 
C 634 2379 1261 2606 1830 2606 
C 1939 2606 2170 2606 2438 2411 
C 2477 2387 2496 2367 2541 2367 
C 2618 2367 2701 2449 2701 2526 
C 2701 2639 2330 2880 1888 2880 
C 1171 2880 493 2449 493 1972 
C 493 1734 646 1586 755 1509 
C 384 1301 166 961 166 652 
C 166 219 563 -128 1178 -128 
C 2022 -128 2362 424 2362 512 
C 2362 543 2336 568 2304 568 
C 2272 568 2259 549 2234 512 
C 2163 395 1997 146 1235 146 
C 838 146 314 245 314 686 
C 314 898 474 1214 890 1427 
z
M 1088 1518 
C 1261 1600 1427 1600 1472 1600 
C 1651 1600 1683 1583 1786 1545 
C 1677 1472 1664 1472 1434 1472 
C 1318 1472 1216 1472 1088 1518 
z
" transform="scale(0.015625)"/>
       <path id="CMR17-28" d="M 1958 -1561 
C 1958 -1555 1958 -1542 1939 -1523 
C 1645 -1224 858 -407 858 1581 
C 858 3569 1632 4379 1946 4697 
C 1946 4704 1958 4717 1958 4736 
C 1958 4755 1939 4768 1914 4768 
C 1843 4768 1299 4296 986 3594 
C 666 2887 576 2199 576 1588 
C 576 1128 621 351 1005 -471 
C 1312 -1135 1837 -1600 1914 -1600 
C 1946 -1600 1958 -1587 1958 -1561 
z
" transform="scale(0.015625)"/>
       <path id="CMR17-29" d="M 1683 1581 
C 1683 2040 1638 2817 1254 3639 
C 947 4303 422 4768 346 4768 
C 326 4768 301 4761 301 4729 
C 301 4717 307 4710 314 4697 
C 621 4378 1402 3568 1402 1584 
C 1402 -407 627 -1217 314 -1537 
C 307 -1549 301 -1556 301 -1568 
C 301 -1600 326 -1600 346 -1600 
C 416 -1600 960 -1128 1274 -426 
C 1594 281 1683 969 1683 1581 
z
" transform="scale(0.015625)"/>
      </defs>
      <use xlink:href="#CMMI12-22" transform="scale(0.996264)"/>
      <use xlink:href="#CMR17-28" transform="translate(45.650192 0) scale(0.996264)"/>
      <use xlink:href="#CMMI12-73" transform="translate(80.93096 0) scale(0.996264)"/>
      <use xlink:href="#CMR17-29" transform="translate(126.881008 0) scale(0.996264)"/>
     </g>
    </g>
   </g>
   <g id="line2d_25">
    <path d="M 103.827273 67.377317 
L 108.392727 67.782632 
L 112.958182 67.150777 
L 117.523636 68.750793 
L 122.089091 68.84763 
L 126.654545 69.956837 
L 131.22 69.741353 
L 135.785455 70.419711 
L 140.350909 71.503068 
L 144.916364 71.320279 
L 149.481818 71.635948 
L 154.047273 73.072926 
L 158.612727 73.092136 
L 163.178182 73.211155 
L 167.743636 74.304735 
L 172.309091 75.22132 
L 176.874545 75.150503 
L 181.44 75.979942 
L 186.005455 76.812128 
L 190.570909 77.722026 
L 195.136364 77.613211 
L 199.701818 78.709558 
L 204.267273 79.652623 
L 208.832727 80.338045 
L 213.398182 80.560286 
L 217.963636 81.871076 
L 222.529091 82.877979 
L 227.094545 83.249896 
L 231.66 84.093875 
L 236.225455 84.959433 
L 240.790909 86.474953 
L 245.356364 86.174573 
L 249.921818 88.05245 
L 254.487273 88.385082 
L 259.052727 89.929079 
L 263.618182 90.242979 
L 268.183636 91.398161 
L 272.749091 92.761397 
L 277.314545 93.605615 
L 281.88 94.214193 
L 286.445455 95.90172 
L 291.010909 95.960655 
L 295.576364 99.799511 
L 300.141818 97.769264 
L 304.707273 101.408457 
L 309.272727 100.723358 
L 313.838182 103.406869 
L 318.403636 104.201973 
L 322.969091 104.462847 
L 327.534545 108.123409 
L 332.1 107.53224 
L 336.665455 110.62892 
L 341.230909 111.0998 
L 345.796364 112.712444 
L 350.361818 114.000375 
L 354.927273 115.344384 
L 359.492727 118.878198 
L 364.058182 119.330969 
L 368.623636 119.710102 
L 373.189091 123.615155 
L 377.754545 125.207264 
L 382.32 125.057993 
L 386.885455 128.72124 
L 391.450909 131.735386 
L 396.016364 132.796974 
L 400.581818 134.865086 
L 405.147273 137.036441 
L 409.712727 141.356822 
L 414.278182 143.471404 
L 418.843636 143.829424 
L 423.409091 146.933734 
L 427.974545 152.361051 
L 432.54 155.428057 
L 437.105455 156.788541 
L 441.670909 158.702797 
L 446.236364 164.379115 
L 450.801818 169.064554 
L 455.367273 172.094087 
L 459.932727 175.105859 
L 464.498182 177.666341 
L 469.063636 181.679889 
L 473.629091 187.919468 
L 478.194545 195.574259 
L 482.76 201.838158 
L 487.325455 206.465758 
L 491.890909 210.104584 
L 496.456364 214.461699 
L 501.021818 220.379226 
L 505.587273 227.625916 
L 510.152727 236.485505 
L 514.718182 245.812342 
L 519.283636 254.782441 
L 523.849091 263.172593 
L 528.414545 271.137078 
L 532.98 279.188488 
L 537.545455 287.856578 
L 542.110909 297.228939 
L 546.676364 306.752386 
L 551.241818 315.292311 
L 555.807273 321.237788 
L 560.372727 323.057921 
" clip-path="url(#pb7df2df8cb)" style="fill: none; stroke: #0d0887; stroke-width: 2; stroke-linecap: square"/>
   </g>
   <g id="line2d_26">
    <path d="M 103.827273 67.377317 
L 108.392727 67.73566 
L 112.958182 67.046585 
L 117.523636 68.607604 
L 122.089091 68.489362 
L 126.654545 69.874722 
L 131.22 69.477367 
L 135.785455 70.403645 
L 140.350909 71.229599 
L 144.916364 71.111394 
L 149.481818 71.649933 
L 154.047273 72.703673 
L 158.612727 72.91491 
L 163.178182 73.262825 
L 167.743636 73.866987 
L 172.309091 75.228455 
L 176.874545 75.019487 
L 181.44 75.51742 
L 186.005455 77.025861 
L 190.570909 77.178441 
L 195.136364 77.722071 
L 199.701818 78.312997 
L 204.267273 79.978923 
L 208.832727 79.832515 
L 213.398182 80.636229 
L 217.963636 81.665479 
L 222.529091 82.717085 
L 227.094545 83.175817 
L 231.66 83.651472 
L 236.225455 85.143918 
L 240.790909 85.954228 
L 245.356364 86.506957 
L 249.921818 87.463276 
L 254.487273 88.888282 
L 259.052727 89.640965 
L 263.618182 90.848366 
L 268.183636 91.132977 
L 272.749091 93.405756 
L 277.314545 93.875873 
L 281.88 95.059577 
L 286.445455 95.950734 
L 291.010909 96.951791 
L 295.576364 99.272545 
L 300.141818 98.73541 
L 304.707273 101.288702 
L 309.272727 102.249106 
L 313.838182 102.848849 
L 318.403636 106.729495 
L 322.969091 104.28963 
L 327.534545 108.109424 
L 332.1 109.694605 
L 336.665455 109.071897 
L 341.230909 114.850635 
L 345.796364 112.49118 
L 350.361818 114.515435 
L 354.927273 117.886071 
L 359.492727 118.953384 
L 364.058182 120.562373 
L 368.623636 122.154128 
L 373.189091 123.812476 
L 377.754545 126.001696 
L 382.32 128.640206 
L 386.885455 130.158407 
L 391.450909 132.833719 
L 396.016364 135.866793 
L 400.581818 137.537704 
L 405.147273 140.269659 
L 409.712727 142.462094 
L 414.278182 145.157788 
L 418.843636 148.153858 
L 423.409091 150.460602 
L 427.974545 153.638307 
L 432.54 155.5897 
L 437.105455 159.656169 
L 441.670909 165.675592 
L 446.236364 169.333609 
L 450.801818 170.124087 
L 455.367273 173.254517 
L 459.932727 177.239669 
L 464.498182 181.683293 
L 469.063636 187.063815 
L 473.629091 193.698243 
L 478.194545 199.244101 
L 482.76 202.725733 
L 487.325455 206.549287 
L 491.890909 212.320802 
L 496.456364 219.708459 
L 501.021818 227.060442 
L 505.587273 234.056683 
L 510.152727 240.989159 
L 514.718182 248.39482 
L 519.283636 256.852595 
L 523.849091 266.714054 
L 528.414545 278.037725 
L 532.98 290.684721 
L 537.545455 304.734908 
L 542.110909 320.006665 
L 546.676364 335.686977 
L 551.241818 349.869692 
L 555.807273 359.365673 
L 560.372727 361.072773 
" clip-path="url(#pb7df2df8cb)" style="fill: none; stroke: #46039f; stroke-width: 2; stroke-linecap: square"/>
   </g>
   <g id="line2d_27">
    <path d="M 103.827273 67.377317 
L 108.392727 67.648108 
L 112.958182 67.085198 
L 117.523636 68.520705 
L 122.089091 68.571794 
L 126.654545 69.858006 
L 131.22 69.409211 
L 135.785455 70.333415 
L 140.350909 71.162133 
L 144.916364 71.042984 
L 149.481818 71.531319 
L 154.047273 72.548727 
L 158.612727 73.042278 
L 163.178182 72.943782 
L 167.743636 74.06801 
L 172.309091 75.028045 
L 176.874545 74.917354 
L 181.44 75.717898 
L 186.005455 76.691257 
L 190.570909 77.564522 
L 195.136364 77.461673 
L 199.701818 78.694755 
L 204.267273 79.752928 
L 208.832727 80.249464 
L 213.398182 80.709042 
L 217.963636 81.940878 
L 222.529091 83.101191 
L 227.094545 83.330947 
L 231.66 84.41271 
L 236.225455 85.339125 
L 240.790909 86.772517 
L 245.356364 86.850523 
L 249.921818 88.306715 
L 254.487273 89.226066 
L 259.052727 90.680386 
L 263.618182 90.916465 
L 268.183636 92.472842 
L 272.749091 93.401845 
L 277.314545 95.101455 
L 281.88 95.516935 
L 286.445455 96.983059 
L 291.010909 98.263761 
L 295.576364 99.543133 
L 300.141818 101.218076 
L 304.707273 101.473585 
L 309.272727 104.051623 
L 313.838182 104.711997 
L 318.403636 106.654389 
L 322.969091 107.303274 
L 327.534545 109.193774 
L 332.1 111.246769 
L 336.665455 112.103947 
L 341.230909 114.594506 
L 345.796364 115.089901 
L 350.361818 117.388256 
L 354.927273 119.09857 
L 359.492727 121.075429 
L 364.058182 123.331101 
L 368.623636 124.53235 
L 373.189091 127.036976 
L 377.754545 128.529158 
L 382.32 130.637588 
L 386.885455 133.899676 
L 391.450909 135.690407 
L 396.016364 137.613337 
L 400.581818 140.14808 
L 405.147273 143.000421 
L 409.712727 145.766751 
L 414.278182 148.374073 
L 418.843636 150.590967 
L 423.409091 153.59823 
L 427.974545 156.790857 
L 432.54 160.425349 
L 437.105455 163.600058 
L 441.670909 166.812291 
L 446.236364 170.686907 
L 450.801818 174.271171 
L 455.367273 178.173952 
L 459.932727 181.938374 
L 464.498182 186.120857 
L 469.063636 190.907355 
L 473.629091 195.393994 
L 478.194545 200.411234 
L 482.76 205.721533 
L 487.325455 210.681417 
L 491.890909 216.197864 
L 496.456364 222.900611 
L 501.021818 229.936739 
L 505.587273 236.757443 
L 510.152727 244.125376 
L 514.718182 252.472335 
L 519.283636 261.962645 
L 523.849091 272.587386 
L 528.414545 284.648963 
L 532.98 298.310216 
L 537.545455 313.347432 
L 542.110909 329.365787 
L 546.676364 345.385412 
L 551.241818 359.486201 
L 555.807273 368.578118 
L 560.372727 369.36 
" clip-path="url(#pb7df2df8cb)" style="fill: none; stroke: #7201a8; stroke-width: 2; stroke-linecap: square"/>
   </g>
   <g id="line2d_28">
    <path d="M 103.827273 67.377317 
L 108.392727 67.650946 
L 112.958182 66.994987 
L 117.523636 68.489443 
L 122.089091 68.462551 
L 126.654545 69.880058 
L 131.22 69.457771 
L 135.785455 70.263521 
L 140.350909 71.257485 
L 144.916364 71.045814 
L 149.481818 71.549313 
L 154.047273 72.559307 
L 158.612727 73.08573 
L 163.178182 73.003925 
L 167.743636 73.990995 
L 172.309091 75.122424 
L 176.874545 74.978665 
L 181.44 75.699679 
L 186.005455 76.739856 
L 190.570909 77.679945 
L 195.136364 77.524483 
L 199.701818 78.733357 
L 204.267273 79.728947 
L 208.832727 80.433328 
L 213.398182 80.540117 
L 217.963636 81.962103 
L 222.529091 82.758215 
L 227.094545 83.404823 
L 231.66 83.695268 
L 236.225455 85.108569 
L 240.790909 85.6755 
L 245.356364 86.36056 
L 249.921818 86.615973 
L 254.487273 88.14111 
L 259.052727 88.584117 
L 263.618182 89.697787 
L 268.183636 90.358661 
L 272.749091 92.302883 
L 277.314545 93.577588 
L 281.88 94.887075 
L 286.445455 96.077208 
L 291.010909 97.877966 
L 295.576364 99.700144 
L 300.141818 100.415027 
L 304.707273 101.986574 
L 309.272727 102.95124 
L 313.838182 105.019573 
L 318.403636 106.414787 
L 322.969091 107.149632 
L 327.534545 109.185017 
L 332.1 110.804966 
L 336.665455 112.32186 
L 341.230909 114.194851 
L 345.796364 115.330421 
L 350.361818 117.292633 
L 354.927273 118.987802 
L 359.492727 121.226889 
L 364.058182 123.283316 
L 368.623636 124.33658 
L 373.189091 127.020329 
L 377.754545 128.737051 
L 382.32 130.790807 
L 386.885455 133.973628 
L 391.450909 135.562135 
L 396.016364 137.592205 
L 400.581818 140.89463 
L 405.147273 142.707051 
L 409.712727 145.129312 
L 414.278182 148.876664 
L 418.843636 151.59122 
L 423.409091 153.89585 
L 427.974545 156.684846 
L 432.54 160.724867 
L 437.105455 164.39068 
L 441.670909 167.655603 
L 446.236364 170.925154 
L 450.801818 174.264505 
L 455.367273 178.162735 
L 459.932727 182.4656 
L 464.498182 186.958699 
L 469.063636 191.859733 
L 473.629091 196.375201 
L 478.194545 200.983635 
L 482.76 206.25607 
L 487.325455 211.90469 
L 491.890909 217.849587 
L 496.456364 224.082669 
L 501.021818 230.377751 
L 505.587273 236.92108 
L 510.152727 244.416615 
L 514.718182 253.330296 
L 519.283636 263.422772 
L 523.849091 274.382683 
L 528.414545 286.345672 
L 532.98 299.348841 
L 537.545455 313.4974 
L 542.110909 328.749845 
L 546.676364 344.365469 
L 551.241818 358.391955 
L 555.807273 367.446167 
L 560.372727 368.00331 
" clip-path="url(#pb7df2df8cb)" style="fill: none; stroke: #9c179e; stroke-width: 2; stroke-linecap: square"/>
   </g>
   <g id="line2d_29">
    <path d="M 103.827273 67.377317 
L 108.392727 67.608663 
L 112.958182 66.96 
L 117.523636 68.397316 
L 122.089091 68.484797 
L 126.654545 69.904581 
L 131.22 69.503675 
L 135.785455 70.358986 
L 140.350909 71.278341 
L 144.916364 71.138048 
L 149.481818 71.642087 
L 154.047273 72.655032 
L 158.612727 73.182112 
L 163.178182 73.107491 
L 167.743636 74.197637 
L 172.309091 75.143963 
L 176.874545 75.175508 
L 181.44 75.788222 
L 186.005455 76.990215 
L 190.570909 77.679619 
L 195.136364 77.78558 
L 199.701818 78.740639 
L 204.267273 79.892482 
L 208.832727 80.321564 
L 213.398182 80.653851 
L 217.963636 81.558236 
L 222.529091 82.340125 
L 227.094545 82.484809 
L 231.66 82.6354 
L 236.225455 83.14477 
L 240.790909 83.383112 
L 245.356364 83.437727 
L 249.921818 83.610549 
L 254.487273 84.520149 
L 259.052727 85.243392 
L 263.618182 86.302476 
L 268.183636 87.497436 
L 272.749091 89.383036 
L 277.314545 91.312646 
L 281.88 92.813224 
L 286.445455 94.42636 
L 291.010909 96.164921 
L 295.576364 97.729584 
L 300.141818 98.704891 
L 304.707273 100.48307 
L 309.272727 101.493328 
L 313.838182 103.767866 
L 318.403636 105.421051 
L 322.969091 106.170306 
L 327.534545 108.519884 
L 332.1 110.022258 
L 336.665455 111.614023 
L 341.230909 114.067999 
L 345.796364 114.876923 
L 350.361818 116.642251 
L 354.927273 119.464612 
L 359.492727 120.847479 
L 364.058182 122.838264 
L 368.623636 124.767385 
L 373.189091 126.76014 
L 377.754545 128.527023 
L 382.32 130.866555 
L 386.885455 133.72712 
L 391.450909 135.87469 
L 396.016364 137.651356 
L 400.581818 140.74892 
L 405.147273 143.107975 
L 409.712727 145.55265 
L 414.278182 148.558728 
L 418.843636 151.591342 
L 423.409091 154.055165 
L 427.974545 157.29913 
L 432.54 160.791798 
L 437.105455 164.340284 
L 441.670909 167.775915 
L 446.236364 170.866543 
L 450.801818 174.804242 
L 455.367273 178.768995 
L 459.932727 182.825656 
L 464.498182 187.61543 
L 469.063636 192.020212 
L 473.629091 196.48875 
L 478.194545 201.518918 
L 482.76 207.025362 
L 487.325455 212.543621 
L 491.890909 218.133797 
L 496.456364 224.28389 
L 501.021818 231.105453 
L 505.587273 238.412583 
L 510.152727 246.24469 
L 514.718182 254.967897 
L 519.283636 264.596528 
L 523.849091 274.841545 
L 528.414545 286.017609 
L 532.98 298.669524 
L 537.545455 312.877002 
L 542.110909 328.293576 
L 546.676364 343.878269 
L 551.241818 357.552171 
L 555.807273 366.120491 
L 560.372727 366.425647 
" clip-path="url(#pb7df2df8cb)" style="fill: none; stroke: #bd3786; stroke-width: 2; stroke-linecap: square"/>
   </g>
   <g id="line2d_30">
    <path d="M 103.827273 67.377317 
L 108.392727 67.847652 
L 112.958182 67.483024 
L 117.523636 68.35883 
L 122.089091 68.257321 
L 126.654545 69.9456 
L 131.22 69.51646 
L 135.785455 70.379783 
L 140.350909 71.343381 
L 144.916364 71.181127 
L 149.481818 71.659976 
L 154.047273 72.730948 
L 158.612727 73.272072 
L 163.178182 73.151075 
L 167.743636 74.285838 
L 172.309091 75.286808 
L 176.874545 75.293214 
L 181.44 75.929387 
L 186.005455 77.137386 
L 190.570909 77.906977 
L 195.136364 77.917699 
L 199.701818 78.958395 
L 204.267273 80.071314 
L 208.832727 80.430114 
L 213.398182 80.600721 
L 217.963636 81.383796 
L 222.529091 82.01404 
L 227.094545 81.631188 
L 231.66 81.429987 
L 236.225455 81.531876 
L 240.790909 81.495237 
L 245.356364 81.092519 
L 249.921818 81.102386 
L 254.487273 82.057211 
L 259.052727 83.022108 
L 263.618182 83.926948 
L 268.183636 85.515313 
L 272.749091 87.15169 
L 277.314545 89.410498 
L 281.88 90.811441 
L 286.445455 92.373983 
L 291.010909 94.846395 
L 295.576364 95.801051 
L 300.141818 97.234789 
L 304.707273 98.448829 
L 309.272727 99.778538 
L 313.838182 102.592051 
L 318.403636 103.909136 
L 322.969091 104.486392 
L 327.534545 106.874612 
L 332.1 108.587138 
L 336.665455 110.57135 
L 341.230909 113.140635 
L 345.796364 113.55663 
L 350.361818 115.536001 
L 354.927273 118.86322 
L 359.492727 120.280442 
L 364.058182 121.940984 
L 368.623636 124.900373 
L 373.189091 126.441309 
L 377.754545 128.57344 
L 382.32 131.110734 
L 386.885455 133.204242 
L 391.450909 135.704027 
L 396.016364 137.917005 
L 400.581818 140.272686 
L 405.147273 143.106251 
L 409.712727 145.883313 
L 414.278182 148.673683 
L 418.843636 151.347067 
L 423.409091 154.199871 
L 427.974545 157.386828 
L 432.54 160.530196 
L 437.105455 163.936819 
L 441.670909 167.737185 
L 446.236364 171.455916 
L 450.801818 175.037621 
L 455.367273 178.668009 
L 459.932727 182.953379 
L 464.498182 187.375703 
L 469.063636 192.019445 
L 473.629091 196.669331 
L 478.194545 201.5662 
L 482.76 206.704388 
L 487.325455 212.428982 
L 491.890909 218.54967 
L 496.456364 224.837295 
L 501.021818 231.604666 
L 505.587273 238.895677 
L 510.152727 246.427735 
L 514.718182 254.730413 
L 519.283636 264.130575 
L 523.849091 274.71903 
L 528.414545 286.300858 
L 532.98 298.865945 
L 537.545455 312.574176 
L 542.110909 327.378677 
L 546.676364 342.532673 
L 551.241818 356.049662 
L 555.807273 364.516561 
L 560.372727 364.711761 
" clip-path="url(#pb7df2df8cb)" style="fill: none; stroke: #d8576b; stroke-width: 2; stroke-linecap: square"/>
   </g>
   <g id="line2d_31">
    <path d="M 103.827273 67.377317 
L 108.392727 67.824062 
L 112.958182 67.491607 
L 117.523636 68.297321 
L 122.089091 68.186631 
L 126.654545 69.923521 
L 131.22 69.465417 
L 135.785455 70.417992 
L 140.350909 71.378877 
L 144.916364 71.145124 
L 149.481818 71.705495 
L 154.047273 72.82511 
L 158.612727 73.321387 
L 163.178182 73.223175 
L 167.743636 74.440726 
L 172.309091 75.464969 
L 176.874545 75.443784 
L 181.44 76.142279 
L 186.005455 77.42188 
L 190.570909 78.171994 
L 195.136364 78.219792 
L 199.701818 79.290928 
L 204.267273 80.380407 
L 208.832727 80.64658 
L 213.398182 80.644775 
L 217.963636 81.232489 
L 222.529091 81.390078 
L 227.094545 80.637695 
L 231.66 79.859766 
L 236.225455 79.508331 
L 240.790909 79.010943 
L 245.356364 78.412642 
L 249.921818 78.484608 
L 254.487273 79.381618 
L 259.052727 80.385142 
L 263.618182 81.396103 
L 268.183636 82.804248 
L 272.749091 84.765273 
L 277.314545 86.389246 
L 281.88 87.760313 
L 286.445455 89.237973 
L 291.010909 91.141713 
L 295.576364 92.771732 
L 300.141818 93.629847 
L 304.707273 94.449785 
L 309.272727 95.82541 
L 313.838182 97.709213 
L 318.403636 99.117508 
L 322.969091 99.918657 
L 327.534545 101.043012 
L 332.1 102.98618 
L 336.665455 105.212765 
L 341.230909 106.827377 
L 345.796364 108.362876 
L 350.361818 110.804359 
L 354.927273 113.992102 
L 359.492727 115.849899 
L 364.058182 117.962222 
L 368.623636 120.631083 
L 373.189091 123.172049 
L 377.754545 125.458277 
L 382.32 128.094229 
L 386.885455 130.415202 
L 391.450909 132.71838 
L 396.016364 135.729798 
L 400.581818 138.437645 
L 405.147273 140.876548 
L 409.712727 144.500476 
L 414.278182 147.606885 
L 418.843636 150.358561 
L 423.409091 153.296243 
L 427.974545 156.481221 
L 432.54 159.594199 
L 437.105455 162.921633 
L 441.670909 166.652448 
L 446.236364 170.438197 
L 450.801818 174.090167 
L 455.367273 177.615534 
L 459.932727 181.692771 
L 464.498182 186.434572 
L 469.063636 191.276191 
L 473.629091 195.905633 
L 478.194545 200.725599 
L 482.76 206.098142 
L 487.325455 212.070207 
L 491.890909 218.32069 
L 496.456364 224.642099 
L 501.021818 231.338299 
L 505.587273 238.559636 
L 510.152727 246.513514 
L 514.718182 255.276104 
L 519.283636 264.751387 
L 523.849091 275.079894 
L 528.414545 286.461882 
L 532.98 299.024414 
L 537.545455 312.768281 
L 542.110909 327.506863 
L 546.676364 342.418634 
L 551.241818 355.614593 
L 555.807273 363.80325 
L 560.372727 363.850128 
" clip-path="url(#pb7df2df8cb)" style="fill: none; stroke: #ed7953; stroke-width: 2; stroke-linecap: square"/>
   </g>
   <g id="line2d_32">
    <path d="M 103.827273 67.377317 
L 108.392727 67.824062 
L 112.958182 67.504199 
L 117.523636 68.33019 
L 122.089091 68.290044 
L 126.654545 69.882371 
L 131.22 69.468003 
L 135.785455 70.454474 
L 140.350909 71.35724 
L 144.916364 71.111464 
L 149.481818 71.731955 
L 154.047273 72.838851 
L 158.612727 73.294819 
L 163.178182 73.229687 
L 167.743636 74.490627 
L 172.309091 75.442465 
L 176.874545 75.435309 
L 181.44 76.184791 
L 186.005455 77.453549 
L 190.570909 78.202906 
L 195.136364 78.273146 
L 199.701818 79.373267 
L 204.267273 80.402585 
L 208.832727 80.607845 
L 213.398182 80.578452 
L 217.963636 81.058355 
L 222.529091 81.006089 
L 227.094545 80.037048 
L 231.66 79.151917 
L 236.225455 78.703521 
L 240.790909 78.187877 
L 245.356364 77.621094 
L 249.921818 77.728795 
L 254.487273 78.670637 
L 259.052727 79.660521 
L 263.618182 80.720109 
L 268.183636 82.046503 
L 272.749091 83.85589 
L 277.314545 85.437599 
L 281.88 86.655122 
L 286.445455 88.091236 
L 291.010909 89.827736 
L 295.576364 91.402499 
L 300.141818 92.169039 
L 304.707273 92.694607 
L 309.272727 93.806783 
L 313.838182 95.402354 
L 318.403636 96.645484 
L 322.969091 97.316826 
L 327.534545 98.258956 
L 332.1 99.940798 
L 336.665455 101.879642 
L 341.230909 103.421758 
L 345.796364 105.071298 
L 350.361818 107.298516 
L 354.927273 109.42331 
L 359.492727 111.548619 
L 364.058182 113.791274 
L 368.623636 115.818643 
L 373.189091 117.878979 
L 377.754545 120.336403 
L 382.32 123.035879 
L 386.885455 125.6982 
L 391.450909 127.987279 
L 396.016364 130.766714 
L 400.581818 133.875682 
L 405.147273 136.866205 
L 409.712727 140.327846 
L 414.278182 143.521756 
L 418.843636 146.871788 
L 423.409091 150.29087 
L 427.974545 153.778973 
L 432.54 157.45991 
L 437.105455 161.158692 
L 441.670909 164.88948 
L 446.236364 168.693159 
L 450.801818 172.528979 
L 455.367273 176.660754 
L 459.932727 180.837609 
L 464.498182 185.300514 
L 469.063636 190.104192 
L 473.629091 194.884796 
L 478.194545 200.012868 
L 482.76 205.477413 
L 487.325455 211.282117 
L 491.890909 217.612131 
L 496.456364 224.347561 
L 501.021818 231.487408 
L 505.587273 238.784746 
L 510.152727 246.557218 
L 514.718182 255.117727 
L 519.283636 264.483768 
L 523.849091 274.738095 
L 528.414545 286.018118 
L 532.98 298.490121 
L 537.545455 312.128253 
L 542.110909 326.769113 
L 546.676364 341.602374 
L 551.241818 354.698878 
L 555.807273 362.798099 
L 560.372727 362.842268 
" clip-path="url(#pb7df2df8cb)" style="fill: none; stroke: #fb9f3a; stroke-width: 2; stroke-linecap: square"/>
   </g>
   <g id="line2d_33">
    <path d="M 103.827273 67.377317 
L 108.392727 67.824062 
L 112.958182 67.504199 
L 117.523636 68.235818 
L 122.089091 68.241475 
L 126.654545 69.861833 
L 131.22 69.491423 
L 135.785455 70.462192 
L 140.350909 71.329107 
L 144.916364 71.09718 
L 149.481818 71.701009 
L 154.047273 72.78023 
L 158.612727 73.266822 
L 163.178182 73.264405 
L 167.743636 74.493595 
L 172.309091 75.40737 
L 176.874545 75.426665 
L 181.44 76.208391 
L 186.005455 77.426736 
L 190.570909 78.184754 
L 195.136364 78.322499 
L 199.701818 79.374497 
L 204.267273 80.412815 
L 208.832727 80.59196 
L 213.398182 80.563593 
L 217.963636 80.950203 
L 222.529091 80.841941 
L 227.094545 79.813596 
L 231.66 78.848516 
L 236.225455 78.319546 
L 240.790909 77.807577 
L 245.356364 77.255121 
L 249.921818 77.393072 
L 254.487273 78.283801 
L 259.052727 79.273604 
L 263.618182 80.297788 
L 268.183636 81.571864 
L 272.749091 83.279271 
L 277.314545 84.765088 
L 281.88 86.017398 
L 286.445455 87.372335 
L 291.010909 89.091389 
L 295.576364 90.588059 
L 300.141818 91.348312 
L 304.707273 91.796222 
L 309.272727 92.734599 
L 313.838182 94.236384 
L 318.403636 95.349012 
L 322.969091 96.074904 
L 327.534545 96.896565 
L 332.1 98.389769 
L 336.665455 100.146124 
L 341.230909 101.588859 
L 345.796364 103.151734 
L 350.361818 105.195778 
L 354.927273 107.04584 
L 359.492727 108.921234 
L 364.058182 110.983942 
L 368.623636 112.766459 
L 373.189091 114.612489 
L 377.754545 116.867254 
L 382.32 119.469917 
L 386.885455 121.937086 
L 391.450909 124.120915 
L 396.016364 126.78567 
L 400.581818 129.810201 
L 405.147273 132.656717 
L 409.712727 136.12176 
L 414.278182 139.322322 
L 418.843636 142.566509 
L 423.409091 146.072484 
L 427.974545 149.547381 
L 432.54 153.549447 
L 437.105455 157.428448 
L 441.670909 161.347476 
L 446.236364 165.512168 
L 450.801818 169.602722 
L 455.367273 174.01131 
L 459.932727 178.496286 
L 464.498182 183.269664 
L 469.063636 188.205562 
L 473.629091 193.274087 
L 478.194545 198.685683 
L 482.76 204.317541 
L 487.325455 210.352781 
L 491.890909 216.823237 
L 496.456364 224.522197 
L 501.021818 231.149951 
L 505.587273 237.377754 
L 510.152727 244.477189 
L 514.718182 252.892325 
L 519.283636 262.38687 
L 523.849091 272.679028 
L 528.414545 283.832105 
L 532.98 296.098186 
L 537.545455 309.646647 
L 542.110909 324.201108 
L 546.676364 338.682558 
L 551.241818 351.129121 
L 555.807273 358.743347 
L 560.372727 358.834829 
" clip-path="url(#pb7df2df8cb)" style="fill: none; stroke: #fdca26; stroke-width: 2; stroke-linecap: square"/>
   </g>
   <g id="patch_3">
    <path d="M 81 384.48 
L 81 51.84 
" style="fill: none; stroke: #000000; stroke-width: 0.8; stroke-linejoin: miter; stroke-linecap: square"/>
   </g>
   <g id="patch_4">
    <path d="M 583.2 384.48 
L 583.2 51.84 
" style="fill: none; stroke: #000000; stroke-width: 0.8; stroke-linejoin: miter; stroke-linecap: square"/>
   </g>
   <g id="patch_5">
    <path d="M 81 384.48 
L 583.2 384.48 
" style="fill: none; stroke: #000000; stroke-width: 0.8; stroke-linejoin: miter; stroke-linecap: square"/>
   </g>
   <g id="patch_6">
    <path d="M 81 51.84 
L 583.2 51.84 
" style="fill: none; stroke: #000000; stroke-width: 0.8; stroke-linejoin: miter; stroke-linecap: square"/>
   </g>
   <g id="text_11">
    <!-- bond dimension check ($N = 21$, $P = 100$) -->
    <g transform="translate(96.329317 45.84) scale(0.264 -0.264)">
     <defs>
      <path id="NimbusSanL-Regu-62" d="M 346 4672 
L 346 -2 
L 826 -2 
L 826 448 
C 1082 57 1421 -128 1888 -128 
C 2771 -128 3347 592 3347 1702 
C 3347 2786 2797 3456 1914 3456 
C 1453 3456 1126 3282 877 2905 
L 877 4672 
L 346 4672 
z
M 1811 2956 
C 2406 2956 2790 2440 2790 1645 
C 2790 887 2394 372 1811 372 
C 1248 372 877 881 877 1664 
C 877 2447 1248 2956 1811 2956 
z
" transform="scale(0.015625)"/>
      <path id="NimbusSanL-Regu-6f" d="M 1741 3456 
C 800 3456 230 2786 230 1663 
C 230 541 794 -128 1747 -128 
C 2688 -128 3264 541 3264 1638 
C 3264 2792 2707 3456 1741 3456 
z
M 1747 2962 
C 2349 2962 2707 2472 2707 1645 
C 2707 861 2336 365 1747 365 
C 1152 365 787 855 787 1663 
C 787 2466 1152 2962 1747 2962 
z
" transform="scale(0.015625)"/>
      <path id="NimbusSanL-Regu-6e" d="M 448 3359 
L 448 0 
L 986 0 
L 986 1853 
C 986 2539 1344 2988 1894 2988 
C 2317 2988 2586 2731 2586 2327 
L 2586 0 
L 3117 0 
L 3117 2539 
C 3117 3097 2701 3456 2054 3456 
C 1555 3456 1235 3263 941 2796 
L 941 3359 
L 448 3359 
z
" transform="scale(0.015625)"/>
      <path id="NimbusSanL-Regu-64" d="M 3168 4672 
L 2637 4672 
L 2637 2937 
C 2413 3276 2054 3456 1606 3456 
C 736 3456 166 2761 166 1695 
C 166 566 723 -128 1626 -128 
C 2086 -128 2406 45 2694 461 
L 2694 -2 
L 3168 -2 
L 3168 4672 
z
M 1696 2956 
C 2272 2956 2637 2447 2637 1651 
C 2637 881 2266 372 1702 372 
C 1114 372 723 887 723 1664 
C 723 2440 1114 2956 1696 2956 
z
" transform="scale(0.015625)"/>
      <path id="NimbusSanL-Regu-69" d="M 960 3359 
L 429 3359 
L 429 0 
L 960 0 
L 960 3359 
z
M 960 4672 
L 422 4672 
L 422 3999 
L 960 3999 
L 960 4672 
z
" transform="scale(0.015625)"/>
      <path id="NimbusSanL-Regu-6d" d="M 448 3359 
L 448 0 
L 986 0 
L 986 2109 
C 986 2597 1338 2988 1773 2988 
C 2170 2988 2394 2744 2394 2314 
L 2394 0 
L 2931 0 
L 2931 2109 
C 2931 2597 3283 2988 3718 2988 
C 4109 2988 4339 2738 4339 2314 
L 4339 0 
L 4877 0 
L 4877 2520 
C 4877 3122 4531 3456 3904 3456 
C 3456 3456 3187 3321 2874 2943 
C 2675 3302 2406 3456 1971 3456 
C 1523 3456 1229 3289 941 2885 
L 941 3359 
L 448 3359 
z
" transform="scale(0.015625)"/>
      <path id="NimbusSanL-Regu-65" d="M 3283 1529 
C 3283 2034 3245 2338 3149 2584 
C 2931 3127 2419 3456 1792 3456 
C 858 3456 256 2742 256 1645 
C 256 547 838 -128 1779 -128 
C 2547 -128 3078 310 3213 1044 
L 2675 1044 
C 2528 598 2227 365 1798 365 
C 1459 365 1171 520 992 805 
C 864 998 819 1193 813 1529 
L 3283 1529 
z
M 826 1984 
C 870 2577 1248 2962 1786 2962 
C 2310 2962 2714 2530 2714 1984 
C 2714 1984 2714 1984 2707 1984 
L 826 1984 
z
" transform="scale(0.015625)"/>
      <path id="NimbusSanL-Regu-73" d="M 2803 2427 
C 2797 3085 2362 3456 1587 3456 
C 806 3456 301 3054 301 2436 
C 301 1913 570 1665 1363 1474 
L 1862 1353 
C 2234 1263 2381 1130 2381 888 
C 2381 576 2067 365 1600 365 
C 1312 365 1069 448 934 588 
C 851 684 813 779 781 1014 
L 218 1014 
C 243 241 678 -128 1555 -128 
C 2400 -128 2938 285 2938 929 
C 2938 1426 2656 1701 1990 1860 
L 1478 1981 
C 1043 2082 858 2223 858 2458 
C 858 2764 1133 2962 1568 2962 
C 1997 2962 2227 2777 2240 2427 
L 2803 2427 
z
" transform="scale(0.015625)"/>
      <path id="NimbusSanL-Regu-63" d="M 3014 2236 
C 2989 2562 2918 2773 2790 2958 
C 2560 3271 2157 3456 1690 3456 
C 787 3456 198 2742 198 1632 
C 198 554 774 -128 1683 -128 
C 2483 -128 2989 350 3053 1167 
L 2515 1167 
C 2426 632 2150 365 1696 365 
C 1107 365 755 843 755 1632 
C 755 2466 1101 2962 1683 2962 
C 2131 2962 2413 2701 2477 2236 
L 3014 2236 
z
" transform="scale(0.015625)"/>
      <path id="NimbusSanL-Regu-68" d="M 448 4672 
L 448 -2 
L 979 -2 
L 979 1852 
C 979 2539 1338 2988 1888 2988 
C 2061 2988 2234 2930 2362 2834 
C 2515 2725 2579 2564 2579 2327 
L 2579 -2 
L 3110 -2 
L 3110 2538 
C 3110 3103 2707 3456 2054 3456 
C 1581 3456 1293 3308 979 2898 
L 979 4672 
L 448 4672 
z
" transform="scale(0.015625)"/>
      <path id="NimbusSanL-Regu-6b" d="M 902 4672 
L 371 4672 
L 371 -2 
L 902 -2 
L 902 1306 
L 1421 1819 
L 2554 -2 
L 3213 -2 
L 1843 2197 
L 3008 3357 
L 2323 3357 
L 902 1934 
L 902 4672 
z
" transform="scale(0.015625)"/>
      <path id="NimbusSanL-Regu-28" d="M 1510 4672 
C 870 3830 467 2660 467 1651 
C 467 636 870 -534 1510 -1376 
L 1862 -1376 
C 1299 -457 986 623 986 1651 
C 986 2673 1299 3759 1862 4672 
L 1510 4672 
z
" transform="scale(0.015625)"/>
      <path id="CMMI12-4e" d="M 4736 3698 
C 4806 3974 4909 4166 5395 4166 
C 5414 4166 5491 4166 5491 4279 
C 5491 4352 5434 4352 5408 4352 
C 5280 4352 4954 4352 4826 4352 
L 4518 4352 
C 4429 4352 4314 4352 4224 4352 
C 4186 4352 4109 4352 4109 4230 
C 4109 4166 4160 4166 4205 4166 
C 4589 4166 4614 4019 4614 3903 
C 4614 3846 4608 3826 4589 3737 
L 3866 850 
L 2496 4249 
C 2451 4352 2445 4352 2304 4352 
L 1523 4352 
C 1395 4352 1338 4352 1338 4230 
C 1338 4166 1382 4166 1504 4166 
C 1536 4166 1914 4166 1914 4115 
C 1914 4102 1901 4051 1894 4032 
L 1043 635 
C 966 320 813 186 390 186 
C 358 186 294 186 294 67 
C 294 0 358 0 378 0 
C 506 0 832 0 960 0 
L 1267 0 
C 1357 0 1466 0 1555 0 
C 1600 0 1670 0 1670 122 
C 1670 180 1606 186 1581 186 
C 1370 186 1165 224 1165 454 
C 1165 505 1178 562 1190 613 
L 2054 4032 
C 2093 3968 2093 3956 2118 3898 
L 3642 115 
C 3674 38 3686 0 3744 0 
C 3808 0 3814 19 3840 128 
L 4736 3698 
z
" transform="scale(0.015625)"/>
      <path id="CMR17-3d" d="M 4115 2017 
C 4211 2017 4307 2017 4307 2125 
C 4307 2240 4198 2240 4090 2240 
L 512 2240 
C 403 2240 294 2240 294 2125 
C 294 2017 390 2017 486 2017 
L 4115 2017 
z
M 4090 896 
C 4198 896 4307 896 4307 1011 
C 4307 1119 4211 1119 4115 1119 
L 486 1119 
C 390 1119 294 1119 294 1011 
C 294 896 403 896 512 896 
L 4090 896 
z
" transform="scale(0.015625)"/>
      <path id="NimbusSanL-Regu-2c" d="M 557 640 
L 557 -27 
L 941 -27 
L 941 -142 
C 941 -583 858 -710 557 -710 
L 557 -960 
C 1005 -960 1229 -674 1229 -126 
L 1229 640 
L 557 640 
z
" transform="scale(0.015625)"/>
      <path id="CMMI12-50" d="M 1894 2023 
L 2970 2023 
C 3853 2023 4736 2673 4736 3401 
C 4736 3898 4314 4352 3507 4352 
L 1530 4352 
C 1408 4352 1350 4352 1350 4231 
C 1350 4167 1408 4167 1504 4167 
C 1894 4167 1894 4116 1894 4046 
C 1894 4034 1894 3995 1869 3899 
L 1005 472 
C 947 249 934 185 486 185 
C 365 185 301 185 301 70 
C 301 0 358 0 397 0 
C 518 0 646 0 768 0 
L 1517 0 
C 1638 0 1773 0 1894 0 
C 1946 0 2016 0 2016 121 
C 2016 185 1958 185 1862 185 
C 1478 185 1472 230 1472 293 
C 1472 325 1478 369 1485 401 
L 1894 2023 
z
M 2355 3930 
C 2413 4167 2438 4167 2688 4167 
L 3322 4167 
C 3802 4167 4198 4013 4198 3535 
C 4198 3369 4115 2827 3821 2534 
C 3712 2419 3405 2176 2822 2176 
L 1920 2176 
L 2355 3930 
z
" transform="scale(0.015625)"/>
      <path id="NimbusSanL-Regu-29" d="M 595 -1376 
C 1235 -534 1638 636 1638 1644 
C 1638 2660 1235 3830 595 4672 
L 243 4672 
C 806 3753 1120 2673 1120 1644 
C 1120 623 806 -464 243 -1376 
L 595 -1376 
z
" transform="scale(0.015625)"/>
     </defs>
     <use xlink:href="#NimbusSanL-Regu-62" transform="scale(0.996264)"/>
     <use xlink:href="#NimbusSanL-Regu-6f" transform="translate(55.391677 0) scale(0.996264)"/>
     <use xlink:href="#NimbusSanL-Regu-6e" transform="translate(110.783354 0) scale(0.996264)"/>
     <use xlink:href="#NimbusSanL-Regu-64" transform="translate(166.175031 0) scale(0.996264)"/>
     <use xlink:href="#NimbusSanL-Regu-64" transform="translate(249.261877 0) scale(0.996264)"/>
     <use xlink:href="#NimbusSanL-Regu-69" transform="translate(304.653554 0) scale(0.996264)"/>
     <use xlink:href="#NimbusSanL-Regu-6d" transform="translate(326.770339 0) scale(0.996264)"/>
     <use xlink:href="#NimbusSanL-Regu-65" transform="translate(409.758769 0) scale(0.996264)"/>
     <use xlink:href="#NimbusSanL-Regu-6e" transform="translate(465.150446 0) scale(0.996264)"/>
     <use xlink:href="#NimbusSanL-Regu-73" transform="translate(520.542123 0) scale(0.996264)"/>
     <use xlink:href="#NimbusSanL-Regu-69" transform="translate(570.355323 0) scale(0.996264)"/>
     <use xlink:href="#NimbusSanL-Regu-6f" transform="translate(592.472108 0) scale(0.996264)"/>
     <use xlink:href="#NimbusSanL-Regu-6e" transform="translate(647.863785 0) scale(0.996264)"/>
     <use xlink:href="#NimbusSanL-Regu-63" transform="translate(730.950631 0) scale(0.996264)"/>
     <use xlink:href="#NimbusSanL-Regu-68" transform="translate(780.763832 0) scale(0.996264)"/>
     <use xlink:href="#NimbusSanL-Regu-65" transform="translate(836.155509 0) scale(0.996264)"/>
     <use xlink:href="#NimbusSanL-Regu-63" transform="translate(891.547186 0) scale(0.996264)"/>
     <use xlink:href="#NimbusSanL-Regu-6b" transform="translate(939.368375 0) scale(0.996264)"/>
     <use xlink:href="#NimbusSanL-Regu-28" transform="translate(1016.876745 0) scale(0.996264)"/>
     <use xlink:href="#CMMI12-4e" transform="translate(1050.051975 0) scale(0.996264)"/>
     <use xlink:href="#CMR17-3d" transform="translate(1166.247756 0) scale(0.996264)"/>
     <use xlink:href="#CMR17-32" transform="translate(1265.636553 0) scale(0.996264)"/>
     <use xlink:href="#CMR17-31" transform="translate(1311.32703 0) scale(0.996264)"/>
     <use xlink:href="#NimbusSanL-Regu-2c" transform="translate(1357.017508 0) scale(0.996264)"/>
     <use xlink:href="#CMMI12-50" transform="translate(1412.407847 0) scale(0.996264)"/>
     <use xlink:href="#CMR17-3d" transform="translate(1516.507676 0) scale(0.996264)"/>
     <use xlink:href="#CMR17-31" transform="translate(1615.896473 0) scale(0.996264)"/>
     <use xlink:href="#CMR17-30" transform="translate(1661.586951 0) scale(0.996264)"/>
     <use xlink:href="#CMR17-30" transform="translate(1707.277428 0) scale(0.996264)"/>
     <use xlink:href="#NimbusSanL-Regu-29" transform="translate(1752.967905 0) scale(0.996264)"/>
    </g>
   </g>
   <g id="legend_1">
    <g id="patch_7">
     <path d="M 96.4 373.48 
L 186.90381 373.48 
Q 191.30381 373.48 191.30381 369.08 
L 191.30381 89.71801 
Q 191.30381 85.31801 186.90381 85.31801 
L 96.4 85.31801 
Q 92 85.31801 92 89.71801 
L 92 369.08 
Q 92 373.48 96.4 373.48 
z
" style="fill: #ffffff; opacity: 0.8; stroke: #cccccc; stroke-linejoin: miter"/>
    </g>
    <g id="line2d_34">
     <path d="M 100.8 102.034315 
L 122.8 102.034315 
L 144.8 102.034315 
" style="fill: none; stroke: #0d0887; stroke-width: 2; stroke-linecap: square"/>
    </g>
    <g id="text_12">
     <!-- $2$ -->
     <g transform="translate(162.4 109.734315) scale(0.22 -0.22)">
      <use xlink:href="#CMR17-32" transform="scale(0.996264)"/>
     </g>
    </g>
    <g id="line2d_35">
     <path d="M 100.8 133.31898 
L 122.8 133.31898 
L 144.8 133.31898 
" style="fill: none; stroke: #46039f; stroke-width: 2; stroke-linecap: square"/>
    </g>
    <g id="text_13">
     <!-- $4$ -->
     <g transform="translate(162.4 141.01898) scale(0.22 -0.22)">
      <use xlink:href="#CMR17-34" transform="scale(0.996264)"/>
     </g>
    </g>
    <g id="line2d_36">
     <path d="M 100.8 164.603646 
L 122.8 164.603646 
L 144.8 164.603646 
" style="fill: none; stroke: #7201a8; stroke-width: 2; stroke-linecap: square"/>
    </g>
    <g id="text_14">
     <!-- $8$ -->
     <g transform="translate(162.4 172.303646) scale(0.22 -0.22)">
      <use xlink:href="#CMR17-38" transform="scale(0.996264)"/>
     </g>
    </g>
    <g id="line2d_37">
     <path d="M 100.8 195.888311 
L 122.8 195.888311 
L 144.8 195.888311 
" style="fill: none; stroke: #9c179e; stroke-width: 2; stroke-linecap: square"/>
    </g>
    <g id="text_15">
     <!-- $10$ -->
     <g transform="translate(162.4 203.588311) scale(0.22 -0.22)">
      <use xlink:href="#CMR17-31" transform="scale(0.996264)"/>
      <use xlink:href="#CMR17-30" transform="translate(45.690477 0) scale(0.996264)"/>
     </g>
    </g>
    <g id="line2d_38">
     <path d="M 100.8 227.172977 
L 122.8 227.172977 
L 144.8 227.172977 
" style="fill: none; stroke: #bd3786; stroke-width: 2; stroke-linecap: square"/>
    </g>
    <g id="text_16">
     <!-- $15$ -->
     <g transform="translate(162.4 234.872977) scale(0.22 -0.22)">
      <defs>
       <path id="CMR17-35" d="M 730 3692 
C 794 3666 1056 3584 1325 3584 
C 1920 3584 2246 3911 2432 4100 
C 2432 4157 2432 4192 2394 4192 
C 2387 4192 2374 4192 2323 4163 
C 2099 4058 1837 3973 1517 3973 
C 1325 3973 1037 3999 723 4139 
C 653 4171 640 4171 634 4171 
C 602 4171 595 4164 595 4037 
L 595 2203 
C 595 2089 595 2057 659 2057 
C 691 2057 704 2070 736 2114 
C 941 2401 1222 2522 1542 2522 
C 1766 2522 2246 2382 2246 1289 
C 2246 1085 2246 715 2054 421 
C 1894 159 1645 25 1370 25 
C 947 25 518 320 403 814 
C 429 807 480 795 506 795 
C 589 795 749 840 749 1038 
C 749 1210 627 1280 506 1280 
C 358 1280 262 1190 262 1011 
C 262 454 704 -128 1382 -128 
C 2042 -128 2669 440 2669 1264 
C 2669 2030 2170 2624 1549 2624 
C 1222 2624 947 2503 730 2274 
L 730 3692 
z
" transform="scale(0.015625)"/>
      </defs>
      <use xlink:href="#CMR17-31" transform="scale(0.996264)"/>
      <use xlink:href="#CMR17-35" transform="translate(45.690477 0) scale(0.996264)"/>
     </g>
    </g>
    <g id="line2d_39">
     <path d="M 100.8 258.457642 
L 122.8 258.457642 
L 144.8 258.457642 
" style="fill: none; stroke: #d8576b; stroke-width: 2; stroke-linecap: square"/>
    </g>
    <g id="text_17">
     <!-- $20$ -->
     <g transform="translate(162.4 266.157642) scale(0.22 -0.22)">
      <use xlink:href="#CMR17-32" transform="scale(0.996264)"/>
      <use xlink:href="#CMR17-30" transform="translate(45.690477 0) scale(0.996264)"/>
     </g>
    </g>
    <g id="line2d_40">
     <path d="M 100.8 289.742308 
L 122.8 289.742308 
L 144.8 289.742308 
" style="fill: none; stroke: #ed7953; stroke-width: 2; stroke-linecap: square"/>
    </g>
    <g id="text_18">
     <!-- $40$ -->
     <g transform="translate(162.4 297.442308) scale(0.22 -0.22)">
      <use xlink:href="#CMR17-34" transform="scale(0.996264)"/>
      <use xlink:href="#CMR17-30" transform="translate(45.690477 0) scale(0.996264)"/>
     </g>
    </g>
    <g id="line2d_41">
     <path d="M 100.8 321.026974 
L 122.8 321.026974 
L 144.8 321.026974 
" style="fill: none; stroke: #fb9f3a; stroke-width: 2; stroke-linecap: square"/>
    </g>
    <g id="text_19">
     <!-- $60$ -->
     <g transform="translate(162.4 328.726974) scale(0.22 -0.22)">
      <use xlink:href="#CMR17-36" transform="scale(0.996264)"/>
      <use xlink:href="#CMR17-30" transform="translate(45.690477 0) scale(0.996264)"/>
     </g>
    </g>
    <g id="line2d_42">
     <path d="M 100.8 352.311639 
L 122.8 352.311639 
L 144.8 352.311639 
" style="fill: none; stroke: #fdca26; stroke-width: 2; stroke-linecap: square"/>
    </g>
    <g id="text_20">
     <!-- $80$ -->
     <g transform="translate(162.4 360.011639) scale(0.22 -0.22)">
      <use xlink:href="#CMR17-38" transform="scale(0.996264)"/>
      <use xlink:href="#CMR17-30" transform="translate(45.690477 0) scale(0.996264)"/>
     </g>
    </g>
   </g>
  </g>
 </g>
 <defs>
  <clipPath id="pb7df2df8cb">
   <rect x="81" y="51.84" width="502.2" height="332.64"/>
  </clipPath>
 </defs>
</svg>
