<?xml version="1.0" encoding="utf-8" standalone="no"?>
<!DOCTYPE svg PUBLIC "-//W3C//DTD SVG 1.1//EN"
  "http://www.w3.org/Graphics/SVG/1.1/DTD/svg11.dtd">
<svg xmlns:xlink="http://www.w3.org/1999/xlink" width="648pt" height="432pt" viewBox="0 0 648 432" xmlns="http://www.w3.org/2000/svg" version="1.1">
 <metadata>
  <rdf:RDF xmlns:dc="http://purl.org/dc/elements/1.1/" xmlns:cc="http://creativecommons.org/ns#" xmlns:rdf="http://www.w3.org/1999/02/22-rdf-syntax-ns#">
   <cc:Work>
    <dc:type rdf:resource="http://purl.org/dc/dcmitype/StillImage"/>
    <dc:date>2023-03-28T12:07:31.572657</dc:date>
    <dc:format>image/svg+xml</dc:format>
    <dc:creator>
     <cc:Agent>
      <dc:title>Matplotlib v3.6.0, https://matplotlib.org/</dc:title>
     </cc:Agent>
    </dc:creator>
   </cc:Work>
  </rdf:RDF>
 </metadata>
 <defs>
  <style type="text/css">*{stroke-linejoin: round; stroke-linecap: butt}</style>
 </defs>
 <g id="figure_1">
  <g id="patch_1">
   <path d="M 0 432 
L 648 432 
L 648 0 
L 0 0 
L 0 432 
z
" style="fill: none"/>
  </g>
  <g id="axes_1">
   <g id="patch_2">
    <path d="M 81 384.48 
L 583.2 384.48 
L 583.2 51.84 
L 81 51.84 
L 81 384.48 
z
" style="fill: none"/>
   </g>
   <g id="matplotlib.axis_1">
    <g id="xtick_1">
     <g id="line2d_1">
      <defs>
       <path id="m1232d18866" d="M 0 0 
L 0 3.5 
" style="stroke: #000000; stroke-width: 0.8"/>
      </defs>
      <g>
       <use xlink:href="#m1232d18866" x="103.827273" y="384.48" style="stroke: #000000; stroke-width: 0.8"/>
      </g>
     </g>
     <g id="text_1">
      <!-- $\mathdefault{0.0}$ -->
      <g transform="translate(90.794678 407.096305) scale(0.22 -0.22)">
       <defs>
        <path id="CMR17-30" d="M 2688 2025 
C 2688 2416 2682 3080 2413 3591 
C 2176 4039 1798 4198 1466 4198 
C 1158 4198 768 4058 525 3597 
C 269 3118 243 2524 243 2025 
C 243 1661 250 1106 448 619 
C 723 -39 1216 -128 1466 -128 
C 1760 -128 2208 -7 2470 600 
C 2662 1042 2688 1559 2688 2025 
z
M 1466 -26 
C 1056 -26 813 325 723 812 
C 653 1188 653 1738 653 2096 
C 653 2588 653 2997 736 3387 
C 858 3929 1216 4096 1466 4096 
C 1728 4096 2067 3923 2189 3400 
C 2272 3036 2278 2607 2278 2096 
C 2278 1680 2278 1169 2202 792 
C 2067 95 1690 -26 1466 -26 
z
" transform="scale(0.015625)"/>
        <path id="CMMI12-3a" d="M 1178 307 
C 1178 492 1024 619 870 619 
C 685 619 557 466 557 313 
C 557 128 710 0 864 0 
C 1050 0 1178 153 1178 307 
z
" transform="scale(0.015625)"/>
       </defs>
       <use xlink:href="#CMR17-30" transform="scale(0.996264)"/>
       <use xlink:href="#CMMI12-3a" transform="translate(45.690477 0) scale(0.996264)"/>
       <use xlink:href="#CMR17-30" transform="translate(72.787654 0) scale(0.996264)"/>
      </g>
     </g>
    </g>
    <g id="xtick_2">
     <g id="line2d_2">
      <g>
       <use xlink:href="#m1232d18866" x="195.136364" y="384.48" style="stroke: #000000; stroke-width: 0.8"/>
      </g>
     </g>
     <g id="text_2">
      <!-- $\mathdefault{0.2}$ -->
      <g transform="translate(182.103769 407.096305) scale(0.22 -0.22)">
       <defs>
        <path id="CMR17-32" d="M 2669 989 
L 2554 989 
C 2490 536 2438 459 2413 420 
C 2381 369 1920 369 1830 369 
L 602 369 
C 832 619 1280 1072 1824 1597 
C 2214 1967 2669 2402 2669 3035 
C 2669 3790 2067 4224 1395 4224 
C 691 4224 262 3604 262 3030 
C 262 2780 448 2748 525 2748 
C 589 2748 781 2787 781 3010 
C 781 3207 614 3264 525 3264 
C 486 3264 448 3258 422 3245 
C 544 3790 915 4058 1306 4058 
C 1862 4058 2227 3617 2227 3035 
C 2227 2479 1901 2000 1536 1584 
L 262 146 
L 262 0 
L 2515 0 
L 2669 989 
z
" transform="scale(0.015625)"/>
       </defs>
       <use xlink:href="#CMR17-30" transform="scale(0.996264)"/>
       <use xlink:href="#CMMI12-3a" transform="translate(45.690477 0) scale(0.996264)"/>
       <use xlink:href="#CMR17-32" transform="translate(72.787654 0) scale(0.996264)"/>
      </g>
     </g>
    </g>
    <g id="xtick_3">
     <g id="line2d_3">
      <g>
       <use xlink:href="#m1232d18866" x="286.445455" y="384.48" style="stroke: #000000; stroke-width: 0.8"/>
      </g>
     </g>
     <g id="text_3">
      <!-- $\mathdefault{0.4}$ -->
      <g transform="translate(273.41286 407.096305) scale(0.22 -0.22)">
       <defs>
        <path id="CMR17-34" d="M 2150 4122 
C 2150 4256 2144 4256 2029 4256 
L 128 1254 
L 128 1088 
L 1779 1088 
L 1779 457 
C 1779 224 1766 160 1318 160 
L 1197 160 
L 1197 0 
C 1402 0 1747 0 1965 0 
C 2182 0 2528 0 2733 0 
L 2733 160 
L 2611 160 
C 2163 160 2150 224 2150 457 
L 2150 1088 
L 2803 1088 
L 2803 1254 
L 2150 1254 
L 2150 4122 
z
M 1798 3703 
L 1798 1254 
L 256 1254 
L 1798 3703 
z
" transform="scale(0.015625)"/>
       </defs>
       <use xlink:href="#CMR17-30" transform="scale(0.996264)"/>
       <use xlink:href="#CMMI12-3a" transform="translate(45.690477 0) scale(0.996264)"/>
       <use xlink:href="#CMR17-34" transform="translate(72.787654 0) scale(0.996264)"/>
      </g>
     </g>
    </g>
    <g id="xtick_4">
     <g id="line2d_4">
      <g>
       <use xlink:href="#m1232d18866" x="377.754545" y="384.48" style="stroke: #000000; stroke-width: 0.8"/>
      </g>
     </g>
     <g id="text_4">
      <!-- $\mathdefault{0.6}$ -->
      <g transform="translate(364.721951 407.096305) scale(0.22 -0.22)">
       <defs>
        <path id="CMR17-36" d="M 678 2176 
C 678 3690 1395 4032 1811 4032 
C 1946 4032 2272 4009 2400 3776 
C 2298 3776 2106 3776 2106 3553 
C 2106 3381 2246 3323 2336 3323 
C 2394 3323 2566 3348 2566 3560 
C 2566 3954 2246 4179 1805 4179 
C 1043 4179 243 3390 243 1984 
C 243 253 966 -128 1478 -128 
C 2099 -128 2688 427 2688 1283 
C 2688 2081 2170 2662 1517 2662 
C 1126 2662 838 2407 678 1960 
L 678 2176 
z
M 1478 25 
C 691 25 691 1200 691 1436 
C 691 1896 909 2560 1504 2560 
C 1613 2560 1926 2560 2138 2120 
C 2253 1870 2253 1609 2253 1289 
C 2253 944 2253 690 2118 434 
C 1978 171 1773 25 1478 25 
z
" transform="scale(0.015625)"/>
       </defs>
       <use xlink:href="#CMR17-30" transform="scale(0.996264)"/>
       <use xlink:href="#CMMI12-3a" transform="translate(45.690477 0) scale(0.996264)"/>
       <use xlink:href="#CMR17-36" transform="translate(72.787654 0) scale(0.996264)"/>
      </g>
     </g>
    </g>
    <g id="xtick_5">
     <g id="line2d_5">
      <g>
       <use xlink:href="#m1232d18866" x="469.063636" y="384.48" style="stroke: #000000; stroke-width: 0.8"/>
      </g>
     </g>
     <g id="text_5">
      <!-- $\mathdefault{0.8}$ -->
      <g transform="translate(456.031042 407.096305) scale(0.22 -0.22)">
       <defs>
        <path id="CMR17-38" d="M 1741 2264 
C 2144 2467 2554 2773 2554 3263 
C 2554 3841 1990 4179 1472 4179 
C 890 4179 378 3759 378 3180 
C 378 3021 416 2747 666 2505 
C 730 2442 998 2251 1171 2130 
C 883 1983 211 1634 211 934 
C 211 279 838 -128 1459 -128 
C 2144 -128 2720 362 2720 1010 
C 2720 1590 2330 1857 2074 2029 
L 1741 2264 
z
M 902 2822 
C 851 2854 595 3051 595 3351 
C 595 3739 998 4032 1459 4032 
C 1965 4032 2336 3676 2336 3262 
C 2336 2669 1670 2331 1638 2331 
C 1632 2331 1626 2331 1574 2370 
L 902 2822 
z
M 2080 1519 
C 2176 1449 2483 1240 2483 851 
C 2483 381 2010 25 1472 25 
C 890 25 448 438 448 940 
C 448 1443 838 1862 1280 2060 
L 2080 1519 
z
" transform="scale(0.015625)"/>
       </defs>
       <use xlink:href="#CMR17-30" transform="scale(0.996264)"/>
       <use xlink:href="#CMMI12-3a" transform="translate(45.690477 0) scale(0.996264)"/>
       <use xlink:href="#CMR17-38" transform="translate(72.787654 0) scale(0.996264)"/>
      </g>
     </g>
    </g>
    <g id="xtick_6">
     <g id="line2d_6">
      <g>
       <use xlink:href="#m1232d18866" x="560.372727" y="384.48" style="stroke: #000000; stroke-width: 0.8"/>
      </g>
     </g>
     <g id="text_6">
      <!-- $\mathdefault{1.0}$ -->
      <g transform="translate(547.340133 407.096305) scale(0.22 -0.22)">
       <defs>
        <path id="CMR17-31" d="M 1702 4058 
C 1702 4192 1696 4192 1606 4192 
C 1357 3916 979 3827 621 3827 
C 602 3827 570 3827 563 3808 
C 557 3795 557 3782 557 3648 
C 755 3648 1088 3686 1344 3839 
L 1344 461 
C 1344 236 1331 160 781 160 
L 589 160 
L 589 0 
C 896 0 1216 0 1523 0 
C 1830 0 2150 0 2458 0 
L 2458 160 
L 2266 160 
C 1715 160 1702 230 1702 458 
L 1702 4058 
z
" transform="scale(0.015625)"/>
       </defs>
       <use xlink:href="#CMR17-31" transform="scale(0.996264)"/>
       <use xlink:href="#CMMI12-3a" transform="translate(45.690477 0) scale(0.996264)"/>
       <use xlink:href="#CMR17-30" transform="translate(72.787654 0) scale(0.996264)"/>
      </g>
     </g>
    </g>
    <g id="text_7">
     <!-- $s$ -->
     <g transform="translate(327.045499 431.38097) scale(0.22 -0.22)">
      <defs>
       <path id="CMMI12-73" d="M 1459 1280 
C 1568 1261 1741 1223 1779 1216 
C 1862 1192 2150 1090 2150 783 
C 2150 586 1971 70 1229 70 
C 1094 70 614 70 486 436 
C 742 404 870 603 870 745 
C 870 880 781 950 653 950 
C 512 950 326 841 326 552 
C 326 173 710 -64 1222 -64 
C 2195 -64 2483 651 2483 984 
C 2483 1079 2483 1258 2278 1462 
C 2118 1616 1965 1648 1619 1718 
C 1446 1756 1171 1814 1171 2101 
C 1171 2229 1286 2689 1894 2689 
C 2163 2689 2426 2589 2490 2368 
C 2208 2368 2195 2125 2195 2119 
C 2195 1984 2317 1946 2374 1946 
C 2464 1946 2643 2015 2643 2281 
C 2643 2545 2400 2816 1901 2816 
C 1062 2816 838 2160 838 1899 
C 838 1414 1312 1312 1459 1280 
z
" transform="scale(0.015625)"/>
      </defs>
      <use xlink:href="#CMMI12-73" transform="scale(0.996264)"/>
     </g>
    </g>
   </g>
   <g id="matplotlib.axis_2">
    <g id="ytick_1">
     <g id="line2d_7">
      <defs>
       <path id="m388ccaad43" d="M 0 0 
L -3.5 0 
" style="stroke: #000000; stroke-width: 0.8"/>
      </defs>
      <g>
       <use xlink:href="#m388ccaad43" x="81" y="230.348324" style="stroke: #000000; stroke-width: 0.8"/>
      </g>
     </g>
     <g id="text_8">
      <!-- $\mathdefault{10^{-1}}$ -->
      <g transform="translate(34.451879 238.156476) scale(0.22 -0.22)">
       <defs>
        <path id="CMSY10-0" d="M 4218 1472 
C 4326 1472 4442 1472 4442 1600 
C 4442 1728 4326 1728 4218 1728 
L 755 1728 
C 646 1728 531 1728 531 1600 
C 531 1472 646 1472 755 1472 
L 4218 1472 
z
" transform="scale(0.015625)"/>
       </defs>
       <use xlink:href="#CMR17-31" transform="scale(0.996264)"/>
       <use xlink:href="#CMR17-30" transform="translate(45.690477 0) scale(0.996264)"/>
       <use xlink:href="#CMSY10-0" transform="translate(91.380954 36.153639) scale(0.697382)"/>
       <use xlink:href="#CMR17-31" transform="translate(145.621947 36.153639) scale(0.697382)"/>
      </g>
     </g>
    </g>
    <g id="ytick_2">
     <g id="line2d_8">
      <defs>
       <path id="mbf5270bfce" d="M 0 0 
L -2 0 
" style="stroke: #000000; stroke-width: 0.6"/>
      </defs>
      <g>
       <use xlink:href="#mbf5270bfce" x="81" y="369.594402" style="stroke: #000000; stroke-width: 0.6"/>
      </g>
     </g>
     <g id="text_9">
      <!-- $\mathdefault{4\times10^{-2}}$ -->
      <g transform="translate(-0.78844 377.402555) scale(0.22 -0.22)">
       <defs>
        <path id="CMSY10-2" d="M 2490 1785 
L 1210 3059 
C 1133 3136 1120 3148 1069 3148 
C 1005 3148 941 3091 941 3020 
C 941 2976 954 2963 1024 2892 
L 2304 1606 
L 1024 320 
C 954 249 941 236 941 192 
C 941 121 1005 64 1069 64 
C 1120 64 1133 76 1210 153 
L 2483 1427 
L 3808 102 
C 3821 96 3866 64 3904 64 
C 3981 64 4032 121 4032 192 
C 4032 204 4032 230 4013 262 
C 4006 275 2989 1280 2669 1606 
L 3840 2777 
C 3872 2816 3968 2899 4000 2937 
C 4006 2950 4032 2976 4032 3020 
C 4032 3091 3981 3148 3904 3148 
C 3853 3148 3827 3123 3757 3052 
L 2490 1785 
z
" transform="scale(0.015625)"/>
       </defs>
       <use xlink:href="#CMR17-34" transform="scale(0.996264)"/>
       <use xlink:href="#CMSY10-2" transform="translate(67.829684 0) scale(0.996264)"/>
       <use xlink:href="#CMR17-31" transform="translate(167.456359 0) scale(0.996264)"/>
       <use xlink:href="#CMR17-30" transform="translate(213.146836 0) scale(0.996264)"/>
       <use xlink:href="#CMSY10-0" transform="translate(258.837313 36.153639) scale(0.697382)"/>
       <use xlink:href="#CMR17-32" transform="translate(313.078306 36.153639) scale(0.697382)"/>
      </g>
     </g>
    </g>
    <g id="ytick_3">
     <g id="line2d_9">
      <g>
       <use xlink:href="#mbf5270bfce" x="81" y="335.683916" style="stroke: #000000; stroke-width: 0.6"/>
      </g>
     </g>
    </g>
    <g id="ytick_4">
     <g id="line2d_10">
      <g>
       <use xlink:href="#mbf5270bfce" x="81" y="307.977031" style="stroke: #000000; stroke-width: 0.6"/>
      </g>
     </g>
     <g id="text_10">
      <!-- $\mathdefault{6\times10^{-2}}$ -->
      <g transform="translate(-0.78844 315.785183) scale(0.22 -0.22)">
       <use xlink:href="#CMR17-36" transform="scale(0.996264)"/>
       <use xlink:href="#CMSY10-2" transform="translate(67.829684 0) scale(0.996264)"/>
       <use xlink:href="#CMR17-31" transform="translate(167.456359 0) scale(0.996264)"/>
       <use xlink:href="#CMR17-30" transform="translate(213.146836 0) scale(0.996264)"/>
       <use xlink:href="#CMSY10-0" transform="translate(258.837313 36.153639) scale(0.697382)"/>
       <use xlink:href="#CMR17-32" transform="translate(313.078306 36.153639) scale(0.697382)"/>
      </g>
     </g>
    </g>
    <g id="ytick_5">
     <g id="line2d_11">
      <g>
       <use xlink:href="#mbf5270bfce" x="81" y="284.551193" style="stroke: #000000; stroke-width: 0.6"/>
      </g>
     </g>
    </g>
    <g id="ytick_6">
     <g id="line2d_12">
      <g>
       <use xlink:href="#mbf5270bfce" x="81" y="264.25881" style="stroke: #000000; stroke-width: 0.6"/>
      </g>
     </g>
    </g>
    <g id="ytick_7">
     <g id="line2d_13">
      <g>
       <use xlink:href="#mbf5270bfce" x="81" y="246.359659" style="stroke: #000000; stroke-width: 0.6"/>
      </g>
     </g>
    </g>
    <g id="ytick_8">
     <g id="line2d_14">
      <g>
       <use xlink:href="#mbf5270bfce" x="81" y="125.012731" style="stroke: #000000; stroke-width: 0.6"/>
      </g>
     </g>
     <g id="text_11">
      <!-- $\mathdefault{2\times10^{-1}}$ -->
      <g transform="translate(-0.78844 132.820883) scale(0.22 -0.22)">
       <use xlink:href="#CMR17-32" transform="scale(0.996264)"/>
       <use xlink:href="#CMSY10-2" transform="translate(67.829684 0) scale(0.996264)"/>
       <use xlink:href="#CMR17-31" transform="translate(167.456359 0) scale(0.996264)"/>
       <use xlink:href="#CMR17-30" transform="translate(213.146836 0) scale(0.996264)"/>
       <use xlink:href="#CMSY10-0" transform="translate(258.837313 36.153639) scale(0.697382)"/>
       <use xlink:href="#CMR17-31" transform="translate(313.078306 36.153639) scale(0.697382)"/>
      </g>
     </g>
    </g>
    <g id="ytick_9">
     <g id="line2d_15">
      <g>
       <use xlink:href="#mbf5270bfce" x="81" y="63.39536" style="stroke: #000000; stroke-width: 0.6"/>
      </g>
     </g>
     <g id="text_12">
      <!-- $\mathdefault{3\times10^{-1}}$ -->
      <g transform="translate(-0.78844 71.203512) scale(0.22 -0.22)">
       <defs>
        <path id="CMR17-33" d="M 1414 2157 
C 1984 2157 2234 1662 2234 1090 
C 2234 320 1824 25 1453 25 
C 1114 25 563 194 390 693 
C 422 680 454 680 486 680 
C 640 680 755 782 755 948 
C 755 1133 614 1216 486 1216 
C 378 1216 211 1165 211 926 
C 211 335 787 -128 1466 -128 
C 2176 -128 2720 430 2720 1085 
C 2720 1707 2208 2157 1600 2227 
C 2086 2328 2554 2756 2554 3329 
C 2554 3820 2048 4179 1472 4179 
C 890 4179 378 3829 378 3329 
C 378 3110 544 3072 627 3072 
C 762 3072 877 3155 877 3321 
C 877 3486 762 3569 627 3569 
C 602 3569 570 3569 544 3557 
C 730 3959 1235 4032 1459 4032 
C 1683 4032 2106 3925 2106 3320 
C 2106 3143 2080 2828 1862 2550 
C 1670 2304 1453 2304 1242 2284 
C 1210 2284 1062 2269 1037 2269 
C 992 2263 966 2257 966 2208 
C 966 2163 973 2157 1101 2157 
L 1414 2157 
z
" transform="scale(0.015625)"/>
       </defs>
       <use xlink:href="#CMR17-33" transform="scale(0.996264)"/>
       <use xlink:href="#CMSY10-2" transform="translate(67.829684 0) scale(0.996264)"/>
       <use xlink:href="#CMR17-31" transform="translate(167.456359 0) scale(0.996264)"/>
       <use xlink:href="#CMR17-30" transform="translate(213.146836 0) scale(0.996264)"/>
       <use xlink:href="#CMSY10-0" transform="translate(258.837313 36.153639) scale(0.697382)"/>
       <use xlink:href="#CMR17-31" transform="translate(313.078306 36.153639) scale(0.697382)"/>
      </g>
     </g>
    </g>
    <g id="text_13">
     <!-- $\varepsilon(s)$ -->
     <g transform="translate(-10.249558 235.997779) rotate(-90) scale(0.22 -0.22)">
      <defs>
       <path id="CMMI12-22" d="M 890 1427 
C 1094 1345 1312 1345 1434 1345 
C 1600 1345 1933 1345 1933 1550 
C 1933 1678 1811 1728 1485 1728 
C 1325 1728 1133 1709 909 1613 
C 710 1708 634 1852 634 1990 
C 634 2379 1261 2606 1830 2606 
C 1939 2606 2170 2606 2438 2411 
C 2477 2387 2496 2367 2541 2367 
C 2618 2367 2701 2449 2701 2526 
C 2701 2639 2330 2880 1888 2880 
C 1171 2880 493 2449 493 1972 
C 493 1734 646 1586 755 1509 
C 384 1301 166 961 166 652 
C 166 219 563 -128 1178 -128 
C 2022 -128 2362 424 2362 512 
C 2362 543 2336 568 2304 568 
C 2272 568 2259 549 2234 512 
C 2163 395 1997 146 1235 146 
C 838 146 314 245 314 686 
C 314 898 474 1214 890 1427 
z
M 1088 1518 
C 1261 1600 1427 1600 1472 1600 
C 1651 1600 1683 1583 1786 1545 
C 1677 1472 1664 1472 1434 1472 
C 1318 1472 1216 1472 1088 1518 
z
" transform="scale(0.015625)"/>
       <path id="CMR17-28" d="M 1958 -1561 
C 1958 -1555 1958 -1542 1939 -1523 
C 1645 -1224 858 -407 858 1581 
C 858 3569 1632 4379 1946 4697 
C 1946 4704 1958 4717 1958 4736 
C 1958 4755 1939 4768 1914 4768 
C 1843 4768 1299 4296 986 3594 
C 666 2887 576 2199 576 1588 
C 576 1128 621 351 1005 -471 
C 1312 -1135 1837 -1600 1914 -1600 
C 1946 -1600 1958 -1587 1958 -1561 
z
" transform="scale(0.015625)"/>
       <path id="CMR17-29" d="M 1683 1581 
C 1683 2040 1638 2817 1254 3639 
C 947 4303 422 4768 346 4768 
C 326 4768 301 4761 301 4729 
C 301 4717 307 4710 314 4697 
C 621 4378 1402 3568 1402 1584 
C 1402 -407 627 -1217 314 -1537 
C 307 -1549 301 -1556 301 -1568 
C 301 -1600 326 -1600 346 -1600 
C 416 -1600 960 -1128 1274 -426 
C 1594 281 1683 969 1683 1581 
z
" transform="scale(0.015625)"/>
      </defs>
      <use xlink:href="#CMMI12-22" transform="scale(0.996264)"/>
      <use xlink:href="#CMR17-28" transform="translate(45.650192 0) scale(0.996264)"/>
      <use xlink:href="#CMMI12-73" transform="translate(80.93096 0) scale(0.996264)"/>
      <use xlink:href="#CMR17-29" transform="translate(126.881008 0) scale(0.996264)"/>
     </g>
    </g>
   </g>
   <g id="line2d_16">
    <path d="M 103.827273 66.96 
L 108.392727 66.989831 
L 112.958182 67.09939 
L 117.523636 67.336499 
L 122.089091 67.741007 
L 126.654545 68.330175 
L 131.22 69.112819 
L 135.785455 70.077969 
L 140.350909 71.205878 
L 144.916364 72.473049 
L 149.481818 73.855505 
L 154.047273 75.33256 
L 158.612727 76.888344 
L 163.178182 78.510404 
L 167.743636 80.188368 
L 172.309091 81.91257 
L 176.874545 83.674897 
L 181.44 85.465495 
L 186.005455 87.281717 
L 190.570909 89.114062 
L 195.136364 90.960644 
L 199.701818 92.819405 
L 204.267273 94.685296 
L 208.832727 96.553462 
L 213.398182 98.413493 
L 217.963636 100.24988 
L 222.529091 102.049114 
L 227.094545 103.794607 
L 231.66 105.472432 
L 236.225455 107.076945 
L 240.790909 108.608175 
L 245.356364 110.070315 
L 249.921818 111.472122 
L 254.487273 112.813035 
L 259.052727 114.114067 
L 263.618182 115.40988 
L 268.183636 116.722733 
L 272.749091 118.050813 
L 277.314545 119.412 
L 281.88 120.840184 
L 286.445455 122.356511 
L 291.010909 123.971369 
L 295.576364 125.698295 
L 300.141818 127.559395 
L 304.707273 129.563724 
L 309.272727 131.70509 
L 313.838182 133.980787 
L 318.403636 136.400434 
L 322.969091 138.96552 
L 327.534545 141.665824 
L 332.1 144.497268 
L 336.665455 147.463509 
L 341.230909 150.562781 
L 345.796364 153.782092 
L 350.361818 157.107939 
L 354.927273 160.535167 
L 359.492727 164.065876 
L 364.058182 167.69606 
L 368.623636 171.414426 
L 373.189091 175.211394 
L 377.754545 179.085529 
L 382.32 183.038723 
L 386.885455 183.610589 
L 391.450909 187.841206 
L 396.016364 192.270831 
L 400.581818 196.879237 
L 405.147273 201.642218 
L 409.712727 206.539449 
L 414.278182 211.545671 
L 418.843636 216.641582 
L 423.409091 221.810576 
L 427.974545 227.039617 
L 432.54 232.321682 
L 437.105455 237.652584 
L 441.670909 243.026738 
L 446.236364 248.444804 
L 450.801818 253.902515 
L 455.367273 259.398662 
L 459.932727 264.931323 
L 464.498182 270.498514 
L 469.063636 276.098903 
L 473.629091 281.731968 
L 478.194545 287.395541 
L 482.76 293.082841 
L 487.325455 298.7884 
L 491.890909 304.501541 
L 496.456364 310.204379 
L 501.021818 315.880104 
L 505.587273 321.496612 
L 510.152727 327.017091 
L 514.718182 332.402088 
L 519.283636 337.596872 
L 523.849091 342.539197 
L 528.414545 347.160351 
L 532.98 351.381285 
L 537.545455 355.121557 
L 542.110909 358.289004 
L 546.676364 360.798395 
L 551.241818 362.565165 
L 555.807273 363.511999 
L 560.372727 363.581064 
" clip-path="url(#p1b74e1758b)" style="fill: none; stroke: #0d0887; stroke-width: 2; stroke-linecap: square"/>
   </g>
   <g id="line2d_17">
    <path d="M 103.827273 66.96 
L 108.392727 66.989831 
L 112.958182 67.09939 
L 117.523636 67.336499 
L 122.089091 67.742607 
L 126.654545 68.343868 
L 131.22 69.14353 
L 135.785455 70.1289 
L 140.350909 71.262579 
L 144.916364 72.521567 
L 149.481818 73.896896 
L 154.047273 75.37429 
L 158.612727 76.935272 
L 163.178182 78.570363 
L 167.743636 80.266249 
L 172.309091 82.005536 
L 176.874545 83.778391 
L 181.44 85.5746 
L 186.005455 87.387999 
L 190.570909 89.217876 
L 195.136364 91.065166 
L 199.701818 92.922793 
L 204.267273 94.79656 
L 208.832727 96.687123 
L 213.398182 98.577085 
L 217.963636 100.433193 
L 222.529091 102.245683 
L 227.094545 104.004482 
L 231.66 105.689734 
L 236.225455 107.287939 
L 240.790909 108.814092 
L 245.356364 110.282119 
L 249.921818 111.693254 
L 254.487273 113.051271 
L 259.052727 114.384682 
L 263.618182 115.714635 
L 268.183636 117.049355 
L 272.749091 118.39006 
L 277.314545 119.767002 
L 281.88 121.213736 
L 286.445455 122.750055 
L 291.010909 124.379293 
L 295.576364 126.110271 
L 300.141818 127.968511 
L 304.707273 129.974583 
L 309.272727 132.144308 
L 313.838182 134.464796 
L 318.403636 136.9245 
L 322.969091 139.525477 
L 327.534545 142.271109 
L 332.1 145.15788 
L 336.665455 148.174076 
L 341.230909 151.30847 
L 345.796364 154.554553 
L 350.361818 157.91452 
L 354.927273 161.385106 
L 359.492727 164.961091 
L 364.058182 168.638447 
L 368.623636 172.409769 
L 373.189091 176.270138 
L 377.754545 180.216884 
L 382.32 184.251514 
L 386.885455 188.37741 
L 391.450909 192.590301 
L 396.016364 196.890384 
L 400.581818 201.272563 
L 405.147273 205.73503 
L 409.712727 210.277227 
L 414.278182 214.90283 
L 418.843636 219.61713 
L 423.409091 224.425778 
L 427.974545 229.332625 
L 432.54 234.33865 
L 437.105455 239.443506 
L 441.670909 244.647246 
L 446.236364 249.947265 
L 450.801818 255.340821 
L 455.367273 260.825581 
L 459.932727 266.399638 
L 464.498182 272.058373 
L 469.063636 277.801113 
L 473.629091 283.622411 
L 478.194545 289.511869 
L 482.76 295.459144 
L 487.325455 301.452646 
L 491.890909 307.473286 
L 496.456364 313.498879 
L 501.021818 319.498426 
L 505.587273 325.438461 
L 510.152727 331.276187 
L 514.718182 336.95947 
L 519.283636 342.432026 
L 523.849091 347.628935 
L 528.414545 352.475916 
L 532.98 356.886148 
L 537.545455 360.776864 
L 542.110909 364.055671 
L 546.676364 366.63183 
L 551.241818 368.42158 
L 555.807273 369.348724 
L 560.372727 369.36 
" clip-path="url(#p1b74e1758b)" style="fill: none; stroke: #6a00a8; stroke-width: 2; stroke-linecap: square"/>
   </g>
   <g id="line2d_18">
    <path d="M 103.827273 66.96 
L 108.392727 66.989831 
L 112.958182 67.09939 
L 117.523636 67.336499 
L 122.089091 67.742607 
L 126.654545 68.343868 
L 131.22 69.14353 
L 135.785455 70.128963 
L 140.350909 71.264232 
L 144.916364 72.527691 
L 149.481818 73.905065 
L 154.047273 75.378717 
L 158.612727 76.938606 
L 163.178182 78.575869 
L 167.743636 80.271378 
L 172.309091 82.011816 
L 176.874545 83.78635 
L 181.44 85.586567 
L 186.005455 87.401541 
L 190.570909 89.229292 
L 195.136364 90.627969 
L 199.701818 92.590574 
L 204.267273 94.591527 
L 208.832727 96.605522 
L 213.398182 98.617413 
L 217.963636 100.60071 
L 222.529091 102.520664 
L 227.094545 104.353216 
L 231.66 106.089449 
L 236.225455 107.722844 
L 240.790909 109.250973 
L 245.356364 110.68278 
L 249.921818 112.03446 
L 254.487273 113.319694 
L 259.052727 114.553688 
L 263.618182 115.755911 
L 268.183636 116.95361 
L 272.749091 118.176789 
L 277.314545 119.454325 
L 281.88 120.815466 
L 286.445455 122.288245 
L 291.010909 123.899788 
L 295.576364 125.671831 
L 300.141818 127.612897 
L 304.707273 129.718199 
L 309.272727 131.980876 
L 313.838182 134.394711 
L 318.403636 136.957297 
L 322.969091 139.665123 
L 327.534545 142.509415 
L 332.1 145.479427 
L 336.665455 148.56605 
L 341.230909 151.762971 
L 345.796364 155.064948 
L 350.361818 158.466454 
L 354.927273 161.962649 
L 359.492727 165.546335 
L 364.058182 169.214352 
L 368.623636 172.963752 
L 373.189091 176.793787 
L 377.754545 180.703708 
L 382.32 184.692958 
L 386.885455 188.761526 
L 391.450909 192.908921 
L 396.016364 197.138233 
L 400.581818 201.45167 
L 405.147273 205.853518 
L 409.712727 210.348282 
L 414.278182 214.938674 
L 418.843636 219.626583 
L 423.409091 224.4149 
L 427.974545 229.30478 
L 432.54 234.297426 
L 437.105455 239.393448 
L 441.670909 244.590358 
L 446.236364 249.888268 
L 450.801818 255.284269 
L 455.367273 260.775293 
L 459.932727 266.360686 
L 464.498182 272.033435 
L 469.063636 277.787313 
L 473.629091 283.616688 
L 478.194545 289.512253 
L 482.76 295.46182 
L 487.325455 301.447928 
L 491.890909 307.456021 
L 496.456364 313.461194 
L 501.021818 319.435902 
L 505.587273 325.346173 
L 510.152727 331.153007 
L 514.718182 336.804438 
L 519.283636 342.242263 
L 523.849091 347.40624 
L 528.414545 352.21985 
L 532.98 356.600393 
L 537.545455 360.464034 
L 542.110909 363.716252 
L 546.676364 366.273668 
L 551.241818 368.047481 
L 555.807273 368.961922 
L 560.372727 368.962134 
" clip-path="url(#p1b74e1758b)" style="fill: none; stroke: #b12a90; stroke-width: 2; stroke-linecap: square"/>
   </g>
   <g id="line2d_19">
    <path d="M 103.827273 66.96 
L 108.392727 66.989831 
L 112.958182 67.09939 
L 117.523636 67.336499 
L 122.089091 67.742607 
L 126.654545 68.343868 
L 131.22 69.14353 
L 135.785455 70.128963 
L 140.350909 71.264232 
L 144.916364 72.527691 
L 149.481818 73.905065 
L 154.047273 75.378717 
L 158.612727 76.938606 
L 163.178182 78.575869 
L 167.743636 80.271378 
L 172.309091 82.011816 
L 176.874545 83.78635 
L 181.44 85.586567 
L 186.005455 87.401541 
L 190.570909 89.229292 
L 195.136364 90.627969 
L 199.701818 92.590574 
L 204.267273 94.591527 
L 208.832727 96.605522 
L 213.398182 98.617413 
L 217.963636 100.60071 
L 222.529091 102.520664 
L 227.094545 104.353216 
L 231.66 106.089449 
L 236.225455 107.722844 
L 240.790909 109.250973 
L 245.356364 110.682698 
L 249.921818 112.034543 
L 254.487273 113.319558 
L 259.052727 114.553033 
L 263.618182 115.755303 
L 268.183636 116.953159 
L 272.749091 118.175664 
L 277.314545 119.453441 
L 281.88 120.814365 
L 286.445455 122.287555 
L 291.010909 123.90017 
L 295.576364 125.67182 
L 300.141818 127.612206 
L 304.707273 129.717545 
L 309.272727 131.980793 
L 313.838182 134.395819 
L 318.403636 136.958265 
L 322.969091 139.665621 
L 327.534545 142.509301 
L 332.1 145.479401 
L 336.665455 148.56683 
L 341.230909 151.764416 
L 345.796364 155.067914 
L 350.361818 158.470348 
L 354.927273 161.966591 
L 359.492727 165.550667 
L 364.058182 169.219016 
L 368.623636 172.967508 
L 373.189091 176.79791 
L 377.754545 180.70588 
L 382.32 184.69502 
L 386.885455 188.76249 
L 391.450909 192.909559 
L 396.016364 197.138879 
L 400.581818 201.454554 
L 405.147273 205.857382 
L 409.712727 210.351965 
L 414.278182 214.942265 
L 418.843636 219.629464 
L 423.409091 224.415411 
L 427.974545 229.305522 
L 432.54 234.29602 
L 437.105455 239.390011 
L 441.670909 244.586839 
L 446.236364 249.884238 
L 450.801818 255.279186 
L 455.367273 260.771973 
L 459.932727 266.356984 
L 464.498182 272.028698 
L 469.063636 277.782006 
L 473.629091 283.610901 
L 478.194545 289.504566 
L 482.76 295.452957 
L 487.325455 301.440028 
L 491.890909 307.44769 
L 496.456364 313.454435 
L 501.021818 319.430419 
L 505.587273 325.340641 
L 510.152727 331.144853 
L 514.718182 336.795496 
L 519.283636 342.235785 
L 523.849091 347.399966 
L 528.414545 352.211708 
L 532.98 356.592896 
L 537.545455 360.454864 
L 542.110909 363.708628 
L 546.676364 366.267187 
L 551.241818 368.041555 
L 555.807273 368.955242 
L 560.372727 368.954974 
" clip-path="url(#p1b74e1758b)" style="fill: none; stroke: #e16462; stroke-width: 2; stroke-linecap: square"/>
   </g>
   <g id="line2d_20">
    <path d="M 103.827273 66.96 
L 108.392727 66.989831 
L 112.958182 67.09939 
L 117.523636 67.336499 
L 122.089091 67.742607 
L 126.654545 68.343868 
L 131.22 69.14353 
L 135.785455 70.128963 
L 140.350909 71.264232 
L 144.916364 72.527691 
L 149.481818 73.905065 
L 154.047273 75.378717 
L 158.612727 76.938606 
L 163.178182 78.575869 
L 167.743636 80.271378 
L 172.309091 82.011816 
L 176.874545 83.78635 
L 181.44 85.586567 
L 186.005455 87.401541 
L 190.570909 89.229292 
L 195.136364 90.627969 
L 199.701818 92.590574 
L 204.267273 94.591527 
L 208.832727 96.605522 
L 213.398182 98.617413 
L 217.963636 100.60071 
L 222.529091 102.520664 
L 227.094545 104.353216 
L 231.66 106.089449 
L 236.225455 107.722844 
L 240.790909 109.250973 
L 245.356364 110.682698 
L 249.921818 112.034543 
L 254.487273 113.319558 
L 259.052727 114.553033 
L 263.618182 115.755303 
L 268.183636 116.953159 
L 272.749091 118.175664 
L 277.314545 119.453441 
L 281.88 120.814365 
L 286.445455 122.287555 
L 291.010909 123.90017 
L 295.576364 125.67182 
L 300.141818 127.612206 
L 304.707273 129.717393 
L 309.272727 131.980793 
L 313.838182 134.395988 
L 318.403636 136.958632 
L 322.969091 139.665983 
L 327.534545 142.510063 
L 332.1 145.480179 
L 336.665455 148.566896 
L 341.230909 151.764348 
L 345.796364 155.067293 
L 350.361818 158.47001 
L 354.927273 161.965681 
L 359.492727 165.549987 
L 364.058182 169.217199 
L 368.623636 172.966204 
L 373.189091 176.796286 
L 377.754545 180.70655 
L 382.32 184.695775 
L 386.885455 188.763575 
L 391.450909 189.857614 
L 396.016364 194.168209 
L 400.581818 198.698852 
L 405.147273 203.419584 
L 409.712727 208.301037 
L 414.278182 213.313929 
L 418.843636 218.433473 
L 423.409091 223.641972 
L 427.974545 228.928944 
L 432.54 234.286968 
L 437.105455 239.712841 
L 441.670909 245.202152 
L 446.236364 250.755051 
L 450.801818 256.365198 
L 455.367273 262.029079 
L 459.932727 267.744381 
L 464.498182 273.507665 
L 469.063636 279.313656 
L 473.629091 285.158235 
L 478.194545 291.034226 
L 482.76 296.937865 
L 487.325455 302.853779 
L 491.890909 308.772627 
L 496.456364 314.676081 
L 501.021818 320.540967 
L 505.587273 326.335376 
L 510.152727 332.029364 
L 514.718182 337.570354 
L 519.283636 342.912449 
L 523.849091 347.985178 
L 528.414545 352.726107 
L 532.98 357.050363 
L 537.545455 360.870914 
L 542.110909 363.46122 
L 546.676364 365.987883 
L 551.241818 367.74857 
L 555.807273 368.661715 
L 560.372727 368.660618 
" clip-path="url(#p1b74e1758b)" style="fill: none; stroke: #fca636; stroke-width: 2; stroke-linecap: square"/>
   </g>
   <g id="line2d_21">
    <path d="M 103.827273 66.989406 
L 108.392727 66.989406 
L 112.958182 67.097627 
L 117.523636 67.320356 
L 122.089091 67.683805 
L 126.654545 68.204627 
L 131.22 68.890116 
L 135.785455 69.740891 
L 140.350909 70.751848 
L 144.916364 71.912679 
L 149.481818 73.209519 
L 154.047273 74.626019 
L 158.612727 76.143928 
L 163.178182 77.745192 
L 167.743636 79.41394 
L 172.309091 81.136245 
L 176.874545 82.90137 
L 181.44 84.705109 
L 186.005455 86.548022 
L 190.570909 88.428193 
L 195.136364 90.337784 
L 199.701818 92.265704 
L 204.267273 94.199922 
L 208.832727 96.127316 
L 213.398182 98.034116 
L 217.963636 99.907495 
L 222.529091 101.736455 
L 227.094545 103.511933 
L 231.66 105.227128 
L 236.225455 106.878093 
L 240.790909 108.463953 
L 245.356364 109.986773 
L 249.921818 111.451622 
L 254.487273 112.867 
L 259.052727 114.24489 
L 263.618182 115.60004 
L 268.183636 116.949289 
L 272.749091 118.311705 
L 277.314545 119.708696 
L 281.88 121.162681 
L 286.445455 122.694475 
L 291.010909 124.321218 
L 295.576364 126.0561 
L 300.141818 127.909311 
L 304.707273 129.888857 
L 309.272727 132.000693 
L 313.838182 134.248618 
L 318.403636 136.634448 
L 322.969091 139.158436 
L 327.534545 141.819647 
L 332.1 144.616129 
L 336.665455 147.54501 
L 341.230909 150.60263 
L 345.796364 153.784773 
L 350.361818 157.086889 
L 354.927273 160.504289 
L 359.492727 164.032293 
L 364.058182 167.666376 
L 368.623636 171.402328 
L 373.189091 175.236414 
L 377.754545 179.165503 
L 382.32 183.187137 
L 386.885455 187.299524 
L 391.450909 191.5015 
L 396.016364 195.792465 
L 400.581818 200.172328 
L 405.147273 204.641447 
L 409.712727 209.200546 
L 414.278182 213.850597 
L 418.843636 218.592678 
L 423.409091 223.427826 
L 427.974545 228.356923 
L 432.54 233.380604 
L 437.105455 238.499204 
L 441.670909 243.712711 
L 446.236364 249.020691 
L 450.801818 254.422192 
L 455.367273 259.915594 
L 459.932727 265.498417 
L 464.498182 271.167076 
L 469.063636 276.916594 
L 473.629091 282.740249 
L 478.194545 288.629168 
L 482.76 294.571843 
L 487.325455 300.553582 
L 491.890909 306.555876 
L 496.456364 312.555696 
L 501.021818 318.524735 
L 505.587273 324.428609 
L 510.152727 330.22608 
L 514.718182 335.868335 
L 519.283636 341.298454 
L 523.849091 346.451157 
L 528.414545 351.253002 
L 532.98 355.623216 
L 537.545455 359.475325 
L 542.110909 362.71974 
L 546.676364 365.267362 
L 551.241818 367.034156 
L 555.807273 367.946435 
L 560.372727 367.946435 
" clip-path="url(#p1b74e1758b)" style="fill: none; stroke: #000000; stroke-width: 1.5; stroke-linecap: square"/>
   </g>
   <g id="patch_3">
    <path d="M 81 384.48 
L 81 51.84 
" style="fill: none; stroke: #000000; stroke-width: 0.8; stroke-linejoin: miter; stroke-linecap: square"/>
   </g>
   <g id="patch_4">
    <path d="M 583.2 384.48 
L 583.2 51.84 
" style="fill: none; stroke: #000000; stroke-width: 0.8; stroke-linejoin: miter; stroke-linecap: square"/>
   </g>
   <g id="patch_5">
    <path d="M 81 384.48 
L 583.2 384.48 
" style="fill: none; stroke: #000000; stroke-width: 0.8; stroke-linejoin: miter; stroke-linecap: square"/>
   </g>
   <g id="patch_6">
    <path d="M 81 51.84 
L 583.2 51.84 
" style="fill: none; stroke: #000000; stroke-width: 0.8; stroke-linejoin: miter; stroke-linecap: square"/>
   </g>
   <g id="text_14">
    <!-- $N = 12$ -->
    <g transform="translate(291.580607 45.84) scale(0.264 -0.264)">
     <defs>
      <path id="CMMI12-4e" d="M 4736 3698 
C 4806 3974 4909 4166 5395 4166 
C 5414 4166 5491 4166 5491 4279 
C 5491 4352 5434 4352 5408 4352 
C 5280 4352 4954 4352 4826 4352 
L 4518 4352 
C 4429 4352 4314 4352 4224 4352 
C 4186 4352 4109 4352 4109 4230 
C 4109 4166 4160 4166 4205 4166 
C 4589 4166 4614 4019 4614 3903 
C 4614 3846 4608 3826 4589 3737 
L 3866 850 
L 2496 4249 
C 2451 4352 2445 4352 2304 4352 
L 1523 4352 
C 1395 4352 1338 4352 1338 4230 
C 1338 4166 1382 4166 1504 4166 
C 1536 4166 1914 4166 1914 4115 
C 1914 4102 1901 4051 1894 4032 
L 1043 635 
C 966 320 813 186 390 186 
C 358 186 294 186 294 67 
C 294 0 358 0 378 0 
C 506 0 832 0 960 0 
L 1267 0 
C 1357 0 1466 0 1555 0 
C 1600 0 1670 0 1670 122 
C 1670 180 1606 186 1581 186 
C 1370 186 1165 224 1165 454 
C 1165 505 1178 562 1190 613 
L 2054 4032 
C 2093 3968 2093 3956 2118 3898 
L 3642 115 
C 3674 38 3686 0 3744 0 
C 3808 0 3814 19 3840 128 
L 4736 3698 
z
" transform="scale(0.015625)"/>
      <path id="CMR17-3d" d="M 4115 2017 
C 4211 2017 4307 2017 4307 2125 
C 4307 2240 4198 2240 4090 2240 
L 512 2240 
C 403 2240 294 2240 294 2125 
C 294 2017 390 2017 486 2017 
L 4115 2017 
z
M 4090 896 
C 4198 896 4307 896 4307 1011 
C 4307 1119 4211 1119 4115 1119 
L 486 1119 
C 390 1119 294 1119 294 1011 
C 294 896 403 896 512 896 
L 4090 896 
z
" transform="scale(0.015625)"/>
     </defs>
     <use xlink:href="#CMMI12-4e" transform="scale(0.996264)"/>
     <use xlink:href="#CMR17-3d" transform="translate(116.195781 0) scale(0.996264)"/>
     <use xlink:href="#CMR17-31" transform="translate(215.584578 0) scale(0.996264)"/>
     <use xlink:href="#CMR17-32" transform="translate(261.275056 0) scale(0.996264)"/>
    </g>
   </g>
   <g id="legend_1">
    <g id="patch_7">
     <path d="M 466.956409 257.147993 
L 567.8 257.147993 
Q 572.2 257.147993 572.2 252.747993 
L 572.2 67.24 
Q 572.2 62.84 567.8 62.84 
L 466.956409 62.84 
Q 462.556409 62.84 462.556409 67.24 
L 462.556409 252.747993 
Q 462.556409 257.147993 466.956409 257.147993 
z
" style="fill: #ffffff; opacity: 0.8; stroke: #cccccc; stroke-linejoin: miter"/>
    </g>
    <g id="line2d_22">
     <path d="M 471.356409 79.556305 
L 493.356409 79.556305 
L 515.356409 79.556305 
" style="fill: none; stroke: #0d0887; stroke-width: 2; stroke-linecap: square"/>
    </g>
    <g id="text_15">
     <!-- $10$ -->
     <g transform="translate(532.956409 87.256305) scale(0.22 -0.22)">
      <use xlink:href="#CMR17-31" transform="scale(0.996264)"/>
      <use xlink:href="#CMR17-30" transform="translate(45.690477 0) scale(0.996264)"/>
     </g>
    </g>
    <g id="line2d_23">
     <path d="M 471.356409 110.84097 
L 493.356409 110.84097 
L 515.356409 110.84097 
" style="fill: none; stroke: #6a00a8; stroke-width: 2; stroke-linecap: square"/>
    </g>
    <g id="text_16">
     <!-- $20$ -->
     <g transform="translate(532.956409 118.54097) scale(0.22 -0.22)">
      <use xlink:href="#CMR17-32" transform="scale(0.996264)"/>
      <use xlink:href="#CMR17-30" transform="translate(45.690477 0) scale(0.996264)"/>
     </g>
    </g>
    <g id="line2d_24">
     <path d="M 471.356409 142.125636 
L 493.356409 142.125636 
L 515.356409 142.125636 
" style="fill: none; stroke: #b12a90; stroke-width: 2; stroke-linecap: square"/>
    </g>
    <g id="text_17">
     <!-- $40$ -->
     <g transform="translate(532.956409 149.825636) scale(0.22 -0.22)">
      <use xlink:href="#CMR17-34" transform="scale(0.996264)"/>
      <use xlink:href="#CMR17-30" transform="translate(45.690477 0) scale(0.996264)"/>
     </g>
    </g>
    <g id="line2d_25">
     <path d="M 471.356409 173.410301 
L 493.356409 173.410301 
L 515.356409 173.410301 
" style="fill: none; stroke: #e16462; stroke-width: 2; stroke-linecap: square"/>
    </g>
    <g id="text_18">
     <!-- $60$ -->
     <g transform="translate(532.956409 181.110301) scale(0.22 -0.22)">
      <use xlink:href="#CMR17-36" transform="scale(0.996264)"/>
      <use xlink:href="#CMR17-30" transform="translate(45.690477 0) scale(0.996264)"/>
     </g>
    </g>
    <g id="line2d_26">
     <path d="M 471.356409 204.694967 
L 493.356409 204.694967 
L 515.356409 204.694967 
" style="fill: none; stroke: #fca636; stroke-width: 2; stroke-linecap: square"/>
    </g>
    <g id="text_19">
     <!-- $80$ -->
     <g transform="translate(532.956409 212.394967) scale(0.22 -0.22)">
      <use xlink:href="#CMR17-38" transform="scale(0.996264)"/>
      <use xlink:href="#CMR17-30" transform="translate(45.690477 0) scale(0.996264)"/>
     </g>
    </g>
    <g id="line2d_27">
     <path d="M 471.356409 235.979632 
L 493.356409 235.979632 
L 515.356409 235.979632 
" style="fill: none; stroke: #000000; stroke-width: 1.5; stroke-linecap: square"/>
    </g>
    <g id="text_20">
     <!-- ED -->
     <g transform="translate(532.956409 243.679632) scale(0.22 -0.22)">
      <defs>
       <path id="NimbusSanL-Regu-45" d="M 1171 2112 
L 3712 2112 
L 3712 2638 
L 1171 2638 
L 1171 4146 
L 3808 4146 
L 3808 4672 
L 576 4672 
L 576 0 
L 3923 0 
L 3923 526 
L 1171 526 
L 1171 2112 
z
" transform="scale(0.015625)"/>
       <path id="NimbusSanL-Regu-44" d="M 570 0 
L 2368 0 
C 3546 0 4269 885 4269 2339 
C 4269 3787 3552 4672 2368 4672 
L 570 4672 
L 570 0 
z
M 1165 526 
L 1165 4146 
L 2266 4146 
C 3187 4146 3674 3524 3674 2333 
C 3674 1154 3187 526 2266 526 
L 1165 526 
z
" transform="scale(0.015625)"/>
      </defs>
      <use xlink:href="#NimbusSanL-Regu-45" transform="scale(0.996264)"/>
      <use xlink:href="#NimbusSanL-Regu-44" transform="translate(66.450031 0) scale(0.996264)"/>
     </g>
    </g>
   </g>
  </g>
 </g>
 <defs>
  <clipPath id="p1b74e1758b">
   <rect x="81" y="51.84" width="502.2" height="332.64"/>
  </clipPath>
 </defs>
</svg>
