<?xml version="1.0" encoding="utf-8" standalone="no"?>
<!DOCTYPE svg PUBLIC "-//W3C//DTD SVG 1.1//EN"
  "http://www.w3.org/Graphics/SVG/1.1/DTD/svg11.dtd">
<svg xmlns:xlink="http://www.w3.org/1999/xlink" width="648pt" height="432pt" viewBox="0 0 648 432" xmlns="http://www.w3.org/2000/svg" version="1.1">
 <metadata>
  <rdf:RDF xmlns:dc="http://purl.org/dc/elements/1.1/" xmlns:cc="http://creativecommons.org/ns#" xmlns:rdf="http://www.w3.org/1999/02/22-rdf-syntax-ns#">
   <cc:Work>
    <dc:type rdf:resource="http://purl.org/dc/dcmitype/StillImage"/>
    <dc:date>2023-03-29T17:44:27.158460</dc:date>
    <dc:format>image/svg+xml</dc:format>
    <dc:creator>
     <cc:Agent>
      <dc:title>Matplotlib v3.6.0, https://matplotlib.org/</dc:title>
     </cc:Agent>
    </dc:creator>
   </cc:Work>
  </rdf:RDF>
 </metadata>
 <defs>
  <style type="text/css">*{stroke-linejoin: round; stroke-linecap: butt}</style>
 </defs>
 <g id="figure_1">
  <g id="patch_1">
   <path d="M 0 432 
L 648 432 
L 648 0 
L 0 0 
L 0 432 
z
" style="fill: none"/>
  </g>
  <g id="axes_1">
   <g id="patch_2">
    <path d="M 81 384.48 
L 583.2 384.48 
L 583.2 51.84 
L 81 51.84 
L 81 384.48 
z
" style="fill: none"/>
   </g>
   <g id="matplotlib.axis_1">
    <g id="xtick_1">
     <g id="line2d_1">
      <defs>
       <path id="m1de0579b30" d="M 0 0 
L 0 3.5 
" style="stroke: #000000; stroke-width: 0.8"/>
      </defs>
      <g>
       <use xlink:href="#m1de0579b30" x="103.827273" y="384.48" style="stroke: #000000; stroke-width: 0.8"/>
      </g>
     </g>
     <g id="text_1">
      <!-- $\mathdefault{0.0}$ -->
      <g transform="translate(90.794678 407.096305) scale(0.22 -0.22)">
       <defs>
        <path id="CMR17-30" d="M 2688 2025 
C 2688 2416 2682 3080 2413 3591 
C 2176 4039 1798 4198 1466 4198 
C 1158 4198 768 4058 525 3597 
C 269 3118 243 2524 243 2025 
C 243 1661 250 1106 448 619 
C 723 -39 1216 -128 1466 -128 
C 1760 -128 2208 -7 2470 600 
C 2662 1042 2688 1559 2688 2025 
z
M 1466 -26 
C 1056 -26 813 325 723 812 
C 653 1188 653 1738 653 2096 
C 653 2588 653 2997 736 3387 
C 858 3929 1216 4096 1466 4096 
C 1728 4096 2067 3923 2189 3400 
C 2272 3036 2278 2607 2278 2096 
C 2278 1680 2278 1169 2202 792 
C 2067 95 1690 -26 1466 -26 
z
" transform="scale(0.015625)"/>
        <path id="CMMI12-3a" d="M 1178 307 
C 1178 492 1024 619 870 619 
C 685 619 557 466 557 313 
C 557 128 710 0 864 0 
C 1050 0 1178 153 1178 307 
z
" transform="scale(0.015625)"/>
       </defs>
       <use xlink:href="#CMR17-30" transform="scale(0.996264)"/>
       <use xlink:href="#CMMI12-3a" transform="translate(45.690477 0) scale(0.996264)"/>
       <use xlink:href="#CMR17-30" transform="translate(72.787654 0) scale(0.996264)"/>
      </g>
     </g>
    </g>
    <g id="xtick_2">
     <g id="line2d_2">
      <g>
       <use xlink:href="#m1de0579b30" x="195.136364" y="384.48" style="stroke: #000000; stroke-width: 0.8"/>
      </g>
     </g>
     <g id="text_2">
      <!-- $\mathdefault{0.2}$ -->
      <g transform="translate(182.103769 407.096305) scale(0.22 -0.22)">
       <defs>
        <path id="CMR17-32" d="M 2669 989 
L 2554 989 
C 2490 536 2438 459 2413 420 
C 2381 369 1920 369 1830 369 
L 602 369 
C 832 619 1280 1072 1824 1597 
C 2214 1967 2669 2402 2669 3035 
C 2669 3790 2067 4224 1395 4224 
C 691 4224 262 3604 262 3030 
C 262 2780 448 2748 525 2748 
C 589 2748 781 2787 781 3010 
C 781 3207 614 3264 525 3264 
C 486 3264 448 3258 422 3245 
C 544 3790 915 4058 1306 4058 
C 1862 4058 2227 3617 2227 3035 
C 2227 2479 1901 2000 1536 1584 
L 262 146 
L 262 0 
L 2515 0 
L 2669 989 
z
" transform="scale(0.015625)"/>
       </defs>
       <use xlink:href="#CMR17-30" transform="scale(0.996264)"/>
       <use xlink:href="#CMMI12-3a" transform="translate(45.690477 0) scale(0.996264)"/>
       <use xlink:href="#CMR17-32" transform="translate(72.787654 0) scale(0.996264)"/>
      </g>
     </g>
    </g>
    <g id="xtick_3">
     <g id="line2d_3">
      <g>
       <use xlink:href="#m1de0579b30" x="286.445455" y="384.48" style="stroke: #000000; stroke-width: 0.8"/>
      </g>
     </g>
     <g id="text_3">
      <!-- $\mathdefault{0.4}$ -->
      <g transform="translate(273.41286 407.096305) scale(0.22 -0.22)">
       <defs>
        <path id="CMR17-34" d="M 2150 4122 
C 2150 4256 2144 4256 2029 4256 
L 128 1254 
L 128 1088 
L 1779 1088 
L 1779 457 
C 1779 224 1766 160 1318 160 
L 1197 160 
L 1197 0 
C 1402 0 1747 0 1965 0 
C 2182 0 2528 0 2733 0 
L 2733 160 
L 2611 160 
C 2163 160 2150 224 2150 457 
L 2150 1088 
L 2803 1088 
L 2803 1254 
L 2150 1254 
L 2150 4122 
z
M 1798 3703 
L 1798 1254 
L 256 1254 
L 1798 3703 
z
" transform="scale(0.015625)"/>
       </defs>
       <use xlink:href="#CMR17-30" transform="scale(0.996264)"/>
       <use xlink:href="#CMMI12-3a" transform="translate(45.690477 0) scale(0.996264)"/>
       <use xlink:href="#CMR17-34" transform="translate(72.787654 0) scale(0.996264)"/>
      </g>
     </g>
    </g>
    <g id="xtick_4">
     <g id="line2d_4">
      <g>
       <use xlink:href="#m1de0579b30" x="377.754545" y="384.48" style="stroke: #000000; stroke-width: 0.8"/>
      </g>
     </g>
     <g id="text_4">
      <!-- $\mathdefault{0.6}$ -->
      <g transform="translate(364.721951 407.096305) scale(0.22 -0.22)">
       <defs>
        <path id="CMR17-36" d="M 678 2176 
C 678 3690 1395 4032 1811 4032 
C 1946 4032 2272 4009 2400 3776 
C 2298 3776 2106 3776 2106 3553 
C 2106 3381 2246 3323 2336 3323 
C 2394 3323 2566 3348 2566 3560 
C 2566 3954 2246 4179 1805 4179 
C 1043 4179 243 3390 243 1984 
C 243 253 966 -128 1478 -128 
C 2099 -128 2688 427 2688 1283 
C 2688 2081 2170 2662 1517 2662 
C 1126 2662 838 2407 678 1960 
L 678 2176 
z
M 1478 25 
C 691 25 691 1200 691 1436 
C 691 1896 909 2560 1504 2560 
C 1613 2560 1926 2560 2138 2120 
C 2253 1870 2253 1609 2253 1289 
C 2253 944 2253 690 2118 434 
C 1978 171 1773 25 1478 25 
z
" transform="scale(0.015625)"/>
       </defs>
       <use xlink:href="#CMR17-30" transform="scale(0.996264)"/>
       <use xlink:href="#CMMI12-3a" transform="translate(45.690477 0) scale(0.996264)"/>
       <use xlink:href="#CMR17-36" transform="translate(72.787654 0) scale(0.996264)"/>
      </g>
     </g>
    </g>
    <g id="xtick_5">
     <g id="line2d_5">
      <g>
       <use xlink:href="#m1de0579b30" x="469.063636" y="384.48" style="stroke: #000000; stroke-width: 0.8"/>
      </g>
     </g>
     <g id="text_5">
      <!-- $\mathdefault{0.8}$ -->
      <g transform="translate(456.031042 407.096305) scale(0.22 -0.22)">
       <defs>
        <path id="CMR17-38" d="M 1741 2264 
C 2144 2467 2554 2773 2554 3263 
C 2554 3841 1990 4179 1472 4179 
C 890 4179 378 3759 378 3180 
C 378 3021 416 2747 666 2505 
C 730 2442 998 2251 1171 2130 
C 883 1983 211 1634 211 934 
C 211 279 838 -128 1459 -128 
C 2144 -128 2720 362 2720 1010 
C 2720 1590 2330 1857 2074 2029 
L 1741 2264 
z
M 902 2822 
C 851 2854 595 3051 595 3351 
C 595 3739 998 4032 1459 4032 
C 1965 4032 2336 3676 2336 3262 
C 2336 2669 1670 2331 1638 2331 
C 1632 2331 1626 2331 1574 2370 
L 902 2822 
z
M 2080 1519 
C 2176 1449 2483 1240 2483 851 
C 2483 381 2010 25 1472 25 
C 890 25 448 438 448 940 
C 448 1443 838 1862 1280 2060 
L 2080 1519 
z
" transform="scale(0.015625)"/>
       </defs>
       <use xlink:href="#CMR17-30" transform="scale(0.996264)"/>
       <use xlink:href="#CMMI12-3a" transform="translate(45.690477 0) scale(0.996264)"/>
       <use xlink:href="#CMR17-38" transform="translate(72.787654 0) scale(0.996264)"/>
      </g>
     </g>
    </g>
    <g id="xtick_6">
     <g id="line2d_6">
      <g>
       <use xlink:href="#m1de0579b30" x="560.372727" y="384.48" style="stroke: #000000; stroke-width: 0.8"/>
      </g>
     </g>
     <g id="text_6">
      <!-- $\mathdefault{1.0}$ -->
      <g transform="translate(547.340133 407.096305) scale(0.22 -0.22)">
       <defs>
        <path id="CMR17-31" d="M 1702 4058 
C 1702 4192 1696 4192 1606 4192 
C 1357 3916 979 3827 621 3827 
C 602 3827 570 3827 563 3808 
C 557 3795 557 3782 557 3648 
C 755 3648 1088 3686 1344 3839 
L 1344 461 
C 1344 236 1331 160 781 160 
L 589 160 
L 589 0 
C 896 0 1216 0 1523 0 
C 1830 0 2150 0 2458 0 
L 2458 160 
L 2266 160 
C 1715 160 1702 230 1702 458 
L 1702 4058 
z
" transform="scale(0.015625)"/>
       </defs>
       <use xlink:href="#CMR17-31" transform="scale(0.996264)"/>
       <use xlink:href="#CMMI12-3a" transform="translate(45.690477 0) scale(0.996264)"/>
       <use xlink:href="#CMR17-30" transform="translate(72.787654 0) scale(0.996264)"/>
      </g>
     </g>
    </g>
   </g>
   <g id="matplotlib.axis_2">
    <g id="ytick_1">
     <g id="line2d_7">
      <defs>
       <path id="m6ecd472d84" d="M 0 0 
L -2 0 
" style="stroke: #000000; stroke-width: 0.6"/>
      </defs>
      <g>
       <use xlink:href="#m6ecd472d84" x="81" y="326.885363" style="stroke: #000000; stroke-width: 0.6"/>
      </g>
     </g>
     <g id="text_7">
      <!-- $\mathdefault{2.4\times10^{-1}}$ -->
      <g transform="translate(-16.801724 334.693515) scale(0.22 -0.22)">
       <defs>
        <path id="CMSY10-2" d="M 2490 1785 
L 1210 3059 
C 1133 3136 1120 3148 1069 3148 
C 1005 3148 941 3091 941 3020 
C 941 2976 954 2963 1024 2892 
L 2304 1606 
L 1024 320 
C 954 249 941 236 941 192 
C 941 121 1005 64 1069 64 
C 1120 64 1133 76 1210 153 
L 2483 1427 
L 3808 102 
C 3821 96 3866 64 3904 64 
C 3981 64 4032 121 4032 192 
C 4032 204 4032 230 4013 262 
C 4006 275 2989 1280 2669 1606 
L 3840 2777 
C 3872 2816 3968 2899 4000 2937 
C 4006 2950 4032 2976 4032 3020 
C 4032 3091 3981 3148 3904 3148 
C 3853 3148 3827 3123 3757 3052 
L 2490 1785 
z
" transform="scale(0.015625)"/>
        <path id="CMSY10-0" d="M 4218 1472 
C 4326 1472 4442 1472 4442 1600 
C 4442 1728 4326 1728 4218 1728 
L 755 1728 
C 646 1728 531 1728 531 1600 
C 531 1472 646 1472 755 1472 
L 4218 1472 
z
" transform="scale(0.015625)"/>
       </defs>
       <use xlink:href="#CMR17-32" transform="scale(0.996264)"/>
       <use xlink:href="#CMMI12-3a" transform="translate(45.690477 0) scale(0.996264)"/>
       <use xlink:href="#CMR17-34" transform="translate(72.787654 0) scale(0.996264)"/>
       <use xlink:href="#CMSY10-2" transform="translate(140.617338 0) scale(0.996264)"/>
       <use xlink:href="#CMR17-31" transform="translate(240.244013 0) scale(0.996264)"/>
       <use xlink:href="#CMR17-30" transform="translate(285.93449 0) scale(0.996264)"/>
       <use xlink:href="#CMSY10-0" transform="translate(331.624967 36.153639) scale(0.697382)"/>
       <use xlink:href="#CMR17-31" transform="translate(385.86596 36.153639) scale(0.697382)"/>
      </g>
     </g>
    </g>
    <g id="ytick_2">
     <g id="line2d_8">
      <g>
       <use xlink:href="#m6ecd472d84" x="81" y="257.973848" style="stroke: #000000; stroke-width: 0.6"/>
      </g>
     </g>
     <g id="text_8">
      <!-- $\mathdefault{2.6\times10^{-1}}$ -->
      <g transform="translate(-16.801724 265.782) scale(0.22 -0.22)">
       <use xlink:href="#CMR17-32" transform="scale(0.996264)"/>
       <use xlink:href="#CMMI12-3a" transform="translate(45.690477 0) scale(0.996264)"/>
       <use xlink:href="#CMR17-36" transform="translate(72.787654 0) scale(0.996264)"/>
       <use xlink:href="#CMSY10-2" transform="translate(140.617338 0) scale(0.996264)"/>
       <use xlink:href="#CMR17-31" transform="translate(240.244013 0) scale(0.996264)"/>
       <use xlink:href="#CMR17-30" transform="translate(285.93449 0) scale(0.996264)"/>
       <use xlink:href="#CMSY10-0" transform="translate(331.624967 36.153639) scale(0.697382)"/>
       <use xlink:href="#CMR17-31" transform="translate(385.86596 36.153639) scale(0.697382)"/>
      </g>
     </g>
    </g>
    <g id="ytick_3">
     <g id="line2d_9">
      <g>
       <use xlink:href="#m6ecd472d84" x="81" y="194.17175" style="stroke: #000000; stroke-width: 0.6"/>
      </g>
     </g>
     <g id="text_9">
      <!-- $\mathdefault{2.8\times10^{-1}}$ -->
      <g transform="translate(-16.801724 201.979902) scale(0.22 -0.22)">
       <use xlink:href="#CMR17-32" transform="scale(0.996264)"/>
       <use xlink:href="#CMMI12-3a" transform="translate(45.690477 0) scale(0.996264)"/>
       <use xlink:href="#CMR17-38" transform="translate(72.787654 0) scale(0.996264)"/>
       <use xlink:href="#CMSY10-2" transform="translate(140.617338 0) scale(0.996264)"/>
       <use xlink:href="#CMR17-31" transform="translate(240.244013 0) scale(0.996264)"/>
       <use xlink:href="#CMR17-30" transform="translate(285.93449 0) scale(0.996264)"/>
       <use xlink:href="#CMSY10-0" transform="translate(331.624967 36.153639) scale(0.697382)"/>
       <use xlink:href="#CMR17-31" transform="translate(385.86596 36.153639) scale(0.697382)"/>
      </g>
     </g>
    </g>
    <g id="ytick_4">
     <g id="line2d_10">
      <g>
       <use xlink:href="#m6ecd472d84" x="81" y="134.773418" style="stroke: #000000; stroke-width: 0.6"/>
      </g>
     </g>
     <g id="text_10">
      <!-- $\mathdefault{3\times10^{-1}}$ -->
      <g transform="translate(-0.78844 142.58157) scale(0.22 -0.22)">
       <defs>
        <path id="CMR17-33" d="M 1414 2157 
C 1984 2157 2234 1662 2234 1090 
C 2234 320 1824 25 1453 25 
C 1114 25 563 194 390 693 
C 422 680 454 680 486 680 
C 640 680 755 782 755 948 
C 755 1133 614 1216 486 1216 
C 378 1216 211 1165 211 926 
C 211 335 787 -128 1466 -128 
C 2176 -128 2720 430 2720 1085 
C 2720 1707 2208 2157 1600 2227 
C 2086 2328 2554 2756 2554 3329 
C 2554 3820 2048 4179 1472 4179 
C 890 4179 378 3829 378 3329 
C 378 3110 544 3072 627 3072 
C 762 3072 877 3155 877 3321 
C 877 3486 762 3569 627 3569 
C 602 3569 570 3569 544 3557 
C 730 3959 1235 4032 1459 4032 
C 1683 4032 2106 3925 2106 3320 
C 2106 3143 2080 2828 1862 2550 
C 1670 2304 1453 2304 1242 2284 
C 1210 2284 1062 2269 1037 2269 
C 992 2263 966 2257 966 2208 
C 966 2163 973 2157 1101 2157 
L 1414 2157 
z
" transform="scale(0.015625)"/>
       </defs>
       <use xlink:href="#CMR17-33" transform="scale(0.996264)"/>
       <use xlink:href="#CMSY10-2" transform="translate(67.829684 0) scale(0.996264)"/>
       <use xlink:href="#CMR17-31" transform="translate(167.456359 0) scale(0.996264)"/>
       <use xlink:href="#CMR17-30" transform="translate(213.146836 0) scale(0.996264)"/>
       <use xlink:href="#CMSY10-0" transform="translate(258.837313 36.153639) scale(0.697382)"/>
       <use xlink:href="#CMR17-31" transform="translate(313.078306 36.153639) scale(0.697382)"/>
      </g>
     </g>
    </g>
    <g id="ytick_5">
     <g id="line2d_11">
      <g>
       <use xlink:href="#m6ecd472d84" x="81" y="79.209989" style="stroke: #000000; stroke-width: 0.6"/>
      </g>
     </g>
     <g id="text_11">
      <!-- $\mathdefault{3.2\times10^{-1}}$ -->
      <g transform="translate(-16.801724 87.018141) scale(0.22 -0.22)">
       <use xlink:href="#CMR17-33" transform="scale(0.996264)"/>
       <use xlink:href="#CMMI12-3a" transform="translate(45.690477 0) scale(0.996264)"/>
       <use xlink:href="#CMR17-32" transform="translate(72.787654 0) scale(0.996264)"/>
       <use xlink:href="#CMSY10-2" transform="translate(140.617338 0) scale(0.996264)"/>
       <use xlink:href="#CMR17-31" transform="translate(240.244013 0) scale(0.996264)"/>
       <use xlink:href="#CMR17-30" transform="translate(285.93449 0) scale(0.996264)"/>
       <use xlink:href="#CMSY10-0" transform="translate(331.624967 36.153639) scale(0.697382)"/>
       <use xlink:href="#CMR17-31" transform="translate(385.86596 36.153639) scale(0.697382)"/>
      </g>
     </g>
    </g>
   </g>
   <g id="line2d_12">
    <path d="M 103.827273 68.61963 
L 108.438843 67.88979 
L 113.050413 68.844034 
L 117.661983 69.642081 
L 122.273554 69.115885 
L 126.885124 70.716956 
L 131.496694 70.634153 
L 136.108264 70.987255 
L 140.719835 72.707113 
L 145.331405 72.103571 
L 149.942975 72.933939 
L 154.554545 74.472357 
L 159.166116 73.512654 
L 163.777686 75.463308 
L 168.389256 76.778356 
L 173.000826 75.550329 
L 177.612397 78.112312 
L 182.223967 78.439415 
L 186.835537 78.010858 
L 191.447107 80.386903 
L 196.058678 81.010665 
L 200.670248 80.00914 
L 205.281818 83.20811 
L 209.893388 83.886561 
L 214.504959 82.231302 
L 219.116529 84.987209 
L 223.728099 88.556962 
L 228.339669 85.401486 
L 232.95124 86.332176 
L 237.56281 91.967818 
L 242.17438 89.701341 
L 246.78595 87.053066 
L 251.397521 93.94015 
L 256.009091 95.753032 
L 260.620661 90.729164 
L 265.232231 94.026613 
L 269.843802 100.69047 
L 274.455372 97.649277 
L 279.066942 94.777163 
L 283.678512 101.530866 
L 288.290083 105.107472 
L 292.901653 100.003992 
L 297.513223 101.257553 
L 302.124793 108.610801 
L 306.736364 109.124349 
L 311.347934 104.29693 
L 315.959504 107.939368 
L 320.571074 114.730433 
L 325.182645 115.044585 
L 329.794215 111.417888 
L 334.405785 114.415978 
L 339.017355 121.164571 
L 343.628926 121.852636 
L 348.240496 118.11382 
L 352.852066 120.924762 
L 357.463636 126.868681 
L 362.075207 129.196026 
L 366.686777 128.502239 
L 371.298347 127.441406 
L 375.909917 130.25358 
L 380.521488 138.552255 
L 385.133058 143.252324 
L 389.744628 138.851505 
L 394.356198 130.70521 
L 398.967769 131.388592 
L 403.579339 147.627311 
L 408.190909 163.330827 
L 412.802479 163.416501 
L 417.41405 150.043569 
L 422.02562 136.148287 
L 426.63719 139.107278 
L 431.24876 156.325543 
L 435.860331 169.59108 
L 440.471901 167.847974 
L 445.083471 155.089066 
L 449.695041 145.228983 
L 454.306612 150.209602 
L 458.918182 169.381201 
L 463.529752 188.330075 
L 468.141322 192.774528 
L 472.752893 181.776302 
L 477.364463 165.277884 
L 481.976033 157.488714 
L 486.587603 165.106882 
L 491.199174 185.145606 
L 495.810744 212.078558 
L 500.422314 243.36064 
L 505.033884 270.134834 
L 509.645455 291.135814 
L 514.257025 306.597838 
L 518.868595 318.754124 
L 523.480165 331.32471 
L 528.091736 341.956014 
L 532.703306 351.527549 
L 537.314876 359.03461 
L 541.926446 363.599732 
L 546.538017 366.566563 
L 551.149587 368.374052 
L 555.761157 369.278239 
L 560.372727 369.36 
" clip-path="url(#pf07a8aaddd)" style="fill: none; stroke: #0d0887; stroke-width: 2; stroke-linecap: square"/>
   </g>
   <g id="line2d_13">
    <path d="M 103.827273 68.460372 
L 108.438843 67.572207 
L 113.050413 68.399876 
L 117.661983 69.140848 
L 122.273554 68.5025 
L 126.885124 69.798782 
L 131.496694 69.742236 
L 136.108264 69.887533 
L 140.719835 71.370376 
L 145.331405 70.638598 
L 149.942975 71.303875 
L 154.554545 72.65157 
L 159.166116 72.71531 
L 163.777686 73.924314 
L 168.389256 74.57164 
L 173.000826 73.726068 
L 177.612397 75.781819 
L 182.223967 76.517024 
L 186.835537 75.698926 
L 191.447107 78.248697 
L 196.058678 79.37279 
L 200.670248 77.350301 
L 205.281818 81.692613 
L 209.893388 82.604086 
L 214.504959 80.331103 
L 219.116529 83.604768 
L 223.728099 86.015881 
L 228.339669 82.893523 
L 232.95124 85.876968 
L 237.56281 90.283401 
L 242.17438 88.294542 
L 246.78595 86.751793 
L 251.397521 92.530241 
L 256.009091 94.605157 
L 260.620661 90.85594 
L 265.232231 93.42547 
L 269.843802 98.969473 
L 274.455372 97.874249 
L 279.066942 95.700641 
L 283.678512 100.802607 
L 288.290083 104.626043 
L 292.901653 102.055851 
L 297.513223 101.78624 
L 302.124793 108.117874 
L 306.736364 110.891906 
L 311.347934 107.179828 
L 315.959504 109.365377 
L 320.571074 116.165149 
L 325.182645 117.698763 
L 329.794215 113.081074 
L 334.405785 116.853752 
L 339.017355 125.509691 
L 343.628926 125.458587 
L 348.240496 119.256365 
L 352.852066 124.680312 
L 357.463636 132.869967 
L 362.075207 137.443455 
L 366.686777 132.364236 
L 371.298347 129.257804 
L 375.909917 134.118588 
L 380.521488 142.68979 
L 385.133058 147.433046 
L 389.744628 143.717134 
L 394.356198 142.508459 
L 398.967769 149.252936 
L 403.579339 158.444647 
L 408.190909 160.406313 
L 412.802479 154.253544 
L 417.41405 147.058876 
L 422.02562 147.797394 
L 426.63719 155.815138 
L 431.24876 167.001494 
L 435.860331 173.018708 
L 440.471901 171.976358 
L 445.083471 165.864865 
L 449.695041 162.918048 
L 454.306612 168.037745 
L 458.918182 176.983999 
L 463.529752 184.323355 
L 468.141322 186.807187 
L 472.752893 186.46001 
L 477.364463 188.01713 
L 481.976033 192.419999 
L 486.587603 198.487012 
L 491.199174 208.194165 
L 495.810744 218.054034 
L 500.422314 230.197558 
L 505.033884 243.446995 
L 509.645455 256.825963 
L 514.257025 269.574024 
L 518.868595 281.384726 
L 523.480165 292.099026 
L 528.091736 301.039383 
L 532.703306 308.633625 
L 537.314876 314.798703 
L 541.926446 319.595774 
L 546.538017 323.301077 
L 551.149587 325.823162 
L 555.761157 327.102111 
L 560.372727 327.146704 
" clip-path="url(#pf07a8aaddd)" style="fill: none; stroke: #9c179e; stroke-width: 2; stroke-linecap: square"/>
   </g>
   <g id="line2d_14">
    <path d="M 103.827273 68.232981 
L 108.438843 66.96 
L 113.050413 67.76461 
L 117.661983 68.35039 
L 122.273554 67.349004 
L 126.885124 68.899253 
L 131.496694 68.707072 
L 136.108264 68.606245 
L 140.719835 70.170028 
L 145.331405 69.619007 
L 149.942975 69.91696 
L 154.554545 71.509829 
L 159.166116 70.785793 
L 163.777686 72.350362 
L 168.389256 73.572156 
L 173.000826 71.810027 
L 177.612397 74.886152 
L 182.223967 75.128555 
L 186.835537 74.344463 
L 191.447107 77.071439 
L 196.058678 78.50006 
L 200.670248 77.131588 
L 205.281818 79.516914 
L 209.893388 81.601591 
L 214.504959 79.90995 
L 219.116529 82.955771 
L 223.728099 85.056309 
L 228.339669 83.233404 
L 232.95124 84.278048 
L 237.56281 90.425871 
L 242.17438 88.127796 
L 246.78595 87.461376 
L 251.397521 92.890241 
L 256.009091 94.589566 
L 260.620661 91.718106 
L 265.232231 94.208213 
L 269.843802 100.514402 
L 274.455372 99.081468 
L 279.066942 97.524282 
L 283.678512 102.589477 
L 288.290083 106.094797 
L 292.901653 103.754984 
L 297.513223 106.490226 
L 302.124793 110.791257 
L 306.736364 112.654931 
L 311.347934 110.433589 
L 315.959504 113.030369 
L 320.571074 119.785298 
L 325.182645 119.055212 
L 329.794215 120.01386 
L 334.405785 120.331965 
L 339.017355 127.532995 
L 343.628926 129.196111 
L 348.240496 126.415672 
L 352.852066 130.924344 
L 357.463636 134.635783 
L 362.075207 139.391673 
L 366.686777 137.159016 
L 371.298347 139.59901 
L 375.909917 142.932977 
L 380.521488 144.962991 
L 385.133058 144.500881 
L 389.744628 147.002573 
L 394.356198 150.534883 
L 398.967769 154.022269 
L 403.579339 157.949415 
L 408.190909 159.999513 
L 412.802479 159.340392 
L 417.41405 156.745349 
L 422.02562 158.672805 
L 426.63719 161.766673 
L 431.24876 165.093416 
L 435.860331 169.523667 
L 440.471901 171.619935 
L 445.083471 169.324844 
L 449.695041 168.983132 
L 454.306612 170.951146 
L 458.918182 173.110448 
L 463.529752 174.651382 
L 468.141322 177.790367 
L 472.752893 181.587272 
L 477.364463 184.051076 
L 481.976033 185.836407 
L 486.587603 186.686722 
L 491.199174 188.373946 
L 495.810744 191.130895 
L 500.422314 194.900921 
L 505.033884 200.583725 
L 509.645455 208.124033 
L 514.257025 216.687245 
L 518.868595 225.340668 
L 523.480165 233.421169 
L 528.091736 240.406896 
L 532.703306 246.227882 
L 537.314876 250.702255 
L 541.926446 254.117373 
L 546.538017 256.722193 
L 551.149587 258.456184 
L 555.761157 259.27028 
L 560.372727 259.280262 
" clip-path="url(#pf07a8aaddd)" style="fill: none; stroke: #ed7953; stroke-width: 2; stroke-linecap: square"/>
   </g>
   <g id="patch_3">
    <path d="M 81 384.48 
L 81 51.84 
" style="fill: none; stroke: #000000; stroke-width: 0.8; stroke-linejoin: miter; stroke-linecap: square"/>
   </g>
   <g id="patch_4">
    <path d="M 583.2 384.48 
L 583.2 51.84 
" style="fill: none; stroke: #000000; stroke-width: 0.8; stroke-linejoin: miter; stroke-linecap: square"/>
   </g>
   <g id="patch_5">
    <path d="M 81 384.48 
L 583.2 384.48 
" style="fill: none; stroke: #000000; stroke-width: 0.8; stroke-linejoin: miter; stroke-linecap: square"/>
   </g>
   <g id="patch_6">
    <path d="M 81 51.84 
L 583.2 51.84 
" style="fill: none; stroke: #000000; stroke-width: 0.8; stroke-linejoin: miter; stroke-linecap: square"/>
   </g>
   <g id="text_12">
    <!-- circuit with Matcha ($N = 15, \delta t = 1.2$) -->
    <g transform="translate(121.99067 45.84) scale(0.264 -0.264)">
     <defs>
      <path id="NimbusSanL-Regu-63" d="M 3014 2236 
C 2989 2562 2918 2773 2790 2958 
C 2560 3271 2157 3456 1690 3456 
C 787 3456 198 2742 198 1632 
C 198 554 774 -128 1683 -128 
C 2483 -128 2989 350 3053 1167 
L 2515 1167 
C 2426 632 2150 365 1696 365 
C 1107 365 755 843 755 1632 
C 755 2466 1101 2962 1683 2962 
C 2131 2962 2413 2701 2477 2236 
L 3014 2236 
z
" transform="scale(0.015625)"/>
      <path id="NimbusSanL-Regu-69" d="M 960 3359 
L 429 3359 
L 429 0 
L 960 0 
L 960 3359 
z
M 960 4672 
L 422 4672 
L 422 3999 
L 960 3999 
L 960 4672 
z
" transform="scale(0.015625)"/>
      <path id="NimbusSanL-Regu-72" d="M 442 3359 
L 442 0 
L 979 0 
L 979 1741 
C 979 2221 1101 2535 1357 2720 
C 1523 2842 1683 2880 2054 2880 
L 2054 3432 
C 1965 3444 1920 3444 1850 3444 
C 1504 3444 1242 3240 934 2746 
L 934 3359 
L 442 3359 
z
" transform="scale(0.015625)"/>
      <path id="NimbusSanL-Regu-75" d="M 3085 33 
L 3085 3392 
L 2554 3392 
L 2554 1479 
C 2554 790 2195 340 1638 340 
C 1216 340 947 597 947 1003 
L 947 3392 
L 416 3392 
L 416 792 
C 416 232 832 -128 1485 -128 
C 1978 -128 2291 45 2605 488 
L 2605 33 
L 3085 33 
z
" transform="scale(0.015625)"/>
      <path id="NimbusSanL-Regu-74" d="M 1626 3380 
L 1075 3380 
L 1075 4288 
L 544 4288 
L 544 3380 
L 90 3380 
L 90 2944 
L 544 2944 
L 544 404 
C 544 64 774 -128 1190 -128 
C 1318 -128 1446 -116 1626 -83 
L 1626 366 
C 1555 346 1472 340 1370 340 
C 1139 340 1075 404 1075 641 
L 1075 2944 
L 1626 2944 
L 1626 3380 
z
" transform="scale(0.015625)"/>
      <path id="NimbusSanL-Regu-77" d="M 3546 0 
L 4531 3360 
L 3930 3360 
L 3264 744 
L 2605 3360 
L 1952 3360 
L 1312 744 
L 627 3360 
L 38 3360 
L 1011 0 
L 1613 0 
L 2259 2635 
L 2938 0 
L 3546 0 
z
" transform="scale(0.015625)"/>
      <path id="NimbusSanL-Regu-68" d="M 448 4672 
L 448 -2 
L 979 -2 
L 979 1852 
C 979 2539 1338 2988 1888 2988 
C 2061 2988 2234 2930 2362 2834 
C 2515 2725 2579 2564 2579 2327 
L 2579 -2 
L 3110 -2 
L 3110 2538 
C 3110 3103 2707 3456 2054 3456 
C 1581 3456 1293 3308 979 2898 
L 979 4672 
L 448 4672 
z
" transform="scale(0.015625)"/>
      <path id="NimbusSanL-Regu-4d" d="M 2995 -2 
L 4307 3915 
L 4307 -2 
L 4870 -2 
L 4870 4672 
L 4045 4672 
L 2688 601 
L 1306 4672 
L 480 4672 
L 480 -2 
L 1043 -2 
L 1043 3915 
L 2368 -2 
L 2995 -2 
z
" transform="scale(0.015625)"/>
      <path id="NimbusSanL-Regu-61" d="M 3424 333 
C 3366 320 3341 320 3309 320 
C 3123 320 3021 415 3021 581 
L 3021 2545 
C 3021 3137 2586 3456 1760 3456 
C 1274 3456 870 3316 646 3066 
C 493 2893 429 2702 416 2370 
L 954 2370 
C 998 2777 1242 2962 1741 2962 
C 2221 2962 2490 2783 2490 2465 
L 2490 2325 
C 2490 2101 2355 2006 1933 1955 
C 1178 1860 1062 1834 858 1751 
C 467 1592 269 1292 269 859 
C 269 254 691 -128 1370 -128 
C 1792 -128 2131 19 2509 365 
C 2547 25 2714 -128 3059 -128 
C 3168 -128 3251 -116 3424 -70 
L 3424 333 
z
M 2490 1072 
C 2490 893 2438 785 2278 639 
C 2061 441 1798 340 1485 340 
C 1069 340 826 537 826 874 
C 826 1225 1062 1403 1632 1486 
C 2195 1562 2310 1588 2490 1670 
L 2490 1072 
z
" transform="scale(0.015625)"/>
      <path id="NimbusSanL-Regu-28" d="M 1510 4672 
C 870 3830 467 2660 467 1651 
C 467 636 870 -534 1510 -1376 
L 1862 -1376 
C 1299 -457 986 623 986 1651 
C 986 2673 1299 3759 1862 4672 
L 1510 4672 
z
" transform="scale(0.015625)"/>
      <path id="CMMI12-4e" d="M 4736 3698 
C 4806 3974 4909 4166 5395 4166 
C 5414 4166 5491 4166 5491 4279 
C 5491 4352 5434 4352 5408 4352 
C 5280 4352 4954 4352 4826 4352 
L 4518 4352 
C 4429 4352 4314 4352 4224 4352 
C 4186 4352 4109 4352 4109 4230 
C 4109 4166 4160 4166 4205 4166 
C 4589 4166 4614 4019 4614 3903 
C 4614 3846 4608 3826 4589 3737 
L 3866 850 
L 2496 4249 
C 2451 4352 2445 4352 2304 4352 
L 1523 4352 
C 1395 4352 1338 4352 1338 4230 
C 1338 4166 1382 4166 1504 4166 
C 1536 4166 1914 4166 1914 4115 
C 1914 4102 1901 4051 1894 4032 
L 1043 635 
C 966 320 813 186 390 186 
C 358 186 294 186 294 67 
C 294 0 358 0 378 0 
C 506 0 832 0 960 0 
L 1267 0 
C 1357 0 1466 0 1555 0 
C 1600 0 1670 0 1670 122 
C 1670 180 1606 186 1581 186 
C 1370 186 1165 224 1165 454 
C 1165 505 1178 562 1190 613 
L 2054 4032 
C 2093 3968 2093 3956 2118 3898 
L 3642 115 
C 3674 38 3686 0 3744 0 
C 3808 0 3814 19 3840 128 
L 4736 3698 
z
" transform="scale(0.015625)"/>
      <path id="CMR17-3d" d="M 4115 2017 
C 4211 2017 4307 2017 4307 2125 
C 4307 2240 4198 2240 4090 2240 
L 512 2240 
C 403 2240 294 2240 294 2125 
C 294 2017 390 2017 486 2017 
L 4115 2017 
z
M 4090 896 
C 4198 896 4307 896 4307 1011 
C 4307 1119 4211 1119 4115 1119 
L 486 1119 
C 390 1119 294 1119 294 1011 
C 294 896 403 896 512 896 
L 4090 896 
z
" transform="scale(0.015625)"/>
      <path id="CMR17-35" d="M 730 3692 
C 794 3666 1056 3584 1325 3584 
C 1920 3584 2246 3911 2432 4100 
C 2432 4157 2432 4192 2394 4192 
C 2387 4192 2374 4192 2323 4163 
C 2099 4058 1837 3973 1517 3973 
C 1325 3973 1037 3999 723 4139 
C 653 4171 640 4171 634 4171 
C 602 4171 595 4164 595 4037 
L 595 2203 
C 595 2089 595 2057 659 2057 
C 691 2057 704 2070 736 2114 
C 941 2401 1222 2522 1542 2522 
C 1766 2522 2246 2382 2246 1289 
C 2246 1085 2246 715 2054 421 
C 1894 159 1645 25 1370 25 
C 947 25 518 320 403 814 
C 429 807 480 795 506 795 
C 589 795 749 840 749 1038 
C 749 1210 627 1280 506 1280 
C 358 1280 262 1190 262 1011 
C 262 454 704 -128 1382 -128 
C 2042 -128 2669 440 2669 1264 
C 2669 2030 2170 2624 1549 2624 
C 1222 2624 947 2503 730 2274 
L 730 3692 
z
" transform="scale(0.015625)"/>
      <path id="CMMI12-3b" d="M 1248 -31 
C 1248 343 1126 619 864 619 
C 659 619 557 453 557 313 
C 557 172 653 0 870 0 
C 954 0 1024 26 1082 83 
C 1094 96 1101 96 1107 96 
C 1120 96 1120 5 1120 -27 
C 1120 -240 1082 -659 710 -1080 
C 640 -1157 640 -1170 640 -1183 
C 640 -1216 672 -1248 704 -1248 
C 755 -1248 1248 -771 1248 -31 
z
" transform="scale(0.015625)"/>
      <path id="CMMI12-e" d="M 1664 2795 
C 845 2597 256 1748 256 1001 
C 256 319 717 -64 1229 -64 
C 1984 -64 2496 970 2496 1818 
C 2496 2392 2227 2744 2067 2954 
C 1830 3254 1446 3746 1446 4052 
C 1446 4161 1530 4352 1811 4352 
C 2010 4352 2131 4282 2323 4173 
C 2381 4134 2528 4052 2611 4052 
C 2746 4052 2842 4185 2842 4287 
C 2842 4409 2746 4428 2522 4479 
C 2221 4543 2131 4543 2022 4543 
C 1914 4543 1286 4543 1286 3892 
C 1286 3579 1446 3216 1664 2795 
z
M 1734 2669 
C 1978 2165 2074 1974 2074 1560 
C 2074 1063 1805 63 1235 63 
C 986 63 627 229 627 821 
C 627 1235 864 2439 1734 2669 
z
" transform="scale(0.015625)"/>
      <path id="CMMI12-74" d="M 1286 2566 
L 1875 2566 
C 1997 2566 2061 2566 2061 2681 
C 2061 2752 2022 2752 1894 2752 
L 1331 2752 
L 1568 3692 
C 1594 3781 1594 3794 1594 3840 
C 1594 3943 1510 4000 1427 4000 
C 1376 4000 1229 3981 1178 3775 
L 928 2752 
L 326 2752 
C 198 2752 141 2752 141 2630 
C 141 2566 186 2566 307 2566 
L 877 2566 
L 454 881 
C 403 658 384 594 384 511 
C 384 211 595 -64 954 -64 
C 1600 -64 1946 868 1946 912 
C 1946 951 1920 970 1882 970 
C 1869 970 1843 970 1830 944 
C 1824 938 1818 931 1773 829 
C 1638 511 1344 64 973 64 
C 781 64 768 224 768 364 
C 768 370 768 492 787 568 
L 1286 2566 
z
" transform="scale(0.015625)"/>
      <path id="NimbusSanL-Regu-29" d="M 595 -1376 
C 1235 -534 1638 636 1638 1644 
C 1638 2660 1235 3830 595 4672 
L 243 4672 
C 806 3753 1120 2673 1120 1644 
C 1120 623 806 -464 243 -1376 
L 595 -1376 
z
" transform="scale(0.015625)"/>
     </defs>
     <use xlink:href="#NimbusSanL-Regu-63" transform="scale(0.996264)"/>
     <use xlink:href="#NimbusSanL-Regu-69" transform="translate(49.8132 0) scale(0.996264)"/>
     <use xlink:href="#NimbusSanL-Regu-72" transform="translate(71.929985 0) scale(0.996264)"/>
     <use xlink:href="#NimbusSanL-Regu-63" transform="translate(105.105215 0) scale(0.996264)"/>
     <use xlink:href="#NimbusSanL-Regu-75" transform="translate(154.918415 0) scale(0.996264)"/>
     <use xlink:href="#NimbusSanL-Regu-69" transform="translate(210.310092 0) scale(0.996264)"/>
     <use xlink:href="#NimbusSanL-Regu-74" transform="translate(232.426876 0) scale(0.996264)"/>
     <use xlink:href="#NimbusSanL-Regu-77" transform="translate(287.817216 0) scale(0.996264)"/>
     <use xlink:href="#NimbusSanL-Regu-69" transform="translate(359.7472 0) scale(0.996264)"/>
     <use xlink:href="#NimbusSanL-Regu-74" transform="translate(381.863985 0) scale(0.996264)"/>
     <use xlink:href="#NimbusSanL-Regu-68" transform="translate(409.559154 0) scale(0.996264)"/>
     <use xlink:href="#NimbusSanL-Regu-4d" transform="translate(492.646001 0) scale(0.996264)"/>
     <use xlink:href="#NimbusSanL-Regu-61" transform="translate(575.634431 0) scale(0.996264)"/>
     <use xlink:href="#NimbusSanL-Regu-74" transform="translate(631.026108 0) scale(0.996264)"/>
     <use xlink:href="#NimbusSanL-Regu-63" transform="translate(658.721278 0) scale(0.996264)"/>
     <use xlink:href="#NimbusSanL-Regu-68" transform="translate(708.534478 0) scale(0.996264)"/>
     <use xlink:href="#NimbusSanL-Regu-61" transform="translate(763.926155 0) scale(0.996264)"/>
     <use xlink:href="#NimbusSanL-Regu-28" transform="translate(847.013002 0) scale(0.996264)"/>
     <use xlink:href="#CMMI12-4e" transform="translate(880.188232 0) scale(0.996264)"/>
     <use xlink:href="#CMR17-3d" transform="translate(996.384013 0) scale(0.996264)"/>
     <use xlink:href="#CMR17-31" transform="translate(1095.77281 0) scale(0.996264)"/>
     <use xlink:href="#CMR17-35" transform="translate(1141.463287 0) scale(0.996264)"/>
     <use xlink:href="#CMMI12-3b" transform="translate(1187.153764 0) scale(0.996264)"/>
     <use xlink:href="#CMMI12-e" transform="translate(1230.855347 0) scale(0.996264)"/>
     <use xlink:href="#CMMI12-74" transform="translate(1277.796733 0) scale(0.996264)"/>
     <use xlink:href="#CMR17-3d" transform="translate(1340.697072 0) scale(0.996264)"/>
     <use xlink:href="#CMR17-31" transform="translate(1440.085869 0) scale(0.996264)"/>
     <use xlink:href="#CMMI12-3a" transform="translate(1485.776346 0) scale(0.996264)"/>
     <use xlink:href="#CMR17-32" transform="translate(1512.873523 0) scale(0.996264)"/>
     <use xlink:href="#NimbusSanL-Regu-29" transform="translate(1558.564 0) scale(0.996264)"/>
    </g>
   </g>
   <g id="legend_1">
    <g id="patch_7">
     <path d="M 96.4 373.48 
L 186.90381 373.48 
Q 191.30381 373.48 191.30381 369.08 
L 191.30381 277.426003 
Q 191.30381 273.026003 186.90381 273.026003 
L 96.4 273.026003 
Q 92 273.026003 92 277.426003 
L 92 369.08 
Q 92 373.48 96.4 373.48 
z
" style="fill: #ffffff; opacity: 0.8; stroke: #cccccc; stroke-linejoin: miter"/>
    </g>
    <g id="line2d_15">
     <path d="M 100.8 289.742308 
L 122.8 289.742308 
L 144.8 289.742308 
" style="fill: none; stroke: #0d0887; stroke-width: 2; stroke-linecap: square"/>
    </g>
    <g id="text_13">
     <!-- $20$ -->
     <g transform="translate(162.4 297.442308) scale(0.22 -0.22)">
      <use xlink:href="#CMR17-32" transform="scale(0.996264)"/>
      <use xlink:href="#CMR17-30" transform="translate(45.690477 0) scale(0.996264)"/>
     </g>
    </g>
    <g id="line2d_16">
     <path d="M 100.8 321.026974 
L 122.8 321.026974 
L 144.8 321.026974 
" style="fill: none; stroke: #9c179e; stroke-width: 2; stroke-linecap: square"/>
    </g>
    <g id="text_14">
     <!-- $40$ -->
     <g transform="translate(162.4 328.726974) scale(0.22 -0.22)">
      <use xlink:href="#CMR17-34" transform="scale(0.996264)"/>
      <use xlink:href="#CMR17-30" transform="translate(45.690477 0) scale(0.996264)"/>
     </g>
    </g>
    <g id="line2d_17">
     <path d="M 100.8 352.311639 
L 122.8 352.311639 
L 144.8 352.311639 
" style="fill: none; stroke: #ed7953; stroke-width: 2; stroke-linecap: square"/>
    </g>
    <g id="text_15">
     <!-- $60$ -->
     <g transform="translate(162.4 360.011639) scale(0.22 -0.22)">
      <use xlink:href="#CMR17-36" transform="scale(0.996264)"/>
      <use xlink:href="#CMR17-30" transform="translate(45.690477 0) scale(0.996264)"/>
     </g>
    </g>
   </g>
  </g>
 </g>
 <defs>
  <clipPath id="pf07a8aaddd">
   <rect x="81" y="51.84" width="502.2" height="332.64"/>
  </clipPath>
 </defs>
</svg>
