<?xml version="1.0" encoding="utf-8" standalone="no"?>
<!DOCTYPE svg PUBLIC "-//W3C//DTD SVG 1.1//EN"
  "http://www.w3.org/Graphics/SVG/1.1/DTD/svg11.dtd">
<svg xmlns:xlink="http://www.w3.org/1999/xlink" width="648pt" height="432pt" viewBox="0 0 648 432" xmlns="http://www.w3.org/2000/svg" version="1.1">
 <metadata>
  <rdf:RDF xmlns:dc="http://purl.org/dc/elements/1.1/" xmlns:cc="http://creativecommons.org/ns#" xmlns:rdf="http://www.w3.org/1999/02/22-rdf-syntax-ns#">
   <cc:Work>
    <dc:type rdf:resource="http://purl.org/dc/dcmitype/StillImage"/>
    <dc:date>2023-03-30T10:26:21.725978</dc:date>
    <dc:format>image/svg+xml</dc:format>
    <dc:creator>
     <cc:Agent>
      <dc:title>Matplotlib v3.6.0, https://matplotlib.org/</dc:title>
     </cc:Agent>
    </dc:creator>
   </cc:Work>
  </rdf:RDF>
 </metadata>
 <defs>
  <style type="text/css">*{stroke-linejoin: round; stroke-linecap: butt}</style>
 </defs>
 <g id="figure_1">
  <g id="patch_1">
   <path d="M 0 432 
L 648 432 
L 648 0 
L 0 0 
L 0 432 
z
" style="fill: none"/>
  </g>
  <g id="axes_1">
   <g id="patch_2">
    <path d="M 121.561724 380.955334 
L 624.24 380.955334 
L 624.24 48.986287 
L 121.561724 48.986287 
L 121.561724 380.955334 
z
" style="fill: none"/>
   </g>
   <g id="matplotlib.axis_1">
    <g id="xtick_1">
     <g id="line2d_1">
      <defs>
       <path id="m57bb744092" d="M 0 0 
L 0 3.5 
" style="stroke: #000000; stroke-width: 0.8"/>
      </defs>
      <g>
       <use xlink:href="#m57bb744092" x="144.410736" y="380.955334" style="stroke: #000000; stroke-width: 0.8"/>
      </g>
     </g>
     <g id="text_1">
      <!-- $\mathdefault{0.0}$ -->
      <g transform="translate(131.378142 403.571639) scale(0.22 -0.22)">
       <defs>
        <path id="CMR17-30" d="M 2688 2025 
C 2688 2416 2682 3080 2413 3591 
C 2176 4039 1798 4198 1466 4198 
C 1158 4198 768 4058 525 3597 
C 269 3118 243 2524 243 2025 
C 243 1661 250 1106 448 619 
C 723 -39 1216 -128 1466 -128 
C 1760 -128 2208 -7 2470 600 
C 2662 1042 2688 1559 2688 2025 
z
M 1466 -26 
C 1056 -26 813 325 723 812 
C 653 1188 653 1738 653 2096 
C 653 2588 653 2997 736 3387 
C 858 3929 1216 4096 1466 4096 
C 1728 4096 2067 3923 2189 3400 
C 2272 3036 2278 2607 2278 2096 
C 2278 1680 2278 1169 2202 792 
C 2067 95 1690 -26 1466 -26 
z
" transform="scale(0.015625)"/>
        <path id="CMMI12-3a" d="M 1178 307 
C 1178 492 1024 619 870 619 
C 685 619 557 466 557 313 
C 557 128 710 0 864 0 
C 1050 0 1178 153 1178 307 
z
" transform="scale(0.015625)"/>
       </defs>
       <use xlink:href="#CMR17-30" transform="scale(0.996264)"/>
       <use xlink:href="#CMMI12-3a" transform="translate(45.690477 0) scale(0.996264)"/>
       <use xlink:href="#CMR17-30" transform="translate(72.787654 0) scale(0.996264)"/>
      </g>
     </g>
    </g>
    <g id="xtick_2">
     <g id="line2d_2">
      <g>
       <use xlink:href="#m57bb744092" x="235.806786" y="380.955334" style="stroke: #000000; stroke-width: 0.8"/>
      </g>
     </g>
     <g id="text_2">
      <!-- $\mathdefault{0.2}$ -->
      <g transform="translate(222.774192 403.571639) scale(0.22 -0.22)">
       <defs>
        <path id="CMR17-32" d="M 2669 989 
L 2554 989 
C 2490 536 2438 459 2413 420 
C 2381 369 1920 369 1830 369 
L 602 369 
C 832 619 1280 1072 1824 1597 
C 2214 1967 2669 2402 2669 3035 
C 2669 3790 2067 4224 1395 4224 
C 691 4224 262 3604 262 3030 
C 262 2780 448 2748 525 2748 
C 589 2748 781 2787 781 3010 
C 781 3207 614 3264 525 3264 
C 486 3264 448 3258 422 3245 
C 544 3790 915 4058 1306 4058 
C 1862 4058 2227 3617 2227 3035 
C 2227 2479 1901 2000 1536 1584 
L 262 146 
L 262 0 
L 2515 0 
L 2669 989 
z
" transform="scale(0.015625)"/>
       </defs>
       <use xlink:href="#CMR17-30" transform="scale(0.996264)"/>
       <use xlink:href="#CMMI12-3a" transform="translate(45.690477 0) scale(0.996264)"/>
       <use xlink:href="#CMR17-32" transform="translate(72.787654 0) scale(0.996264)"/>
      </g>
     </g>
    </g>
    <g id="xtick_3">
     <g id="line2d_3">
      <g>
       <use xlink:href="#m57bb744092" x="327.202837" y="380.955334" style="stroke: #000000; stroke-width: 0.8"/>
      </g>
     </g>
     <g id="text_3">
      <!-- $\mathdefault{0.4}$ -->
      <g transform="translate(314.170242 403.571639) scale(0.22 -0.22)">
       <defs>
        <path id="CMR17-34" d="M 2150 4122 
C 2150 4256 2144 4256 2029 4256 
L 128 1254 
L 128 1088 
L 1779 1088 
L 1779 457 
C 1779 224 1766 160 1318 160 
L 1197 160 
L 1197 0 
C 1402 0 1747 0 1965 0 
C 2182 0 2528 0 2733 0 
L 2733 160 
L 2611 160 
C 2163 160 2150 224 2150 457 
L 2150 1088 
L 2803 1088 
L 2803 1254 
L 2150 1254 
L 2150 4122 
z
M 1798 3703 
L 1798 1254 
L 256 1254 
L 1798 3703 
z
" transform="scale(0.015625)"/>
       </defs>
       <use xlink:href="#CMR17-30" transform="scale(0.996264)"/>
       <use xlink:href="#CMMI12-3a" transform="translate(45.690477 0) scale(0.996264)"/>
       <use xlink:href="#CMR17-34" transform="translate(72.787654 0) scale(0.996264)"/>
      </g>
     </g>
    </g>
    <g id="xtick_4">
     <g id="line2d_4">
      <g>
       <use xlink:href="#m57bb744092" x="418.598887" y="380.955334" style="stroke: #000000; stroke-width: 0.8"/>
      </g>
     </g>
     <g id="text_4">
      <!-- $\mathdefault{0.6}$ -->
      <g transform="translate(405.566292 403.571639) scale(0.22 -0.22)">
       <defs>
        <path id="CMR17-36" d="M 678 2176 
C 678 3690 1395 4032 1811 4032 
C 1946 4032 2272 4009 2400 3776 
C 2298 3776 2106 3776 2106 3553 
C 2106 3381 2246 3323 2336 3323 
C 2394 3323 2566 3348 2566 3560 
C 2566 3954 2246 4179 1805 4179 
C 1043 4179 243 3390 243 1984 
C 243 253 966 -128 1478 -128 
C 2099 -128 2688 427 2688 1283 
C 2688 2081 2170 2662 1517 2662 
C 1126 2662 838 2407 678 1960 
L 678 2176 
z
M 1478 25 
C 691 25 691 1200 691 1436 
C 691 1896 909 2560 1504 2560 
C 1613 2560 1926 2560 2138 2120 
C 2253 1870 2253 1609 2253 1289 
C 2253 944 2253 690 2118 434 
C 1978 171 1773 25 1478 25 
z
" transform="scale(0.015625)"/>
       </defs>
       <use xlink:href="#CMR17-30" transform="scale(0.996264)"/>
       <use xlink:href="#CMMI12-3a" transform="translate(45.690477 0) scale(0.996264)"/>
       <use xlink:href="#CMR17-36" transform="translate(72.787654 0) scale(0.996264)"/>
      </g>
     </g>
    </g>
    <g id="xtick_5">
     <g id="line2d_5">
      <g>
       <use xlink:href="#m57bb744092" x="509.994937" y="380.955334" style="stroke: #000000; stroke-width: 0.8"/>
      </g>
     </g>
     <g id="text_5">
      <!-- $\mathdefault{0.8}$ -->
      <g transform="translate(496.962343 403.571639) scale(0.22 -0.22)">
       <defs>
        <path id="CMR17-38" d="M 1741 2264 
C 2144 2467 2554 2773 2554 3263 
C 2554 3841 1990 4179 1472 4179 
C 890 4179 378 3759 378 3180 
C 378 3021 416 2747 666 2505 
C 730 2442 998 2251 1171 2130 
C 883 1983 211 1634 211 934 
C 211 279 838 -128 1459 -128 
C 2144 -128 2720 362 2720 1010 
C 2720 1590 2330 1857 2074 2029 
L 1741 2264 
z
M 902 2822 
C 851 2854 595 3051 595 3351 
C 595 3739 998 4032 1459 4032 
C 1965 4032 2336 3676 2336 3262 
C 2336 2669 1670 2331 1638 2331 
C 1632 2331 1626 2331 1574 2370 
L 902 2822 
z
M 2080 1519 
C 2176 1449 2483 1240 2483 851 
C 2483 381 2010 25 1472 25 
C 890 25 448 438 448 940 
C 448 1443 838 1862 1280 2060 
L 2080 1519 
z
" transform="scale(0.015625)"/>
       </defs>
       <use xlink:href="#CMR17-30" transform="scale(0.996264)"/>
       <use xlink:href="#CMMI12-3a" transform="translate(45.690477 0) scale(0.996264)"/>
       <use xlink:href="#CMR17-38" transform="translate(72.787654 0) scale(0.996264)"/>
      </g>
     </g>
    </g>
    <g id="xtick_6">
     <g id="line2d_6">
      <g>
       <use xlink:href="#m57bb744092" x="601.390987" y="380.955334" style="stroke: #000000; stroke-width: 0.8"/>
      </g>
     </g>
     <g id="text_6">
      <!-- $\mathdefault{1.0}$ -->
      <g transform="translate(588.358393 403.571639) scale(0.22 -0.22)">
       <defs>
        <path id="CMR17-31" d="M 1702 4058 
C 1702 4192 1696 4192 1606 4192 
C 1357 3916 979 3827 621 3827 
C 602 3827 570 3827 563 3808 
C 557 3795 557 3782 557 3648 
C 755 3648 1088 3686 1344 3839 
L 1344 461 
C 1344 236 1331 160 781 160 
L 589 160 
L 589 0 
C 896 0 1216 0 1523 0 
C 1830 0 2150 0 2458 0 
L 2458 160 
L 2266 160 
C 1715 160 1702 230 1702 458 
L 1702 4058 
z
" transform="scale(0.015625)"/>
       </defs>
       <use xlink:href="#CMR17-31" transform="scale(0.996264)"/>
       <use xlink:href="#CMMI12-3a" transform="translate(45.690477 0) scale(0.996264)"/>
       <use xlink:href="#CMR17-30" transform="translate(72.787654 0) scale(0.996264)"/>
      </g>
     </g>
    </g>
   </g>
   <g id="matplotlib.axis_2">
    <g id="ytick_1">
     <g id="line2d_7">
      <defs>
       <path id="m743d52ed7b" d="M 0 0 
L -2 0 
" style="stroke: #000000; stroke-width: 0.6"/>
      </defs>
      <g>
       <use xlink:href="#m743d52ed7b" x="121.561724" y="323.476869" style="stroke: #000000; stroke-width: 0.6"/>
      </g>
     </g>
     <g id="text_7">
      <!-- $\mathdefault{2.4\times10^{-1}}$ -->
      <g transform="translate(23.76 331.285021) scale(0.22 -0.22)">
       <defs>
        <path id="CMSY10-2" d="M 2490 1785 
L 1210 3059 
C 1133 3136 1120 3148 1069 3148 
C 1005 3148 941 3091 941 3020 
C 941 2976 954 2963 1024 2892 
L 2304 1606 
L 1024 320 
C 954 249 941 236 941 192 
C 941 121 1005 64 1069 64 
C 1120 64 1133 76 1210 153 
L 2483 1427 
L 3808 102 
C 3821 96 3866 64 3904 64 
C 3981 64 4032 121 4032 192 
C 4032 204 4032 230 4013 262 
C 4006 275 2989 1280 2669 1606 
L 3840 2777 
C 3872 2816 3968 2899 4000 2937 
C 4006 2950 4032 2976 4032 3020 
C 4032 3091 3981 3148 3904 3148 
C 3853 3148 3827 3123 3757 3052 
L 2490 1785 
z
" transform="scale(0.015625)"/>
        <path id="CMSY10-0" d="M 4218 1472 
C 4326 1472 4442 1472 4442 1600 
C 4442 1728 4326 1728 4218 1728 
L 755 1728 
C 646 1728 531 1728 531 1600 
C 531 1472 646 1472 755 1472 
L 4218 1472 
z
" transform="scale(0.015625)"/>
       </defs>
       <use xlink:href="#CMR17-32" transform="scale(0.996264)"/>
       <use xlink:href="#CMMI12-3a" transform="translate(45.690477 0) scale(0.996264)"/>
       <use xlink:href="#CMR17-34" transform="translate(72.787654 0) scale(0.996264)"/>
       <use xlink:href="#CMSY10-2" transform="translate(140.617338 0) scale(0.996264)"/>
       <use xlink:href="#CMR17-31" transform="translate(240.244013 0) scale(0.996264)"/>
       <use xlink:href="#CMR17-30" transform="translate(285.93449 0) scale(0.996264)"/>
       <use xlink:href="#CMSY10-0" transform="translate(331.624967 36.153639) scale(0.697382)"/>
       <use xlink:href="#CMR17-31" transform="translate(385.86596 36.153639) scale(0.697382)"/>
      </g>
     </g>
    </g>
    <g id="ytick_2">
     <g id="line2d_8">
      <g>
       <use xlink:href="#m743d52ed7b" x="121.561724" y="254.704352" style="stroke: #000000; stroke-width: 0.6"/>
      </g>
     </g>
     <g id="text_8">
      <!-- $\mathdefault{2.6\times10^{-1}}$ -->
      <g transform="translate(23.76 262.512504) scale(0.22 -0.22)">
       <use xlink:href="#CMR17-32" transform="scale(0.996264)"/>
       <use xlink:href="#CMMI12-3a" transform="translate(45.690477 0) scale(0.996264)"/>
       <use xlink:href="#CMR17-36" transform="translate(72.787654 0) scale(0.996264)"/>
       <use xlink:href="#CMSY10-2" transform="translate(140.617338 0) scale(0.996264)"/>
       <use xlink:href="#CMR17-31" transform="translate(240.244013 0) scale(0.996264)"/>
       <use xlink:href="#CMR17-30" transform="translate(285.93449 0) scale(0.996264)"/>
       <use xlink:href="#CMSY10-0" transform="translate(331.624967 36.153639) scale(0.697382)"/>
       <use xlink:href="#CMR17-31" transform="translate(385.86596 36.153639) scale(0.697382)"/>
      </g>
     </g>
    </g>
    <g id="ytick_3">
     <g id="line2d_9">
      <g>
       <use xlink:href="#m743d52ed7b" x="121.561724" y="191.030946" style="stroke: #000000; stroke-width: 0.6"/>
      </g>
     </g>
     <g id="text_9">
      <!-- $\mathdefault{2.8\times10^{-1}}$ -->
      <g transform="translate(23.76 198.839098) scale(0.22 -0.22)">
       <use xlink:href="#CMR17-32" transform="scale(0.996264)"/>
       <use xlink:href="#CMMI12-3a" transform="translate(45.690477 0) scale(0.996264)"/>
       <use xlink:href="#CMR17-38" transform="translate(72.787654 0) scale(0.996264)"/>
       <use xlink:href="#CMSY10-2" transform="translate(140.617338 0) scale(0.996264)"/>
       <use xlink:href="#CMR17-31" transform="translate(240.244013 0) scale(0.996264)"/>
       <use xlink:href="#CMR17-30" transform="translate(285.93449 0) scale(0.996264)"/>
       <use xlink:href="#CMSY10-0" transform="translate(331.624967 36.153639) scale(0.697382)"/>
       <use xlink:href="#CMR17-31" transform="translate(385.86596 36.153639) scale(0.697382)"/>
      </g>
     </g>
    </g>
    <g id="ytick_4">
     <g id="line2d_10">
      <g>
       <use xlink:href="#m743d52ed7b" x="121.561724" y="131.752424" style="stroke: #000000; stroke-width: 0.6"/>
      </g>
     </g>
     <g id="text_10">
      <!-- $\mathdefault{3\times10^{-1}}$ -->
      <g transform="translate(39.773284 139.560576) scale(0.22 -0.22)">
       <defs>
        <path id="CMR17-33" d="M 1414 2157 
C 1984 2157 2234 1662 2234 1090 
C 2234 320 1824 25 1453 25 
C 1114 25 563 194 390 693 
C 422 680 454 680 486 680 
C 640 680 755 782 755 948 
C 755 1133 614 1216 486 1216 
C 378 1216 211 1165 211 926 
C 211 335 787 -128 1466 -128 
C 2176 -128 2720 430 2720 1085 
C 2720 1707 2208 2157 1600 2227 
C 2086 2328 2554 2756 2554 3329 
C 2554 3820 2048 4179 1472 4179 
C 890 4179 378 3829 378 3329 
C 378 3110 544 3072 627 3072 
C 762 3072 877 3155 877 3321 
C 877 3486 762 3569 627 3569 
C 602 3569 570 3569 544 3557 
C 730 3959 1235 4032 1459 4032 
C 1683 4032 2106 3925 2106 3320 
C 2106 3143 2080 2828 1862 2550 
C 1670 2304 1453 2304 1242 2284 
C 1210 2284 1062 2269 1037 2269 
C 992 2263 966 2257 966 2208 
C 966 2163 973 2157 1101 2157 
L 1414 2157 
z
" transform="scale(0.015625)"/>
       </defs>
       <use xlink:href="#CMR17-33" transform="scale(0.996264)"/>
       <use xlink:href="#CMSY10-2" transform="translate(67.829684 0) scale(0.996264)"/>
       <use xlink:href="#CMR17-31" transform="translate(167.456359 0) scale(0.996264)"/>
       <use xlink:href="#CMR17-30" transform="translate(213.146836 0) scale(0.996264)"/>
       <use xlink:href="#CMSY10-0" transform="translate(258.837313 36.153639) scale(0.697382)"/>
       <use xlink:href="#CMR17-31" transform="translate(313.078306 36.153639) scale(0.697382)"/>
      </g>
     </g>
    </g>
    <g id="ytick_5">
     <g id="line2d_11">
      <g>
       <use xlink:href="#m743d52ed7b" x="121.561724" y="76.301069" style="stroke: #000000; stroke-width: 0.6"/>
      </g>
     </g>
     <g id="text_11">
      <!-- $\mathdefault{3.2\times10^{-1}}$ -->
      <g transform="translate(23.76 84.109221) scale(0.22 -0.22)">
       <use xlink:href="#CMR17-33" transform="scale(0.996264)"/>
       <use xlink:href="#CMMI12-3a" transform="translate(45.690477 0) scale(0.996264)"/>
       <use xlink:href="#CMR17-32" transform="translate(72.787654 0) scale(0.996264)"/>
       <use xlink:href="#CMSY10-2" transform="translate(140.617338 0) scale(0.996264)"/>
       <use xlink:href="#CMR17-31" transform="translate(240.244013 0) scale(0.996264)"/>
       <use xlink:href="#CMR17-30" transform="translate(285.93449 0) scale(0.996264)"/>
       <use xlink:href="#CMSY10-0" transform="translate(331.624967 36.153639) scale(0.697382)"/>
       <use xlink:href="#CMR17-31" transform="translate(385.86596 36.153639) scale(0.697382)"/>
      </g>
     </g>
    </g>
   </g>
   <g id="line2d_12">
    <path d="M 144.410736 65.732071 
L 149.026698 65.003704 
L 153.64266 65.956023 
L 158.258622 66.752461 
L 162.874585 66.227325 
L 167.490547 67.825167 
L 172.106509 67.742531 
L 176.722471 68.094921 
L 181.338433 69.81131 
L 185.954395 69.208986 
L 190.570357 70.037678 
L 195.18632 71.572994 
L 199.802282 70.615227 
L 204.418244 72.561945 
L 209.034206 73.874341 
L 213.650168 72.648791 
L 218.26613 75.205606 
L 222.882092 75.53205 
L 227.498055 75.104357 
L 232.114017 77.47561 
L 236.729979 78.098113 
L 241.345941 77.098608 
L 245.961903 80.291125 
L 250.577865 80.968208 
L 255.193827 79.316289 
L 259.809789 82.066636 
L 264.425752 85.629189 
L 269.041714 82.480078 
L 273.657676 83.408891 
L 278.273638 89.033165 
L 282.8896 86.77126 
L 287.505562 84.128326 
L 292.121524 91.001519 
L 296.737487 92.810744 
L 301.353449 87.797009 
L 305.969411 91.087807 
L 310.585373 97.738224 
L 315.201335 94.703164 
L 319.817297 91.836844 
L 324.433259 98.576924 
L 329.049221 102.146316 
L 333.665184 97.053129 
L 338.281146 98.304162 
L 342.897108 105.642578 
L 347.51307 106.15509 
L 352.129032 101.337408 
L 356.744994 104.9725 
L 361.360956 111.749866 
L 365.976919 112.063385 
L 370.592881 108.444003 
L 375.208843 111.436046 
L 379.824805 118.171027 
L 384.440767 118.857704 
L 389.056729 115.126429 
L 393.672691 117.931701 
L 398.288654 123.863632 
L 402.904616 126.186282 
L 407.520578 125.493895 
L 412.13654 124.435201 
L 416.752502 127.241703 
L 421.368464 135.523639 
L 425.984426 140.214227 
L 430.600388 135.822286 
L 435.216351 127.692421 
L 439.832313 128.374426 
L 444.448275 144.58039 
L 449.064237 160.252231 
L 453.680199 160.337732 
L 458.296161 146.991774 
L 462.912123 133.12452 
L 467.528086 136.077542 
L 472.144048 153.261077 
L 476.76001 166.499857 
L 481.375972 164.760267 
L 485.991934 152.027094 
L 490.607896 142.186899 
L 495.223858 147.157472 
L 499.83982 166.290401 
L 504.455783 185.201055 
L 509.071745 189.636543 
L 513.687707 178.660501 
L 518.303669 162.195361 
L 522.919631 154.421902 
L 527.535593 162.024704 
L 532.151555 182.023009 
L 536.767518 208.901635 
L 541.38348 240.12062 
L 545.999442 266.840809 
L 550.615404 287.799429 
L 555.231366 303.230265 
L 559.847328 315.362031 
L 564.46329 327.907262 
L 569.079252 338.517122 
L 573.695215 348.06935 
L 578.311177 355.561269 
L 582.927139 360.117183 
L 587.543101 363.07803 
L 592.159063 364.881873 
L 596.775025 365.784236 
L 601.390987 365.865832 
" clip-path="url(#p0dccb9cfe0)" style="fill: none; stroke: #0d0887; stroke-width: 2; stroke-linecap: square"/>
   </g>
   <g id="line2d_13">
    <path d="M 144.410736 65.573135 
L 149.026698 64.686761 
L 153.64266 65.512761 
L 158.258622 66.252238 
L 162.874585 65.615178 
L 167.490547 66.908845 
L 172.106509 66.852414 
L 176.722471 66.997417 
L 181.338433 68.477269 
L 185.954395 67.746968 
L 190.570357 68.410903 
L 195.18632 69.755879 
L 199.802282 69.81949 
L 204.418244 71.026056 
L 209.034206 71.672076 
L 213.650168 70.82821 
L 218.26613 72.879814 
L 222.882092 73.613536 
L 227.498055 72.797088 
L 232.114017 75.341716 
L 236.729979 76.463542 
L 241.345941 74.445132 
L 245.961903 78.778686 
L 250.577865 79.68832 
L 255.193827 77.419922 
L 259.809789 80.686984 
L 264.425752 83.093233 
L 269.041714 79.977174 
L 273.657676 82.9546 
L 278.273638 87.352146 
L 282.8896 85.367299 
L 287.505562 83.827661 
L 292.121524 89.594454 
L 296.737487 91.665184 
L 301.353449 87.92353 
L 305.969411 90.487876 
L 310.585373 96.020698 
L 315.201335 94.927683 
L 319.817297 92.758459 
L 324.433259 97.850134 
L 329.049221 101.665858 
L 333.665184 99.10085 
L 338.281146 98.831782 
L 342.897108 105.150645 
L 347.51307 107.919083 
L 352.129032 104.214492 
L 356.744994 106.395633 
L 361.360956 113.181689 
L 365.976919 114.712209 
L 370.592881 110.103834 
L 375.208843 113.868903 
L 379.824805 122.507382 
L 384.440767 122.456382 
L 389.056729 116.266669 
L 393.672691 121.679676 
L 398.288654 129.852812 
L 402.904616 134.417075 
L 407.520578 129.348101 
L 412.13654 126.247936 
L 416.752502 131.098915 
L 421.368464 139.652828 
L 425.984426 144.386517 
L 430.600388 140.6781 
L 435.216351 139.471863 
L 439.832313 146.202736 
L 444.448275 155.375907 
L 449.064237 157.333616 
L 453.680199 151.193258 
L 458.296161 144.013101 
L 462.912123 144.75013 
L 467.528086 152.751702 
L 472.144048 163.915494 
L 476.76001 169.920571 
L 481.375972 168.880324 
L 485.991934 162.781158 
L 490.607896 159.840285 
L 495.223858 164.949655 
L 499.83982 173.877864 
L 504.455783 181.202416 
L 509.071745 183.681238 
L 513.687707 183.334762 
L 518.303669 184.888741 
L 522.919631 189.282729 
L 527.535593 195.337505 
L 532.151555 205.025077 
L 536.767518 214.865058 
L 541.38348 226.984088 
L 545.999442 240.206801 
L 550.615404 253.558782 
L 555.231366 266.28113 
L 559.847328 278.068009 
L 564.46329 288.760698 
L 569.079252 297.683021 
L 573.695215 305.261946 
L 578.311177 311.414588 
L 582.927139 316.201983 
L 587.543101 319.899812 
L 592.159063 322.41681 
L 596.775025 323.69318 
L 601.390987 323.737683 
" clip-path="url(#p0dccb9cfe0)" style="fill: none; stroke: #9c179e; stroke-width: 2; stroke-linecap: square"/>
   </g>
   <g id="line2d_14">
    <path d="M 144.410736 65.346202 
L 149.026698 64.075789 
L 153.64266 64.878776 
L 158.258622 65.463375 
L 162.874585 64.464008 
L 167.490547 66.011131 
L 172.106509 65.819337 
L 176.722471 65.718714 
L 181.338433 67.279343 
L 185.954395 66.729433 
L 190.570357 67.026785 
L 195.18632 68.616441 
L 199.802282 67.893866 
L 204.418244 69.455279 
L 209.034206 70.674609 
L 213.650168 68.916034 
L 218.26613 71.985954 
L 222.882092 72.227868 
L 227.498055 71.445357 
L 232.114017 74.166833 
L 236.729979 75.592572 
L 241.345941 74.22686 
L 245.961903 76.607376 
L 250.577865 78.687847 
L 255.193827 76.999618 
L 259.809789 80.039296 
L 264.425752 82.135597 
L 269.041714 80.316369 
L 273.657676 81.358905 
L 278.273638 87.494328 
L 282.8896 85.200889 
L 287.505562 84.535813 
L 292.121524 89.953728 
L 296.737487 91.649625 
L 301.353449 88.783957 
L 305.969411 91.269041 
L 310.585373 97.56251 
L 315.201335 96.132467 
L 319.817297 94.578421 
L 324.433259 99.6334 
L 329.049221 103.131649 
L 333.665184 100.796556 
L 338.281146 103.526281 
L 342.897108 107.818636 
L 347.51307 109.678551 
L 352.129032 107.461689 
L 356.744994 110.053232 
L 361.360956 116.794535 
L 365.976919 116.065922 
L 370.592881 117.022637 
L 375.208843 117.3401 
L 379.824805 124.526606 
L 384.440767 126.186367 
L 389.056729 123.411536 
L 393.672691 127.911114 
L 398.288654 131.615066 
L 402.904616 136.361364 
L 407.520578 134.13321 
L 412.13654 136.568283 
L 416.752502 139.895525 
L 421.368464 141.921444 
L 425.984426 141.460266 
L 430.600388 143.956912 
L 435.216351 147.482097 
L 439.832313 150.962449 
L 444.448275 154.881674 
L 449.064237 156.927637 
L 453.680199 156.269845 
L 458.296161 153.680037 
L 462.912123 155.603604 
L 467.528086 158.691232 
L 472.144048 162.011265 
L 476.76001 166.43258 
L 481.375972 168.524619 
L 485.991934 166.234158 
L 490.607896 165.893135 
L 495.223858 167.85718 
L 499.83982 170.012127 
L 504.455783 171.549952 
L 509.071745 174.682605 
L 513.687707 178.471852 
L 518.303669 180.930686 
L 522.919631 182.712417 
L 527.535593 183.561016 
L 532.151555 185.244837 
L 536.767518 187.996225 
L 541.38348 191.758646 
L 545.999442 197.429989 
L 550.615404 204.955087 
L 555.231366 213.501027 
L 559.847328 222.136995 
L 564.46329 230.201197 
L 569.079252 237.172833 
L 573.695215 242.982079 
L 578.311177 247.447426 
L 582.927139 250.855656 
L 587.543101 253.455222 
L 592.159063 255.185716 
L 596.775025 255.998169 
L 601.390987 256.008131 
" clip-path="url(#p0dccb9cfe0)" style="fill: none; stroke: #ed7953; stroke-width: 2; stroke-linecap: square"/>
   </g>
   <g id="patch_3">
    <path d="M 121.561724 380.955334 
L 121.561724 48.986287 
" style="fill: none; stroke: #000000; stroke-width: 0.8; stroke-linejoin: miter; stroke-linecap: square"/>
   </g>
   <g id="patch_4">
    <path d="M 624.24 380.955334 
L 624.24 48.986287 
" style="fill: none; stroke: #000000; stroke-width: 0.8; stroke-linejoin: miter; stroke-linecap: square"/>
   </g>
   <g id="patch_5">
    <path d="M 121.561724 380.955334 
L 624.24 380.955334 
" style="fill: none; stroke: #000000; stroke-width: 0.8; stroke-linejoin: miter; stroke-linecap: square"/>
   </g>
   <g id="patch_6">
    <path d="M 121.561724 48.986287 
L 624.24 48.986287 
" style="fill: none; stroke: #000000; stroke-width: 0.8; stroke-linejoin: miter; stroke-linecap: square"/>
   </g>
   <g id="text_12">
    <!-- circuit with Matcha ($N = 15, \delta t = 1.2$) -->
    <g transform="translate(162.791532 42.986287) scale(0.264 -0.264)">
     <defs>
      <path id="NimbusSanL-Regu-63" d="M 3014 2236 
C 2989 2562 2918 2773 2790 2958 
C 2560 3271 2157 3456 1690 3456 
C 787 3456 198 2742 198 1632 
C 198 554 774 -128 1683 -128 
C 2483 -128 2989 350 3053 1167 
L 2515 1167 
C 2426 632 2150 365 1696 365 
C 1107 365 755 843 755 1632 
C 755 2466 1101 2962 1683 2962 
C 2131 2962 2413 2701 2477 2236 
L 3014 2236 
z
" transform="scale(0.015625)"/>
      <path id="NimbusSanL-Regu-69" d="M 960 3359 
L 429 3359 
L 429 0 
L 960 0 
L 960 3359 
z
M 960 4672 
L 422 4672 
L 422 3999 
L 960 3999 
L 960 4672 
z
" transform="scale(0.015625)"/>
      <path id="NimbusSanL-Regu-72" d="M 442 3359 
L 442 0 
L 979 0 
L 979 1741 
C 979 2221 1101 2535 1357 2720 
C 1523 2842 1683 2880 2054 2880 
L 2054 3432 
C 1965 3444 1920 3444 1850 3444 
C 1504 3444 1242 3240 934 2746 
L 934 3359 
L 442 3359 
z
" transform="scale(0.015625)"/>
      <path id="NimbusSanL-Regu-75" d="M 3085 33 
L 3085 3392 
L 2554 3392 
L 2554 1479 
C 2554 790 2195 340 1638 340 
C 1216 340 947 597 947 1003 
L 947 3392 
L 416 3392 
L 416 792 
C 416 232 832 -128 1485 -128 
C 1978 -128 2291 45 2605 488 
L 2605 33 
L 3085 33 
z
" transform="scale(0.015625)"/>
      <path id="NimbusSanL-Regu-74" d="M 1626 3380 
L 1075 3380 
L 1075 4288 
L 544 4288 
L 544 3380 
L 90 3380 
L 90 2944 
L 544 2944 
L 544 404 
C 544 64 774 -128 1190 -128 
C 1318 -128 1446 -116 1626 -83 
L 1626 366 
C 1555 346 1472 340 1370 340 
C 1139 340 1075 404 1075 641 
L 1075 2944 
L 1626 2944 
L 1626 3380 
z
" transform="scale(0.015625)"/>
      <path id="NimbusSanL-Regu-77" d="M 3546 0 
L 4531 3360 
L 3930 3360 
L 3264 744 
L 2605 3360 
L 1952 3360 
L 1312 744 
L 627 3360 
L 38 3360 
L 1011 0 
L 1613 0 
L 2259 2635 
L 2938 0 
L 3546 0 
z
" transform="scale(0.015625)"/>
      <path id="NimbusSanL-Regu-68" d="M 448 4672 
L 448 -2 
L 979 -2 
L 979 1852 
C 979 2539 1338 2988 1888 2988 
C 2061 2988 2234 2930 2362 2834 
C 2515 2725 2579 2564 2579 2327 
L 2579 -2 
L 3110 -2 
L 3110 2538 
C 3110 3103 2707 3456 2054 3456 
C 1581 3456 1293 3308 979 2898 
L 979 4672 
L 448 4672 
z
" transform="scale(0.015625)"/>
      <path id="NimbusSanL-Regu-4d" d="M 2995 -2 
L 4307 3915 
L 4307 -2 
L 4870 -2 
L 4870 4672 
L 4045 4672 
L 2688 601 
L 1306 4672 
L 480 4672 
L 480 -2 
L 1043 -2 
L 1043 3915 
L 2368 -2 
L 2995 -2 
z
" transform="scale(0.015625)"/>
      <path id="NimbusSanL-Regu-61" d="M 3424 333 
C 3366 320 3341 320 3309 320 
C 3123 320 3021 415 3021 581 
L 3021 2545 
C 3021 3137 2586 3456 1760 3456 
C 1274 3456 870 3316 646 3066 
C 493 2893 429 2702 416 2370 
L 954 2370 
C 998 2777 1242 2962 1741 2962 
C 2221 2962 2490 2783 2490 2465 
L 2490 2325 
C 2490 2101 2355 2006 1933 1955 
C 1178 1860 1062 1834 858 1751 
C 467 1592 269 1292 269 859 
C 269 254 691 -128 1370 -128 
C 1792 -128 2131 19 2509 365 
C 2547 25 2714 -128 3059 -128 
C 3168 -128 3251 -116 3424 -70 
L 3424 333 
z
M 2490 1072 
C 2490 893 2438 785 2278 639 
C 2061 441 1798 340 1485 340 
C 1069 340 826 537 826 874 
C 826 1225 1062 1403 1632 1486 
C 2195 1562 2310 1588 2490 1670 
L 2490 1072 
z
" transform="scale(0.015625)"/>
      <path id="NimbusSanL-Regu-28" d="M 1510 4672 
C 870 3830 467 2660 467 1651 
C 467 636 870 -534 1510 -1376 
L 1862 -1376 
C 1299 -457 986 623 986 1651 
C 986 2673 1299 3759 1862 4672 
L 1510 4672 
z
" transform="scale(0.015625)"/>
      <path id="CMMI12-4e" d="M 4736 3698 
C 4806 3974 4909 4166 5395 4166 
C 5414 4166 5491 4166 5491 4279 
C 5491 4352 5434 4352 5408 4352 
C 5280 4352 4954 4352 4826 4352 
L 4518 4352 
C 4429 4352 4314 4352 4224 4352 
C 4186 4352 4109 4352 4109 4230 
C 4109 4166 4160 4166 4205 4166 
C 4589 4166 4614 4019 4614 3903 
C 4614 3846 4608 3826 4589 3737 
L 3866 850 
L 2496 4249 
C 2451 4352 2445 4352 2304 4352 
L 1523 4352 
C 1395 4352 1338 4352 1338 4230 
C 1338 4166 1382 4166 1504 4166 
C 1536 4166 1914 4166 1914 4115 
C 1914 4102 1901 4051 1894 4032 
L 1043 635 
C 966 320 813 186 390 186 
C 358 186 294 186 294 67 
C 294 0 358 0 378 0 
C 506 0 832 0 960 0 
L 1267 0 
C 1357 0 1466 0 1555 0 
C 1600 0 1670 0 1670 122 
C 1670 180 1606 186 1581 186 
C 1370 186 1165 224 1165 454 
C 1165 505 1178 562 1190 613 
L 2054 4032 
C 2093 3968 2093 3956 2118 3898 
L 3642 115 
C 3674 38 3686 0 3744 0 
C 3808 0 3814 19 3840 128 
L 4736 3698 
z
" transform="scale(0.015625)"/>
      <path id="CMR17-3d" d="M 4115 2017 
C 4211 2017 4307 2017 4307 2125 
C 4307 2240 4198 2240 4090 2240 
L 512 2240 
C 403 2240 294 2240 294 2125 
C 294 2017 390 2017 486 2017 
L 4115 2017 
z
M 4090 896 
C 4198 896 4307 896 4307 1011 
C 4307 1119 4211 1119 4115 1119 
L 486 1119 
C 390 1119 294 1119 294 1011 
C 294 896 403 896 512 896 
L 4090 896 
z
" transform="scale(0.015625)"/>
      <path id="CMR17-35" d="M 730 3692 
C 794 3666 1056 3584 1325 3584 
C 1920 3584 2246 3911 2432 4100 
C 2432 4157 2432 4192 2394 4192 
C 2387 4192 2374 4192 2323 4163 
C 2099 4058 1837 3973 1517 3973 
C 1325 3973 1037 3999 723 4139 
C 653 4171 640 4171 634 4171 
C 602 4171 595 4164 595 4037 
L 595 2203 
C 595 2089 595 2057 659 2057 
C 691 2057 704 2070 736 2114 
C 941 2401 1222 2522 1542 2522 
C 1766 2522 2246 2382 2246 1289 
C 2246 1085 2246 715 2054 421 
C 1894 159 1645 25 1370 25 
C 947 25 518 320 403 814 
C 429 807 480 795 506 795 
C 589 795 749 840 749 1038 
C 749 1210 627 1280 506 1280 
C 358 1280 262 1190 262 1011 
C 262 454 704 -128 1382 -128 
C 2042 -128 2669 440 2669 1264 
C 2669 2030 2170 2624 1549 2624 
C 1222 2624 947 2503 730 2274 
L 730 3692 
z
" transform="scale(0.015625)"/>
      <path id="CMMI12-3b" d="M 1248 -31 
C 1248 343 1126 619 864 619 
C 659 619 557 453 557 313 
C 557 172 653 0 870 0 
C 954 0 1024 26 1082 83 
C 1094 96 1101 96 1107 96 
C 1120 96 1120 5 1120 -27 
C 1120 -240 1082 -659 710 -1080 
C 640 -1157 640 -1170 640 -1183 
C 640 -1216 672 -1248 704 -1248 
C 755 -1248 1248 -771 1248 -31 
z
" transform="scale(0.015625)"/>
      <path id="CMMI12-e" d="M 1664 2795 
C 845 2597 256 1748 256 1001 
C 256 319 717 -64 1229 -64 
C 1984 -64 2496 970 2496 1818 
C 2496 2392 2227 2744 2067 2954 
C 1830 3254 1446 3746 1446 4052 
C 1446 4161 1530 4352 1811 4352 
C 2010 4352 2131 4282 2323 4173 
C 2381 4134 2528 4052 2611 4052 
C 2746 4052 2842 4185 2842 4287 
C 2842 4409 2746 4428 2522 4479 
C 2221 4543 2131 4543 2022 4543 
C 1914 4543 1286 4543 1286 3892 
C 1286 3579 1446 3216 1664 2795 
z
M 1734 2669 
C 1978 2165 2074 1974 2074 1560 
C 2074 1063 1805 63 1235 63 
C 986 63 627 229 627 821 
C 627 1235 864 2439 1734 2669 
z
" transform="scale(0.015625)"/>
      <path id="CMMI12-74" d="M 1286 2566 
L 1875 2566 
C 1997 2566 2061 2566 2061 2681 
C 2061 2752 2022 2752 1894 2752 
L 1331 2752 
L 1568 3692 
C 1594 3781 1594 3794 1594 3840 
C 1594 3943 1510 4000 1427 4000 
C 1376 4000 1229 3981 1178 3775 
L 928 2752 
L 326 2752 
C 198 2752 141 2752 141 2630 
C 141 2566 186 2566 307 2566 
L 877 2566 
L 454 881 
C 403 658 384 594 384 511 
C 384 211 595 -64 954 -64 
C 1600 -64 1946 868 1946 912 
C 1946 951 1920 970 1882 970 
C 1869 970 1843 970 1830 944 
C 1824 938 1818 931 1773 829 
C 1638 511 1344 64 973 64 
C 781 64 768 224 768 364 
C 768 370 768 492 787 568 
L 1286 2566 
z
" transform="scale(0.015625)"/>
      <path id="NimbusSanL-Regu-29" d="M 595 -1376 
C 1235 -534 1638 636 1638 1644 
C 1638 2660 1235 3830 595 4672 
L 243 4672 
C 806 3753 1120 2673 1120 1644 
C 1120 623 806 -464 243 -1376 
L 595 -1376 
z
" transform="scale(0.015625)"/>
     </defs>
     <use xlink:href="#NimbusSanL-Regu-63" transform="scale(0.996264)"/>
     <use xlink:href="#NimbusSanL-Regu-69" transform="translate(49.8132 0) scale(0.996264)"/>
     <use xlink:href="#NimbusSanL-Regu-72" transform="translate(71.929985 0) scale(0.996264)"/>
     <use xlink:href="#NimbusSanL-Regu-63" transform="translate(105.105215 0) scale(0.996264)"/>
     <use xlink:href="#NimbusSanL-Regu-75" transform="translate(154.918415 0) scale(0.996264)"/>
     <use xlink:href="#NimbusSanL-Regu-69" transform="translate(210.310092 0) scale(0.996264)"/>
     <use xlink:href="#NimbusSanL-Regu-74" transform="translate(232.426876 0) scale(0.996264)"/>
     <use xlink:href="#NimbusSanL-Regu-77" transform="translate(287.817216 0) scale(0.996264)"/>
     <use xlink:href="#NimbusSanL-Regu-69" transform="translate(359.7472 0) scale(0.996264)"/>
     <use xlink:href="#NimbusSanL-Regu-74" transform="translate(381.863985 0) scale(0.996264)"/>
     <use xlink:href="#NimbusSanL-Regu-68" transform="translate(409.559154 0) scale(0.996264)"/>
     <use xlink:href="#NimbusSanL-Regu-4d" transform="translate(492.646001 0) scale(0.996264)"/>
     <use xlink:href="#NimbusSanL-Regu-61" transform="translate(575.634431 0) scale(0.996264)"/>
     <use xlink:href="#NimbusSanL-Regu-74" transform="translate(631.026108 0) scale(0.996264)"/>
     <use xlink:href="#NimbusSanL-Regu-63" transform="translate(658.721278 0) scale(0.996264)"/>
     <use xlink:href="#NimbusSanL-Regu-68" transform="translate(708.534478 0) scale(0.996264)"/>
     <use xlink:href="#NimbusSanL-Regu-61" transform="translate(763.926155 0) scale(0.996264)"/>
     <use xlink:href="#NimbusSanL-Regu-28" transform="translate(847.013002 0) scale(0.996264)"/>
     <use xlink:href="#CMMI12-4e" transform="translate(880.188232 0) scale(0.996264)"/>
     <use xlink:href="#CMR17-3d" transform="translate(996.384013 0) scale(0.996264)"/>
     <use xlink:href="#CMR17-31" transform="translate(1095.77281 0) scale(0.996264)"/>
     <use xlink:href="#CMR17-35" transform="translate(1141.463287 0) scale(0.996264)"/>
     <use xlink:href="#CMMI12-3b" transform="translate(1187.153764 0) scale(0.996264)"/>
     <use xlink:href="#CMMI12-e" transform="translate(1230.855347 0) scale(0.996264)"/>
     <use xlink:href="#CMMI12-74" transform="translate(1277.796733 0) scale(0.996264)"/>
     <use xlink:href="#CMR17-3d" transform="translate(1340.697072 0) scale(0.996264)"/>
     <use xlink:href="#CMR17-31" transform="translate(1440.085869 0) scale(0.996264)"/>
     <use xlink:href="#CMMI12-3a" transform="translate(1485.776346 0) scale(0.996264)"/>
     <use xlink:href="#CMR17-32" transform="translate(1512.873523 0) scale(0.996264)"/>
     <use xlink:href="#NimbusSanL-Regu-29" transform="translate(1558.564 0) scale(0.996264)"/>
    </g>
   </g>
   <g id="legend_1">
    <g id="patch_7">
     <path d="M 136.961724 369.955334 
L 227.465533 369.955334 
Q 231.865533 369.955334 231.865533 365.555334 
L 231.865533 273.901338 
Q 231.865533 269.501338 227.465533 269.501338 
L 136.961724 269.501338 
Q 132.561724 269.501338 132.561724 273.901338 
L 132.561724 365.555334 
Q 132.561724 369.955334 136.961724 369.955334 
z
" style="fill: #ffffff; opacity: 0.8; stroke: #cccccc; stroke-linejoin: miter"/>
    </g>
    <g id="line2d_15">
     <path d="M 141.361724 286.217642 
L 163.361724 286.217642 
L 185.361724 286.217642 
" style="fill: none; stroke: #0d0887; stroke-width: 2; stroke-linecap: square"/>
    </g>
    <g id="text_13">
     <!-- $20$ -->
     <g transform="translate(202.961724 293.917642) scale(0.22 -0.22)">
      <use xlink:href="#CMR17-32" transform="scale(0.996264)"/>
      <use xlink:href="#CMR17-30" transform="translate(45.690477 0) scale(0.996264)"/>
     </g>
    </g>
    <g id="line2d_16">
     <path d="M 141.361724 317.502308 
L 163.361724 317.502308 
L 185.361724 317.502308 
" style="fill: none; stroke: #9c179e; stroke-width: 2; stroke-linecap: square"/>
    </g>
    <g id="text_14">
     <!-- $40$ -->
     <g transform="translate(202.961724 325.202308) scale(0.22 -0.22)">
      <use xlink:href="#CMR17-34" transform="scale(0.996264)"/>
      <use xlink:href="#CMR17-30" transform="translate(45.690477 0) scale(0.996264)"/>
     </g>
    </g>
    <g id="line2d_17">
     <path d="M 141.361724 348.786974 
L 163.361724 348.786974 
L 185.361724 348.786974 
" style="fill: none; stroke: #ed7953; stroke-width: 2; stroke-linecap: square"/>
    </g>
    <g id="text_15">
     <!-- $60$ -->
     <g transform="translate(202.961724 356.486974) scale(0.22 -0.22)">
      <use xlink:href="#CMR17-36" transform="scale(0.996264)"/>
      <use xlink:href="#CMR17-30" transform="translate(45.690477 0) scale(0.996264)"/>
     </g>
    </g>
   </g>
  </g>
 </g>
 <defs>
  <clipPath id="p0dccb9cfe0">
   <rect x="121.561724" y="48.986287" width="502.678276" height="331.969047"/>
  </clipPath>
 </defs>
</svg>
