<?xml version="1.0" encoding="utf-8" standalone="no"?>
<!DOCTYPE svg PUBLIC "-//W3C//DTD SVG 1.1//EN"
  "http://www.w3.org/Graphics/SVG/1.1/DTD/svg11.dtd">
<svg xmlns:xlink="http://www.w3.org/1999/xlink" width="648pt" height="432pt" viewBox="0 0 648 432" xmlns="http://www.w3.org/2000/svg" version="1.1">
 <metadata>
  <rdf:RDF xmlns:dc="http://purl.org/dc/elements/1.1/" xmlns:cc="http://creativecommons.org/ns#" xmlns:rdf="http://www.w3.org/1999/02/22-rdf-syntax-ns#">
   <cc:Work>
    <dc:type rdf:resource="http://purl.org/dc/dcmitype/StillImage"/>
    <dc:date>2023-03-30T20:25:16.672737</dc:date>
    <dc:format>image/svg+xml</dc:format>
    <dc:creator>
     <cc:Agent>
      <dc:title>Matplotlib v3.6.0, https://matplotlib.org/</dc:title>
     </cc:Agent>
    </dc:creator>
   </cc:Work>
  </rdf:RDF>
 </metadata>
 <defs>
  <style type="text/css">*{stroke-linejoin: round; stroke-linecap: butt}</style>
 </defs>
 <g id="figure_1">
  <g id="patch_1">
   <path d="M 0 432 
L 648 432 
L 648 0 
L 0 0 
L 0 432 
z
" style="fill: none"/>
  </g>
  <g id="axes_1">
   <g id="patch_2">
    <path d="M 96.187864 356.670669 
L 624.24 356.670669 
L 624.24 23.76 
L 96.187864 23.76 
L 96.187864 356.670669 
z
" style="fill: none"/>
   </g>
   <g id="matplotlib.axis_1">
    <g id="xtick_1">
     <g id="line2d_1">
      <defs>
       <path id="m12475a900a" d="M 0 0 
L 0 3.5 
" style="stroke: #000000; stroke-width: 0.8"/>
      </defs>
      <g>
       <use xlink:href="#m12475a900a" x="120.190234" y="356.670669" style="stroke: #000000; stroke-width: 0.8"/>
      </g>
     </g>
     <g id="text_1">
      <!-- $\mathdefault{0.0}$ -->
      <g transform="translate(107.157639 379.286974) scale(0.22 -0.22)">
       <defs>
        <path id="CMR17-30" d="M 2688 2025 
C 2688 2416 2682 3080 2413 3591 
C 2176 4039 1798 4198 1466 4198 
C 1158 4198 768 4058 525 3597 
C 269 3118 243 2524 243 2025 
C 243 1661 250 1106 448 619 
C 723 -39 1216 -128 1466 -128 
C 1760 -128 2208 -7 2470 600 
C 2662 1042 2688 1559 2688 2025 
z
M 1466 -26 
C 1056 -26 813 325 723 812 
C 653 1188 653 1738 653 2096 
C 653 2588 653 2997 736 3387 
C 858 3929 1216 4096 1466 4096 
C 1728 4096 2067 3923 2189 3400 
C 2272 3036 2278 2607 2278 2096 
C 2278 1680 2278 1169 2202 792 
C 2067 95 1690 -26 1466 -26 
z
" transform="scale(0.015625)"/>
        <path id="CMMI12-3a" d="M 1178 307 
C 1178 492 1024 619 870 619 
C 685 619 557 466 557 313 
C 557 128 710 0 864 0 
C 1050 0 1178 153 1178 307 
z
" transform="scale(0.015625)"/>
       </defs>
       <use xlink:href="#CMR17-30" transform="scale(0.996264)"/>
       <use xlink:href="#CMMI12-3a" transform="translate(45.690477 0) scale(0.996264)"/>
       <use xlink:href="#CMR17-30" transform="translate(72.787654 0) scale(0.996264)"/>
      </g>
     </g>
    </g>
    <g id="xtick_2">
     <g id="line2d_2">
      <g>
       <use xlink:href="#m12475a900a" x="216.199713" y="356.670669" style="stroke: #000000; stroke-width: 0.8"/>
      </g>
     </g>
     <g id="text_2">
      <!-- $\mathdefault{0.2}$ -->
      <g transform="translate(203.167119 379.286974) scale(0.22 -0.22)">
       <defs>
        <path id="CMR17-32" d="M 2669 989 
L 2554 989 
C 2490 536 2438 459 2413 420 
C 2381 369 1920 369 1830 369 
L 602 369 
C 832 619 1280 1072 1824 1597 
C 2214 1967 2669 2402 2669 3035 
C 2669 3790 2067 4224 1395 4224 
C 691 4224 262 3604 262 3030 
C 262 2780 448 2748 525 2748 
C 589 2748 781 2787 781 3010 
C 781 3207 614 3264 525 3264 
C 486 3264 448 3258 422 3245 
C 544 3790 915 4058 1306 4058 
C 1862 4058 2227 3617 2227 3035 
C 2227 2479 1901 2000 1536 1584 
L 262 146 
L 262 0 
L 2515 0 
L 2669 989 
z
" transform="scale(0.015625)"/>
       </defs>
       <use xlink:href="#CMR17-30" transform="scale(0.996264)"/>
       <use xlink:href="#CMMI12-3a" transform="translate(45.690477 0) scale(0.996264)"/>
       <use xlink:href="#CMR17-32" transform="translate(72.787654 0) scale(0.996264)"/>
      </g>
     </g>
    </g>
    <g id="xtick_3">
     <g id="line2d_3">
      <g>
       <use xlink:href="#m12475a900a" x="312.209192" y="356.670669" style="stroke: #000000; stroke-width: 0.8"/>
      </g>
     </g>
     <g id="text_3">
      <!-- $\mathdefault{0.4}$ -->
      <g transform="translate(299.176598 379.286974) scale(0.22 -0.22)">
       <defs>
        <path id="CMR17-34" d="M 2150 4122 
C 2150 4256 2144 4256 2029 4256 
L 128 1254 
L 128 1088 
L 1779 1088 
L 1779 457 
C 1779 224 1766 160 1318 160 
L 1197 160 
L 1197 0 
C 1402 0 1747 0 1965 0 
C 2182 0 2528 0 2733 0 
L 2733 160 
L 2611 160 
C 2163 160 2150 224 2150 457 
L 2150 1088 
L 2803 1088 
L 2803 1254 
L 2150 1254 
L 2150 4122 
z
M 1798 3703 
L 1798 1254 
L 256 1254 
L 1798 3703 
z
" transform="scale(0.015625)"/>
       </defs>
       <use xlink:href="#CMR17-30" transform="scale(0.996264)"/>
       <use xlink:href="#CMMI12-3a" transform="translate(45.690477 0) scale(0.996264)"/>
       <use xlink:href="#CMR17-34" transform="translate(72.787654 0) scale(0.996264)"/>
      </g>
     </g>
    </g>
    <g id="xtick_4">
     <g id="line2d_4">
      <g>
       <use xlink:href="#m12475a900a" x="408.218672" y="356.670669" style="stroke: #000000; stroke-width: 0.8"/>
      </g>
     </g>
     <g id="text_4">
      <!-- $\mathdefault{0.6}$ -->
      <g transform="translate(395.186077 379.286974) scale(0.22 -0.22)">
       <defs>
        <path id="CMR17-36" d="M 678 2176 
C 678 3690 1395 4032 1811 4032 
C 1946 4032 2272 4009 2400 3776 
C 2298 3776 2106 3776 2106 3553 
C 2106 3381 2246 3323 2336 3323 
C 2394 3323 2566 3348 2566 3560 
C 2566 3954 2246 4179 1805 4179 
C 1043 4179 243 3390 243 1984 
C 243 253 966 -128 1478 -128 
C 2099 -128 2688 427 2688 1283 
C 2688 2081 2170 2662 1517 2662 
C 1126 2662 838 2407 678 1960 
L 678 2176 
z
M 1478 25 
C 691 25 691 1200 691 1436 
C 691 1896 909 2560 1504 2560 
C 1613 2560 1926 2560 2138 2120 
C 2253 1870 2253 1609 2253 1289 
C 2253 944 2253 690 2118 434 
C 1978 171 1773 25 1478 25 
z
" transform="scale(0.015625)"/>
       </defs>
       <use xlink:href="#CMR17-30" transform="scale(0.996264)"/>
       <use xlink:href="#CMMI12-3a" transform="translate(45.690477 0) scale(0.996264)"/>
       <use xlink:href="#CMR17-36" transform="translate(72.787654 0) scale(0.996264)"/>
      </g>
     </g>
    </g>
    <g id="xtick_5">
     <g id="line2d_5">
      <g>
       <use xlink:href="#m12475a900a" x="504.228151" y="356.670669" style="stroke: #000000; stroke-width: 0.8"/>
      </g>
     </g>
     <g id="text_5">
      <!-- $\mathdefault{0.8}$ -->
      <g transform="translate(491.195556 379.286974) scale(0.22 -0.22)">
       <defs>
        <path id="CMR17-38" d="M 1741 2264 
C 2144 2467 2554 2773 2554 3263 
C 2554 3841 1990 4179 1472 4179 
C 890 4179 378 3759 378 3180 
C 378 3021 416 2747 666 2505 
C 730 2442 998 2251 1171 2130 
C 883 1983 211 1634 211 934 
C 211 279 838 -128 1459 -128 
C 2144 -128 2720 362 2720 1010 
C 2720 1590 2330 1857 2074 2029 
L 1741 2264 
z
M 902 2822 
C 851 2854 595 3051 595 3351 
C 595 3739 998 4032 1459 4032 
C 1965 4032 2336 3676 2336 3262 
C 2336 2669 1670 2331 1638 2331 
C 1632 2331 1626 2331 1574 2370 
L 902 2822 
z
M 2080 1519 
C 2176 1449 2483 1240 2483 851 
C 2483 381 2010 25 1472 25 
C 890 25 448 438 448 940 
C 448 1443 838 1862 1280 2060 
L 2080 1519 
z
" transform="scale(0.015625)"/>
       </defs>
       <use xlink:href="#CMR17-30" transform="scale(0.996264)"/>
       <use xlink:href="#CMMI12-3a" transform="translate(45.690477 0) scale(0.996264)"/>
       <use xlink:href="#CMR17-38" transform="translate(72.787654 0) scale(0.996264)"/>
      </g>
     </g>
    </g>
    <g id="xtick_6">
     <g id="line2d_6">
      <g>
       <use xlink:href="#m12475a900a" x="600.23763" y="356.670669" style="stroke: #000000; stroke-width: 0.8"/>
      </g>
     </g>
     <g id="text_6">
      <!-- $\mathdefault{1.0}$ -->
      <g transform="translate(587.205036 379.286974) scale(0.22 -0.22)">
       <defs>
        <path id="CMR17-31" d="M 1702 4058 
C 1702 4192 1696 4192 1606 4192 
C 1357 3916 979 3827 621 3827 
C 602 3827 570 3827 563 3808 
C 557 3795 557 3782 557 3648 
C 755 3648 1088 3686 1344 3839 
L 1344 461 
C 1344 236 1331 160 781 160 
L 589 160 
L 589 0 
C 896 0 1216 0 1523 0 
C 1830 0 2150 0 2458 0 
L 2458 160 
L 2266 160 
C 1715 160 1702 230 1702 458 
L 1702 4058 
z
" transform="scale(0.015625)"/>
       </defs>
       <use xlink:href="#CMR17-31" transform="scale(0.996264)"/>
       <use xlink:href="#CMMI12-3a" transform="translate(45.690477 0) scale(0.996264)"/>
       <use xlink:href="#CMR17-30" transform="translate(72.787654 0) scale(0.996264)"/>
      </g>
     </g>
    </g>
    <g id="text_7">
     <!-- $s$ -->
     <g transform="translate(355.159431 403.571639) scale(0.22 -0.22)">
      <defs>
       <path id="CMMI12-73" d="M 1459 1280 
C 1568 1261 1741 1223 1779 1216 
C 1862 1192 2150 1090 2150 783 
C 2150 586 1971 70 1229 70 
C 1094 70 614 70 486 436 
C 742 404 870 603 870 745 
C 870 880 781 950 653 950 
C 512 950 326 841 326 552 
C 326 173 710 -64 1222 -64 
C 2195 -64 2483 651 2483 984 
C 2483 1079 2483 1258 2278 1462 
C 2118 1616 1965 1648 1619 1718 
C 1446 1756 1171 1814 1171 2101 
C 1171 2229 1286 2689 1894 2689 
C 2163 2689 2426 2589 2490 2368 
C 2208 2368 2195 2125 2195 2119 
C 2195 1984 2317 1946 2374 1946 
C 2464 1946 2643 2015 2643 2281 
C 2643 2545 2400 2816 1901 2816 
C 1062 2816 838 2160 838 1899 
C 838 1414 1312 1312 1459 1280 
z
" transform="scale(0.015625)"/>
      </defs>
      <use xlink:href="#CMMI12-73" transform="scale(0.996264)"/>
     </g>
    </g>
   </g>
   <g id="matplotlib.axis_2">
    <g id="ytick_1">
     <g id="line2d_7">
      <defs>
       <path id="m656d91593b" d="M 0 0 
L -3.5 0 
" style="stroke: #000000; stroke-width: 0.8"/>
      </defs>
      <g>
       <use xlink:href="#m656d91593b" x="96.187864" y="315.893288" style="stroke: #000000; stroke-width: 0.8"/>
      </g>
     </g>
     <g id="text_8">
      <!-- $\mathdefault{10^{-2}}$ -->
      <g transform="translate(49.639743 323.701441) scale(0.22 -0.22)">
       <defs>
        <path id="CMSY10-0" d="M 4218 1472 
C 4326 1472 4442 1472 4442 1600 
C 4442 1728 4326 1728 4218 1728 
L 755 1728 
C 646 1728 531 1728 531 1600 
C 531 1472 646 1472 755 1472 
L 4218 1472 
z
" transform="scale(0.015625)"/>
       </defs>
       <use xlink:href="#CMR17-31" transform="scale(0.996264)"/>
       <use xlink:href="#CMR17-30" transform="translate(45.690477 0) scale(0.996264)"/>
       <use xlink:href="#CMSY10-0" transform="translate(91.380954 36.153639) scale(0.697382)"/>
       <use xlink:href="#CMR17-32" transform="translate(145.621947 36.153639) scale(0.697382)"/>
      </g>
     </g>
    </g>
    <g id="ytick_2">
     <g id="line2d_8">
      <g>
       <use xlink:href="#m656d91593b" x="96.187864" y="132.849657" style="stroke: #000000; stroke-width: 0.8"/>
      </g>
     </g>
     <g id="text_9">
      <!-- $\mathdefault{10^{-1}}$ -->
      <g transform="translate(49.639743 140.657809) scale(0.22 -0.22)">
       <use xlink:href="#CMR17-31" transform="scale(0.996264)"/>
       <use xlink:href="#CMR17-30" transform="translate(45.690477 0) scale(0.996264)"/>
       <use xlink:href="#CMSY10-0" transform="translate(91.380954 36.153639) scale(0.697382)"/>
       <use xlink:href="#CMR17-31" transform="translate(145.621947 36.153639) scale(0.697382)"/>
      </g>
     </g>
    </g>
    <g id="ytick_3">
     <g id="line2d_9">
      <defs>
       <path id="m7059deb3da" d="M 0 0 
L -2 0 
" style="stroke: #000000; stroke-width: 0.6"/>
      </defs>
      <g>
       <use xlink:href="#m7059deb3da" x="96.187864" y="356.501289" style="stroke: #000000; stroke-width: 0.6"/>
      </g>
     </g>
    </g>
    <g id="ytick_4">
     <g id="line2d_10">
      <g>
       <use xlink:href="#m7059deb3da" x="96.187864" y="344.247106" style="stroke: #000000; stroke-width: 0.6"/>
      </g>
     </g>
    </g>
    <g id="ytick_5">
     <g id="line2d_11">
      <g>
       <use xlink:href="#m7059deb3da" x="96.187864" y="333.632049" style="stroke: #000000; stroke-width: 0.6"/>
      </g>
     </g>
    </g>
    <g id="ytick_6">
     <g id="line2d_12">
      <g>
       <use xlink:href="#m7059deb3da" x="96.187864" y="324.268906" style="stroke: #000000; stroke-width: 0.6"/>
      </g>
     </g>
    </g>
    <g id="ytick_7">
     <g id="line2d_13">
      <g>
       <use xlink:href="#m7059deb3da" x="96.187864" y="260.791665" style="stroke: #000000; stroke-width: 0.6"/>
      </g>
     </g>
    </g>
    <g id="ytick_8">
     <g id="line2d_14">
      <g>
       <use xlink:href="#m7059deb3da" x="96.187864" y="228.559281" style="stroke: #000000; stroke-width: 0.6"/>
      </g>
     </g>
    </g>
    <g id="ytick_9">
     <g id="line2d_15">
      <g>
       <use xlink:href="#m7059deb3da" x="96.187864" y="205.690041" style="stroke: #000000; stroke-width: 0.6"/>
      </g>
     </g>
    </g>
    <g id="ytick_10">
     <g id="line2d_16">
      <g>
       <use xlink:href="#m7059deb3da" x="96.187864" y="187.95128" style="stroke: #000000; stroke-width: 0.6"/>
      </g>
     </g>
    </g>
    <g id="ytick_11">
     <g id="line2d_17">
      <g>
       <use xlink:href="#m7059deb3da" x="96.187864" y="173.457658" style="stroke: #000000; stroke-width: 0.6"/>
      </g>
     </g>
    </g>
    <g id="ytick_12">
     <g id="line2d_18">
      <g>
       <use xlink:href="#m7059deb3da" x="96.187864" y="161.203474" style="stroke: #000000; stroke-width: 0.6"/>
      </g>
     </g>
    </g>
    <g id="ytick_13">
     <g id="line2d_19">
      <g>
       <use xlink:href="#m7059deb3da" x="96.187864" y="150.588417" style="stroke: #000000; stroke-width: 0.6"/>
      </g>
     </g>
    </g>
    <g id="ytick_14">
     <g id="line2d_20">
      <g>
       <use xlink:href="#m7059deb3da" x="96.187864" y="141.225274" style="stroke: #000000; stroke-width: 0.6"/>
      </g>
     </g>
    </g>
    <g id="ytick_15">
     <g id="line2d_21">
      <g>
       <use xlink:href="#m7059deb3da" x="96.187864" y="77.748033" style="stroke: #000000; stroke-width: 0.6"/>
      </g>
     </g>
    </g>
    <g id="ytick_16">
     <g id="line2d_22">
      <g>
       <use xlink:href="#m7059deb3da" x="96.187864" y="45.515649" style="stroke: #000000; stroke-width: 0.6"/>
      </g>
     </g>
    </g>
    <g id="text_10">
     <!-- $\varepsilon(s)$ -->
     <g transform="translate(40.178624 208.053114) rotate(-90) scale(0.22 -0.22)">
      <defs>
       <path id="CMMI12-22" d="M 890 1427 
C 1094 1345 1312 1345 1434 1345 
C 1600 1345 1933 1345 1933 1550 
C 1933 1678 1811 1728 1485 1728 
C 1325 1728 1133 1709 909 1613 
C 710 1708 634 1852 634 1990 
C 634 2379 1261 2606 1830 2606 
C 1939 2606 2170 2606 2438 2411 
C 2477 2387 2496 2367 2541 2367 
C 2618 2367 2701 2449 2701 2526 
C 2701 2639 2330 2880 1888 2880 
C 1171 2880 493 2449 493 1972 
C 493 1734 646 1586 755 1509 
C 384 1301 166 961 166 652 
C 166 219 563 -128 1178 -128 
C 2022 -128 2362 424 2362 512 
C 2362 543 2336 568 2304 568 
C 2272 568 2259 549 2234 512 
C 2163 395 1997 146 1235 146 
C 838 146 314 245 314 686 
C 314 898 474 1214 890 1427 
z
M 1088 1518 
C 1261 1600 1427 1600 1472 1600 
C 1651 1600 1683 1583 1786 1545 
C 1677 1472 1664 1472 1434 1472 
C 1318 1472 1216 1472 1088 1518 
z
" transform="scale(0.015625)"/>
       <path id="CMR17-28" d="M 1958 -1561 
C 1958 -1555 1958 -1542 1939 -1523 
C 1645 -1224 858 -407 858 1581 
C 858 3569 1632 4379 1946 4697 
C 1946 4704 1958 4717 1958 4736 
C 1958 4755 1939 4768 1914 4768 
C 1843 4768 1299 4296 986 3594 
C 666 2887 576 2199 576 1588 
C 576 1128 621 351 1005 -471 
C 1312 -1135 1837 -1600 1914 -1600 
C 1946 -1600 1958 -1587 1958 -1561 
z
" transform="scale(0.015625)"/>
       <path id="CMR17-29" d="M 1683 1581 
C 1683 2040 1638 2817 1254 3639 
C 947 4303 422 4768 346 4768 
C 326 4768 301 4761 301 4729 
C 301 4717 307 4710 314 4697 
C 621 4378 1402 3568 1402 1584 
C 1402 -407 627 -1217 314 -1537 
C 307 -1549 301 -1556 301 -1568 
C 301 -1600 326 -1600 346 -1600 
C 416 -1600 960 -1128 1274 -426 
C 1594 281 1683 969 1683 1581 
z
" transform="scale(0.015625)"/>
      </defs>
      <use xlink:href="#CMMI12-22" transform="scale(0.996264)"/>
      <use xlink:href="#CMR17-28" transform="translate(45.650192 0) scale(0.996264)"/>
      <use xlink:href="#CMMI12-73" transform="translate(80.93096 0) scale(0.996264)"/>
      <use xlink:href="#CMR17-29" transform="translate(126.881008 0) scale(0.996264)"/>
     </g>
    </g>
   </g>
   <g id="line2d_23">
    <path d="M 120.190234 39.700386 
L 125.039197 38.892303 
L 129.888161 40.201104 
L 134.737125 40.829051 
L 139.586088 39.811629 
L 144.435052 41.43585 
L 149.284015 41.618892 
L 154.132979 41.192467 
L 158.981943 42.747044 
L 163.830906 42.698339 
L 168.67987 42.958649 
L 173.528833 44.010551 
L 178.377797 44.316597 
L 183.226761 44.5586 
L 188.075724 45.856282 
L 192.924688 45.889964 
L 197.773651 46.235359 
L 202.622615 47.516082 
L 207.471579 47.596945 
L 212.320542 47.969447 
L 217.169506 49.345388 
L 222.018469 49.665981 
L 226.867433 49.674651 
L 231.716397 51.222109 
L 236.56536 51.840891 
L 241.414324 51.576043 
L 246.263287 52.93275 
L 251.112251 54.348511 
L 255.961215 53.992947 
L 260.810178 54.586458 
L 265.659142 56.949295 
L 270.508105 56.606716 
L 275.357069 53.578925 
L 280.206033 56.376251 
L 285.054996 62.050573 
L 289.90396 59.477875 
L 294.752923 57.950254 
L 299.601887 65.05777 
L 304.450851 66.504825 
L 309.299814 60.673573 
L 314.148778 62.29228 
L 318.997741 70.593874 
L 323.846705 68.821948 
L 328.695669 60.699813 
L 333.544632 66.326444 
L 338.393596 75.192677 
L 343.242559 70.818005 
L 348.091523 65.428889 
L 352.940487 73.739302 
L 357.78945 81.079332 
L 362.638414 74.435326 
L 367.487377 67.332903 
L 372.336341 75.541907 
L 377.185305 85.81619 
L 382.034268 81.532554 
L 386.883232 72.397943 
L 391.732195 78.770948 
L 396.581159 91.412122 
L 401.430123 91.75234 
L 406.279086 80.282422 
L 411.12805 73.966488 
L 415.977013 88.564885 
L 420.825977 101.216106 
L 425.674941 101.269602 
L 430.523904 87.508713 
L 435.372868 77.194291 
L 440.221831 90.572983 
L 445.070795 106.286238 
L 449.919759 109.652648 
L 454.768722 103.748317 
L 459.617686 92.227667 
L 464.466649 93.53428 
L 469.315613 106.141289 
L 474.164577 108.806042 
L 479.01354 110.509636 
L 483.862504 113.352558 
L 488.711467 110.403368 
L 493.560431 111.215972 
L 498.409395 119.116316 
L 503.258358 123.5488 
L 508.107322 117.158274 
L 512.956285 108.612064 
L 517.805249 115.750598 
L 522.654213 135.545135 
L 527.503176 149.207188 
L 532.35214 157.546698 
L 537.201103 163.378416 
L 542.050067 168.405348 
L 546.899031 171.664636 
L 551.747994 173.158257 
L 556.596958 178.580148 
L 561.445921 188.150838 
L 566.294885 196.634918 
L 571.143849 202.288663 
L 575.992812 207.318771 
L 580.841776 213.143077 
L 585.690739 217.649744 
L 590.539703 221.584999 
L 595.388667 224.160767 
L 600.23763 225.469283 
" clip-path="url(#p4a7986c7bc)" style="fill: none; stroke: #440154; stroke-width: 3; stroke-linecap: square"/>
   </g>
   <g id="line2d_24">
    <path d="M 120.190234 40.171416 
L 125.039197 39.761332 
L 129.888161 40.362143 
L 134.737125 40.914447 
L 139.586088 40.585015 
L 144.435052 41.576127 
L 149.284015 41.740347 
L 154.132979 41.704125 
L 158.981943 42.822479 
L 163.830906 42.813097 
L 168.67987 43.064135 
L 173.528833 44.149208 
L 178.377797 44.101095 
L 183.226761 44.552421 
L 188.075724 45.618881 
L 192.924688 45.573522 
L 197.773651 46.136184 
L 202.622615 47.278662 
L 207.471579 47.327154 
L 212.320542 47.890385 
L 217.169506 49.106695 
L 222.018469 49.296651 
L 226.867433 49.826901 
L 231.716397 50.968952 
L 236.56536 51.482655 
L 241.414324 51.830554 
L 246.263287 53.047877 
L 251.112251 53.703561 
L 255.961215 54.233047 
L 260.810178 55.093509 
L 265.659142 55.986734 
L 270.508105 56.80414 
L 275.357069 57.714513 
L 280.206033 58.50143 
L 285.054996 59.203994 
L 289.90396 60.277612 
L 294.752923 61.067957 
L 299.601887 61.918276 
L 304.450851 62.971951 
L 309.299814 64.045892 
L 314.148778 64.886407 
L 318.997741 65.7819 
L 323.846705 66.938576 
L 328.695669 68.093869 
L 333.544632 68.836433 
L 338.393596 69.607081 
L 343.242559 71.068048 
L 348.091523 72.683445 
L 352.940487 73.595995 
L 357.78945 74.014406 
L 362.638414 75.545772 
L 367.487377 77.449785 
L 372.336341 78.384183 
L 377.185305 78.996057 
L 382.034268 80.292084 
L 386.883232 82.303929 
L 391.732195 83.295885 
L 396.581159 83.667162 
L 401.430123 85.490511 
L 406.279086 88.929096 
L 411.12805 90.377557 
L 415.977013 89.781747 
L 420.825977 90.48488 
L 425.674941 94.511699 
L 430.523904 98.163262 
L 435.372868 100.171287 
L 440.221831 101.774932 
L 445.070795 104.238621 
L 449.919759 106.657393 
L 454.768722 109.49935 
L 459.617686 112.449207 
L 464.466649 113.236592 
L 469.315613 113.667277 
L 474.164577 116.129405 
L 479.01354 119.391501 
L 483.862504 124.75069 
L 488.711467 130.507193 
L 493.560431 134.079904 
L 498.409395 136.746588 
L 503.258358 140.598063 
L 508.107322 145.041624 
L 512.956285 150.308548 
L 517.805249 156.627599 
L 522.654213 162.202878 
L 527.503176 166.587139 
L 532.35214 171.139442 
L 537.201103 177.372105 
L 542.050067 187.126618 
L 546.899031 202.741048 
L 551.747994 221.456549 
L 556.596958 236.792038 
L 561.445921 245.477842 
L 566.294885 252.530675 
L 571.143849 262.274811 
L 575.992812 271.970172 
L 580.841776 277.414718 
L 585.690739 280.703292 
L 590.539703 283.686591 
L 595.388667 286.079118 
L 600.23763 286.778384 
" clip-path="url(#p4a7986c7bc)" style="fill: none; stroke: #3b528b; stroke-width: 3; stroke-linecap: square"/>
   </g>
   <g id="line2d_25">
    <path d="M 120.190234 40.092612 
L 125.039197 39.592956 
L 129.888161 40.137008 
L 134.737125 40.596817 
L 139.586088 40.180683 
L 144.435052 41.138501 
L 149.284015 41.213598 
L 154.132979 41.18006 
L 158.981943 42.148654 
L 163.830906 42.132729 
L 168.67987 42.37221 
L 173.528833 43.368958 
L 178.377797 43.169607 
L 183.226761 43.635363 
L 188.075724 44.76308 
L 192.924688 44.697459 
L 197.773651 45.13215 
L 202.622615 46.318957 
L 207.471579 46.349915 
L 212.320542 46.946047 
L 217.169506 48.001568 
L 222.018469 48.441452 
L 226.867433 48.768005 
L 231.716397 50.016273 
L 236.56536 50.52943 
L 241.414324 51.110993 
L 246.263287 52.317461 
L 251.112251 52.889822 
L 255.961215 53.463132 
L 260.810178 54.66401 
L 265.659142 55.717373 
L 270.508105 56.126098 
L 275.357069 57.415989 
L 280.206033 58.381701 
L 285.054996 59.167257 
L 289.90396 60.369603 
L 294.752923 61.634179 
L 299.601887 62.38868 
L 304.450851 63.216865 
L 309.299814 64.915644 
L 314.148778 66.131317 
L 318.997741 66.885076 
L 323.846705 67.945911 
L 328.695669 69.894917 
L 333.544632 70.920618 
L 338.393596 71.360451 
L 343.242559 73.141837 
L 348.091523 75.423543 
L 352.940487 75.837659 
L 357.78945 76.774904 
L 362.638414 78.380744 
L 367.487377 81.179736 
L 372.336341 81.876813 
L 377.185305 82.180694 
L 382.034268 84.186827 
L 386.883232 88.436073 
L 391.732195 88.704266 
L 396.581159 88.727363 
L 401.430123 90.113868 
L 406.279086 94.439813 
L 411.12805 96.081848 
L 415.977013 96.91684 
L 420.825977 96.333784 
L 425.674941 100.422553 
L 430.523904 104.901283 
L 435.372868 107.368689 
L 440.221831 107.232817 
L 445.070795 107.17705 
L 449.919759 109.584567 
L 454.768722 115.403029 
L 459.617686 120.10166 
L 464.466649 121.974317 
L 469.315613 122.619223 
L 474.164577 124.412713 
L 479.01354 127.63452 
L 483.862504 132.259751 
L 488.711467 137.186503 
L 493.560431 142.415958 
L 498.409395 146.487247 
L 503.258358 150.621979 
L 508.107322 155.261383 
L 512.956285 160.68695 
L 517.805249 167.534089 
L 522.654213 175.153583 
L 527.503176 183.996535 
L 532.35214 194.249321 
L 537.201103 204.565421 
L 542.050067 215.460612 
L 546.899031 227.015594 
L 551.747994 239.006957 
L 556.596958 251.330983 
L 561.445921 264.309624 
L 566.294885 277.247133 
L 571.143849 290.145177 
L 575.992812 303.065329 
L 580.841776 315.342617 
L 585.690739 326.848713 
L 590.539703 336.131409 
L 595.388667 341.324887 
L 600.23763 341.538366 
" clip-path="url(#p4a7986c7bc)" style="fill: none; stroke: #21918c; stroke-width: 3; stroke-linecap: square"/>
   </g>
   <g id="line2d_26">
    <path d="M 120.190234 39.968322 
L 125.039197 39.351371 
L 129.888161 39.829506 
L 134.737125 40.283276 
L 139.586088 39.753979 
L 144.435052 40.716154 
L 149.284015 40.763436 
L 154.132979 40.659464 
L 158.981943 41.64271 
L 163.830906 41.504185 
L 168.67987 41.674999 
L 173.528833 42.856068 
L 178.377797 42.622094 
L 183.226761 42.933616 
L 188.075724 43.979739 
L 192.924688 43.996526 
L 197.773651 44.447436 
L 202.622615 45.526119 
L 207.471579 45.961374 
L 212.320542 46.29081 
L 217.169506 47.574995 
L 222.018469 47.681087 
L 226.867433 48.550562 
L 231.716397 49.392952 
L 236.56536 50.18957 
L 241.414324 50.623911 
L 246.263287 51.902475 
L 251.112251 52.668902 
L 255.961215 53.368435 
L 260.810178 54.161214 
L 265.659142 55.536591 
L 270.508105 56.101383 
L 275.357069 57.666118 
L 280.206033 58.306346 
L 285.054996 59.617023 
L 289.90396 60.497797 
L 294.752923 61.989128 
L 299.601887 62.737606 
L 304.450851 64.183035 
L 309.299814 65.467064 
L 314.148778 66.753309 
L 318.997741 67.790645 
L 323.846705 69.351719 
L 328.695669 70.929136 
L 333.544632 71.788026 
L 338.393596 73.267031 
L 343.242559 74.783554 
L 348.091523 76.714921 
L 352.940487 77.375944 
L 357.78945 79.452045 
L 362.638414 80.500723 
L 367.487377 83.270898 
L 372.336341 83.522109 
L 377.185305 86.043926 
L 382.034268 86.87105 
L 386.883232 90.155418 
L 391.732195 90.601161 
L 396.581159 92.52382 
L 401.430123 94.060022 
L 406.279086 97.769503 
L 411.12805 98.680498 
L 415.977013 100.779848 
L 420.825977 101.714929 
L 425.674941 103.828941 
L 430.523904 107.587313 
L 435.372868 109.72316 
L 440.221831 111.017642 
L 445.070795 112.633654 
L 449.919759 116.161678 
L 454.768722 119.110785 
L 459.617686 121.191008 
L 464.466649 124.707422 
L 469.315613 127.286178 
L 474.164577 129.64196 
L 479.01354 132.719969 
L 483.862504 136.598289 
L 488.711467 140.616073 
L 493.560431 144.879036 
L 498.409395 148.699304 
L 503.258358 153.967653 
L 508.107322 159.426258 
L 512.956285 164.729847 
L 517.805249 170.331027 
L 522.654213 176.797665 
L 527.503176 184.293753 
L 532.35214 191.464891 
L 537.201103 199.123966 
L 542.050067 207.135443 
L 546.899031 215.744335 
L 551.747994 225.331781 
L 556.596958 235.860176 
L 561.445921 247.115009 
L 566.294885 258.741305 
L 571.143849 270.341077 
L 575.992812 281.977346 
L 580.841776 292.941344 
L 585.690739 302.336591 
L 590.539703 309.327833 
L 595.388667 313.060814 
L 600.23763 313.118561 
" clip-path="url(#p4a7986c7bc)" style="fill: none; stroke: #5ec962; stroke-width: 3; stroke-linecap: square"/>
   </g>
   <g id="patch_3">
    <path d="M 96.187864 356.670669 
L 96.187864 23.76 
" style="fill: none; stroke: #000000; stroke-width: 0.8; stroke-linejoin: miter; stroke-linecap: square"/>
   </g>
   <g id="patch_4">
    <path d="M 624.24 356.670669 
L 624.24 23.76 
" style="fill: none; stroke: #000000; stroke-width: 0.8; stroke-linejoin: miter; stroke-linecap: square"/>
   </g>
   <g id="patch_5">
    <path d="M 96.187864 356.670669 
L 624.24 356.670669 
" style="fill: none; stroke: #000000; stroke-width: 0.8; stroke-linejoin: miter; stroke-linecap: square"/>
   </g>
   <g id="patch_6">
    <path d="M 96.187864 23.76 
L 624.24 23.76 
" style="fill: none; stroke: #000000; stroke-width: 0.8; stroke-linejoin: miter; stroke-linecap: square"/>
   </g>
   <g id="legend_1">
    <g id="patch_7">
     <path d="M 111.587864 345.670669 
L 202.091674 345.670669 
Q 206.491674 345.670669 206.491674 341.270669 
L 206.491674 218.332007 
Q 206.491674 213.932007 202.091674 213.932007 
L 111.587864 213.932007 
Q 107.187864 213.932007 107.187864 218.332007 
L 107.187864 341.270669 
Q 107.187864 345.670669 111.587864 345.670669 
z
" style="fill: #ffffff; opacity: 0.8; stroke: #cccccc; stroke-linejoin: miter"/>
    </g>
    <g id="line2d_27">
     <path d="M 115.987864 230.648311 
L 137.987864 230.648311 
L 159.987864 230.648311 
" style="fill: none; stroke: #440154; stroke-width: 3; stroke-linecap: square"/>
    </g>
    <g id="text_11">
     <!-- $10$ -->
     <g transform="translate(177.587864 238.348311) scale(0.22 -0.22)">
      <use xlink:href="#CMR17-31" transform="scale(0.996264)"/>
      <use xlink:href="#CMR17-30" transform="translate(45.690477 0) scale(0.996264)"/>
     </g>
    </g>
    <g id="line2d_28">
     <path d="M 115.987864 261.932977 
L 137.987864 261.932977 
L 159.987864 261.932977 
" style="fill: none; stroke: #3b528b; stroke-width: 3; stroke-linecap: square"/>
    </g>
    <g id="text_12">
     <!-- $20$ -->
     <g transform="translate(177.587864 269.632977) scale(0.22 -0.22)">
      <use xlink:href="#CMR17-32" transform="scale(0.996264)"/>
      <use xlink:href="#CMR17-30" transform="translate(45.690477 0) scale(0.996264)"/>
     </g>
    </g>
    <g id="line2d_29">
     <path d="M 115.987864 293.217642 
L 137.987864 293.217642 
L 159.987864 293.217642 
" style="fill: none; stroke: #21918c; stroke-width: 3; stroke-linecap: square"/>
    </g>
    <g id="text_13">
     <!-- $40$ -->
     <g transform="translate(177.587864 300.917642) scale(0.22 -0.22)">
      <use xlink:href="#CMR17-34" transform="scale(0.996264)"/>
      <use xlink:href="#CMR17-30" transform="translate(45.690477 0) scale(0.996264)"/>
     </g>
    </g>
    <g id="line2d_30">
     <path d="M 115.987864 324.502308 
L 137.987864 324.502308 
L 159.987864 324.502308 
" style="fill: none; stroke: #5ec962; stroke-width: 3; stroke-linecap: square"/>
    </g>
    <g id="text_14">
     <!-- $60$ -->
     <g transform="translate(177.587864 332.202308) scale(0.22 -0.22)">
      <use xlink:href="#CMR17-36" transform="scale(0.996264)"/>
      <use xlink:href="#CMR17-30" transform="translate(45.690477 0) scale(0.996264)"/>
     </g>
    </g>
   </g>
  </g>
 </g>
 <defs>
  <clipPath id="p4a7986c7bc">
   <rect x="96.187864" y="23.76" width="528.052136" height="332.910669"/>
  </clipPath>
 </defs>
</svg>
