<?xml version="1.0" encoding="utf-8" standalone="no"?>
<!DOCTYPE svg PUBLIC "-//W3C//DTD SVG 1.1//EN"
  "http://www.w3.org/Graphics/SVG/1.1/DTD/svg11.dtd">
<svg xmlns:xlink="http://www.w3.org/1999/xlink" width="648pt" height="432pt" viewBox="0 0 648 432" xmlns="http://www.w3.org/2000/svg" version="1.1">
 <metadata>
  <rdf:RDF xmlns:dc="http://purl.org/dc/elements/1.1/" xmlns:cc="http://creativecommons.org/ns#" xmlns:rdf="http://www.w3.org/1999/02/22-rdf-syntax-ns#">
   <cc:Work>
    <dc:type rdf:resource="http://purl.org/dc/dcmitype/StillImage"/>
    <dc:date>2023-04-14T11:57:51.388054</dc:date>
    <dc:format>image/svg+xml</dc:format>
    <dc:creator>
     <cc:Agent>
      <dc:title>Matplotlib v3.6.0, https://matplotlib.org/</dc:title>
     </cc:Agent>
    </dc:creator>
   </cc:Work>
  </rdf:RDF>
 </metadata>
 <defs>
  <style type="text/css">*{stroke-linejoin: round; stroke-linecap: butt}</style>
 </defs>
 <g id="figure_1">
  <g id="patch_1">
   <path d="M 0 432 
L 648 432 
L 648 0 
L 0 0 
L 0 432 
z
" style="fill: none"/>
  </g>
  <g id="axes_1">
   <g id="patch_2">
    <path d="M 81 384.48 
L 583.2 384.48 
L 583.2 51.84 
L 81 51.84 
L 81 384.48 
z
" style="fill: none"/>
   </g>
   <g id="matplotlib.axis_1">
    <g id="xtick_1">
     <g id="line2d_1">
      <defs>
       <path id="m6ba5afea93" d="M 0 0 
L 0 3.5 
" style="stroke: #000000; stroke-width: 0.8"/>
      </defs>
      <g>
       <use xlink:href="#m6ba5afea93" x="103.827273" y="384.48" style="stroke: #000000; stroke-width: 0.8"/>
      </g>
     </g>
     <g id="text_1">
      <!-- $\mathdefault{0.0}$ -->
      <g transform="translate(90.794678 407.096305) scale(0.22 -0.22)">
       <defs>
        <path id="CMR17-30" d="M 2688 2025 
C 2688 2416 2682 3080 2413 3591 
C 2176 4039 1798 4198 1466 4198 
C 1158 4198 768 4058 525 3597 
C 269 3118 243 2524 243 2025 
C 243 1661 250 1106 448 619 
C 723 -39 1216 -128 1466 -128 
C 1760 -128 2208 -7 2470 600 
C 2662 1042 2688 1559 2688 2025 
z
M 1466 -26 
C 1056 -26 813 325 723 812 
C 653 1188 653 1738 653 2096 
C 653 2588 653 2997 736 3387 
C 858 3929 1216 4096 1466 4096 
C 1728 4096 2067 3923 2189 3400 
C 2272 3036 2278 2607 2278 2096 
C 2278 1680 2278 1169 2202 792 
C 2067 95 1690 -26 1466 -26 
z
" transform="scale(0.015625)"/>
        <path id="CMMI12-3a" d="M 1178 307 
C 1178 492 1024 619 870 619 
C 685 619 557 466 557 313 
C 557 128 710 0 864 0 
C 1050 0 1178 153 1178 307 
z
" transform="scale(0.015625)"/>
       </defs>
       <use xlink:href="#CMR17-30" transform="scale(0.996264)"/>
       <use xlink:href="#CMMI12-3a" transform="translate(45.690477 0) scale(0.996264)"/>
       <use xlink:href="#CMR17-30" transform="translate(72.787654 0) scale(0.996264)"/>
      </g>
     </g>
    </g>
    <g id="xtick_2">
     <g id="line2d_2">
      <g>
       <use xlink:href="#m6ba5afea93" x="195.136364" y="384.48" style="stroke: #000000; stroke-width: 0.8"/>
      </g>
     </g>
     <g id="text_2">
      <!-- $\mathdefault{0.2}$ -->
      <g transform="translate(182.103769 407.096305) scale(0.22 -0.22)">
       <defs>
        <path id="CMR17-32" d="M 2669 989 
L 2554 989 
C 2490 536 2438 459 2413 420 
C 2381 369 1920 369 1830 369 
L 602 369 
C 832 619 1280 1072 1824 1597 
C 2214 1967 2669 2402 2669 3035 
C 2669 3790 2067 4224 1395 4224 
C 691 4224 262 3604 262 3030 
C 262 2780 448 2748 525 2748 
C 589 2748 781 2787 781 3010 
C 781 3207 614 3264 525 3264 
C 486 3264 448 3258 422 3245 
C 544 3790 915 4058 1306 4058 
C 1862 4058 2227 3617 2227 3035 
C 2227 2479 1901 2000 1536 1584 
L 262 146 
L 262 0 
L 2515 0 
L 2669 989 
z
" transform="scale(0.015625)"/>
       </defs>
       <use xlink:href="#CMR17-30" transform="scale(0.996264)"/>
       <use xlink:href="#CMMI12-3a" transform="translate(45.690477 0) scale(0.996264)"/>
       <use xlink:href="#CMR17-32" transform="translate(72.787654 0) scale(0.996264)"/>
      </g>
     </g>
    </g>
    <g id="xtick_3">
     <g id="line2d_3">
      <g>
       <use xlink:href="#m6ba5afea93" x="286.445455" y="384.48" style="stroke: #000000; stroke-width: 0.8"/>
      </g>
     </g>
     <g id="text_3">
      <!-- $\mathdefault{0.4}$ -->
      <g transform="translate(273.41286 407.096305) scale(0.22 -0.22)">
       <defs>
        <path id="CMR17-34" d="M 2150 4122 
C 2150 4256 2144 4256 2029 4256 
L 128 1254 
L 128 1088 
L 1779 1088 
L 1779 457 
C 1779 224 1766 160 1318 160 
L 1197 160 
L 1197 0 
C 1402 0 1747 0 1965 0 
C 2182 0 2528 0 2733 0 
L 2733 160 
L 2611 160 
C 2163 160 2150 224 2150 457 
L 2150 1088 
L 2803 1088 
L 2803 1254 
L 2150 1254 
L 2150 4122 
z
M 1798 3703 
L 1798 1254 
L 256 1254 
L 1798 3703 
z
" transform="scale(0.015625)"/>
       </defs>
       <use xlink:href="#CMR17-30" transform="scale(0.996264)"/>
       <use xlink:href="#CMMI12-3a" transform="translate(45.690477 0) scale(0.996264)"/>
       <use xlink:href="#CMR17-34" transform="translate(72.787654 0) scale(0.996264)"/>
      </g>
     </g>
    </g>
    <g id="xtick_4">
     <g id="line2d_4">
      <g>
       <use xlink:href="#m6ba5afea93" x="377.754545" y="384.48" style="stroke: #000000; stroke-width: 0.8"/>
      </g>
     </g>
     <g id="text_4">
      <!-- $\mathdefault{0.6}$ -->
      <g transform="translate(364.721951 407.096305) scale(0.22 -0.22)">
       <defs>
        <path id="CMR17-36" d="M 678 2176 
C 678 3690 1395 4032 1811 4032 
C 1946 4032 2272 4009 2400 3776 
C 2298 3776 2106 3776 2106 3553 
C 2106 3381 2246 3323 2336 3323 
C 2394 3323 2566 3348 2566 3560 
C 2566 3954 2246 4179 1805 4179 
C 1043 4179 243 3390 243 1984 
C 243 253 966 -128 1478 -128 
C 2099 -128 2688 427 2688 1283 
C 2688 2081 2170 2662 1517 2662 
C 1126 2662 838 2407 678 1960 
L 678 2176 
z
M 1478 25 
C 691 25 691 1200 691 1436 
C 691 1896 909 2560 1504 2560 
C 1613 2560 1926 2560 2138 2120 
C 2253 1870 2253 1609 2253 1289 
C 2253 944 2253 690 2118 434 
C 1978 171 1773 25 1478 25 
z
" transform="scale(0.015625)"/>
       </defs>
       <use xlink:href="#CMR17-30" transform="scale(0.996264)"/>
       <use xlink:href="#CMMI12-3a" transform="translate(45.690477 0) scale(0.996264)"/>
       <use xlink:href="#CMR17-36" transform="translate(72.787654 0) scale(0.996264)"/>
      </g>
     </g>
    </g>
    <g id="xtick_5">
     <g id="line2d_5">
      <g>
       <use xlink:href="#m6ba5afea93" x="469.063636" y="384.48" style="stroke: #000000; stroke-width: 0.8"/>
      </g>
     </g>
     <g id="text_5">
      <!-- $\mathdefault{0.8}$ -->
      <g transform="translate(456.031042 407.096305) scale(0.22 -0.22)">
       <defs>
        <path id="CMR17-38" d="M 1741 2264 
C 2144 2467 2554 2773 2554 3263 
C 2554 3841 1990 4179 1472 4179 
C 890 4179 378 3759 378 3180 
C 378 3021 416 2747 666 2505 
C 730 2442 998 2251 1171 2130 
C 883 1983 211 1634 211 934 
C 211 279 838 -128 1459 -128 
C 2144 -128 2720 362 2720 1010 
C 2720 1590 2330 1857 2074 2029 
L 1741 2264 
z
M 902 2822 
C 851 2854 595 3051 595 3351 
C 595 3739 998 4032 1459 4032 
C 1965 4032 2336 3676 2336 3262 
C 2336 2669 1670 2331 1638 2331 
C 1632 2331 1626 2331 1574 2370 
L 902 2822 
z
M 2080 1519 
C 2176 1449 2483 1240 2483 851 
C 2483 381 2010 25 1472 25 
C 890 25 448 438 448 940 
C 448 1443 838 1862 1280 2060 
L 2080 1519 
z
" transform="scale(0.015625)"/>
       </defs>
       <use xlink:href="#CMR17-30" transform="scale(0.996264)"/>
       <use xlink:href="#CMMI12-3a" transform="translate(45.690477 0) scale(0.996264)"/>
       <use xlink:href="#CMR17-38" transform="translate(72.787654 0) scale(0.996264)"/>
      </g>
     </g>
    </g>
    <g id="xtick_6">
     <g id="line2d_6">
      <g>
       <use xlink:href="#m6ba5afea93" x="560.372727" y="384.48" style="stroke: #000000; stroke-width: 0.8"/>
      </g>
     </g>
     <g id="text_6">
      <!-- $\mathdefault{1.0}$ -->
      <g transform="translate(547.340133 407.096305) scale(0.22 -0.22)">
       <defs>
        <path id="CMR17-31" d="M 1702 4058 
C 1702 4192 1696 4192 1606 4192 
C 1357 3916 979 3827 621 3827 
C 602 3827 570 3827 563 3808 
C 557 3795 557 3782 557 3648 
C 755 3648 1088 3686 1344 3839 
L 1344 461 
C 1344 236 1331 160 781 160 
L 589 160 
L 589 0 
C 896 0 1216 0 1523 0 
C 1830 0 2150 0 2458 0 
L 2458 160 
L 2266 160 
C 1715 160 1702 230 1702 458 
L 1702 4058 
z
" transform="scale(0.015625)"/>
       </defs>
       <use xlink:href="#CMR17-31" transform="scale(0.996264)"/>
       <use xlink:href="#CMMI12-3a" transform="translate(45.690477 0) scale(0.996264)"/>
       <use xlink:href="#CMR17-30" transform="translate(72.787654 0) scale(0.996264)"/>
      </g>
     </g>
    </g>
    <g id="text_7">
     <!-- $s$ -->
     <g transform="translate(327.045499 431.38097) scale(0.22 -0.22)">
      <defs>
       <path id="CMMI12-73" d="M 1459 1280 
C 1568 1261 1741 1223 1779 1216 
C 1862 1192 2150 1090 2150 783 
C 2150 586 1971 70 1229 70 
C 1094 70 614 70 486 436 
C 742 404 870 603 870 745 
C 870 880 781 950 653 950 
C 512 950 326 841 326 552 
C 326 173 710 -64 1222 -64 
C 2195 -64 2483 651 2483 984 
C 2483 1079 2483 1258 2278 1462 
C 2118 1616 1965 1648 1619 1718 
C 1446 1756 1171 1814 1171 2101 
C 1171 2229 1286 2689 1894 2689 
C 2163 2689 2426 2589 2490 2368 
C 2208 2368 2195 2125 2195 2119 
C 2195 1984 2317 1946 2374 1946 
C 2464 1946 2643 2015 2643 2281 
C 2643 2545 2400 2816 1901 2816 
C 1062 2816 838 2160 838 1899 
C 838 1414 1312 1312 1459 1280 
z
" transform="scale(0.015625)"/>
      </defs>
      <use xlink:href="#CMMI12-73" transform="scale(0.996264)"/>
     </g>
    </g>
   </g>
   <g id="matplotlib.axis_2">
    <g id="ytick_1">
     <g id="line2d_7">
      <defs>
       <path id="m0486304edc" d="M 0 0 
L -3.5 0 
" style="stroke: #000000; stroke-width: 0.8"/>
      </defs>
      <g>
       <use xlink:href="#m0486304edc" x="81" y="296.680974" style="stroke: #000000; stroke-width: 0.8"/>
      </g>
     </g>
     <g id="text_8">
      <!-- $\mathdefault{10^{-2}}$ -->
      <g transform="translate(34.451879 304.489127) scale(0.22 -0.22)">
       <defs>
        <path id="CMSY10-0" d="M 4218 1472 
C 4326 1472 4442 1472 4442 1600 
C 4442 1728 4326 1728 4218 1728 
L 755 1728 
C 646 1728 531 1728 531 1600 
C 531 1472 646 1472 755 1472 
L 4218 1472 
z
" transform="scale(0.015625)"/>
       </defs>
       <use xlink:href="#CMR17-31" transform="scale(0.996264)"/>
       <use xlink:href="#CMR17-30" transform="translate(45.690477 0) scale(0.996264)"/>
       <use xlink:href="#CMSY10-0" transform="translate(91.380954 36.153639) scale(0.697382)"/>
       <use xlink:href="#CMR17-32" transform="translate(145.621947 36.153639) scale(0.697382)"/>
      </g>
     </g>
    </g>
    <g id="ytick_2">
     <g id="line2d_8">
      <g>
       <use xlink:href="#m0486304edc" x="81" y="140.081598" style="stroke: #000000; stroke-width: 0.8"/>
      </g>
     </g>
     <g id="text_9">
      <!-- $\mathdefault{10^{-1}}$ -->
      <g transform="translate(34.451879 147.88975) scale(0.22 -0.22)">
       <use xlink:href="#CMR17-31" transform="scale(0.996264)"/>
       <use xlink:href="#CMR17-30" transform="translate(45.690477 0) scale(0.996264)"/>
       <use xlink:href="#CMSY10-0" transform="translate(91.380954 36.153639) scale(0.697382)"/>
       <use xlink:href="#CMR17-31" transform="translate(145.621947 36.153639) scale(0.697382)"/>
      </g>
     </g>
    </g>
    <g id="ytick_3">
     <g id="line2d_9">
      <defs>
       <path id="m87036a9ac7" d="M 0 0 
L -2 0 
" style="stroke: #000000; stroke-width: 0.6"/>
      </defs>
      <g>
       <use xlink:href="#m87036a9ac7" x="81" y="378.56346" style="stroke: #000000; stroke-width: 0.6"/>
      </g>
     </g>
    </g>
    <g id="ytick_4">
     <g id="line2d_10">
      <g>
       <use xlink:href="#m87036a9ac7" x="81" y="358.998131" style="stroke: #000000; stroke-width: 0.6"/>
      </g>
     </g>
    </g>
    <g id="ytick_5">
     <g id="line2d_11">
      <g>
       <use xlink:href="#m87036a9ac7" x="81" y="343.822084" style="stroke: #000000; stroke-width: 0.6"/>
      </g>
     </g>
    </g>
    <g id="ytick_6">
     <g id="line2d_12">
      <g>
       <use xlink:href="#m87036a9ac7" x="81" y="331.42235" style="stroke: #000000; stroke-width: 0.6"/>
      </g>
     </g>
    </g>
    <g id="ytick_7">
     <g id="line2d_13">
      <g>
       <use xlink:href="#m87036a9ac7" x="81" y="320.938525" style="stroke: #000000; stroke-width: 0.6"/>
      </g>
     </g>
    </g>
    <g id="ytick_8">
     <g id="line2d_14">
      <g>
       <use xlink:href="#m87036a9ac7" x="81" y="311.857022" style="stroke: #000000; stroke-width: 0.6"/>
      </g>
     </g>
    </g>
    <g id="ytick_9">
     <g id="line2d_15">
      <g>
       <use xlink:href="#m87036a9ac7" x="81" y="303.846569" style="stroke: #000000; stroke-width: 0.6"/>
      </g>
     </g>
    </g>
    <g id="ytick_10">
     <g id="line2d_16">
      <g>
       <use xlink:href="#m87036a9ac7" x="81" y="249.539865" style="stroke: #000000; stroke-width: 0.6"/>
      </g>
     </g>
    </g>
    <g id="ytick_11">
     <g id="line2d_17">
      <g>
       <use xlink:href="#m87036a9ac7" x="81" y="221.964083" style="stroke: #000000; stroke-width: 0.6"/>
      </g>
     </g>
    </g>
    <g id="ytick_12">
     <g id="line2d_18">
      <g>
       <use xlink:href="#m87036a9ac7" x="81" y="202.398755" style="stroke: #000000; stroke-width: 0.6"/>
      </g>
     </g>
    </g>
    <g id="ytick_13">
     <g id="line2d_19">
      <g>
       <use xlink:href="#m87036a9ac7" x="81" y="187.222708" style="stroke: #000000; stroke-width: 0.6"/>
      </g>
     </g>
    </g>
    <g id="ytick_14">
     <g id="line2d_20">
      <g>
       <use xlink:href="#m87036a9ac7" x="81" y="174.822974" style="stroke: #000000; stroke-width: 0.6"/>
      </g>
     </g>
    </g>
    <g id="ytick_15">
     <g id="line2d_21">
      <g>
       <use xlink:href="#m87036a9ac7" x="81" y="164.339148" style="stroke: #000000; stroke-width: 0.6"/>
      </g>
     </g>
    </g>
    <g id="ytick_16">
     <g id="line2d_22">
      <g>
       <use xlink:href="#m87036a9ac7" x="81" y="155.257646" style="stroke: #000000; stroke-width: 0.6"/>
      </g>
     </g>
    </g>
    <g id="ytick_17">
     <g id="line2d_23">
      <g>
       <use xlink:href="#m87036a9ac7" x="81" y="147.247193" style="stroke: #000000; stroke-width: 0.6"/>
      </g>
     </g>
    </g>
    <g id="ytick_18">
     <g id="line2d_24">
      <g>
       <use xlink:href="#m87036a9ac7" x="81" y="92.940489" style="stroke: #000000; stroke-width: 0.6"/>
      </g>
     </g>
    </g>
    <g id="ytick_19">
     <g id="line2d_25">
      <g>
       <use xlink:href="#m87036a9ac7" x="81" y="65.364707" style="stroke: #000000; stroke-width: 0.6"/>
      </g>
     </g>
    </g>
    <g id="text_10">
     <!-- $\varepsilon(s)$ -->
     <g transform="translate(24.99076 235.997779) rotate(-90) scale(0.22 -0.22)">
      <defs>
       <path id="CMMI12-22" d="M 890 1427 
C 1094 1345 1312 1345 1434 1345 
C 1600 1345 1933 1345 1933 1550 
C 1933 1678 1811 1728 1485 1728 
C 1325 1728 1133 1709 909 1613 
C 710 1708 634 1852 634 1990 
C 634 2379 1261 2606 1830 2606 
C 1939 2606 2170 2606 2438 2411 
C 2477 2387 2496 2367 2541 2367 
C 2618 2367 2701 2449 2701 2526 
C 2701 2639 2330 2880 1888 2880 
C 1171 2880 493 2449 493 1972 
C 493 1734 646 1586 755 1509 
C 384 1301 166 961 166 652 
C 166 219 563 -128 1178 -128 
C 2022 -128 2362 424 2362 512 
C 2362 543 2336 568 2304 568 
C 2272 568 2259 549 2234 512 
C 2163 395 1997 146 1235 146 
C 838 146 314 245 314 686 
C 314 898 474 1214 890 1427 
z
M 1088 1518 
C 1261 1600 1427 1600 1472 1600 
C 1651 1600 1683 1583 1786 1545 
C 1677 1472 1664 1472 1434 1472 
C 1318 1472 1216 1472 1088 1518 
z
" transform="scale(0.015625)"/>
       <path id="CMR17-28" d="M 1958 -1561 
C 1958 -1555 1958 -1542 1939 -1523 
C 1645 -1224 858 -407 858 1581 
C 858 3569 1632 4379 1946 4697 
C 1946 4704 1958 4717 1958 4736 
C 1958 4755 1939 4768 1914 4768 
C 1843 4768 1299 4296 986 3594 
C 666 2887 576 2199 576 1588 
C 576 1128 621 351 1005 -471 
C 1312 -1135 1837 -1600 1914 -1600 
C 1946 -1600 1958 -1587 1958 -1561 
z
" transform="scale(0.015625)"/>
       <path id="CMR17-29" d="M 1683 1581 
C 1683 2040 1638 2817 1254 3639 
C 947 4303 422 4768 346 4768 
C 326 4768 301 4761 301 4729 
C 301 4717 307 4710 314 4697 
C 621 4378 1402 3568 1402 1584 
C 1402 -407 627 -1217 314 -1537 
C 307 -1549 301 -1556 301 -1568 
C 301 -1600 326 -1600 346 -1600 
C 416 -1600 960 -1128 1274 -426 
C 1594 281 1683 969 1683 1581 
z
" transform="scale(0.015625)"/>
      </defs>
      <use xlink:href="#CMMI12-22" transform="scale(0.996264)"/>
      <use xlink:href="#CMR17-28" transform="translate(45.650192 0) scale(0.996264)"/>
      <use xlink:href="#CMMI12-73" transform="translate(80.93096 0) scale(0.996264)"/>
      <use xlink:href="#CMR17-29" transform="translate(126.881008 0) scale(0.996264)"/>
     </g>
    </g>
   </g>
   <g id="line2d_26">
    <path d="M 103.827273 66.96 
L 108.392727 67.337723 
L 112.958182 67.953144 
L 117.523636 68.611005 
L 122.089091 69.146203 
L 126.654545 69.348586 
L 131.22 69.357198 
L 135.785455 69.606535 
L 140.350909 70.182682 
L 144.916364 70.895136 
L 149.481818 71.610859 
L 154.047273 72.155217 
L 158.612727 72.380933 
L 163.178182 72.498425 
L 167.743636 72.862486 
L 172.309091 73.529048 
L 176.874545 74.310529 
L 181.44 75.129814 
L 186.005455 75.820135 
L 190.570909 76.237659 
L 195.136364 76.462903 
L 199.701818 76.834026 
L 204.267273 77.474279 
L 208.832727 78.338579 
L 213.398182 79.224822 
L 217.963636 80.080442 
L 222.529091 80.864888 
L 227.094545 81.431899 
L 231.66 81.851969 
L 236.225455 82.341867 
L 240.790909 83.110392 
L 245.356364 84.116413 
L 249.921818 85.203696 
L 254.487273 86.184494 
L 259.052727 87.161713 
L 263.618182 88.017011 
L 268.183636 88.715328 
L 272.749091 89.408381 
L 277.314545 90.233287 
L 281.88 91.205225 
L 286.445455 92.398999 
L 291.010909 93.592631 
L 295.576364 94.786394 
L 300.141818 95.964387 
L 304.707273 97.110164 
L 309.272727 98.088749 
L 313.838182 99.204399 
L 318.403636 100.382548 
L 322.969091 101.665436 
L 327.534545 102.980707 
L 332.1 104.397123 
L 336.665455 105.983398 
L 341.230909 107.621597 
L 345.796364 109.196138 
L 350.361818 110.607587 
L 354.927273 112.129052 
L 359.492727 113.82456 
L 364.058182 115.477387 
L 368.623636 117.285054 
L 373.189091 119.13001 
L 377.754545 121.129967 
L 382.32 123.33004 
L 386.885455 125.297783 
L 391.450909 127.244904 
L 396.016364 129.494403 
L 400.581818 131.690699 
L 405.147273 133.833158 
L 409.712727 136.075382 
L 414.278182 138.588425 
L 418.843636 141.244366 
L 423.409091 144.123315 
L 427.974545 147.055786 
L 432.54 149.916873 
L 437.105455 153.012268 
L 441.670909 156.496766 
L 446.236364 160.122436 
L 450.801818 163.751809 
L 455.367273 167.334451 
L 459.932727 170.933034 
L 464.498182 174.963515 
L 469.063636 179.932663 
L 473.629091 185.401339 
L 478.194545 190.793513 
L 482.76 196.142209 
L 487.325455 201.845865 
L 491.890909 208.197044 
L 496.456364 215.284017 
L 501.021818 222.882649 
L 505.587273 230.797812 
L 510.152727 239.273104 
L 514.718182 248.779398 
L 519.283636 259.703024 
L 523.849091 272.120727 
L 528.414545 285.986111 
L 532.98 301.052297 
L 537.545455 316.944341 
L 542.110909 333.080171 
L 546.676364 348.446899 
L 551.241818 361.259664 
L 555.807273 368.954772 
L 560.372727 369.36 
" clip-path="url(#p2f752fe664)" style="fill: none; stroke: #fda85a; stroke-width: 3.4; stroke-linecap: square"/>
   </g>
   <g id="patch_3">
    <path d="M 81 384.48 
L 81 51.84 
" style="fill: none; stroke: #000000; stroke-width: 0.8; stroke-linejoin: miter; stroke-linecap: square"/>
   </g>
   <g id="patch_4">
    <path d="M 583.2 384.48 
L 583.2 51.84 
" style="fill: none; stroke: #000000; stroke-width: 0.8; stroke-linejoin: miter; stroke-linecap: square"/>
   </g>
   <g id="patch_5">
    <path d="M 81 384.48 
L 583.2 384.48 
" style="fill: none; stroke: #000000; stroke-width: 0.8; stroke-linejoin: miter; stroke-linecap: square"/>
   </g>
   <g id="patch_6">
    <path d="M 81 51.84 
L 583.2 51.84 
" style="fill: none; stroke: #000000; stroke-width: 0.8; stroke-linejoin: miter; stroke-linecap: square"/>
   </g>
   <g id="text_11">
    <!-- tensor network dQA -->
    <g transform="translate(215.823269 45.84) scale(0.264 -0.264)">
     <defs>
      <path id="NimbusSanL-Regu-74" d="M 1626 3380 
L 1075 3380 
L 1075 4288 
L 544 4288 
L 544 3380 
L 90 3380 
L 90 2944 
L 544 2944 
L 544 404 
C 544 64 774 -128 1190 -128 
C 1318 -128 1446 -116 1626 -83 
L 1626 366 
C 1555 346 1472 340 1370 340 
C 1139 340 1075 404 1075 641 
L 1075 2944 
L 1626 2944 
L 1626 3380 
z
" transform="scale(0.015625)"/>
      <path id="NimbusSanL-Regu-65" d="M 3283 1529 
C 3283 2034 3245 2338 3149 2584 
C 2931 3127 2419 3456 1792 3456 
C 858 3456 256 2742 256 1645 
C 256 547 838 -128 1779 -128 
C 2547 -128 3078 310 3213 1044 
L 2675 1044 
C 2528 598 2227 365 1798 365 
C 1459 365 1171 520 992 805 
C 864 998 819 1193 813 1529 
L 3283 1529 
z
M 826 1984 
C 870 2577 1248 2962 1786 2962 
C 2310 2962 2714 2530 2714 1984 
C 2714 1984 2714 1984 2707 1984 
L 826 1984 
z
" transform="scale(0.015625)"/>
      <path id="NimbusSanL-Regu-6e" d="M 448 3359 
L 448 0 
L 986 0 
L 986 1853 
C 986 2539 1344 2988 1894 2988 
C 2317 2988 2586 2731 2586 2327 
L 2586 0 
L 3117 0 
L 3117 2539 
C 3117 3097 2701 3456 2054 3456 
C 1555 3456 1235 3263 941 2796 
L 941 3359 
L 448 3359 
z
" transform="scale(0.015625)"/>
      <path id="NimbusSanL-Regu-73" d="M 2803 2427 
C 2797 3085 2362 3456 1587 3456 
C 806 3456 301 3054 301 2436 
C 301 1913 570 1665 1363 1474 
L 1862 1353 
C 2234 1263 2381 1130 2381 888 
C 2381 576 2067 365 1600 365 
C 1312 365 1069 448 934 588 
C 851 684 813 779 781 1014 
L 218 1014 
C 243 241 678 -128 1555 -128 
C 2400 -128 2938 285 2938 929 
C 2938 1426 2656 1701 1990 1860 
L 1478 1981 
C 1043 2082 858 2223 858 2458 
C 858 2764 1133 2962 1568 2962 
C 1997 2962 2227 2777 2240 2427 
L 2803 2427 
z
" transform="scale(0.015625)"/>
      <path id="NimbusSanL-Regu-6f" d="M 1741 3456 
C 800 3456 230 2786 230 1663 
C 230 541 794 -128 1747 -128 
C 2688 -128 3264 541 3264 1638 
C 3264 2792 2707 3456 1741 3456 
z
M 1747 2962 
C 2349 2962 2707 2472 2707 1645 
C 2707 861 2336 365 1747 365 
C 1152 365 787 855 787 1663 
C 787 2466 1152 2962 1747 2962 
z
" transform="scale(0.015625)"/>
      <path id="NimbusSanL-Regu-72" d="M 442 3359 
L 442 0 
L 979 0 
L 979 1741 
C 979 2221 1101 2535 1357 2720 
C 1523 2842 1683 2880 2054 2880 
L 2054 3432 
C 1965 3444 1920 3444 1850 3444 
C 1504 3444 1242 3240 934 2746 
L 934 3359 
L 442 3359 
z
" transform="scale(0.015625)"/>
      <path id="NimbusSanL-Regu-77" d="M 3546 0 
L 4531 3360 
L 3930 3360 
L 3264 744 
L 2605 3360 
L 1952 3360 
L 1312 744 
L 627 3360 
L 38 3360 
L 1011 0 
L 1613 0 
L 2259 2635 
L 2938 0 
L 3546 0 
z
" transform="scale(0.015625)"/>
      <path id="NimbusSanL-Regu-6b" d="M 902 4672 
L 371 4672 
L 371 -2 
L 902 -2 
L 902 1306 
L 1421 1819 
L 2554 -2 
L 3213 -2 
L 1843 2197 
L 3008 3357 
L 2323 3357 
L 902 1934 
L 902 4672 
z
" transform="scale(0.015625)"/>
      <path id="NimbusSanL-Regu-64" d="M 3168 4672 
L 2637 4672 
L 2637 2937 
C 2413 3276 2054 3456 1606 3456 
C 736 3456 166 2761 166 1695 
C 166 566 723 -128 1626 -128 
C 2086 -128 2406 45 2694 461 
L 2694 -2 
L 3168 -2 
L 3168 4672 
z
M 1696 2956 
C 2272 2956 2637 2447 2637 1651 
C 2637 881 2266 372 1702 372 
C 1114 372 723 887 723 1664 
C 723 2440 1114 2956 1696 2956 
z
" transform="scale(0.015625)"/>
      <path id="NimbusSanL-Regu-51" d="M 4691 13 
L 4090 505 
C 4531 990 4749 1590 4749 2324 
C 4749 3766 3840 4750 2496 4750 
C 1152 4750 243 3766 243 2311 
C 243 855 1152 -128 2496 -128 
C 2957 -128 3341 -26 3718 199 
L 4390 -359 
L 4691 13 
z
M 3078 1330 
L 2784 971 
L 3258 576 
C 2982 449 2771 397 2490 397 
C 1498 397 838 1163 838 2311 
C 838 3459 1504 4224 2496 4224 
C 3488 4224 4154 3459 4154 2317 
C 4154 1717 3994 1252 3648 863 
L 3078 1330 
z
" transform="scale(0.015625)"/>
      <path id="NimbusSanL-Regu-41" d="M 3034 1408 
L 3514 0 
L 4179 0 
L 2541 4672 
L 1773 4672 
L 109 0 
L 742 0 
L 1235 1408 
L 3034 1408 
z
M 2867 1908 
L 1382 1908 
L 2150 4032 
L 2867 1908 
z
" transform="scale(0.015625)"/>
     </defs>
     <use xlink:href="#NimbusSanL-Regu-74" transform="scale(0.996264)"/>
     <use xlink:href="#NimbusSanL-Regu-65" transform="translate(27.69517 0) scale(0.996264)"/>
     <use xlink:href="#NimbusSanL-Regu-6e" transform="translate(83.086847 0) scale(0.996264)"/>
     <use xlink:href="#NimbusSanL-Regu-73" transform="translate(138.478524 0) scale(0.996264)"/>
     <use xlink:href="#NimbusSanL-Regu-6f" transform="translate(188.291724 0) scale(0.996264)"/>
     <use xlink:href="#NimbusSanL-Regu-72" transform="translate(243.683401 0) scale(0.996264)"/>
     <use xlink:href="#NimbusSanL-Regu-6e" transform="translate(304.5538 0) scale(0.996264)"/>
     <use xlink:href="#NimbusSanL-Regu-65" transform="translate(359.945477 0) scale(0.996264)"/>
     <use xlink:href="#NimbusSanL-Regu-74" transform="translate(415.337154 0) scale(0.996264)"/>
     <use xlink:href="#NimbusSanL-Regu-77" transform="translate(443.032324 0) scale(0.996264)"/>
     <use xlink:href="#NimbusSanL-Regu-6f" transform="translate(513.966212 0) scale(0.996264)"/>
     <use xlink:href="#NimbusSanL-Regu-72" transform="translate(569.357889 0) scale(0.996264)"/>
     <use xlink:href="#NimbusSanL-Regu-6b" transform="translate(604.026496 0) scale(0.996264)"/>
     <use xlink:href="#NimbusSanL-Regu-64" transform="translate(681.534866 0) scale(0.996264)"/>
     <use xlink:href="#NimbusSanL-Regu-51" transform="translate(736.926543 0) scale(0.996264)"/>
     <use xlink:href="#NimbusSanL-Regu-41" transform="translate(814.434913 0) scale(0.996264)"/>
    </g>
   </g>
  </g>
 </g>
 <defs>
  <clipPath id="p2f752fe664">
   <rect x="81" y="51.84" width="502.2" height="332.64"/>
  </clipPath>
 </defs>
</svg>
