<?xml version="1.0" encoding="utf-8" standalone="no"?>
<!DOCTYPE svg PUBLIC "-//W3C//DTD SVG 1.1//EN"
  "http://www.w3.org/Graphics/SVG/1.1/DTD/svg11.dtd">
<svg xmlns:xlink="http://www.w3.org/1999/xlink" width="812.227864pt" height="443.850264pt" viewBox="0 0 812.227864 443.850264" xmlns="http://www.w3.org/2000/svg" version="1.1">
 <metadata>
  <rdf:RDF xmlns:dc="http://purl.org/dc/elements/1.1/" xmlns:cc="http://creativecommons.org/ns#" xmlns:rdf="http://www.w3.org/1999/02/22-rdf-syntax-ns#">
   <cc:Work>
    <dc:type rdf:resource="http://purl.org/dc/dcmitype/StillImage"/>
    <dc:date>2023-03-30T15:12:48.914473</dc:date>
    <dc:format>image/svg+xml</dc:format>
    <dc:creator>
     <cc:Agent>
      <dc:title>Matplotlib v3.6.0, https://matplotlib.org/</dc:title>
     </cc:Agent>
    </dc:creator>
   </cc:Work>
  </rdf:RDF>
 </metadata>
 <defs>
  <style type="text/css">*{stroke-linejoin: round; stroke-linecap: butt}</style>
 </defs>
 <g id="figure_1">
  <g id="patch_1">
   <path d="M 0 443.850264 
L 812.227864 443.850264 
L 812.227864 0 
L 0 0 
L 0 443.850264 
z
" style="fill: none"/>
  </g>
  <g id="axes_1">
   <g id="patch_2">
    <path d="M 79.627864 339.84 
L 409.355137 339.84 
L 409.355137 7.2 
L 79.627864 7.2 
L 79.627864 339.84 
z
" style="fill: none"/>
   </g>
   <g id="matplotlib.axis_1">
    <g id="xtick_1">
     <g id="line2d_1">
      <defs>
       <path id="m124025a7b7" d="M 0 0 
L 0 3.5 
" style="stroke: #000000; stroke-width: 0.8"/>
      </defs>
      <g>
       <use xlink:href="#m124025a7b7" x="94.615467" y="339.84" style="stroke: #000000; stroke-width: 0.8"/>
      </g>
     </g>
     <g id="text_1">
      <!-- $\mathdefault{0.0}$ -->
      <g transform="translate(81.582873 362.456305) scale(0.22 -0.22)">
       <defs>
        <path id="CMR17-30" d="M 2688 2025 
C 2688 2416 2682 3080 2413 3591 
C 2176 4039 1798 4198 1466 4198 
C 1158 4198 768 4058 525 3597 
C 269 3118 243 2524 243 2025 
C 243 1661 250 1106 448 619 
C 723 -39 1216 -128 1466 -128 
C 1760 -128 2208 -7 2470 600 
C 2662 1042 2688 1559 2688 2025 
z
M 1466 -26 
C 1056 -26 813 325 723 812 
C 653 1188 653 1738 653 2096 
C 653 2588 653 2997 736 3387 
C 858 3929 1216 4096 1466 4096 
C 1728 4096 2067 3923 2189 3400 
C 2272 3036 2278 2607 2278 2096 
C 2278 1680 2278 1169 2202 792 
C 2067 95 1690 -26 1466 -26 
z
" transform="scale(0.015625)"/>
        <path id="CMMI12-3a" d="M 1178 307 
C 1178 492 1024 619 870 619 
C 685 619 557 466 557 313 
C 557 128 710 0 864 0 
C 1050 0 1178 153 1178 307 
z
" transform="scale(0.015625)"/>
       </defs>
       <use xlink:href="#CMR17-30" transform="scale(0.996264)"/>
       <use xlink:href="#CMMI12-3a" transform="translate(45.690477 0) scale(0.996264)"/>
       <use xlink:href="#CMR17-30" transform="translate(72.787654 0) scale(0.996264)"/>
      </g>
     </g>
    </g>
    <g id="xtick_2">
     <g id="line2d_2">
      <g>
       <use xlink:href="#m124025a7b7" x="244.4915" y="339.84" style="stroke: #000000; stroke-width: 0.8"/>
      </g>
     </g>
     <g id="text_2">
      <!-- $\mathdefault{0.5}$ -->
      <g transform="translate(231.458906 362.456305) scale(0.22 -0.22)">
       <defs>
        <path id="CMR17-35" d="M 730 3692 
C 794 3666 1056 3584 1325 3584 
C 1920 3584 2246 3911 2432 4100 
C 2432 4157 2432 4192 2394 4192 
C 2387 4192 2374 4192 2323 4163 
C 2099 4058 1837 3973 1517 3973 
C 1325 3973 1037 3999 723 4139 
C 653 4171 640 4171 634 4171 
C 602 4171 595 4164 595 4037 
L 595 2203 
C 595 2089 595 2057 659 2057 
C 691 2057 704 2070 736 2114 
C 941 2401 1222 2522 1542 2522 
C 1766 2522 2246 2382 2246 1289 
C 2246 1085 2246 715 2054 421 
C 1894 159 1645 25 1370 25 
C 947 25 518 320 403 814 
C 429 807 480 795 506 795 
C 589 795 749 840 749 1038 
C 749 1210 627 1280 506 1280 
C 358 1280 262 1190 262 1011 
C 262 454 704 -128 1382 -128 
C 2042 -128 2669 440 2669 1264 
C 2669 2030 2170 2624 1549 2624 
C 1222 2624 947 2503 730 2274 
L 730 3692 
z
" transform="scale(0.015625)"/>
       </defs>
       <use xlink:href="#CMR17-30" transform="scale(0.996264)"/>
       <use xlink:href="#CMMI12-3a" transform="translate(45.690477 0) scale(0.996264)"/>
       <use xlink:href="#CMR17-35" transform="translate(72.787654 0) scale(0.996264)"/>
      </g>
     </g>
    </g>
    <g id="xtick_3">
     <g id="line2d_3">
      <g>
       <use xlink:href="#m124025a7b7" x="394.367533" y="339.84" style="stroke: #000000; stroke-width: 0.8"/>
      </g>
     </g>
     <g id="text_3">
      <!-- $\mathdefault{1.0}$ -->
      <g transform="translate(381.334939 362.456305) scale(0.22 -0.22)">
       <defs>
        <path id="CMR17-31" d="M 1702 4058 
C 1702 4192 1696 4192 1606 4192 
C 1357 3916 979 3827 621 3827 
C 602 3827 570 3827 563 3808 
C 557 3795 557 3782 557 3648 
C 755 3648 1088 3686 1344 3839 
L 1344 461 
C 1344 236 1331 160 781 160 
L 589 160 
L 589 0 
C 896 0 1216 0 1523 0 
C 1830 0 2150 0 2458 0 
L 2458 160 
L 2266 160 
C 1715 160 1702 230 1702 458 
L 1702 4058 
z
" transform="scale(0.015625)"/>
       </defs>
       <use xlink:href="#CMR17-31" transform="scale(0.996264)"/>
       <use xlink:href="#CMMI12-3a" transform="translate(45.690477 0) scale(0.996264)"/>
       <use xlink:href="#CMR17-30" transform="translate(72.787654 0) scale(0.996264)"/>
      </g>
     </g>
    </g>
    <g id="text_4">
     <!-- $s$ -->
     <g transform="translate(239.436999 386.74097) scale(0.22 -0.22)">
      <defs>
       <path id="CMMI12-73" d="M 1459 1280 
C 1568 1261 1741 1223 1779 1216 
C 1862 1192 2150 1090 2150 783 
C 2150 586 1971 70 1229 70 
C 1094 70 614 70 486 436 
C 742 404 870 603 870 745 
C 870 880 781 950 653 950 
C 512 950 326 841 326 552 
C 326 173 710 -64 1222 -64 
C 2195 -64 2483 651 2483 984 
C 2483 1079 2483 1258 2278 1462 
C 2118 1616 1965 1648 1619 1718 
C 1446 1756 1171 1814 1171 2101 
C 1171 2229 1286 2689 1894 2689 
C 2163 2689 2426 2589 2490 2368 
C 2208 2368 2195 2125 2195 2119 
C 2195 1984 2317 1946 2374 1946 
C 2464 1946 2643 2015 2643 2281 
C 2643 2545 2400 2816 1901 2816 
C 1062 2816 838 2160 838 1899 
C 838 1414 1312 1312 1459 1280 
z
" transform="scale(0.015625)"/>
      </defs>
      <use xlink:href="#CMMI12-73" transform="scale(0.996264)"/>
     </g>
    </g>
   </g>
   <g id="matplotlib.axis_2">
    <g id="ytick_1">
     <g id="line2d_4">
      <defs>
       <path id="mbd4f211aa3" d="M 0 0 
L -3.5 0 
" style="stroke: #000000; stroke-width: 0.8"/>
      </defs>
      <g>
       <use xlink:href="#mbd4f211aa3" x="79.627864" y="251.257059" style="stroke: #000000; stroke-width: 0.8"/>
      </g>
     </g>
     <g id="text_5">
      <!-- $\mathdefault{10^{-2}}$ -->
      <g transform="translate(33.079743 259.065212) scale(0.22 -0.22)">
       <defs>
        <path id="CMSY10-0" d="M 4218 1472 
C 4326 1472 4442 1472 4442 1600 
C 4442 1728 4326 1728 4218 1728 
L 755 1728 
C 646 1728 531 1728 531 1600 
C 531 1472 646 1472 755 1472 
L 4218 1472 
z
" transform="scale(0.015625)"/>
        <path id="CMR17-32" d="M 2669 989 
L 2554 989 
C 2490 536 2438 459 2413 420 
C 2381 369 1920 369 1830 369 
L 602 369 
C 832 619 1280 1072 1824 1597 
C 2214 1967 2669 2402 2669 3035 
C 2669 3790 2067 4224 1395 4224 
C 691 4224 262 3604 262 3030 
C 262 2780 448 2748 525 2748 
C 589 2748 781 2787 781 3010 
C 781 3207 614 3264 525 3264 
C 486 3264 448 3258 422 3245 
C 544 3790 915 4058 1306 4058 
C 1862 4058 2227 3617 2227 3035 
C 2227 2479 1901 2000 1536 1584 
L 262 146 
L 262 0 
L 2515 0 
L 2669 989 
z
" transform="scale(0.015625)"/>
       </defs>
       <use xlink:href="#CMR17-31" transform="scale(0.996264)"/>
       <use xlink:href="#CMR17-30" transform="translate(45.690477 0) scale(0.996264)"/>
       <use xlink:href="#CMSY10-0" transform="translate(91.380954 36.153639) scale(0.697382)"/>
       <use xlink:href="#CMR17-32" transform="translate(145.621947 36.153639) scale(0.697382)"/>
      </g>
     </g>
    </g>
    <g id="ytick_2">
     <g id="line2d_5">
      <g>
       <use xlink:href="#mbd4f211aa3" x="79.627864" y="95.192073" style="stroke: #000000; stroke-width: 0.8"/>
      </g>
     </g>
     <g id="text_6">
      <!-- $\mathdefault{10^{-1}}$ -->
      <g transform="translate(33.079743 103.000225) scale(0.22 -0.22)">
       <use xlink:href="#CMR17-31" transform="scale(0.996264)"/>
       <use xlink:href="#CMR17-30" transform="translate(45.690477 0) scale(0.996264)"/>
       <use xlink:href="#CMSY10-0" transform="translate(91.380954 36.153639) scale(0.697382)"/>
       <use xlink:href="#CMR17-31" transform="translate(145.621947 36.153639) scale(0.697382)"/>
      </g>
     </g>
    </g>
    <g id="ytick_3">
     <g id="line2d_6">
      <defs>
       <path id="m330c1f78ba" d="M 0 0 
L -2 0 
" style="stroke: #000000; stroke-width: 0.6"/>
      </defs>
      <g>
       <use xlink:href="#m330c1f78ba" x="79.627864" y="332.860123" style="stroke: #000000; stroke-width: 0.6"/>
      </g>
     </g>
    </g>
    <g id="ytick_4">
     <g id="line2d_7">
      <g>
       <use xlink:href="#m330c1f78ba" x="79.627864" y="313.361561" style="stroke: #000000; stroke-width: 0.6"/>
      </g>
     </g>
    </g>
    <g id="ytick_5">
     <g id="line2d_8">
      <g>
       <use xlink:href="#m330c1f78ba" x="79.627864" y="298.237301" style="stroke: #000000; stroke-width: 0.6"/>
      </g>
     </g>
    </g>
    <g id="ytick_6">
     <g id="line2d_9">
      <g>
       <use xlink:href="#m330c1f78ba" x="79.627864" y="285.879881" style="stroke: #000000; stroke-width: 0.6"/>
      </g>
     </g>
    </g>
    <g id="ytick_7">
     <g id="line2d_10">
      <g>
       <use xlink:href="#m330c1f78ba" x="79.627864" y="275.431832" style="stroke: #000000; stroke-width: 0.6"/>
      </g>
     </g>
    </g>
    <g id="ytick_8">
     <g id="line2d_11">
      <g>
       <use xlink:href="#m330c1f78ba" x="79.627864" y="266.381319" style="stroke: #000000; stroke-width: 0.6"/>
      </g>
     </g>
    </g>
    <g id="ytick_9">
     <g id="line2d_12">
      <g>
       <use xlink:href="#m330c1f78ba" x="79.627864" y="258.398201" style="stroke: #000000; stroke-width: 0.6"/>
      </g>
     </g>
    </g>
    <g id="ytick_10">
     <g id="line2d_13">
      <g>
       <use xlink:href="#m330c1f78ba" x="79.627864" y="204.276817" style="stroke: #000000; stroke-width: 0.6"/>
      </g>
     </g>
    </g>
    <g id="ytick_11">
     <g id="line2d_14">
      <g>
       <use xlink:href="#m330c1f78ba" x="79.627864" y="176.795137" style="stroke: #000000; stroke-width: 0.6"/>
      </g>
     </g>
    </g>
    <g id="ytick_12">
     <g id="line2d_15">
      <g>
       <use xlink:href="#m330c1f78ba" x="79.627864" y="157.296575" style="stroke: #000000; stroke-width: 0.6"/>
      </g>
     </g>
    </g>
    <g id="ytick_13">
     <g id="line2d_16">
      <g>
       <use xlink:href="#m330c1f78ba" x="79.627864" y="142.172315" style="stroke: #000000; stroke-width: 0.6"/>
      </g>
     </g>
    </g>
    <g id="ytick_14">
     <g id="line2d_17">
      <g>
       <use xlink:href="#m330c1f78ba" x="79.627864" y="129.814895" style="stroke: #000000; stroke-width: 0.6"/>
      </g>
     </g>
    </g>
    <g id="ytick_15">
     <g id="line2d_18">
      <g>
       <use xlink:href="#m330c1f78ba" x="79.627864" y="119.366845" style="stroke: #000000; stroke-width: 0.6"/>
      </g>
     </g>
    </g>
    <g id="ytick_16">
     <g id="line2d_19">
      <g>
       <use xlink:href="#m330c1f78ba" x="79.627864" y="110.316333" style="stroke: #000000; stroke-width: 0.6"/>
      </g>
     </g>
    </g>
    <g id="ytick_17">
     <g id="line2d_20">
      <g>
       <use xlink:href="#m330c1f78ba" x="79.627864" y="102.333215" style="stroke: #000000; stroke-width: 0.6"/>
      </g>
     </g>
    </g>
    <g id="ytick_18">
     <g id="line2d_21">
      <g>
       <use xlink:href="#m330c1f78ba" x="79.627864" y="48.211831" style="stroke: #000000; stroke-width: 0.6"/>
      </g>
     </g>
    </g>
    <g id="ytick_19">
     <g id="line2d_22">
      <g>
       <use xlink:href="#m330c1f78ba" x="79.627864" y="20.730151" style="stroke: #000000; stroke-width: 0.6"/>
      </g>
     </g>
    </g>
    <g id="text_7">
     <!-- $\varepsilon(s)$ -->
     <g transform="translate(23.618624 191.357779) rotate(-90) scale(0.22 -0.22)">
      <defs>
       <path id="CMMI12-22" d="M 890 1427 
C 1094 1345 1312 1345 1434 1345 
C 1600 1345 1933 1345 1933 1550 
C 1933 1678 1811 1728 1485 1728 
C 1325 1728 1133 1709 909 1613 
C 710 1708 634 1852 634 1990 
C 634 2379 1261 2606 1830 2606 
C 1939 2606 2170 2606 2438 2411 
C 2477 2387 2496 2367 2541 2367 
C 2618 2367 2701 2449 2701 2526 
C 2701 2639 2330 2880 1888 2880 
C 1171 2880 493 2449 493 1972 
C 493 1734 646 1586 755 1509 
C 384 1301 166 961 166 652 
C 166 219 563 -128 1178 -128 
C 2022 -128 2362 424 2362 512 
C 2362 543 2336 568 2304 568 
C 2272 568 2259 549 2234 512 
C 2163 395 1997 146 1235 146 
C 838 146 314 245 314 686 
C 314 898 474 1214 890 1427 
z
M 1088 1518 
C 1261 1600 1427 1600 1472 1600 
C 1651 1600 1683 1583 1786 1545 
C 1677 1472 1664 1472 1434 1472 
C 1318 1472 1216 1472 1088 1518 
z
" transform="scale(0.015625)"/>
       <path id="CMR17-28" d="M 1958 -1561 
C 1958 -1555 1958 -1542 1939 -1523 
C 1645 -1224 858 -407 858 1581 
C 858 3569 1632 4379 1946 4697 
C 1946 4704 1958 4717 1958 4736 
C 1958 4755 1939 4768 1914 4768 
C 1843 4768 1299 4296 986 3594 
C 666 2887 576 2199 576 1588 
C 576 1128 621 351 1005 -471 
C 1312 -1135 1837 -1600 1914 -1600 
C 1946 -1600 1958 -1587 1958 -1561 
z
" transform="scale(0.015625)"/>
       <path id="CMR17-29" d="M 1683 1581 
C 1683 2040 1638 2817 1254 3639 
C 947 4303 422 4768 346 4768 
C 326 4768 301 4761 301 4729 
C 301 4717 307 4710 314 4697 
C 621 4378 1402 3568 1402 1584 
C 1402 -407 627 -1217 314 -1537 
C 307 -1549 301 -1556 301 -1568 
C 301 -1600 326 -1600 346 -1600 
C 416 -1600 960 -1128 1274 -426 
C 1594 281 1683 969 1683 1581 
z
" transform="scale(0.015625)"/>
      </defs>
      <use xlink:href="#CMMI12-22" transform="scale(0.996264)"/>
      <use xlink:href="#CMR17-28" transform="translate(45.650192 0) scale(0.996264)"/>
      <use xlink:href="#CMMI12-73" transform="translate(80.93096 0) scale(0.996264)"/>
      <use xlink:href="#CMR17-29" transform="translate(126.881008 0) scale(0.996264)"/>
     </g>
    </g>
   </g>
   <g id="line2d_23">
    <path d="M 94.615467 22.320038 
L 97.612988 22.693546 
L 100.610509 23.310327 
L 103.608029 23.964744 
L 106.60555 24.500875 
L 109.603071 24.69743 
L 112.600591 24.706039 
L 115.598112 24.961125 
L 118.595632 25.536407 
L 121.593153 26.239218 
L 124.590674 26.96063 
L 127.588194 27.493277 
L 130.585715 27.722957 
L 133.583236 27.828812 
L 136.580756 28.204385 
L 139.578277 28.862323 
L 142.575798 29.653303 
L 145.573318 30.426439 
L 148.570839 31.135207 
L 151.56836 31.563183 
L 154.56588 31.791671 
L 157.563401 32.152674 
L 160.560922 32.807158 
L 163.558442 33.650942 
L 166.555963 34.56079 
L 169.553484 35.412804 
L 172.551004 36.206583 
L 175.548525 36.786729 
L 178.546046 37.190109 
L 181.543566 37.680417 
L 184.541087 38.483987 
L 187.538608 39.445125 
L 190.536128 40.497898 
L 193.533649 41.49887 
L 196.53117 42.473299 
L 199.52869 43.318109 
L 202.526211 44.021439 
L 205.523732 44.75733 
L 208.521252 45.563246 
L 211.518773 46.594265 
L 214.516294 47.647135 
L 217.513814 48.907121 
L 220.511335 50.136644 
L 223.508856 51.347885 
L 226.506376 52.377063 
L 229.503897 53.398594 
L 232.501418 54.496084 
L 235.498938 55.750641 
L 238.496459 57.093608 
L 241.49398 58.353367 
L 244.4915 59.576171 
L 247.489021 60.912013 
L 250.486542 62.34009 
L 253.484062 63.945069 
L 256.481583 65.597062 
L 259.479104 67.163045 
L 262.476624 68.723155 
L 265.474145 70.255509 
L 268.471666 71.811814 
L 271.469186 73.832572 
L 274.466707 76.157894 
L 277.464228 78.0255 
L 280.461748 79.82988 
L 283.459269 82.078 
L 286.45679 84.131803 
L 289.45431 86.205448 
L 292.451831 88.543644 
L 295.449351 91.007969 
L 298.446872 93.261077 
L 301.444393 95.715774 
L 304.441913 98.67359 
L 307.439434 101.648578 
L 310.436955 104.640812 
L 313.434475 107.802315 
L 316.431996 111.240765 
L 319.429517 114.940462 
L 322.427037 118.533865 
L 325.424558 122.290871 
L 328.422079 126.366244 
L 331.419599 130.581628 
L 334.41712 135.00749 
L 337.414641 139.728632 
L 340.412161 144.789654 
L 343.409682 150.259213 
L 346.407203 155.996416 
L 349.404723 161.930089 
L 352.402244 168.501754 
L 355.399765 176.222593 
L 358.397285 185.187366 
L 361.394806 195.136922 
L 364.392327 205.70033 
L 367.389847 216.772771 
L 370.387368 228.508368 
L 373.384889 241.242115 
L 376.382409 255.281234 
L 379.37993 270.653228 
L 382.377451 286.90783 
L 385.374971 302.86372 
L 388.372492 316.353995 
L 391.370013 324.396617 
L 394.367533 324.72 
" clip-path="url(#p7fc66cddea)" style="fill: none; stroke: #fda85a; stroke-width: 3; stroke-linecap: square"/>
   </g>
   <g id="line2d_24">
    <path d="M 94.615467 22.558192 
L 97.643266 23.133839 
L 100.671064 23.828593 
L 103.698863 24.505551 
L 106.726662 24.951139 
L 109.75446 25.08232 
L 112.782259 25.225337 
L 115.810058 25.690872 
L 118.837856 26.401572 
L 121.865655 27.158663 
L 124.893454 27.863422 
L 127.921252 28.326143 
L 130.949051 28.526165 
L 133.97685 28.773175 
L 137.004648 29.318623 
L 140.032447 30.100279 
L 143.060246 30.935467 
L 146.088044 31.746837 
L 149.115843 32.389199 
L 152.143642 32.786252 
L 155.17144 33.08433 
L 158.199239 33.585131 
L 161.227037 34.360014 
L 164.254836 35.289315 
L 167.282635 36.227412 
L 170.310433 37.116156 
L 173.338232 37.855768 
L 176.366031 38.416553 
L 179.393829 38.908422 
L 182.421628 39.54463 
L 185.449427 40.409153 
L 188.477225 41.450541 
L 191.505024 42.545225 
L 194.532823 43.602234 
L 197.560621 44.571231 
L 200.58842 45.432734 
L 203.616219 46.218538 
L 206.644017 47.014353 
L 209.671816 47.923423 
L 212.699614 48.991725 
L 215.727413 50.201932 
L 218.755212 51.482277 
L 221.78301 52.754951 
L 224.810809 53.974256 
L 227.838608 55.139105 
L 230.866406 56.283688 
L 233.894205 57.447745 
L 236.922004 58.674231 
L 239.949802 59.998174 
L 242.977601 61.431309 
L 246.0054 62.952382 
L 249.033198 64.518431 
L 252.060997 66.086328 
L 255.088796 67.641873 
L 258.116594 69.203706 
L 261.144393 70.80396 
L 264.172191 72.469814 
L 267.19999 74.218987 
L 270.227789 76.060251 
L 273.255587 77.996152 
L 276.283386 80.028846 
L 279.311185 82.144479 
L 282.338983 84.315754 
L 285.366782 86.515138 
L 288.394581 88.732686 
L 291.422379 90.982968 
L 294.450178 93.295186 
L 297.477977 95.703466 
L 300.505775 98.232787 
L 303.533574 100.904931 
L 306.561373 103.726747 
L 309.589171 106.708638 
L 312.61697 109.853625 
L 315.644768 113.161394 
L 318.672567 116.628134 
L 321.700366 120.25155 
L 324.728164 124.033654 
L 327.755963 127.987386 
L 330.783762 132.135944 
L 333.81156 136.512056 
L 336.839359 141.157409 
L 339.867158 146.118221 
L 342.894956 151.444057 
L 345.922755 157.188081 
L 348.950554 163.408762 
L 351.978352 170.171162 
L 355.006151 177.54807 
L 358.03395 185.622907 
L 361.061748 194.491274 
L 364.089547 204.260452 
L 367.117345 215.046172 
L 370.145144 226.966262 
L 373.172943 240.117849 
L 376.200741 254.528705 
L 379.22854 270.057118 
L 382.256339 286.20131 
L 385.284137 301.795095 
L 388.311936 314.721029 
L 391.339735 322.185673 
L 394.367533 322.185673 
" clip-path="url(#p7fc66cddea)" style="fill: none; stroke-dasharray: 7.4,3.2; stroke-dashoffset: 0; stroke: #00a645; stroke-width: 2"/>
   </g>
   <g id="patch_3">
    <path d="M 79.627864 339.84 
L 79.627864 7.2 
" style="fill: none; stroke: #000000; stroke-width: 0.8; stroke-linejoin: miter; stroke-linecap: square"/>
   </g>
   <g id="patch_4">
    <path d="M 409.355137 339.84 
L 409.355137 7.2 
" style="fill: none; stroke: #000000; stroke-width: 0.8; stroke-linejoin: miter; stroke-linecap: square"/>
   </g>
   <g id="patch_5">
    <path d="M 79.627864 339.84 
L 409.355137 339.84 
" style="fill: none; stroke: #000000; stroke-width: 0.8; stroke-linejoin: miter; stroke-linecap: square"/>
   </g>
   <g id="patch_6">
    <path d="M 79.627864 7.2 
L 409.355137 7.2 
" style="fill: none; stroke: #000000; stroke-width: 0.8; stroke-linejoin: miter; stroke-linecap: square"/>
   </g>
  </g>
  <g id="axes_2">
   <g id="patch_7">
    <path d="M 475.300591 339.84 
L 805.027864 339.84 
L 805.027864 7.2 
L 475.300591 7.2 
L 475.300591 339.84 
z
" style="fill: none"/>
   </g>
   <g id="matplotlib.axis_3">
    <g id="xtick_4">
     <g id="line2d_25">
      <g>
       <use xlink:href="#m124025a7b7" x="490.288194" y="339.84" style="stroke: #000000; stroke-width: 0.8"/>
      </g>
     </g>
     <g id="text_8">
      <!-- $\mathdefault{0.0}$ -->
      <g transform="translate(477.2556 362.456305) scale(0.22 -0.22)">
       <use xlink:href="#CMR17-30" transform="scale(0.996264)"/>
       <use xlink:href="#CMMI12-3a" transform="translate(45.690477 0) scale(0.996264)"/>
       <use xlink:href="#CMR17-30" transform="translate(72.787654 0) scale(0.996264)"/>
      </g>
     </g>
    </g>
    <g id="xtick_5">
     <g id="line2d_26">
      <g>
       <use xlink:href="#m124025a7b7" x="640.164228" y="339.84" style="stroke: #000000; stroke-width: 0.8"/>
      </g>
     </g>
     <g id="text_9">
      <!-- $\mathdefault{0.5}$ -->
      <g transform="translate(627.131633 362.456305) scale(0.22 -0.22)">
       <use xlink:href="#CMR17-30" transform="scale(0.996264)"/>
       <use xlink:href="#CMMI12-3a" transform="translate(45.690477 0) scale(0.996264)"/>
       <use xlink:href="#CMR17-35" transform="translate(72.787654 0) scale(0.996264)"/>
      </g>
     </g>
    </g>
    <g id="xtick_6">
     <g id="line2d_27">
      <g>
       <use xlink:href="#m124025a7b7" x="790.040261" y="339.84" style="stroke: #000000; stroke-width: 0.8"/>
      </g>
     </g>
     <g id="text_10">
      <!-- $\mathdefault{1.0}$ -->
      <g transform="translate(777.007666 362.456305) scale(0.22 -0.22)">
       <use xlink:href="#CMR17-31" transform="scale(0.996264)"/>
       <use xlink:href="#CMMI12-3a" transform="translate(45.690477 0) scale(0.996264)"/>
       <use xlink:href="#CMR17-30" transform="translate(72.787654 0) scale(0.996264)"/>
      </g>
     </g>
    </g>
    <g id="text_11">
     <!-- $s$ -->
     <g transform="translate(635.109726 386.74097) scale(0.22 -0.22)">
      <use xlink:href="#CMMI12-73" transform="scale(0.996264)"/>
     </g>
    </g>
   </g>
   <g id="matplotlib.axis_4">
    <g id="ytick_20">
     <g id="line2d_28">
      <g>
       <use xlink:href="#mbd4f211aa3" x="475.300591" y="251.257059" style="stroke: #000000; stroke-width: 0.8"/>
      </g>
     </g>
     <g id="text_12">
      <!-- $\mathdefault{10^{-2}}$ -->
      <g transform="translate(428.75247 259.065212) scale(0.22 -0.22)">
       <use xlink:href="#CMR17-31" transform="scale(0.996264)"/>
       <use xlink:href="#CMR17-30" transform="translate(45.690477 0) scale(0.996264)"/>
       <use xlink:href="#CMSY10-0" transform="translate(91.380954 36.153639) scale(0.697382)"/>
       <use xlink:href="#CMR17-32" transform="translate(145.621947 36.153639) scale(0.697382)"/>
      </g>
     </g>
    </g>
    <g id="ytick_21">
     <g id="line2d_29">
      <g>
       <use xlink:href="#mbd4f211aa3" x="475.300591" y="95.192073" style="stroke: #000000; stroke-width: 0.8"/>
      </g>
     </g>
     <g id="text_13">
      <!-- $\mathdefault{10^{-1}}$ -->
      <g transform="translate(428.75247 103.000225) scale(0.22 -0.22)">
       <use xlink:href="#CMR17-31" transform="scale(0.996264)"/>
       <use xlink:href="#CMR17-30" transform="translate(45.690477 0) scale(0.996264)"/>
       <use xlink:href="#CMSY10-0" transform="translate(91.380954 36.153639) scale(0.697382)"/>
       <use xlink:href="#CMR17-31" transform="translate(145.621947 36.153639) scale(0.697382)"/>
      </g>
     </g>
    </g>
    <g id="ytick_22">
     <g id="line2d_30">
      <g>
       <use xlink:href="#m330c1f78ba" x="475.300591" y="332.860123" style="stroke: #000000; stroke-width: 0.6"/>
      </g>
     </g>
    </g>
    <g id="ytick_23">
     <g id="line2d_31">
      <g>
       <use xlink:href="#m330c1f78ba" x="475.300591" y="313.361561" style="stroke: #000000; stroke-width: 0.6"/>
      </g>
     </g>
    </g>
    <g id="ytick_24">
     <g id="line2d_32">
      <g>
       <use xlink:href="#m330c1f78ba" x="475.300591" y="298.237301" style="stroke: #000000; stroke-width: 0.6"/>
      </g>
     </g>
    </g>
    <g id="ytick_25">
     <g id="line2d_33">
      <g>
       <use xlink:href="#m330c1f78ba" x="475.300591" y="285.879881" style="stroke: #000000; stroke-width: 0.6"/>
      </g>
     </g>
    </g>
    <g id="ytick_26">
     <g id="line2d_34">
      <g>
       <use xlink:href="#m330c1f78ba" x="475.300591" y="275.431832" style="stroke: #000000; stroke-width: 0.6"/>
      </g>
     </g>
    </g>
    <g id="ytick_27">
     <g id="line2d_35">
      <g>
       <use xlink:href="#m330c1f78ba" x="475.300591" y="266.381319" style="stroke: #000000; stroke-width: 0.6"/>
      </g>
     </g>
    </g>
    <g id="ytick_28">
     <g id="line2d_36">
      <g>
       <use xlink:href="#m330c1f78ba" x="475.300591" y="258.398201" style="stroke: #000000; stroke-width: 0.6"/>
      </g>
     </g>
    </g>
    <g id="ytick_29">
     <g id="line2d_37">
      <g>
       <use xlink:href="#m330c1f78ba" x="475.300591" y="204.276817" style="stroke: #000000; stroke-width: 0.6"/>
      </g>
     </g>
    </g>
    <g id="ytick_30">
     <g id="line2d_38">
      <g>
       <use xlink:href="#m330c1f78ba" x="475.300591" y="176.795137" style="stroke: #000000; stroke-width: 0.6"/>
      </g>
     </g>
    </g>
    <g id="ytick_31">
     <g id="line2d_39">
      <g>
       <use xlink:href="#m330c1f78ba" x="475.300591" y="157.296575" style="stroke: #000000; stroke-width: 0.6"/>
      </g>
     </g>
    </g>
    <g id="ytick_32">
     <g id="line2d_40">
      <g>
       <use xlink:href="#m330c1f78ba" x="475.300591" y="142.172315" style="stroke: #000000; stroke-width: 0.6"/>
      </g>
     </g>
    </g>
    <g id="ytick_33">
     <g id="line2d_41">
      <g>
       <use xlink:href="#m330c1f78ba" x="475.300591" y="129.814895" style="stroke: #000000; stroke-width: 0.6"/>
      </g>
     </g>
    </g>
    <g id="ytick_34">
     <g id="line2d_42">
      <g>
       <use xlink:href="#m330c1f78ba" x="475.300591" y="119.366845" style="stroke: #000000; stroke-width: 0.6"/>
      </g>
     </g>
    </g>
    <g id="ytick_35">
     <g id="line2d_43">
      <g>
       <use xlink:href="#m330c1f78ba" x="475.300591" y="110.316333" style="stroke: #000000; stroke-width: 0.6"/>
      </g>
     </g>
    </g>
    <g id="ytick_36">
     <g id="line2d_44">
      <g>
       <use xlink:href="#m330c1f78ba" x="475.300591" y="102.333215" style="stroke: #000000; stroke-width: 0.6"/>
      </g>
     </g>
    </g>
    <g id="ytick_37">
     <g id="line2d_45">
      <g>
       <use xlink:href="#m330c1f78ba" x="475.300591" y="48.211831" style="stroke: #000000; stroke-width: 0.6"/>
      </g>
     </g>
    </g>
    <g id="ytick_38">
     <g id="line2d_46">
      <g>
       <use xlink:href="#m330c1f78ba" x="475.300591" y="20.730151" style="stroke: #000000; stroke-width: 0.6"/>
      </g>
     </g>
    </g>
   </g>
   <g id="line2d_47">
    <path d="M 490.288194 22.32 
L 493.285715 22.696434 
L 496.283236 23.309755 
L 499.280756 23.965371 
L 502.278277 24.498742 
L 505.275798 24.700435 
L 508.273318 24.709018 
L 511.270839 24.957503 
L 514.26836 25.531685 
L 517.26588 26.241707 
L 520.263401 26.954988 
L 523.260922 27.497489 
L 526.258442 27.722435 
L 529.255963 27.839525 
L 532.253484 28.202344 
L 535.251004 28.866632 
L 538.248525 29.645446 
L 541.246046 30.461935 
L 544.243566 31.1499 
L 547.241087 31.566 
L 550.238608 31.790474 
L 553.236128 32.160332 
L 556.233649 32.798399 
L 559.23117 33.65975 
L 562.22869 34.542968 
L 565.226211 35.395669 
L 568.223732 36.177438 
L 571.221252 36.742514 
L 574.218773 37.161151 
L 577.216294 37.649377 
L 580.213814 38.415279 
L 583.211335 39.417867 
L 586.208856 40.50144 
L 589.206376 41.478891 
L 592.203897 42.452775 
L 595.201418 43.305155 
L 598.198938 44.001089 
L 601.196459 44.691777 
L 604.19398 45.513868 
L 607.1915 46.482489 
L 610.189021 47.672189 
L 613.186542 48.861748 
L 616.184062 50.051437 
L 619.181583 51.22541 
L 622.179104 52.367277 
L 625.176624 53.342523 
L 628.174145 54.454366 
L 631.171666 55.628495 
L 634.169186 56.907005 
L 637.166707 58.217787 
L 640.164228 59.62937 
L 643.161748 61.210232 
L 646.159269 62.842841 
L 649.15679 64.412009 
L 652.15431 65.818641 
L 655.151831 67.334915 
L 658.149351 69.024637 
L 661.146872 70.671823 
L 664.144393 72.473321 
L 667.141913 74.311981 
L 670.139434 76.305113 
L 673.136955 78.49768 
L 676.134475 80.458707 
L 679.131996 82.399184 
L 682.129517 84.641006 
L 685.127037 86.829807 
L 688.124558 88.964956 
L 691.122079 91.199528 
L 694.119599 93.703996 
L 697.11712 96.350873 
L 700.114641 99.219998 
L 703.112161 102.142462 
L 706.109682 104.993786 
L 709.107203 108.078618 
L 712.104723 111.551225 
L 715.102244 115.164522 
L 718.099765 118.781511 
L 721.097285 122.351927 
L 724.094806 125.93823 
L 727.092327 129.954956 
L 730.089847 134.907147 
L 733.087368 140.357162 
L 736.084889 145.730936 
L 739.082409 151.061379 
L 742.07993 156.745572 
L 745.077451 163.075078 
L 748.074971 170.137866 
L 751.072492 177.710568 
L 754.070013 185.598721 
L 757.067533 194.045091 
L 760.065054 203.518946 
L 763.062575 214.405295 
L 766.060095 226.780623 
L 769.057616 240.598692 
L 772.055137 255.613465 
L 775.052657 271.451278 
L 778.050178 287.532045 
L 781.047699 302.846334 
L 784.045219 315.615376 
L 787.04274 323.284225 
L 790.040261 323.68807 
" clip-path="url(#p745309d04b)" style="fill: none; stroke: #800080; stroke-width: 3; stroke-linecap: square"/>
   </g>
   <g id="line2d_48">
    <path d="M 490.288194 22.558192 
L 493.315993 23.133839 
L 496.343792 23.828593 
L 499.37159 24.505551 
L 502.399389 24.951139 
L 505.427188 25.08232 
L 508.454986 25.225337 
L 511.482785 25.690872 
L 514.510584 26.401572 
L 517.538382 27.158663 
L 520.566181 27.863422 
L 523.59398 28.326143 
L 526.621778 28.526165 
L 529.649577 28.773175 
L 532.677376 29.318623 
L 535.705174 30.100279 
L 538.732973 30.935467 
L 541.760771 31.746837 
L 544.78857 32.389199 
L 547.816369 32.786252 
L 550.844167 33.08433 
L 553.871966 33.585131 
L 556.899765 34.360014 
L 559.927563 35.289315 
L 562.955362 36.227412 
L 565.983161 37.116156 
L 569.010959 37.855768 
L 572.038758 38.416553 
L 575.066557 38.908422 
L 578.094355 39.54463 
L 581.122154 40.409153 
L 584.149953 41.450541 
L 587.177751 42.545225 
L 590.20555 43.602234 
L 593.233348 44.571231 
L 596.261147 45.432734 
L 599.288946 46.218538 
L 602.316744 47.014353 
L 605.344543 47.923423 
L 608.372342 48.991725 
L 611.40014 50.201932 
L 614.427939 51.482277 
L 617.455738 52.754951 
L 620.483536 53.974256 
L 623.511335 55.139105 
L 626.539134 56.283688 
L 629.566932 57.447745 
L 632.594731 58.674231 
L 635.62253 59.998174 
L 638.650328 61.431309 
L 641.678127 62.952382 
L 644.705926 64.518431 
L 647.733724 66.086328 
L 650.761523 67.641873 
L 653.789321 69.203706 
L 656.81712 70.80396 
L 659.844919 72.469814 
L 662.872717 74.218987 
L 665.900516 76.060251 
L 668.928315 77.996152 
L 671.956113 80.028846 
L 674.983912 82.144479 
L 678.011711 84.315754 
L 681.039509 86.515138 
L 684.067308 88.732686 
L 687.095107 90.982968 
L 690.122905 93.295186 
L 693.150704 95.703466 
L 696.178503 98.232787 
L 699.206301 100.904931 
L 702.2341 103.726747 
L 705.261898 106.708638 
L 708.289697 109.853625 
L 711.317496 113.161394 
L 714.345294 116.628134 
L 717.373093 120.25155 
L 720.400892 124.033654 
L 723.42869 127.987386 
L 726.456489 132.135944 
L 729.484288 136.512056 
L 732.512086 141.157409 
L 735.539885 146.118221 
L 738.567684 151.444057 
L 741.595482 157.188081 
L 744.623281 163.408762 
L 747.65108 170.171162 
L 750.678878 177.54807 
L 753.706677 185.622907 
L 756.734475 194.491274 
L 759.762274 204.260452 
L 762.790073 215.046172 
L 765.817871 226.966262 
L 768.84567 240.117849 
L 771.873469 254.528705 
L 774.901267 270.057118 
L 777.929066 286.20131 
L 780.956865 301.795095 
L 783.984663 314.721029 
L 787.012462 322.185673 
L 790.040261 322.185673 
" clip-path="url(#p745309d04b)" style="fill: none; stroke-dasharray: 7.4,3.2; stroke-dashoffset: 0; stroke: #00a645; stroke-width: 2"/>
   </g>
   <g id="patch_8">
    <path d="M 475.300591 339.84 
L 475.300591 7.2 
" style="fill: none; stroke: #000000; stroke-width: 0.8; stroke-linejoin: miter; stroke-linecap: square"/>
   </g>
   <g id="patch_9">
    <path d="M 805.027864 339.84 
L 805.027864 7.2 
" style="fill: none; stroke: #000000; stroke-width: 0.8; stroke-linejoin: miter; stroke-linecap: square"/>
   </g>
   <g id="patch_10">
    <path d="M 475.300591 339.84 
L 805.027864 339.84 
" style="fill: none; stroke: #000000; stroke-width: 0.8; stroke-linejoin: miter; stroke-linecap: square"/>
   </g>
   <g id="patch_11">
    <path d="M 475.300591 7.2 
L 805.027864 7.2 
" style="fill: none; stroke: #000000; stroke-width: 0.8; stroke-linejoin: miter; stroke-linecap: square"/>
   </g>
  </g>
  <g id="text_14">
   <!-- dQA -->
   <g transform="translate(404.31367 -17.260444) scale(0.264 -0.264)">
    <defs>
     <path id="NimbusSanL-Regu-64" d="M 3168 4672 
L 2637 4672 
L 2637 2937 
C 2413 3276 2054 3456 1606 3456 
C 736 3456 166 2761 166 1695 
C 166 566 723 -128 1626 -128 
C 2086 -128 2406 45 2694 461 
L 2694 -2 
L 3168 -2 
L 3168 4672 
z
M 1696 2956 
C 2272 2956 2637 2447 2637 1651 
C 2637 881 2266 372 1702 372 
C 1114 372 723 887 723 1664 
C 723 2440 1114 2956 1696 2956 
z
" transform="scale(0.015625)"/>
     <path id="NimbusSanL-Regu-51" d="M 4691 13 
L 4090 505 
C 4531 990 4749 1590 4749 2324 
C 4749 3766 3840 4750 2496 4750 
C 1152 4750 243 3766 243 2311 
C 243 855 1152 -128 2496 -128 
C 2957 -128 3341 -26 3718 199 
L 4390 -359 
L 4691 13 
z
M 3078 1330 
L 2784 971 
L 3258 576 
C 2982 449 2771 397 2490 397 
C 1498 397 838 1163 838 2311 
C 838 3459 1504 4224 2496 4224 
C 3488 4224 4154 3459 4154 2317 
C 4154 1717 3994 1252 3648 863 
L 3078 1330 
z
" transform="scale(0.015625)"/>
     <path id="NimbusSanL-Regu-41" d="M 3034 1408 
L 3514 0 
L 4179 0 
L 2541 4672 
L 1773 4672 
L 109 0 
L 742 0 
L 1235 1408 
L 3034 1408 
z
M 2867 1908 
L 1382 1908 
L 2150 4032 
L 2867 1908 
z
" transform="scale(0.015625)"/>
    </defs>
    <use xlink:href="#NimbusSanL-Regu-64" transform="scale(0.996264)"/>
    <use xlink:href="#NimbusSanL-Regu-51" transform="translate(55.391677 0) scale(0.996264)"/>
    <use xlink:href="#NimbusSanL-Regu-41" transform="translate(132.900047 0) scale(0.996264)"/>
   </g>
  </g>
  <g id="legend_1">
   <g id="patch_12">
    <path d="M 158.174412 436.650264 
L 703.081315 436.650264 
L 703.081315 398.36 
L 158.174412 398.36 
z
" style="fill: #ffffff; opacity: 0.8; stroke: #cccccc; stroke-linejoin: miter"/>
   </g>
   <g id="line2d_49">
    <path d="M 166.974412 415.481903 
L 188.974412 415.481903 
L 210.974412 415.481903 
" style="fill: none; stroke: #fda85a; stroke-width: 3; stroke-linecap: square"/>
   </g>
   <g id="text_15">
    <!-- MPS (quimb) -->
    <g transform="translate(228.574412 423.181903) scale(0.22 -0.22)">
     <defs>
      <path id="NimbusSanL-Regu-4d" d="M 2995 -2 
L 4307 3915 
L 4307 -2 
L 4870 -2 
L 4870 4672 
L 4045 4672 
L 2688 601 
L 1306 4672 
L 480 4672 
L 480 -2 
L 1043 -2 
L 1043 3915 
L 2368 -2 
L 2995 -2 
z
" transform="scale(0.015625)"/>
      <path id="NimbusSanL-Regu-50" d="M 1178 1984 
L 2643 1984 
C 3008 1984 3296 2093 3546 2316 
C 3827 2573 3949 2873 3949 3303 
C 3949 4179 3430 4672 2509 4672 
L 582 4672 
L 582 -14 
L 1178 -14 
L 1178 1984 
z
M 1178 2510 
L 1178 4146 
L 2419 4146 
C 2989 4146 3328 3839 3328 3327 
C 3328 2816 2989 2510 2419 2510 
L 1178 2510 
z
" transform="scale(0.015625)"/>
      <path id="NimbusSanL-Regu-53" d="M 3814 3335 
C 3808 4255 3181 4788 2106 4788 
C 1082 4788 448 4260 448 3410 
C 448 2837 749 2477 1363 2316 
L 2522 2007 
C 3110 1852 3379 1614 3379 1247 
C 3379 995 3245 738 3046 597 
C 2861 468 2566 397 2189 397 
C 1683 397 1338 520 1114 790 
C 941 996 864 1222 870 1511 
L 307 1511 
C 314 1081 397 798 582 540 
C 902 103 1440 -128 2150 -128 
C 2707 -128 3162 1 3462 232 
C 3776 483 3974 901 3974 1307 
C 3974 1886 3616 2311 2982 2485 
L 1811 2801 
C 1248 2955 1043 3135 1043 3496 
C 1043 3972 1459 4288 2086 4288 
C 2829 4288 3245 3947 3251 3335 
L 3814 3335 
z
" transform="scale(0.015625)"/>
      <path id="NimbusSanL-Regu-28" d="M 1510 4672 
C 870 3830 467 2660 467 1651 
C 467 636 870 -534 1510 -1376 
L 1862 -1376 
C 1299 -457 986 623 986 1651 
C 986 2673 1299 3759 1862 4672 
L 1510 4672 
z
" transform="scale(0.015625)"/>
      <path id="NimbusSanL-Regu-71" d="M 3168 -1408 
L 3168 3349 
L 2694 3349 
L 2694 2899 
C 2445 3251 2067 3444 1626 3444 
C 742 3444 166 2715 166 1593 
C 166 497 717 -180 1600 -180 
C 2067 -180 2387 -14 2637 352 
L 2637 -1408 
L 3168 -1408 
z
M 1702 2944 
C 2272 2944 2637 2427 2637 1612 
C 2637 837 2266 320 1702 320 
C 1114 320 723 843 723 1632 
C 723 2414 1114 2944 1702 2944 
z
" transform="scale(0.015625)"/>
      <path id="NimbusSanL-Regu-75" d="M 3085 33 
L 3085 3392 
L 2554 3392 
L 2554 1479 
C 2554 790 2195 340 1638 340 
C 1216 340 947 597 947 1003 
L 947 3392 
L 416 3392 
L 416 792 
C 416 232 832 -128 1485 -128 
C 1978 -128 2291 45 2605 488 
L 2605 33 
L 3085 33 
z
" transform="scale(0.015625)"/>
      <path id="NimbusSanL-Regu-69" d="M 960 3359 
L 429 3359 
L 429 0 
L 960 0 
L 960 3359 
z
M 960 4672 
L 422 4672 
L 422 3999 
L 960 3999 
L 960 4672 
z
" transform="scale(0.015625)"/>
      <path id="NimbusSanL-Regu-6d" d="M 448 3359 
L 448 0 
L 986 0 
L 986 2109 
C 986 2597 1338 2988 1773 2988 
C 2170 2988 2394 2744 2394 2314 
L 2394 0 
L 2931 0 
L 2931 2109 
C 2931 2597 3283 2988 3718 2988 
C 4109 2988 4339 2738 4339 2314 
L 4339 0 
L 4877 0 
L 4877 2520 
C 4877 3122 4531 3456 3904 3456 
C 3456 3456 3187 3321 2874 2943 
C 2675 3302 2406 3456 1971 3456 
C 1523 3456 1229 3289 941 2885 
L 941 3359 
L 448 3359 
z
" transform="scale(0.015625)"/>
      <path id="NimbusSanL-Regu-62" d="M 346 4672 
L 346 -2 
L 826 -2 
L 826 448 
C 1082 57 1421 -128 1888 -128 
C 2771 -128 3347 592 3347 1702 
C 3347 2786 2797 3456 1914 3456 
C 1453 3456 1126 3282 877 2905 
L 877 4672 
L 346 4672 
z
M 1811 2956 
C 2406 2956 2790 2440 2790 1645 
C 2790 887 2394 372 1811 372 
C 1248 372 877 881 877 1664 
C 877 2447 1248 2956 1811 2956 
z
" transform="scale(0.015625)"/>
      <path id="NimbusSanL-Regu-29" d="M 595 -1376 
C 1235 -534 1638 636 1638 1644 
C 1638 2660 1235 3830 595 4672 
L 243 4672 
C 806 3753 1120 2673 1120 1644 
C 1120 623 806 -464 243 -1376 
L 595 -1376 
z
" transform="scale(0.015625)"/>
     </defs>
     <use xlink:href="#NimbusSanL-Regu-4d" transform="scale(0.996264)"/>
     <use xlink:href="#NimbusSanL-Regu-50" transform="translate(82.98843 0) scale(0.996264)"/>
     <use xlink:href="#NimbusSanL-Regu-53" transform="translate(149.438461 0) scale(0.996264)"/>
     <use xlink:href="#NimbusSanL-Regu-28" transform="translate(243.583662 0) scale(0.996264)"/>
     <use xlink:href="#NimbusSanL-Regu-71" transform="translate(276.758892 0) scale(0.996264)"/>
     <use xlink:href="#NimbusSanL-Regu-75" transform="translate(332.150569 0) scale(0.996264)"/>
     <use xlink:href="#NimbusSanL-Regu-69" transform="translate(387.542246 0) scale(0.996264)"/>
     <use xlink:href="#NimbusSanL-Regu-6d" transform="translate(409.65903 0) scale(0.996264)"/>
     <use xlink:href="#NimbusSanL-Regu-62" transform="translate(492.64746 0) scale(0.996264)"/>
     <use xlink:href="#NimbusSanL-Regu-29" transform="translate(548.039137 0) scale(0.996264)"/>
    </g>
   </g>
   <g id="line2d_50">
    <path d="M 400.441499 415.481903 
L 422.441499 415.481903 
L 444.441499 415.481903 
" style="fill: none; stroke-dasharray: 7.4,3.2; stroke-dashoffset: 0; stroke: #00a645; stroke-width: 2"/>
   </g>
   <g id="text_16">
    <!-- ED -->
    <g transform="translate(462.041499 423.181903) scale(0.22 -0.22)">
     <defs>
      <path id="NimbusSanL-Regu-45" d="M 1171 2112 
L 3712 2112 
L 3712 2638 
L 1171 2638 
L 1171 4146 
L 3808 4146 
L 3808 4672 
L 576 4672 
L 576 0 
L 3923 0 
L 3923 526 
L 1171 526 
L 1171 2112 
z
" transform="scale(0.015625)"/>
      <path id="NimbusSanL-Regu-44" d="M 570 0 
L 2368 0 
C 3546 0 4269 885 4269 2339 
C 4269 3787 3552 4672 2368 4672 
L 570 4672 
L 570 0 
z
M 1165 526 
L 1165 4146 
L 2266 4146 
C 3187 4146 3674 3524 3674 2333 
C 3674 1154 3187 526 2266 526 
L 1165 526 
z
" transform="scale(0.015625)"/>
     </defs>
     <use xlink:href="#NimbusSanL-Regu-45" transform="scale(0.996264)"/>
     <use xlink:href="#NimbusSanL-Regu-44" transform="translate(66.450031 0) scale(0.996264)"/>
    </g>
   </g>
   <g id="line2d_51">
    <path d="M 536.48509 415.481903 
L 558.48509 415.481903 
L 580.48509 415.481903 
" style="fill: none; stroke: #800080; stroke-width: 3; stroke-linecap: square"/>
   </g>
   <g id="text_17">
    <!-- MPS (jax) -->
    <g transform="translate(598.08509 423.181903) scale(0.22 -0.22)">
     <defs>
      <path id="NimbusSanL-Regu-6a" d="M 448 3356 
L 448 -496 
C 448 -831 339 -940 13 -940 
C -6 -940 -6 -940 -115 -940 
L -115 -1389 
C -51 -1408 -19 -1408 64 -1408 
C 666 -1408 979 -1164 979 -708 
L 979 3356 
L 448 3356 
z
M 979 4672 
L 448 4672 
L 448 3999 
L 979 3999 
L 979 4672 
z
" transform="scale(0.015625)"/>
      <path id="NimbusSanL-Regu-61" d="M 3424 333 
C 3366 320 3341 320 3309 320 
C 3123 320 3021 415 3021 581 
L 3021 2545 
C 3021 3137 2586 3456 1760 3456 
C 1274 3456 870 3316 646 3066 
C 493 2893 429 2702 416 2370 
L 954 2370 
C 998 2777 1242 2962 1741 2962 
C 2221 2962 2490 2783 2490 2465 
L 2490 2325 
C 2490 2101 2355 2006 1933 1955 
C 1178 1860 1062 1834 858 1751 
C 467 1592 269 1292 269 859 
C 269 254 691 -128 1370 -128 
C 1792 -128 2131 19 2509 365 
C 2547 25 2714 -128 3059 -128 
C 3168 -128 3251 -116 3424 -70 
L 3424 333 
z
M 2490 1072 
C 2490 893 2438 785 2278 639 
C 2061 441 1798 340 1485 340 
C 1069 340 826 537 826 874 
C 826 1225 1062 1403 1632 1486 
C 2195 1562 2310 1588 2490 1670 
L 2490 1072 
z
" transform="scale(0.015625)"/>
      <path id="NimbusSanL-Regu-78" d="M 1869 1737 
L 2995 3359 
L 2394 3359 
L 1587 2141 
L 781 3359 
L 173 3359 
L 1293 1712 
L 109 0 
L 717 0 
L 1568 1288 
L 2406 0 
L 3027 0 
L 1869 1737 
z
" transform="scale(0.015625)"/>
     </defs>
     <use xlink:href="#NimbusSanL-Regu-4d" transform="scale(0.996264)"/>
     <use xlink:href="#NimbusSanL-Regu-50" transform="translate(82.98843 0) scale(0.996264)"/>
     <use xlink:href="#NimbusSanL-Regu-53" transform="translate(149.438461 0) scale(0.996264)"/>
     <use xlink:href="#NimbusSanL-Regu-28" transform="translate(243.583662 0) scale(0.996264)"/>
     <use xlink:href="#NimbusSanL-Regu-6a" transform="translate(276.758892 0) scale(0.996264)"/>
     <use xlink:href="#NimbusSanL-Regu-61" transform="translate(298.875676 0) scale(0.996264)"/>
     <use xlink:href="#NimbusSanL-Regu-78" transform="translate(354.267353 0) scale(0.996264)"/>
     <use xlink:href="#NimbusSanL-Regu-29" transform="translate(404.080554 0) scale(0.996264)"/>
    </g>
   </g>
  </g>
 </g>
 <defs>
  <clipPath id="p7fc66cddea">
   <rect x="79.627864" y="7.2" width="329.727273" height="332.64"/>
  </clipPath>
  <clipPath id="p745309d04b">
   <rect x="475.300591" y="7.2" width="329.727273" height="332.64"/>
  </clipPath>
 </defs>
</svg>
