<?xml version="1.0" encoding="utf-8" standalone="no"?>
<!DOCTYPE svg PUBLIC "-//W3C//DTD SVG 1.1//EN"
  "http://www.w3.org/Graphics/SVG/1.1/DTD/svg11.dtd">
<svg xmlns:xlink="http://www.w3.org/1999/xlink" width="936pt" height="432pt" viewBox="0 0 936 432" xmlns="http://www.w3.org/2000/svg" version="1.1">
 <metadata>
  <rdf:RDF xmlns:dc="http://purl.org/dc/elements/1.1/" xmlns:cc="http://creativecommons.org/ns#" xmlns:rdf="http://www.w3.org/1999/02/22-rdf-syntax-ns#">
   <cc:Work>
    <dc:type rdf:resource="http://purl.org/dc/dcmitype/StillImage"/>
    <dc:date>2023-03-30T15:08:24.043541</dc:date>
    <dc:format>image/svg+xml</dc:format>
    <dc:creator>
     <cc:Agent>
      <dc:title>Matplotlib v3.6.0, https://matplotlib.org/</dc:title>
     </cc:Agent>
    </dc:creator>
   </cc:Work>
  </rdf:RDF>
 </metadata>
 <defs>
  <style type="text/css">*{stroke-linejoin: round; stroke-linecap: butt}</style>
 </defs>
 <g id="figure_1">
  <g id="patch_1">
   <path d="M 0 432 
L 936 432 
L 936 0 
L 0 0 
L 0 432 
z
" style="fill: none"/>
  </g>
  <g id="axes_1">
   <g id="patch_2">
    <path d="M 117 384.48 
L 446.727273 384.48 
L 446.727273 51.84 
L 117 51.84 
L 117 384.48 
z
" style="fill: none"/>
   </g>
   <g id="matplotlib.axis_1">
    <g id="xtick_1">
     <g id="line2d_1">
      <defs>
       <path id="mfab2b02588" d="M 0 0 
L 0 3.5 
" style="stroke: #000000; stroke-width: 0.8"/>
      </defs>
      <g>
       <use xlink:href="#mfab2b02588" x="131.987603" y="384.48" style="stroke: #000000; stroke-width: 0.8"/>
      </g>
     </g>
     <g id="text_1">
      <!-- $\mathdefault{0.0}$ -->
      <g transform="translate(118.955009 407.096305) scale(0.22 -0.22)">
       <defs>
        <path id="CMR17-30" d="M 2688 2025 
C 2688 2416 2682 3080 2413 3591 
C 2176 4039 1798 4198 1466 4198 
C 1158 4198 768 4058 525 3597 
C 269 3118 243 2524 243 2025 
C 243 1661 250 1106 448 619 
C 723 -39 1216 -128 1466 -128 
C 1760 -128 2208 -7 2470 600 
C 2662 1042 2688 1559 2688 2025 
z
M 1466 -26 
C 1056 -26 813 325 723 812 
C 653 1188 653 1738 653 2096 
C 653 2588 653 2997 736 3387 
C 858 3929 1216 4096 1466 4096 
C 1728 4096 2067 3923 2189 3400 
C 2272 3036 2278 2607 2278 2096 
C 2278 1680 2278 1169 2202 792 
C 2067 95 1690 -26 1466 -26 
z
" transform="scale(0.015625)"/>
        <path id="CMMI12-3a" d="M 1178 307 
C 1178 492 1024 619 870 619 
C 685 619 557 466 557 313 
C 557 128 710 0 864 0 
C 1050 0 1178 153 1178 307 
z
" transform="scale(0.015625)"/>
       </defs>
       <use xlink:href="#CMR17-30" transform="scale(0.996264)"/>
       <use xlink:href="#CMMI12-3a" transform="translate(45.690477 0) scale(0.996264)"/>
       <use xlink:href="#CMR17-30" transform="translate(72.787654 0) scale(0.996264)"/>
      </g>
     </g>
    </g>
    <g id="xtick_2">
     <g id="line2d_2">
      <g>
       <use xlink:href="#mfab2b02588" x="281.863636" y="384.48" style="stroke: #000000; stroke-width: 0.8"/>
      </g>
     </g>
     <g id="text_2">
      <!-- $\mathdefault{0.5}$ -->
      <g transform="translate(268.831042 407.096305) scale(0.22 -0.22)">
       <defs>
        <path id="CMR17-35" d="M 730 3692 
C 794 3666 1056 3584 1325 3584 
C 1920 3584 2246 3911 2432 4100 
C 2432 4157 2432 4192 2394 4192 
C 2387 4192 2374 4192 2323 4163 
C 2099 4058 1837 3973 1517 3973 
C 1325 3973 1037 3999 723 4139 
C 653 4171 640 4171 634 4171 
C 602 4171 595 4164 595 4037 
L 595 2203 
C 595 2089 595 2057 659 2057 
C 691 2057 704 2070 736 2114 
C 941 2401 1222 2522 1542 2522 
C 1766 2522 2246 2382 2246 1289 
C 2246 1085 2246 715 2054 421 
C 1894 159 1645 25 1370 25 
C 947 25 518 320 403 814 
C 429 807 480 795 506 795 
C 589 795 749 840 749 1038 
C 749 1210 627 1280 506 1280 
C 358 1280 262 1190 262 1011 
C 262 454 704 -128 1382 -128 
C 2042 -128 2669 440 2669 1264 
C 2669 2030 2170 2624 1549 2624 
C 1222 2624 947 2503 730 2274 
L 730 3692 
z
" transform="scale(0.015625)"/>
       </defs>
       <use xlink:href="#CMR17-30" transform="scale(0.996264)"/>
       <use xlink:href="#CMMI12-3a" transform="translate(45.690477 0) scale(0.996264)"/>
       <use xlink:href="#CMR17-35" transform="translate(72.787654 0) scale(0.996264)"/>
      </g>
     </g>
    </g>
    <g id="xtick_3">
     <g id="line2d_3">
      <g>
       <use xlink:href="#mfab2b02588" x="431.739669" y="384.48" style="stroke: #000000; stroke-width: 0.8"/>
      </g>
     </g>
     <g id="text_3">
      <!-- $\mathdefault{1.0}$ -->
      <g transform="translate(418.707075 407.096305) scale(0.22 -0.22)">
       <defs>
        <path id="CMR17-31" d="M 1702 4058 
C 1702 4192 1696 4192 1606 4192 
C 1357 3916 979 3827 621 3827 
C 602 3827 570 3827 563 3808 
C 557 3795 557 3782 557 3648 
C 755 3648 1088 3686 1344 3839 
L 1344 461 
C 1344 236 1331 160 781 160 
L 589 160 
L 589 0 
C 896 0 1216 0 1523 0 
C 1830 0 2150 0 2458 0 
L 2458 160 
L 2266 160 
C 1715 160 1702 230 1702 458 
L 1702 4058 
z
" transform="scale(0.015625)"/>
       </defs>
       <use xlink:href="#CMR17-31" transform="scale(0.996264)"/>
       <use xlink:href="#CMMI12-3a" transform="translate(45.690477 0) scale(0.996264)"/>
       <use xlink:href="#CMR17-30" transform="translate(72.787654 0) scale(0.996264)"/>
      </g>
     </g>
    </g>
    <g id="text_4">
     <!-- $s$ -->
     <g transform="translate(276.809135 431.38097) scale(0.22 -0.22)">
      <defs>
       <path id="CMMI12-73" d="M 1459 1280 
C 1568 1261 1741 1223 1779 1216 
C 1862 1192 2150 1090 2150 783 
C 2150 586 1971 70 1229 70 
C 1094 70 614 70 486 436 
C 742 404 870 603 870 745 
C 870 880 781 950 653 950 
C 512 950 326 841 326 552 
C 326 173 710 -64 1222 -64 
C 2195 -64 2483 651 2483 984 
C 2483 1079 2483 1258 2278 1462 
C 2118 1616 1965 1648 1619 1718 
C 1446 1756 1171 1814 1171 2101 
C 1171 2229 1286 2689 1894 2689 
C 2163 2689 2426 2589 2490 2368 
C 2208 2368 2195 2125 2195 2119 
C 2195 1984 2317 1946 2374 1946 
C 2464 1946 2643 2015 2643 2281 
C 2643 2545 2400 2816 1901 2816 
C 1062 2816 838 2160 838 1899 
C 838 1414 1312 1312 1459 1280 
z
" transform="scale(0.015625)"/>
      </defs>
      <use xlink:href="#CMMI12-73" transform="scale(0.996264)"/>
     </g>
    </g>
   </g>
   <g id="matplotlib.axis_2">
    <g id="ytick_1">
     <g id="line2d_4">
      <defs>
       <path id="m7e076907d0" d="M 0 0 
L -3.5 0 
" style="stroke: #000000; stroke-width: 0.8"/>
      </defs>
      <g>
       <use xlink:href="#m7e076907d0" x="117" y="295.897059" style="stroke: #000000; stroke-width: 0.8"/>
      </g>
     </g>
     <g id="text_5">
      <!-- $\mathdefault{10^{-2}}$ -->
      <g transform="translate(70.451879 303.705212) scale(0.22 -0.22)">
       <defs>
        <path id="CMSY10-0" d="M 4218 1472 
C 4326 1472 4442 1472 4442 1600 
C 4442 1728 4326 1728 4218 1728 
L 755 1728 
C 646 1728 531 1728 531 1600 
C 531 1472 646 1472 755 1472 
L 4218 1472 
z
" transform="scale(0.015625)"/>
        <path id="CMR17-32" d="M 2669 989 
L 2554 989 
C 2490 536 2438 459 2413 420 
C 2381 369 1920 369 1830 369 
L 602 369 
C 832 619 1280 1072 1824 1597 
C 2214 1967 2669 2402 2669 3035 
C 2669 3790 2067 4224 1395 4224 
C 691 4224 262 3604 262 3030 
C 262 2780 448 2748 525 2748 
C 589 2748 781 2787 781 3010 
C 781 3207 614 3264 525 3264 
C 486 3264 448 3258 422 3245 
C 544 3790 915 4058 1306 4058 
C 1862 4058 2227 3617 2227 3035 
C 2227 2479 1901 2000 1536 1584 
L 262 146 
L 262 0 
L 2515 0 
L 2669 989 
z
" transform="scale(0.015625)"/>
       </defs>
       <use xlink:href="#CMR17-31" transform="scale(0.996264)"/>
       <use xlink:href="#CMR17-30" transform="translate(45.690477 0) scale(0.996264)"/>
       <use xlink:href="#CMSY10-0" transform="translate(91.380954 36.153639) scale(0.697382)"/>
       <use xlink:href="#CMR17-32" transform="translate(145.621947 36.153639) scale(0.697382)"/>
      </g>
     </g>
    </g>
    <g id="ytick_2">
     <g id="line2d_5">
      <g>
       <use xlink:href="#m7e076907d0" x="117" y="139.832073" style="stroke: #000000; stroke-width: 0.8"/>
      </g>
     </g>
     <g id="text_6">
      <!-- $\mathdefault{10^{-1}}$ -->
      <g transform="translate(70.451879 147.640225) scale(0.22 -0.22)">
       <use xlink:href="#CMR17-31" transform="scale(0.996264)"/>
       <use xlink:href="#CMR17-30" transform="translate(45.690477 0) scale(0.996264)"/>
       <use xlink:href="#CMSY10-0" transform="translate(91.380954 36.153639) scale(0.697382)"/>
       <use xlink:href="#CMR17-31" transform="translate(145.621947 36.153639) scale(0.697382)"/>
      </g>
     </g>
    </g>
    <g id="ytick_3">
     <g id="line2d_6">
      <defs>
       <path id="m53c85d349d" d="M 0 0 
L -2 0 
" style="stroke: #000000; stroke-width: 0.6"/>
      </defs>
      <g>
       <use xlink:href="#m53c85d349d" x="117" y="377.500123" style="stroke: #000000; stroke-width: 0.6"/>
      </g>
     </g>
    </g>
    <g id="ytick_4">
     <g id="line2d_7">
      <g>
       <use xlink:href="#m53c85d349d" x="117" y="358.001561" style="stroke: #000000; stroke-width: 0.6"/>
      </g>
     </g>
    </g>
    <g id="ytick_5">
     <g id="line2d_8">
      <g>
       <use xlink:href="#m53c85d349d" x="117" y="342.877301" style="stroke: #000000; stroke-width: 0.6"/>
      </g>
     </g>
    </g>
    <g id="ytick_6">
     <g id="line2d_9">
      <g>
       <use xlink:href="#m53c85d349d" x="117" y="330.519881" style="stroke: #000000; stroke-width: 0.6"/>
      </g>
     </g>
    </g>
    <g id="ytick_7">
     <g id="line2d_10">
      <g>
       <use xlink:href="#m53c85d349d" x="117" y="320.071832" style="stroke: #000000; stroke-width: 0.6"/>
      </g>
     </g>
    </g>
    <g id="ytick_8">
     <g id="line2d_11">
      <g>
       <use xlink:href="#m53c85d349d" x="117" y="311.021319" style="stroke: #000000; stroke-width: 0.6"/>
      </g>
     </g>
    </g>
    <g id="ytick_9">
     <g id="line2d_12">
      <g>
       <use xlink:href="#m53c85d349d" x="117" y="303.038201" style="stroke: #000000; stroke-width: 0.6"/>
      </g>
     </g>
    </g>
    <g id="ytick_10">
     <g id="line2d_13">
      <g>
       <use xlink:href="#m53c85d349d" x="117" y="248.916817" style="stroke: #000000; stroke-width: 0.6"/>
      </g>
     </g>
    </g>
    <g id="ytick_11">
     <g id="line2d_14">
      <g>
       <use xlink:href="#m53c85d349d" x="117" y="221.435137" style="stroke: #000000; stroke-width: 0.6"/>
      </g>
     </g>
    </g>
    <g id="ytick_12">
     <g id="line2d_15">
      <g>
       <use xlink:href="#m53c85d349d" x="117" y="201.936575" style="stroke: #000000; stroke-width: 0.6"/>
      </g>
     </g>
    </g>
    <g id="ytick_13">
     <g id="line2d_16">
      <g>
       <use xlink:href="#m53c85d349d" x="117" y="186.812315" style="stroke: #000000; stroke-width: 0.6"/>
      </g>
     </g>
    </g>
    <g id="ytick_14">
     <g id="line2d_17">
      <g>
       <use xlink:href="#m53c85d349d" x="117" y="174.454895" style="stroke: #000000; stroke-width: 0.6"/>
      </g>
     </g>
    </g>
    <g id="ytick_15">
     <g id="line2d_18">
      <g>
       <use xlink:href="#m53c85d349d" x="117" y="164.006845" style="stroke: #000000; stroke-width: 0.6"/>
      </g>
     </g>
    </g>
    <g id="ytick_16">
     <g id="line2d_19">
      <g>
       <use xlink:href="#m53c85d349d" x="117" y="154.956333" style="stroke: #000000; stroke-width: 0.6"/>
      </g>
     </g>
    </g>
    <g id="ytick_17">
     <g id="line2d_20">
      <g>
       <use xlink:href="#m53c85d349d" x="117" y="146.973215" style="stroke: #000000; stroke-width: 0.6"/>
      </g>
     </g>
    </g>
    <g id="ytick_18">
     <g id="line2d_21">
      <g>
       <use xlink:href="#m53c85d349d" x="117" y="92.851831" style="stroke: #000000; stroke-width: 0.6"/>
      </g>
     </g>
    </g>
    <g id="ytick_19">
     <g id="line2d_22">
      <g>
       <use xlink:href="#m53c85d349d" x="117" y="65.370151" style="stroke: #000000; stroke-width: 0.6"/>
      </g>
     </g>
    </g>
    <g id="text_7">
     <!-- $\varepsilon(s)$ -->
     <g transform="translate(60.99076 235.997779) rotate(-90) scale(0.22 -0.22)">
      <defs>
       <path id="CMMI12-22" d="M 890 1427 
C 1094 1345 1312 1345 1434 1345 
C 1600 1345 1933 1345 1933 1550 
C 1933 1678 1811 1728 1485 1728 
C 1325 1728 1133 1709 909 1613 
C 710 1708 634 1852 634 1990 
C 634 2379 1261 2606 1830 2606 
C 1939 2606 2170 2606 2438 2411 
C 2477 2387 2496 2367 2541 2367 
C 2618 2367 2701 2449 2701 2526 
C 2701 2639 2330 2880 1888 2880 
C 1171 2880 493 2449 493 1972 
C 493 1734 646 1586 755 1509 
C 384 1301 166 961 166 652 
C 166 219 563 -128 1178 -128 
C 2022 -128 2362 424 2362 512 
C 2362 543 2336 568 2304 568 
C 2272 568 2259 549 2234 512 
C 2163 395 1997 146 1235 146 
C 838 146 314 245 314 686 
C 314 898 474 1214 890 1427 
z
M 1088 1518 
C 1261 1600 1427 1600 1472 1600 
C 1651 1600 1683 1583 1786 1545 
C 1677 1472 1664 1472 1434 1472 
C 1318 1472 1216 1472 1088 1518 
z
" transform="scale(0.015625)"/>
       <path id="CMR17-28" d="M 1958 -1561 
C 1958 -1555 1958 -1542 1939 -1523 
C 1645 -1224 858 -407 858 1581 
C 858 3569 1632 4379 1946 4697 
C 1946 4704 1958 4717 1958 4736 
C 1958 4755 1939 4768 1914 4768 
C 1843 4768 1299 4296 986 3594 
C 666 2887 576 2199 576 1588 
C 576 1128 621 351 1005 -471 
C 1312 -1135 1837 -1600 1914 -1600 
C 1946 -1600 1958 -1587 1958 -1561 
z
" transform="scale(0.015625)"/>
       <path id="CMR17-29" d="M 1683 1581 
C 1683 2040 1638 2817 1254 3639 
C 947 4303 422 4768 346 4768 
C 326 4768 301 4761 301 4729 
C 301 4717 307 4710 314 4697 
C 621 4378 1402 3568 1402 1584 
C 1402 -407 627 -1217 314 -1537 
C 307 -1549 301 -1556 301 -1568 
C 301 -1600 326 -1600 346 -1600 
C 416 -1600 960 -1128 1274 -426 
C 1594 281 1683 969 1683 1581 
z
" transform="scale(0.015625)"/>
      </defs>
      <use xlink:href="#CMMI12-22" transform="scale(0.996264)"/>
      <use xlink:href="#CMR17-28" transform="translate(45.650192 0) scale(0.996264)"/>
      <use xlink:href="#CMMI12-73" transform="translate(80.93096 0) scale(0.996264)"/>
      <use xlink:href="#CMR17-29" transform="translate(126.881008 0) scale(0.996264)"/>
     </g>
    </g>
   </g>
   <g id="line2d_23">
    <path d="M 131.987603 66.960038 
L 134.985124 67.333546 
L 137.982645 67.950327 
L 140.980165 68.604744 
L 143.977686 69.140875 
L 146.975207 69.33743 
L 149.972727 69.346039 
L 152.970248 69.601125 
L 155.967769 70.176407 
L 158.965289 70.879218 
L 161.96281 71.60063 
L 164.960331 72.133277 
L 167.957851 72.362957 
L 170.955372 72.468812 
L 173.952893 72.844385 
L 176.950413 73.502323 
L 179.947934 74.293303 
L 182.945455 75.066439 
L 185.942975 75.775207 
L 188.940496 76.203183 
L 191.938017 76.431671 
L 194.935537 76.792674 
L 197.933058 77.447158 
L 200.930579 78.290942 
L 203.928099 79.20079 
L 206.92562 80.052804 
L 209.92314 80.846583 
L 212.920661 81.426729 
L 215.918182 81.830109 
L 218.915702 82.320417 
L 221.913223 83.123987 
L 224.910744 84.085125 
L 227.908264 85.137898 
L 230.905785 86.13887 
L 233.903306 87.113299 
L 236.900826 87.958109 
L 239.898347 88.661439 
L 242.895868 89.39733 
L 245.893388 90.203246 
L 248.890909 91.234265 
L 251.88843 92.287135 
L 254.88595 93.547121 
L 257.883471 94.776644 
L 260.880992 95.987885 
L 263.878512 97.017063 
L 266.876033 98.038594 
L 269.873554 99.136084 
L 272.871074 100.390641 
L 275.868595 101.733608 
L 278.866116 102.993367 
L 281.863636 104.216171 
L 284.861157 105.552013 
L 287.858678 106.98009 
L 290.856198 108.585069 
L 293.853719 110.237062 
L 296.85124 111.803045 
L 299.84876 113.363155 
L 302.846281 114.895509 
L 305.843802 116.451814 
L 308.841322 118.472572 
L 311.838843 120.797894 
L 314.836364 122.6655 
L 317.833884 124.46988 
L 320.831405 126.718 
L 323.828926 128.771803 
L 326.826446 130.845448 
L 329.823967 133.183644 
L 332.821488 135.647969 
L 335.819008 137.901077 
L 338.816529 140.355774 
L 341.81405 143.31359 
L 344.81157 146.288578 
L 347.809091 149.280812 
L 350.806612 152.442315 
L 353.804132 155.880765 
L 356.801653 159.580462 
L 359.799174 163.173865 
L 362.796694 166.930871 
L 365.794215 171.006244 
L 368.791736 175.221628 
L 371.789256 179.64749 
L 374.786777 184.368632 
L 377.784298 189.429654 
L 380.781818 194.899213 
L 383.779339 200.636416 
L 386.77686 206.570089 
L 389.77438 213.141754 
L 392.771901 220.862593 
L 395.769421 229.827366 
L 398.766942 239.776922 
L 401.764463 250.34033 
L 404.761983 261.412771 
L 407.759504 273.148368 
L 410.757025 285.882115 
L 413.754545 299.921234 
L 416.752066 315.293228 
L 419.749587 331.54783 
L 422.747107 347.50372 
L 425.744628 360.993995 
L 428.742149 369.036617 
L 431.739669 369.36 
" clip-path="url(#pab7db0b904)" style="fill: none; stroke: #fda85a; stroke-width: 3; stroke-linecap: square"/>
   </g>
   <g id="line2d_24">
    <path d="M 131.987603 67.198192 
L 135.015402 67.773839 
L 138.043201 68.468593 
L 141.070999 69.145551 
L 144.098798 69.591139 
L 147.126597 69.72232 
L 150.154395 69.865337 
L 153.182194 70.330872 
L 156.209992 71.041572 
L 159.237791 71.798663 
L 162.26559 72.503422 
L 165.293388 72.966143 
L 168.321187 73.166165 
L 171.348986 73.413175 
L 174.376784 73.958623 
L 177.404583 74.740279 
L 180.432382 75.575467 
L 183.46018 76.386837 
L 186.487979 77.029199 
L 189.515778 77.426252 
L 192.543576 77.72433 
L 195.571375 78.225131 
L 198.599174 79.000014 
L 201.626972 79.929315 
L 204.654771 80.867412 
L 207.682569 81.756156 
L 210.710368 82.495768 
L 213.738167 83.056553 
L 216.765965 83.548422 
L 219.793764 84.18463 
L 222.821563 85.049153 
L 225.849361 86.090541 
L 228.87716 87.185225 
L 231.904959 88.242234 
L 234.932757 89.211231 
L 237.960556 90.072734 
L 240.988355 90.858538 
L 244.016153 91.654353 
L 247.043952 92.563423 
L 250.071751 93.631725 
L 253.099549 94.841932 
L 256.127348 96.122277 
L 259.155147 97.394951 
L 262.182945 98.614256 
L 265.210744 99.779105 
L 268.238542 100.923688 
L 271.266341 102.087745 
L 274.29414 103.314231 
L 277.321938 104.638174 
L 280.349737 106.071309 
L 283.377536 107.592382 
L 286.405334 109.158431 
L 289.433133 110.726328 
L 292.460932 112.281873 
L 295.48873 113.843706 
L 298.516529 115.44396 
L 301.544328 117.109814 
L 304.572126 118.858987 
L 307.599925 120.700251 
L 310.627724 122.636152 
L 313.655522 124.668846 
L 316.683321 126.784479 
L 319.711119 128.955754 
L 322.738918 131.155138 
L 325.766717 133.372686 
L 328.794515 135.622968 
L 331.822314 137.935186 
L 334.850113 140.343466 
L 337.877911 142.872787 
L 340.90571 145.544931 
L 343.933509 148.366747 
L 346.961307 151.348638 
L 349.989106 154.493625 
L 353.016905 157.801394 
L 356.044703 161.268134 
L 359.072502 164.89155 
L 362.100301 168.673654 
L 365.128099 172.627386 
L 368.155898 176.775944 
L 371.183696 181.152056 
L 374.211495 185.797409 
L 377.239294 190.758221 
L 380.267092 196.084057 
L 383.294891 201.828081 
L 386.32269 208.048762 
L 389.350488 214.811162 
L 392.378287 222.18807 
L 395.406086 230.262907 
L 398.433884 239.131274 
L 401.461683 248.900452 
L 404.489482 259.686172 
L 407.51728 271.606262 
L 410.545079 284.757849 
L 413.572878 299.168705 
L 416.600676 314.697118 
L 419.628475 330.84131 
L 422.656273 346.435095 
L 425.684072 359.361029 
L 428.711871 366.825673 
L 431.739669 366.825673 
" clip-path="url(#pab7db0b904)" style="fill: none; stroke-dasharray: 7.4,3.2; stroke-dashoffset: 0; stroke: #00a645; stroke-width: 2"/>
   </g>
   <g id="patch_3">
    <path d="M 117 384.48 
L 117 51.84 
" style="fill: none; stroke: #000000; stroke-width: 0.8; stroke-linejoin: miter; stroke-linecap: square"/>
   </g>
   <g id="patch_4">
    <path d="M 446.727273 384.48 
L 446.727273 51.84 
" style="fill: none; stroke: #000000; stroke-width: 0.8; stroke-linejoin: miter; stroke-linecap: square"/>
   </g>
   <g id="patch_5">
    <path d="M 117 384.48 
L 446.727273 384.48 
" style="fill: none; stroke: #000000; stroke-width: 0.8; stroke-linejoin: miter; stroke-linecap: square"/>
   </g>
   <g id="patch_6">
    <path d="M 117 51.84 
L 446.727273 51.84 
" style="fill: none; stroke: #000000; stroke-width: 0.8; stroke-linejoin: miter; stroke-linecap: square"/>
   </g>
  </g>
  <g id="axes_2">
   <g id="patch_7">
    <path d="M 512.672727 384.48 
L 842.4 384.48 
L 842.4 51.84 
L 512.672727 51.84 
L 512.672727 384.48 
z
" style="fill: none"/>
   </g>
   <g id="matplotlib.axis_3">
    <g id="xtick_4">
     <g id="line2d_25">
      <g>
       <use xlink:href="#mfab2b02588" x="527.660331" y="384.48" style="stroke: #000000; stroke-width: 0.8"/>
      </g>
     </g>
     <g id="text_8">
      <!-- $\mathdefault{0.0}$ -->
      <g transform="translate(514.627736 407.096305) scale(0.22 -0.22)">
       <use xlink:href="#CMR17-30" transform="scale(0.996264)"/>
       <use xlink:href="#CMMI12-3a" transform="translate(45.690477 0) scale(0.996264)"/>
       <use xlink:href="#CMR17-30" transform="translate(72.787654 0) scale(0.996264)"/>
      </g>
     </g>
    </g>
    <g id="xtick_5">
     <g id="line2d_26">
      <g>
       <use xlink:href="#mfab2b02588" x="677.536364" y="384.48" style="stroke: #000000; stroke-width: 0.8"/>
      </g>
     </g>
     <g id="text_9">
      <!-- $\mathdefault{0.5}$ -->
      <g transform="translate(664.503769 407.096305) scale(0.22 -0.22)">
       <use xlink:href="#CMR17-30" transform="scale(0.996264)"/>
       <use xlink:href="#CMMI12-3a" transform="translate(45.690477 0) scale(0.996264)"/>
       <use xlink:href="#CMR17-35" transform="translate(72.787654 0) scale(0.996264)"/>
      </g>
     </g>
    </g>
    <g id="xtick_6">
     <g id="line2d_27">
      <g>
       <use xlink:href="#mfab2b02588" x="827.412397" y="384.48" style="stroke: #000000; stroke-width: 0.8"/>
      </g>
     </g>
     <g id="text_10">
      <!-- $\mathdefault{1.0}$ -->
      <g transform="translate(814.379802 407.096305) scale(0.22 -0.22)">
       <use xlink:href="#CMR17-31" transform="scale(0.996264)"/>
       <use xlink:href="#CMMI12-3a" transform="translate(45.690477 0) scale(0.996264)"/>
       <use xlink:href="#CMR17-30" transform="translate(72.787654 0) scale(0.996264)"/>
      </g>
     </g>
    </g>
    <g id="text_11">
     <!-- $s$ -->
     <g transform="translate(672.481862 431.38097) scale(0.22 -0.22)">
      <use xlink:href="#CMMI12-73" transform="scale(0.996264)"/>
     </g>
    </g>
   </g>
   <g id="matplotlib.axis_4">
    <g id="ytick_20">
     <g id="line2d_28">
      <g>
       <use xlink:href="#m7e076907d0" x="512.672727" y="295.897059" style="stroke: #000000; stroke-width: 0.8"/>
      </g>
     </g>
     <g id="text_12">
      <!-- $\mathdefault{10^{-2}}$ -->
      <g transform="translate(466.124606 303.705212) scale(0.22 -0.22)">
       <use xlink:href="#CMR17-31" transform="scale(0.996264)"/>
       <use xlink:href="#CMR17-30" transform="translate(45.690477 0) scale(0.996264)"/>
       <use xlink:href="#CMSY10-0" transform="translate(91.380954 36.153639) scale(0.697382)"/>
       <use xlink:href="#CMR17-32" transform="translate(145.621947 36.153639) scale(0.697382)"/>
      </g>
     </g>
    </g>
    <g id="ytick_21">
     <g id="line2d_29">
      <g>
       <use xlink:href="#m7e076907d0" x="512.672727" y="139.832073" style="stroke: #000000; stroke-width: 0.8"/>
      </g>
     </g>
     <g id="text_13">
      <!-- $\mathdefault{10^{-1}}$ -->
      <g transform="translate(466.124606 147.640225) scale(0.22 -0.22)">
       <use xlink:href="#CMR17-31" transform="scale(0.996264)"/>
       <use xlink:href="#CMR17-30" transform="translate(45.690477 0) scale(0.996264)"/>
       <use xlink:href="#CMSY10-0" transform="translate(91.380954 36.153639) scale(0.697382)"/>
       <use xlink:href="#CMR17-31" transform="translate(145.621947 36.153639) scale(0.697382)"/>
      </g>
     </g>
    </g>
    <g id="ytick_22">
     <g id="line2d_30">
      <g>
       <use xlink:href="#m53c85d349d" x="512.672727" y="377.500123" style="stroke: #000000; stroke-width: 0.6"/>
      </g>
     </g>
    </g>
    <g id="ytick_23">
     <g id="line2d_31">
      <g>
       <use xlink:href="#m53c85d349d" x="512.672727" y="358.001561" style="stroke: #000000; stroke-width: 0.6"/>
      </g>
     </g>
    </g>
    <g id="ytick_24">
     <g id="line2d_32">
      <g>
       <use xlink:href="#m53c85d349d" x="512.672727" y="342.877301" style="stroke: #000000; stroke-width: 0.6"/>
      </g>
     </g>
    </g>
    <g id="ytick_25">
     <g id="line2d_33">
      <g>
       <use xlink:href="#m53c85d349d" x="512.672727" y="330.519881" style="stroke: #000000; stroke-width: 0.6"/>
      </g>
     </g>
    </g>
    <g id="ytick_26">
     <g id="line2d_34">
      <g>
       <use xlink:href="#m53c85d349d" x="512.672727" y="320.071832" style="stroke: #000000; stroke-width: 0.6"/>
      </g>
     </g>
    </g>
    <g id="ytick_27">
     <g id="line2d_35">
      <g>
       <use xlink:href="#m53c85d349d" x="512.672727" y="311.021319" style="stroke: #000000; stroke-width: 0.6"/>
      </g>
     </g>
    </g>
    <g id="ytick_28">
     <g id="line2d_36">
      <g>
       <use xlink:href="#m53c85d349d" x="512.672727" y="303.038201" style="stroke: #000000; stroke-width: 0.6"/>
      </g>
     </g>
    </g>
    <g id="ytick_29">
     <g id="line2d_37">
      <g>
       <use xlink:href="#m53c85d349d" x="512.672727" y="248.916817" style="stroke: #000000; stroke-width: 0.6"/>
      </g>
     </g>
    </g>
    <g id="ytick_30">
     <g id="line2d_38">
      <g>
       <use xlink:href="#m53c85d349d" x="512.672727" y="221.435137" style="stroke: #000000; stroke-width: 0.6"/>
      </g>
     </g>
    </g>
    <g id="ytick_31">
     <g id="line2d_39">
      <g>
       <use xlink:href="#m53c85d349d" x="512.672727" y="201.936575" style="stroke: #000000; stroke-width: 0.6"/>
      </g>
     </g>
    </g>
    <g id="ytick_32">
     <g id="line2d_40">
      <g>
       <use xlink:href="#m53c85d349d" x="512.672727" y="186.812315" style="stroke: #000000; stroke-width: 0.6"/>
      </g>
     </g>
    </g>
    <g id="ytick_33">
     <g id="line2d_41">
      <g>
       <use xlink:href="#m53c85d349d" x="512.672727" y="174.454895" style="stroke: #000000; stroke-width: 0.6"/>
      </g>
     </g>
    </g>
    <g id="ytick_34">
     <g id="line2d_42">
      <g>
       <use xlink:href="#m53c85d349d" x="512.672727" y="164.006845" style="stroke: #000000; stroke-width: 0.6"/>
      </g>
     </g>
    </g>
    <g id="ytick_35">
     <g id="line2d_43">
      <g>
       <use xlink:href="#m53c85d349d" x="512.672727" y="154.956333" style="stroke: #000000; stroke-width: 0.6"/>
      </g>
     </g>
    </g>
    <g id="ytick_36">
     <g id="line2d_44">
      <g>
       <use xlink:href="#m53c85d349d" x="512.672727" y="146.973215" style="stroke: #000000; stroke-width: 0.6"/>
      </g>
     </g>
    </g>
    <g id="ytick_37">
     <g id="line2d_45">
      <g>
       <use xlink:href="#m53c85d349d" x="512.672727" y="92.851831" style="stroke: #000000; stroke-width: 0.6"/>
      </g>
     </g>
    </g>
    <g id="ytick_38">
     <g id="line2d_46">
      <g>
       <use xlink:href="#m53c85d349d" x="512.672727" y="65.370151" style="stroke: #000000; stroke-width: 0.6"/>
      </g>
     </g>
    </g>
   </g>
   <g id="line2d_47">
    <path d="M 527.660331 66.96 
L 530.657851 67.336434 
L 533.655372 67.949755 
L 536.652893 68.605371 
L 539.650413 69.138742 
L 542.647934 69.340435 
L 545.645455 69.349018 
L 548.642975 69.597503 
L 551.640496 70.171685 
L 554.638017 70.881707 
L 557.635537 71.594988 
L 560.633058 72.137489 
L 563.630579 72.362435 
L 566.628099 72.479525 
L 569.62562 72.842344 
L 572.62314 73.506632 
L 575.620661 74.285446 
L 578.618182 75.101935 
L 581.615702 75.7899 
L 584.613223 76.206 
L 587.610744 76.430474 
L 590.608264 76.800332 
L 593.605785 77.438399 
L 596.603306 78.29975 
L 599.600826 79.182968 
L 602.598347 80.035669 
L 605.595868 80.817438 
L 608.593388 81.382514 
L 611.590909 81.801151 
L 614.58843 82.289377 
L 617.58595 83.055279 
L 620.583471 84.057867 
L 623.580992 85.14144 
L 626.578512 86.118891 
L 629.576033 87.092775 
L 632.573554 87.945155 
L 635.571074 88.641089 
L 638.568595 89.331777 
L 641.566116 90.153868 
L 644.563636 91.122489 
L 647.561157 92.312189 
L 650.558678 93.501748 
L 653.556198 94.691437 
L 656.553719 95.86541 
L 659.55124 97.007277 
L 662.54876 97.982523 
L 665.546281 99.094366 
L 668.543802 100.268495 
L 671.541322 101.547005 
L 674.538843 102.857787 
L 677.536364 104.26937 
L 680.533884 105.850232 
L 683.531405 107.482841 
L 686.528926 109.052009 
L 689.526446 110.458641 
L 692.523967 111.974915 
L 695.521488 113.664637 
L 698.519008 115.311823 
L 701.516529 117.113321 
L 704.51405 118.951981 
L 707.51157 120.945113 
L 710.509091 123.13768 
L 713.506612 125.098707 
L 716.504132 127.039184 
L 719.501653 129.281006 
L 722.499174 131.469807 
L 725.496694 133.604956 
L 728.494215 135.839528 
L 731.491736 138.343996 
L 734.489256 140.990873 
L 737.486777 143.859998 
L 740.484298 146.782462 
L 743.481818 149.633786 
L 746.479339 152.718618 
L 749.47686 156.191225 
L 752.47438 159.804522 
L 755.471901 163.421511 
L 758.469421 166.991927 
L 761.466942 170.57823 
L 764.464463 174.594956 
L 767.461983 179.547147 
L 770.459504 184.997162 
L 773.457025 190.370936 
L 776.454545 195.701379 
L 779.452066 201.385572 
L 782.449587 207.715078 
L 785.447107 214.777866 
L 788.444628 222.350568 
L 791.442149 230.238721 
L 794.439669 238.685091 
L 797.43719 248.158946 
L 800.434711 259.045295 
L 803.432231 271.420623 
L 806.429752 285.238692 
L 809.427273 300.253465 
L 812.424793 316.091278 
L 815.422314 332.172045 
L 818.419835 347.486334 
L 821.417355 360.255376 
L 824.414876 367.924225 
L 827.412397 368.32807 
" clip-path="url(#p82fd96383d)" style="fill: none; stroke: #800080; stroke-width: 3; stroke-linecap: square"/>
   </g>
   <g id="line2d_48">
    <path d="M 527.660331 67.198192 
L 530.688129 67.773839 
L 533.715928 68.468593 
L 536.743727 69.145551 
L 539.771525 69.591139 
L 542.799324 69.72232 
L 545.827122 69.865337 
L 548.854921 70.330872 
L 551.88272 71.041572 
L 554.910518 71.798663 
L 557.938317 72.503422 
L 560.966116 72.966143 
L 563.993914 73.166165 
L 567.021713 73.413175 
L 570.049512 73.958623 
L 573.07731 74.740279 
L 576.105109 75.575467 
L 579.132908 76.386837 
L 582.160706 77.029199 
L 585.188505 77.426252 
L 588.216304 77.72433 
L 591.244102 78.225131 
L 594.271901 79.000014 
L 597.299699 79.929315 
L 600.327498 80.867412 
L 603.355297 81.756156 
L 606.383095 82.495768 
L 609.410894 83.056553 
L 612.438693 83.548422 
L 615.466491 84.18463 
L 618.49429 85.049153 
L 621.522089 86.090541 
L 624.549887 87.185225 
L 627.577686 88.242234 
L 630.605485 89.211231 
L 633.633283 90.072734 
L 636.661082 90.858538 
L 639.688881 91.654353 
L 642.716679 92.563423 
L 645.744478 93.631725 
L 648.772276 94.841932 
L 651.800075 96.122277 
L 654.827874 97.394951 
L 657.855672 98.614256 
L 660.883471 99.779105 
L 663.91127 100.923688 
L 666.939068 102.087745 
L 669.966867 103.314231 
L 672.994666 104.638174 
L 676.022464 106.071309 
L 679.050263 107.592382 
L 682.078062 109.158431 
L 685.10586 110.726328 
L 688.133659 112.281873 
L 691.161458 113.843706 
L 694.189256 115.44396 
L 697.217055 117.109814 
L 700.244853 118.858987 
L 703.272652 120.700251 
L 706.300451 122.636152 
L 709.328249 124.668846 
L 712.356048 126.784479 
L 715.383847 128.955754 
L 718.411645 131.155138 
L 721.439444 133.372686 
L 724.467243 135.622968 
L 727.495041 137.935186 
L 730.52284 140.343466 
L 733.550639 142.872787 
L 736.578437 145.544931 
L 739.606236 148.366747 
L 742.634035 151.348638 
L 745.661833 154.493625 
L 748.689632 157.801394 
L 751.717431 161.268134 
L 754.745229 164.89155 
L 757.773028 168.673654 
L 760.800826 172.627386 
L 763.828625 176.775944 
L 766.856424 181.152056 
L 769.884222 185.797409 
L 772.912021 190.758221 
L 775.93982 196.084057 
L 778.967618 201.828081 
L 781.995417 208.048762 
L 785.023216 214.811162 
L 788.051014 222.18807 
L 791.078813 230.262907 
L 794.106612 239.131274 
L 797.13441 248.900452 
L 800.162209 259.686172 
L 803.190008 271.606262 
L 806.217806 284.757849 
L 809.245605 299.168705 
L 812.273403 314.697118 
L 815.301202 330.84131 
L 818.329001 346.435095 
L 821.356799 359.361029 
L 824.384598 366.825673 
L 827.412397 366.825673 
" clip-path="url(#p82fd96383d)" style="fill: none; stroke-dasharray: 7.4,3.2; stroke-dashoffset: 0; stroke: #00a645; stroke-width: 2"/>
   </g>
   <g id="patch_8">
    <path d="M 512.672727 384.48 
L 512.672727 51.84 
" style="fill: none; stroke: #000000; stroke-width: 0.8; stroke-linejoin: miter; stroke-linecap: square"/>
   </g>
   <g id="patch_9">
    <path d="M 842.4 384.48 
L 842.4 51.84 
" style="fill: none; stroke: #000000; stroke-width: 0.8; stroke-linejoin: miter; stroke-linecap: square"/>
   </g>
   <g id="patch_10">
    <path d="M 512.672727 384.48 
L 842.4 384.48 
" style="fill: none; stroke: #000000; stroke-width: 0.8; stroke-linejoin: miter; stroke-linecap: square"/>
   </g>
   <g id="patch_11">
    <path d="M 512.672727 51.84 
L 842.4 51.84 
" style="fill: none; stroke: #000000; stroke-width: 0.8; stroke-linejoin: miter; stroke-linecap: square"/>
   </g>
  </g>
  <g id="text_14">
   <!-- dQA -->
   <g transform="translate(441.685806 27.379556) scale(0.264 -0.264)">
    <defs>
     <path id="NimbusSanL-Regu-64" d="M 3168 4672 
L 2637 4672 
L 2637 2937 
C 2413 3276 2054 3456 1606 3456 
C 736 3456 166 2761 166 1695 
C 166 566 723 -128 1626 -128 
C 2086 -128 2406 45 2694 461 
L 2694 -2 
L 3168 -2 
L 3168 4672 
z
M 1696 2956 
C 2272 2956 2637 2447 2637 1651 
C 2637 881 2266 372 1702 372 
C 1114 372 723 887 723 1664 
C 723 2440 1114 2956 1696 2956 
z
" transform="scale(0.015625)"/>
     <path id="NimbusSanL-Regu-51" d="M 4691 13 
L 4090 505 
C 4531 990 4749 1590 4749 2324 
C 4749 3766 3840 4750 2496 4750 
C 1152 4750 243 3766 243 2311 
C 243 855 1152 -128 2496 -128 
C 2957 -128 3341 -26 3718 199 
L 4390 -359 
L 4691 13 
z
M 3078 1330 
L 2784 971 
L 3258 576 
C 2982 449 2771 397 2490 397 
C 1498 397 838 1163 838 2311 
C 838 3459 1504 4224 2496 4224 
C 3488 4224 4154 3459 4154 2317 
C 4154 1717 3994 1252 3648 863 
L 3078 1330 
z
" transform="scale(0.015625)"/>
     <path id="NimbusSanL-Regu-41" d="M 3034 1408 
L 3514 0 
L 4179 0 
L 2541 4672 
L 1773 4672 
L 109 0 
L 742 0 
L 1235 1408 
L 3034 1408 
z
M 2867 1908 
L 1382 1908 
L 2150 4032 
L 2867 1908 
z
" transform="scale(0.015625)"/>
    </defs>
    <use xlink:href="#NimbusSanL-Regu-64" transform="scale(0.996264)"/>
    <use xlink:href="#NimbusSanL-Regu-51" transform="translate(55.391677 0) scale(0.996264)"/>
    <use xlink:href="#NimbusSanL-Regu-41" transform="translate(132.900047 0) scale(0.996264)"/>
   </g>
  </g>
  <g id="legend_1">
   <g id="patch_12">
    <path d="M 195.546549 481.290264 
L 740.453451 481.290264 
L 740.453451 443 
L 195.546549 443 
z
" style="fill: #ffffff; opacity: 0.8; stroke: #cccccc; stroke-linejoin: miter"/>
   </g>
   <g id="line2d_49">
    <path style="fill: none; stroke: #fda85a; stroke-width: 3; stroke-linecap: square"/>
   </g>
   <g id="text_15">
    <!-- MPS (quimb) -->
    <g transform="translate(265.946549 467.821903) scale(0.22 -0.22)">
     <defs>
      <path id="NimbusSanL-Regu-4d" d="M 2995 -2 
L 4307 3915 
L 4307 -2 
L 4870 -2 
L 4870 4672 
L 4045 4672 
L 2688 601 
L 1306 4672 
L 480 4672 
L 480 -2 
L 1043 -2 
L 1043 3915 
L 2368 -2 
L 2995 -2 
z
" transform="scale(0.015625)"/>
      <path id="NimbusSanL-Regu-50" d="M 1178 1984 
L 2643 1984 
C 3008 1984 3296 2093 3546 2316 
C 3827 2573 3949 2873 3949 3303 
C 3949 4179 3430 4672 2509 4672 
L 582 4672 
L 582 -14 
L 1178 -14 
L 1178 1984 
z
M 1178 2510 
L 1178 4146 
L 2419 4146 
C 2989 4146 3328 3839 3328 3327 
C 3328 2816 2989 2510 2419 2510 
L 1178 2510 
z
" transform="scale(0.015625)"/>
      <path id="NimbusSanL-Regu-53" d="M 3814 3335 
C 3808 4255 3181 4788 2106 4788 
C 1082 4788 448 4260 448 3410 
C 448 2837 749 2477 1363 2316 
L 2522 2007 
C 3110 1852 3379 1614 3379 1247 
C 3379 995 3245 738 3046 597 
C 2861 468 2566 397 2189 397 
C 1683 397 1338 520 1114 790 
C 941 996 864 1222 870 1511 
L 307 1511 
C 314 1081 397 798 582 540 
C 902 103 1440 -128 2150 -128 
C 2707 -128 3162 1 3462 232 
C 3776 483 3974 901 3974 1307 
C 3974 1886 3616 2311 2982 2485 
L 1811 2801 
C 1248 2955 1043 3135 1043 3496 
C 1043 3972 1459 4288 2086 4288 
C 2829 4288 3245 3947 3251 3335 
L 3814 3335 
z
" transform="scale(0.015625)"/>
      <path id="NimbusSanL-Regu-28" d="M 1510 4672 
C 870 3830 467 2660 467 1651 
C 467 636 870 -534 1510 -1376 
L 1862 -1376 
C 1299 -457 986 623 986 1651 
C 986 2673 1299 3759 1862 4672 
L 1510 4672 
z
" transform="scale(0.015625)"/>
      <path id="NimbusSanL-Regu-71" d="M 3168 -1408 
L 3168 3349 
L 2694 3349 
L 2694 2899 
C 2445 3251 2067 3444 1626 3444 
C 742 3444 166 2715 166 1593 
C 166 497 717 -180 1600 -180 
C 2067 -180 2387 -14 2637 352 
L 2637 -1408 
L 3168 -1408 
z
M 1702 2944 
C 2272 2944 2637 2427 2637 1612 
C 2637 837 2266 320 1702 320 
C 1114 320 723 843 723 1632 
C 723 2414 1114 2944 1702 2944 
z
" transform="scale(0.015625)"/>
      <path id="NimbusSanL-Regu-75" d="M 3085 33 
L 3085 3392 
L 2554 3392 
L 2554 1479 
C 2554 790 2195 340 1638 340 
C 1216 340 947 597 947 1003 
L 947 3392 
L 416 3392 
L 416 792 
C 416 232 832 -128 1485 -128 
C 1978 -128 2291 45 2605 488 
L 2605 33 
L 3085 33 
z
" transform="scale(0.015625)"/>
      <path id="NimbusSanL-Regu-69" d="M 960 3359 
L 429 3359 
L 429 0 
L 960 0 
L 960 3359 
z
M 960 4672 
L 422 4672 
L 422 3999 
L 960 3999 
L 960 4672 
z
" transform="scale(0.015625)"/>
      <path id="NimbusSanL-Regu-6d" d="M 448 3359 
L 448 0 
L 986 0 
L 986 2109 
C 986 2597 1338 2988 1773 2988 
C 2170 2988 2394 2744 2394 2314 
L 2394 0 
L 2931 0 
L 2931 2109 
C 2931 2597 3283 2988 3718 2988 
C 4109 2988 4339 2738 4339 2314 
L 4339 0 
L 4877 0 
L 4877 2520 
C 4877 3122 4531 3456 3904 3456 
C 3456 3456 3187 3321 2874 2943 
C 2675 3302 2406 3456 1971 3456 
C 1523 3456 1229 3289 941 2885 
L 941 3359 
L 448 3359 
z
" transform="scale(0.015625)"/>
      <path id="NimbusSanL-Regu-62" d="M 346 4672 
L 346 -2 
L 826 -2 
L 826 448 
C 1082 57 1421 -128 1888 -128 
C 2771 -128 3347 592 3347 1702 
C 3347 2786 2797 3456 1914 3456 
C 1453 3456 1126 3282 877 2905 
L 877 4672 
L 346 4672 
z
M 1811 2956 
C 2406 2956 2790 2440 2790 1645 
C 2790 887 2394 372 1811 372 
C 1248 372 877 881 877 1664 
C 877 2447 1248 2956 1811 2956 
z
" transform="scale(0.015625)"/>
      <path id="NimbusSanL-Regu-29" d="M 595 -1376 
C 1235 -534 1638 636 1638 1644 
C 1638 2660 1235 3830 595 4672 
L 243 4672 
C 806 3753 1120 2673 1120 1644 
C 1120 623 806 -464 243 -1376 
L 595 -1376 
z
" transform="scale(0.015625)"/>
     </defs>
     <use xlink:href="#NimbusSanL-Regu-4d" transform="scale(0.996264)"/>
     <use xlink:href="#NimbusSanL-Regu-50" transform="translate(82.98843 0) scale(0.996264)"/>
     <use xlink:href="#NimbusSanL-Regu-53" transform="translate(149.438461 0) scale(0.996264)"/>
     <use xlink:href="#NimbusSanL-Regu-28" transform="translate(243.583662 0) scale(0.996264)"/>
     <use xlink:href="#NimbusSanL-Regu-71" transform="translate(276.758892 0) scale(0.996264)"/>
     <use xlink:href="#NimbusSanL-Regu-75" transform="translate(332.150569 0) scale(0.996264)"/>
     <use xlink:href="#NimbusSanL-Regu-69" transform="translate(387.542246 0) scale(0.996264)"/>
     <use xlink:href="#NimbusSanL-Regu-6d" transform="translate(409.65903 0) scale(0.996264)"/>
     <use xlink:href="#NimbusSanL-Regu-62" transform="translate(492.64746 0) scale(0.996264)"/>
     <use xlink:href="#NimbusSanL-Regu-29" transform="translate(548.039137 0) scale(0.996264)"/>
    </g>
   </g>
   <g id="line2d_50">
    <path style="fill: none; stroke-dasharray: 7.4,3.2; stroke-dashoffset: 0; stroke: #00a645; stroke-width: 2"/>
   </g>
   <g id="text_16">
    <!-- ED -->
    <g transform="translate(499.413635 467.821903) scale(0.22 -0.22)">
     <defs>
      <path id="NimbusSanL-Regu-45" d="M 1171 2112 
L 3712 2112 
L 3712 2638 
L 1171 2638 
L 1171 4146 
L 3808 4146 
L 3808 4672 
L 576 4672 
L 576 0 
L 3923 0 
L 3923 526 
L 1171 526 
L 1171 2112 
z
" transform="scale(0.015625)"/>
      <path id="NimbusSanL-Regu-44" d="M 570 0 
L 2368 0 
C 3546 0 4269 885 4269 2339 
C 4269 3787 3552 4672 2368 4672 
L 570 4672 
L 570 0 
z
M 1165 526 
L 1165 4146 
L 2266 4146 
C 3187 4146 3674 3524 3674 2333 
C 3674 1154 3187 526 2266 526 
L 1165 526 
z
" transform="scale(0.015625)"/>
     </defs>
     <use xlink:href="#NimbusSanL-Regu-45" transform="scale(0.996264)"/>
     <use xlink:href="#NimbusSanL-Regu-44" transform="translate(66.450031 0) scale(0.996264)"/>
    </g>
   </g>
   <g id="line2d_51">
    <path style="fill: none; stroke: #800080; stroke-width: 3; stroke-linecap: square"/>
   </g>
   <g id="text_17">
    <!-- MPS (jax) -->
    <g transform="translate(635.457226 467.821903) scale(0.22 -0.22)">
     <defs>
      <path id="NimbusSanL-Regu-6a" d="M 448 3356 
L 448 -496 
C 448 -831 339 -940 13 -940 
C -6 -940 -6 -940 -115 -940 
L -115 -1389 
C -51 -1408 -19 -1408 64 -1408 
C 666 -1408 979 -1164 979 -708 
L 979 3356 
L 448 3356 
z
M 979 4672 
L 448 4672 
L 448 3999 
L 979 3999 
L 979 4672 
z
" transform="scale(0.015625)"/>
      <path id="NimbusSanL-Regu-61" d="M 3424 333 
C 3366 320 3341 320 3309 320 
C 3123 320 3021 415 3021 581 
L 3021 2545 
C 3021 3137 2586 3456 1760 3456 
C 1274 3456 870 3316 646 3066 
C 493 2893 429 2702 416 2370 
L 954 2370 
C 998 2777 1242 2962 1741 2962 
C 2221 2962 2490 2783 2490 2465 
L 2490 2325 
C 2490 2101 2355 2006 1933 1955 
C 1178 1860 1062 1834 858 1751 
C 467 1592 269 1292 269 859 
C 269 254 691 -128 1370 -128 
C 1792 -128 2131 19 2509 365 
C 2547 25 2714 -128 3059 -128 
C 3168 -128 3251 -116 3424 -70 
L 3424 333 
z
M 2490 1072 
C 2490 893 2438 785 2278 639 
C 2061 441 1798 340 1485 340 
C 1069 340 826 537 826 874 
C 826 1225 1062 1403 1632 1486 
C 2195 1562 2310 1588 2490 1670 
L 2490 1072 
z
" transform="scale(0.015625)"/>
      <path id="NimbusSanL-Regu-78" d="M 1869 1737 
L 2995 3359 
L 2394 3359 
L 1587 2141 
L 781 3359 
L 173 3359 
L 1293 1712 
L 109 0 
L 717 0 
L 1568 1288 
L 2406 0 
L 3027 0 
L 1869 1737 
z
" transform="scale(0.015625)"/>
     </defs>
     <use xlink:href="#NimbusSanL-Regu-4d" transform="scale(0.996264)"/>
     <use xlink:href="#NimbusSanL-Regu-50" transform="translate(82.98843 0) scale(0.996264)"/>
     <use xlink:href="#NimbusSanL-Regu-53" transform="translate(149.438461 0) scale(0.996264)"/>
     <use xlink:href="#NimbusSanL-Regu-28" transform="translate(243.583662 0) scale(0.996264)"/>
     <use xlink:href="#NimbusSanL-Regu-6a" transform="translate(276.758892 0) scale(0.996264)"/>
     <use xlink:href="#NimbusSanL-Regu-61" transform="translate(298.875676 0) scale(0.996264)"/>
     <use xlink:href="#NimbusSanL-Regu-78" transform="translate(354.267353 0) scale(0.996264)"/>
     <use xlink:href="#NimbusSanL-Regu-29" transform="translate(404.080554 0) scale(0.996264)"/>
    </g>
   </g>
  </g>
 </g>
 <defs>
  <clipPath id="pab7db0b904">
   <rect x="117" y="51.84" width="329.727273" height="332.64"/>
  </clipPath>
  <clipPath id="p82fd96383d">
   <rect x="512.672727" y="51.84" width="329.727273" height="332.64"/>
  </clipPath>
 </defs>
</svg>
