<?xml version="1.0" encoding="utf-8" standalone="no"?>
<!DOCTYPE svg PUBLIC "-//W3C//DTD SVG 1.1//EN"
  "http://www.w3.org/Graphics/SVG/1.1/DTD/svg11.dtd">
<svg xmlns:xlink="http://www.w3.org/1999/xlink" width="756.427864pt" height="331.530264pt" viewBox="0 0 756.427864 331.530264" xmlns="http://www.w3.org/2000/svg" version="1.1">
 <metadata>
  <rdf:RDF xmlns:dc="http://purl.org/dc/elements/1.1/" xmlns:cc="http://creativecommons.org/ns#" xmlns:rdf="http://www.w3.org/1999/02/22-rdf-syntax-ns#">
   <cc:Work>
    <dc:type rdf:resource="http://purl.org/dc/dcmitype/StillImage"/>
    <dc:date>2023-03-30T15:14:20.484873</dc:date>
    <dc:format>image/svg+xml</dc:format>
    <dc:creator>
     <cc:Agent>
      <dc:title>Matplotlib v3.6.0, https://matplotlib.org/</dc:title>
     </cc:Agent>
    </dc:creator>
   </cc:Work>
  </rdf:RDF>
 </metadata>
 <defs>
  <style type="text/css">*{stroke-linejoin: round; stroke-linecap: butt}</style>
 </defs>
 <g id="figure_1">
  <g id="patch_1">
   <path d="M 0 331.530264 
L 756.427864 331.530264 
L 756.427864 0 
L 0 0 
L 0 331.530264 
z
" style="fill: none"/>
  </g>
  <g id="axes_1">
   <g id="patch_2">
    <path d="M 79.627864 228.96 
L 383.9915 228.96 
L 383.9915 7.2 
L 79.627864 7.2 
L 79.627864 228.96 
z
" style="fill: none"/>
   </g>
   <g id="matplotlib.axis_1">
    <g id="xtick_1">
     <g id="line2d_1">
      <defs>
       <path id="m76fa8b3a8a" d="M 0 0 
L 0 3.5 
" style="stroke: #000000; stroke-width: 0.8"/>
      </defs>
      <g>
       <use xlink:href="#m76fa8b3a8a" x="93.462575" y="228.96" style="stroke: #000000; stroke-width: 0.8"/>
      </g>
     </g>
     <g id="text_1">
      <!-- $\mathdefault{0.0}$ -->
      <g transform="translate(80.42998 251.576305) scale(0.22 -0.22)">
       <defs>
        <path id="CMR17-30" d="M 2688 2025 
C 2688 2416 2682 3080 2413 3591 
C 2176 4039 1798 4198 1466 4198 
C 1158 4198 768 4058 525 3597 
C 269 3118 243 2524 243 2025 
C 243 1661 250 1106 448 619 
C 723 -39 1216 -128 1466 -128 
C 1760 -128 2208 -7 2470 600 
C 2662 1042 2688 1559 2688 2025 
z
M 1466 -26 
C 1056 -26 813 325 723 812 
C 653 1188 653 1738 653 2096 
C 653 2588 653 2997 736 3387 
C 858 3929 1216 4096 1466 4096 
C 1728 4096 2067 3923 2189 3400 
C 2272 3036 2278 2607 2278 2096 
C 2278 1680 2278 1169 2202 792 
C 2067 95 1690 -26 1466 -26 
z
" transform="scale(0.015625)"/>
        <path id="CMMI12-3a" d="M 1178 307 
C 1178 492 1024 619 870 619 
C 685 619 557 466 557 313 
C 557 128 710 0 864 0 
C 1050 0 1178 153 1178 307 
z
" transform="scale(0.015625)"/>
       </defs>
       <use xlink:href="#CMR17-30" transform="scale(0.996264)"/>
       <use xlink:href="#CMMI12-3a" transform="translate(45.690477 0) scale(0.996264)"/>
       <use xlink:href="#CMR17-30" transform="translate(72.787654 0) scale(0.996264)"/>
      </g>
     </g>
    </g>
    <g id="xtick_2">
     <g id="line2d_2">
      <g>
       <use xlink:href="#m76fa8b3a8a" x="231.809682" y="228.96" style="stroke: #000000; stroke-width: 0.8"/>
      </g>
     </g>
     <g id="text_2">
      <!-- $\mathdefault{0.5}$ -->
      <g transform="translate(218.777088 251.576305) scale(0.22 -0.22)">
       <defs>
        <path id="CMR17-35" d="M 730 3692 
C 794 3666 1056 3584 1325 3584 
C 1920 3584 2246 3911 2432 4100 
C 2432 4157 2432 4192 2394 4192 
C 2387 4192 2374 4192 2323 4163 
C 2099 4058 1837 3973 1517 3973 
C 1325 3973 1037 3999 723 4139 
C 653 4171 640 4171 634 4171 
C 602 4171 595 4164 595 4037 
L 595 2203 
C 595 2089 595 2057 659 2057 
C 691 2057 704 2070 736 2114 
C 941 2401 1222 2522 1542 2522 
C 1766 2522 2246 2382 2246 1289 
C 2246 1085 2246 715 2054 421 
C 1894 159 1645 25 1370 25 
C 947 25 518 320 403 814 
C 429 807 480 795 506 795 
C 589 795 749 840 749 1038 
C 749 1210 627 1280 506 1280 
C 358 1280 262 1190 262 1011 
C 262 454 704 -128 1382 -128 
C 2042 -128 2669 440 2669 1264 
C 2669 2030 2170 2624 1549 2624 
C 1222 2624 947 2503 730 2274 
L 730 3692 
z
" transform="scale(0.015625)"/>
       </defs>
       <use xlink:href="#CMR17-30" transform="scale(0.996264)"/>
       <use xlink:href="#CMMI12-3a" transform="translate(45.690477 0) scale(0.996264)"/>
       <use xlink:href="#CMR17-35" transform="translate(72.787654 0) scale(0.996264)"/>
      </g>
     </g>
    </g>
    <g id="xtick_3">
     <g id="line2d_3">
      <g>
       <use xlink:href="#m76fa8b3a8a" x="370.15679" y="228.96" style="stroke: #000000; stroke-width: 0.8"/>
      </g>
     </g>
     <g id="text_3">
      <!-- $\mathdefault{1.0}$ -->
      <g transform="translate(357.124195 251.576305) scale(0.22 -0.22)">
       <defs>
        <path id="CMR17-31" d="M 1702 4058 
C 1702 4192 1696 4192 1606 4192 
C 1357 3916 979 3827 621 3827 
C 602 3827 570 3827 563 3808 
C 557 3795 557 3782 557 3648 
C 755 3648 1088 3686 1344 3839 
L 1344 461 
C 1344 236 1331 160 781 160 
L 589 160 
L 589 0 
C 896 0 1216 0 1523 0 
C 1830 0 2150 0 2458 0 
L 2458 160 
L 2266 160 
C 1715 160 1702 230 1702 458 
L 1702 4058 
z
" transform="scale(0.015625)"/>
       </defs>
       <use xlink:href="#CMR17-31" transform="scale(0.996264)"/>
       <use xlink:href="#CMMI12-3a" transform="translate(45.690477 0) scale(0.996264)"/>
       <use xlink:href="#CMR17-30" transform="translate(72.787654 0) scale(0.996264)"/>
      </g>
     </g>
    </g>
    <g id="text_4">
     <!-- $s$ -->
     <g transform="translate(226.755181 275.86097) scale(0.22 -0.22)">
      <defs>
       <path id="CMMI12-73" d="M 1459 1280 
C 1568 1261 1741 1223 1779 1216 
C 1862 1192 2150 1090 2150 783 
C 2150 586 1971 70 1229 70 
C 1094 70 614 70 486 436 
C 742 404 870 603 870 745 
C 870 880 781 950 653 950 
C 512 950 326 841 326 552 
C 326 173 710 -64 1222 -64 
C 2195 -64 2483 651 2483 984 
C 2483 1079 2483 1258 2278 1462 
C 2118 1616 1965 1648 1619 1718 
C 1446 1756 1171 1814 1171 2101 
C 1171 2229 1286 2689 1894 2689 
C 2163 2689 2426 2589 2490 2368 
C 2208 2368 2195 2125 2195 2119 
C 2195 1984 2317 1946 2374 1946 
C 2464 1946 2643 2015 2643 2281 
C 2643 2545 2400 2816 1901 2816 
C 1062 2816 838 2160 838 1899 
C 838 1414 1312 1312 1459 1280 
z
" transform="scale(0.015625)"/>
      </defs>
      <use xlink:href="#CMMI12-73" transform="scale(0.996264)"/>
     </g>
    </g>
   </g>
   <g id="matplotlib.axis_2">
    <g id="ytick_1">
     <g id="line2d_4">
      <defs>
       <path id="m2a8fe5a09c" d="M 0 0 
L -3.5 0 
" style="stroke: #000000; stroke-width: 0.8"/>
      </defs>
      <g>
       <use xlink:href="#m2a8fe5a09c" x="79.627864" y="169.904706" style="stroke: #000000; stroke-width: 0.8"/>
      </g>
     </g>
     <g id="text_5">
      <!-- $\mathdefault{10^{-2}}$ -->
      <g transform="translate(33.079743 177.712859) scale(0.22 -0.22)">
       <defs>
        <path id="CMSY10-0" d="M 4218 1472 
C 4326 1472 4442 1472 4442 1600 
C 4442 1728 4326 1728 4218 1728 
L 755 1728 
C 646 1728 531 1728 531 1600 
C 531 1472 646 1472 755 1472 
L 4218 1472 
z
" transform="scale(0.015625)"/>
        <path id="CMR17-32" d="M 2669 989 
L 2554 989 
C 2490 536 2438 459 2413 420 
C 2381 369 1920 369 1830 369 
L 602 369 
C 832 619 1280 1072 1824 1597 
C 2214 1967 2669 2402 2669 3035 
C 2669 3790 2067 4224 1395 4224 
C 691 4224 262 3604 262 3030 
C 262 2780 448 2748 525 2748 
C 589 2748 781 2787 781 3010 
C 781 3207 614 3264 525 3264 
C 486 3264 448 3258 422 3245 
C 544 3790 915 4058 1306 4058 
C 1862 4058 2227 3617 2227 3035 
C 2227 2479 1901 2000 1536 1584 
L 262 146 
L 262 0 
L 2515 0 
L 2669 989 
z
" transform="scale(0.015625)"/>
       </defs>
       <use xlink:href="#CMR17-31" transform="scale(0.996264)"/>
       <use xlink:href="#CMR17-30" transform="translate(45.690477 0) scale(0.996264)"/>
       <use xlink:href="#CMSY10-0" transform="translate(91.380954 36.153639) scale(0.697382)"/>
       <use xlink:href="#CMR17-32" transform="translate(145.621947 36.153639) scale(0.697382)"/>
      </g>
     </g>
    </g>
    <g id="ytick_2">
     <g id="line2d_5">
      <g>
       <use xlink:href="#m2a8fe5a09c" x="79.627864" y="65.861382" style="stroke: #000000; stroke-width: 0.8"/>
      </g>
     </g>
     <g id="text_6">
      <!-- $\mathdefault{10^{-1}}$ -->
      <g transform="translate(33.079743 73.669534) scale(0.22 -0.22)">
       <use xlink:href="#CMR17-31" transform="scale(0.996264)"/>
       <use xlink:href="#CMR17-30" transform="translate(45.690477 0) scale(0.996264)"/>
       <use xlink:href="#CMSY10-0" transform="translate(91.380954 36.153639) scale(0.697382)"/>
       <use xlink:href="#CMR17-31" transform="translate(145.621947 36.153639) scale(0.697382)"/>
      </g>
     </g>
    </g>
    <g id="ytick_3">
     <g id="line2d_6">
      <defs>
       <path id="m042a00113f" d="M 0 0 
L -2 0 
" style="stroke: #000000; stroke-width: 0.6"/>
      </defs>
      <g>
       <use xlink:href="#m042a00113f" x="79.627864" y="224.306749" style="stroke: #000000; stroke-width: 0.6"/>
      </g>
     </g>
    </g>
    <g id="ytick_4">
     <g id="line2d_7">
      <g>
       <use xlink:href="#m042a00113f" x="79.627864" y="211.307707" style="stroke: #000000; stroke-width: 0.6"/>
      </g>
     </g>
    </g>
    <g id="ytick_5">
     <g id="line2d_8">
      <g>
       <use xlink:href="#m042a00113f" x="79.627864" y="201.224868" style="stroke: #000000; stroke-width: 0.6"/>
      </g>
     </g>
    </g>
    <g id="ytick_6">
     <g id="line2d_9">
      <g>
       <use xlink:href="#m042a00113f" x="79.627864" y="192.986588" style="stroke: #000000; stroke-width: 0.6"/>
      </g>
     </g>
    </g>
    <g id="ytick_7">
     <g id="line2d_10">
      <g>
       <use xlink:href="#m042a00113f" x="79.627864" y="186.021221" style="stroke: #000000; stroke-width: 0.6"/>
      </g>
     </g>
    </g>
    <g id="ytick_8">
     <g id="line2d_11">
      <g>
       <use xlink:href="#m042a00113f" x="79.627864" y="179.987546" style="stroke: #000000; stroke-width: 0.6"/>
      </g>
     </g>
    </g>
    <g id="ytick_9">
     <g id="line2d_12">
      <g>
       <use xlink:href="#m042a00113f" x="79.627864" y="174.665468" style="stroke: #000000; stroke-width: 0.6"/>
      </g>
     </g>
    </g>
    <g id="ytick_10">
     <g id="line2d_13">
      <g>
       <use xlink:href="#m042a00113f" x="79.627864" y="138.584545" style="stroke: #000000; stroke-width: 0.6"/>
      </g>
     </g>
    </g>
    <g id="ytick_11">
     <g id="line2d_14">
      <g>
       <use xlink:href="#m042a00113f" x="79.627864" y="120.263425" style="stroke: #000000; stroke-width: 0.6"/>
      </g>
     </g>
    </g>
    <g id="ytick_12">
     <g id="line2d_15">
      <g>
       <use xlink:href="#m042a00113f" x="79.627864" y="107.264383" style="stroke: #000000; stroke-width: 0.6"/>
      </g>
     </g>
    </g>
    <g id="ytick_13">
     <g id="line2d_16">
      <g>
       <use xlink:href="#m042a00113f" x="79.627864" y="97.181544" style="stroke: #000000; stroke-width: 0.6"/>
      </g>
     </g>
    </g>
    <g id="ytick_14">
     <g id="line2d_17">
      <g>
       <use xlink:href="#m042a00113f" x="79.627864" y="88.943263" style="stroke: #000000; stroke-width: 0.6"/>
      </g>
     </g>
    </g>
    <g id="ytick_15">
     <g id="line2d_18">
      <g>
       <use xlink:href="#m042a00113f" x="79.627864" y="81.977897" style="stroke: #000000; stroke-width: 0.6"/>
      </g>
     </g>
    </g>
    <g id="ytick_16">
     <g id="line2d_19">
      <g>
       <use xlink:href="#m042a00113f" x="79.627864" y="75.944222" style="stroke: #000000; stroke-width: 0.6"/>
      </g>
     </g>
    </g>
    <g id="ytick_17">
     <g id="line2d_20">
      <g>
       <use xlink:href="#m042a00113f" x="79.627864" y="70.622144" style="stroke: #000000; stroke-width: 0.6"/>
      </g>
     </g>
    </g>
    <g id="ytick_18">
     <g id="line2d_21">
      <g>
       <use xlink:href="#m042a00113f" x="79.627864" y="34.541221" style="stroke: #000000; stroke-width: 0.6"/>
      </g>
     </g>
    </g>
    <g id="ytick_19">
     <g id="line2d_22">
      <g>
       <use xlink:href="#m042a00113f" x="79.627864" y="16.220101" style="stroke: #000000; stroke-width: 0.6"/>
      </g>
     </g>
    </g>
    <g id="text_7">
     <!-- $\varepsilon(s)$ -->
     <g transform="translate(23.618624 135.917779) rotate(-90) scale(0.22 -0.22)">
      <defs>
       <path id="CMMI12-22" d="M 890 1427 
C 1094 1345 1312 1345 1434 1345 
C 1600 1345 1933 1345 1933 1550 
C 1933 1678 1811 1728 1485 1728 
C 1325 1728 1133 1709 909 1613 
C 710 1708 634 1852 634 1990 
C 634 2379 1261 2606 1830 2606 
C 1939 2606 2170 2606 2438 2411 
C 2477 2387 2496 2367 2541 2367 
C 2618 2367 2701 2449 2701 2526 
C 2701 2639 2330 2880 1888 2880 
C 1171 2880 493 2449 493 1972 
C 493 1734 646 1586 755 1509 
C 384 1301 166 961 166 652 
C 166 219 563 -128 1178 -128 
C 2022 -128 2362 424 2362 512 
C 2362 543 2336 568 2304 568 
C 2272 568 2259 549 2234 512 
C 2163 395 1997 146 1235 146 
C 838 146 314 245 314 686 
C 314 898 474 1214 890 1427 
z
M 1088 1518 
C 1261 1600 1427 1600 1472 1600 
C 1651 1600 1683 1583 1786 1545 
C 1677 1472 1664 1472 1434 1472 
C 1318 1472 1216 1472 1088 1518 
z
" transform="scale(0.015625)"/>
       <path id="CMR17-28" d="M 1958 -1561 
C 1958 -1555 1958 -1542 1939 -1523 
C 1645 -1224 858 -407 858 1581 
C 858 3569 1632 4379 1946 4697 
C 1946 4704 1958 4717 1958 4736 
C 1958 4755 1939 4768 1914 4768 
C 1843 4768 1299 4296 986 3594 
C 666 2887 576 2199 576 1588 
C 576 1128 621 351 1005 -471 
C 1312 -1135 1837 -1600 1914 -1600 
C 1946 -1600 1958 -1587 1958 -1561 
z
" transform="scale(0.015625)"/>
       <path id="CMR17-29" d="M 1683 1581 
C 1683 2040 1638 2817 1254 3639 
C 947 4303 422 4768 346 4768 
C 326 4768 301 4761 301 4729 
C 301 4717 307 4710 314 4697 
C 621 4378 1402 3568 1402 1584 
C 1402 -407 627 -1217 314 -1537 
C 307 -1549 301 -1556 301 -1568 
C 301 -1600 326 -1600 346 -1600 
C 416 -1600 960 -1128 1274 -426 
C 1594 281 1683 969 1683 1581 
z
" transform="scale(0.015625)"/>
      </defs>
      <use xlink:href="#CMMI12-22" transform="scale(0.996264)"/>
      <use xlink:href="#CMR17-28" transform="translate(45.650192 0) scale(0.996264)"/>
      <use xlink:href="#CMMI12-73" transform="translate(80.93096 0) scale(0.996264)"/>
      <use xlink:href="#CMR17-29" transform="translate(126.881008 0) scale(0.996264)"/>
     </g>
    </g>
   </g>
   <g id="line2d_23">
    <path d="M 93.462575 17.280026 
L 96.229517 17.529031 
L 98.996459 17.940218 
L 101.763401 18.376496 
L 104.530343 18.733916 
L 107.297285 18.864953 
L 110.064228 18.870693 
L 112.83117 19.04075 
L 115.598112 19.424271 
L 118.365054 19.892812 
L 121.131996 20.373753 
L 123.898938 20.728852 
L 126.66588 20.881972 
L 129.432823 20.952541 
L 132.199765 21.202923 
L 134.966707 21.641548 
L 137.733649 22.168869 
L 140.500591 22.684292 
L 143.267533 23.156805 
L 146.034475 23.442122 
L 148.801418 23.594447 
L 151.56836 23.835116 
L 154.335302 24.271439 
L 157.102244 24.833961 
L 159.869186 25.440527 
L 162.636128 26.008536 
L 165.403071 26.537722 
L 168.170013 26.924486 
L 170.936955 27.193406 
L 173.703897 27.520278 
L 176.470839 28.055992 
L 179.237781 28.69675 
L 182.004723 29.398598 
L 184.771666 30.065913 
L 187.538608 30.715533 
L 190.30555 31.278739 
L 193.072492 31.747626 
L 195.839434 32.23822 
L 198.606376 32.775498 
L 201.373318 33.462844 
L 204.140261 34.164757 
L 206.907203 35.004747 
L 209.674145 35.824429 
L 212.441087 36.631923 
L 215.208029 37.318042 
L 217.974971 37.999063 
L 220.741913 38.730723 
L 223.508856 39.567094 
L 226.275798 40.462405 
L 229.04274 41.302244 
L 231.809682 42.117448 
L 234.576624 43.008009 
L 237.343566 43.96006 
L 240.110509 45.030046 
L 242.877451 46.131375 
L 245.644393 47.175364 
L 248.411335 48.215437 
L 251.178277 49.237006 
L 253.945219 50.274543 
L 256.712161 51.621715 
L 259.479104 53.17193 
L 262.246046 54.417 
L 265.012988 55.61992 
L 267.77993 57.118666 
L 270.546872 58.487869 
L 273.313814 59.870298 
L 276.080756 61.429096 
L 278.847699 63.07198 
L 281.614641 64.574051 
L 284.381583 66.210516 
L 287.148525 68.182393 
L 289.915467 70.165718 
L 292.682409 72.160541 
L 295.449351 74.26821 
L 298.216294 76.56051 
L 300.983236 79.026974 
L 303.750178 81.422576 
L 306.51712 83.927247 
L 309.284062 86.644162 
L 312.051004 89.454418 
L 314.817947 92.404993 
L 317.584889 95.552421 
L 320.351831 98.926436 
L 323.118773 102.572809 
L 325.885715 106.39761 
L 328.652657 110.353393 
L 331.419599 114.734503 
L 334.186542 119.881729 
L 336.953484 125.858244 
L 339.720426 132.491282 
L 342.487368 139.533553 
L 345.25431 146.915181 
L 348.021252 154.738912 
L 350.788194 163.228077 
L 353.555137 172.58749 
L 356.322079 182.835485 
L 359.089021 193.671887 
L 361.855963 204.309146 
L 364.622905 213.302663 
L 367.389847 218.664411 
L 370.15679 218.88 
" clip-path="url(#p7aa3e7a806)" style="fill: none; stroke: #fda85a; stroke-width: 3; stroke-linecap: square"/>
   </g>
   <g id="line2d_24">
    <path d="M 93.462575 17.438795 
L 96.257466 17.822559 
L 99.052357 18.285729 
L 101.847248 18.737034 
L 104.642139 19.034093 
L 107.43703 19.121546 
L 110.231921 19.216892 
L 113.026812 19.527248 
L 115.821703 20.001048 
L 118.616594 20.505775 
L 121.411485 20.975615 
L 124.206376 21.284095 
L 127.001267 21.417443 
L 129.796158 21.582116 
L 132.591049 21.945749 
L 135.385941 22.466852 
L 138.180832 23.023644 
L 140.975723 23.564558 
L 143.770614 23.992799 
L 146.565505 24.257501 
L 149.360396 24.45622 
L 152.155287 24.790087 
L 154.950178 25.306676 
L 157.745069 25.92621 
L 160.53996 26.551608 
L 163.334851 27.144104 
L 166.129742 27.637179 
L 168.924633 28.011035 
L 171.719524 28.338948 
L 174.514415 28.763087 
L 177.309306 29.339436 
L 180.104197 30.033694 
L 182.899089 30.763483 
L 185.69398 31.468156 
L 188.488871 32.114154 
L 191.283762 32.688489 
L 194.078653 33.212358 
L 196.873544 33.742902 
L 199.668435 34.348948 
L 202.463326 35.06115 
L 205.258217 35.867955 
L 208.053108 36.721518 
L 210.847999 37.569967 
L 213.64289 38.382837 
L 216.437781 39.159403 
L 219.232672 39.922458 
L 222.027563 40.698497 
L 224.822454 41.516154 
L 227.617345 42.398783 
L 230.412237 43.354206 
L 233.207128 44.368255 
L 236.002019 45.412288 
L 238.79691 46.457552 
L 241.591801 47.494582 
L 244.386692 48.535804 
L 247.181583 49.60264 
L 249.976474 50.713209 
L 252.771365 51.879325 
L 255.566256 53.106834 
L 258.361147 54.397434 
L 261.156038 55.752564 
L 263.950929 57.162986 
L 266.74582 58.610502 
L 269.540711 60.076759 
L 272.335602 61.555124 
L 275.130493 63.055312 
L 277.925385 64.596791 
L 280.720276 66.202311 
L 283.515167 67.888525 
L 286.310058 69.669954 
L 289.104949 71.551165 
L 291.89984 73.539092 
L 294.694731 75.63575 
L 297.489622 77.840929 
L 300.284513 80.152089 
L 303.079404 82.5677 
L 305.874295 85.089103 
L 308.669186 87.724924 
L 311.464077 90.490629 
L 314.258968 93.408037 
L 317.053859 96.504939 
L 319.84875 99.812148 
L 322.643642 103.362704 
L 325.438533 107.192054 
L 328.233424 111.339175 
L 331.028315 115.847441 
L 333.823206 120.76538 
L 336.618097 126.148605 
L 339.412988 132.060849 
L 342.207879 138.573635 
L 345.00277 145.764114 
L 347.797661 153.710841 
L 350.592552 162.478566 
L 353.387443 172.085804 
L 356.182334 182.438079 
L 358.977225 193.200873 
L 361.772116 203.59673 
L 364.567007 212.214019 
L 367.361898 217.190449 
L 370.15679 217.190449 
" clip-path="url(#p7aa3e7a806)" style="fill: none; stroke-dasharray: 7.4,3.2; stroke-dashoffset: 0; stroke: #00a645; stroke-width: 2"/>
   </g>
   <g id="patch_3">
    <path d="M 79.627864 228.96 
L 79.627864 7.2 
" style="fill: none; stroke: #000000; stroke-width: 0.8; stroke-linejoin: miter; stroke-linecap: square"/>
   </g>
   <g id="patch_4">
    <path d="M 383.9915 228.96 
L 383.9915 7.2 
" style="fill: none; stroke: #000000; stroke-width: 0.8; stroke-linejoin: miter; stroke-linecap: square"/>
   </g>
   <g id="patch_5">
    <path d="M 79.627864 228.96 
L 383.9915 228.96 
" style="fill: none; stroke: #000000; stroke-width: 0.8; stroke-linejoin: miter; stroke-linecap: square"/>
   </g>
   <g id="patch_6">
    <path d="M 79.627864 7.2 
L 383.9915 7.2 
" style="fill: none; stroke: #000000; stroke-width: 0.8; stroke-linejoin: miter; stroke-linecap: square"/>
   </g>
  </g>
  <g id="axes_2">
   <g id="patch_7">
    <path d="M 444.864228 228.96 
L 749.227864 228.96 
L 749.227864 7.2 
L 444.864228 7.2 
L 444.864228 228.96 
z
" style="fill: none"/>
   </g>
   <g id="matplotlib.axis_3">
    <g id="xtick_4">
     <g id="line2d_25">
      <g>
       <use xlink:href="#m76fa8b3a8a" x="458.698938" y="228.96" style="stroke: #000000; stroke-width: 0.8"/>
      </g>
     </g>
     <g id="text_8">
      <!-- $\mathdefault{0.0}$ -->
      <g transform="translate(445.666344 251.576305) scale(0.22 -0.22)">
       <use xlink:href="#CMR17-30" transform="scale(0.996264)"/>
       <use xlink:href="#CMMI12-3a" transform="translate(45.690477 0) scale(0.996264)"/>
       <use xlink:href="#CMR17-30" transform="translate(72.787654 0) scale(0.996264)"/>
      </g>
     </g>
    </g>
    <g id="xtick_5">
     <g id="line2d_26">
      <g>
       <use xlink:href="#m76fa8b3a8a" x="597.046046" y="228.96" style="stroke: #000000; stroke-width: 0.8"/>
      </g>
     </g>
     <g id="text_9">
      <!-- $\mathdefault{0.5}$ -->
      <g transform="translate(584.013451 251.576305) scale(0.22 -0.22)">
       <use xlink:href="#CMR17-30" transform="scale(0.996264)"/>
       <use xlink:href="#CMMI12-3a" transform="translate(45.690477 0) scale(0.996264)"/>
       <use xlink:href="#CMR17-35" transform="translate(72.787654 0) scale(0.996264)"/>
      </g>
     </g>
    </g>
    <g id="xtick_6">
     <g id="line2d_27">
      <g>
       <use xlink:href="#m76fa8b3a8a" x="735.393153" y="228.96" style="stroke: #000000; stroke-width: 0.8"/>
      </g>
     </g>
     <g id="text_10">
      <!-- $\mathdefault{1.0}$ -->
      <g transform="translate(722.360559 251.576305) scale(0.22 -0.22)">
       <use xlink:href="#CMR17-31" transform="scale(0.996264)"/>
       <use xlink:href="#CMMI12-3a" transform="translate(45.690477 0) scale(0.996264)"/>
       <use xlink:href="#CMR17-30" transform="translate(72.787654 0) scale(0.996264)"/>
      </g>
     </g>
    </g>
    <g id="text_11">
     <!-- $s$ -->
     <g transform="translate(591.991544 275.86097) scale(0.22 -0.22)">
      <use xlink:href="#CMMI12-73" transform="scale(0.996264)"/>
     </g>
    </g>
   </g>
   <g id="matplotlib.axis_4">
    <g id="ytick_20">
     <g id="line2d_28">
      <g>
       <use xlink:href="#m2a8fe5a09c" x="444.864228" y="169.904706" style="stroke: #000000; stroke-width: 0.8"/>
      </g>
     </g>
     <g id="text_12">
      <!-- $\mathdefault{10^{-2}}$ -->
      <g transform="translate(398.316107 177.712859) scale(0.22 -0.22)">
       <use xlink:href="#CMR17-31" transform="scale(0.996264)"/>
       <use xlink:href="#CMR17-30" transform="translate(45.690477 0) scale(0.996264)"/>
       <use xlink:href="#CMSY10-0" transform="translate(91.380954 36.153639) scale(0.697382)"/>
       <use xlink:href="#CMR17-32" transform="translate(145.621947 36.153639) scale(0.697382)"/>
      </g>
     </g>
    </g>
    <g id="ytick_21">
     <g id="line2d_29">
      <g>
       <use xlink:href="#m2a8fe5a09c" x="444.864228" y="65.861382" style="stroke: #000000; stroke-width: 0.8"/>
      </g>
     </g>
     <g id="text_13">
      <!-- $\mathdefault{10^{-1}}$ -->
      <g transform="translate(398.316107 73.669534) scale(0.22 -0.22)">
       <use xlink:href="#CMR17-31" transform="scale(0.996264)"/>
       <use xlink:href="#CMR17-30" transform="translate(45.690477 0) scale(0.996264)"/>
       <use xlink:href="#CMSY10-0" transform="translate(91.380954 36.153639) scale(0.697382)"/>
       <use xlink:href="#CMR17-31" transform="translate(145.621947 36.153639) scale(0.697382)"/>
      </g>
     </g>
    </g>
    <g id="ytick_22">
     <g id="line2d_30">
      <g>
       <use xlink:href="#m042a00113f" x="444.864228" y="224.306749" style="stroke: #000000; stroke-width: 0.6"/>
      </g>
     </g>
    </g>
    <g id="ytick_23">
     <g id="line2d_31">
      <g>
       <use xlink:href="#m042a00113f" x="444.864228" y="211.307707" style="stroke: #000000; stroke-width: 0.6"/>
      </g>
     </g>
    </g>
    <g id="ytick_24">
     <g id="line2d_32">
      <g>
       <use xlink:href="#m042a00113f" x="444.864228" y="201.224868" style="stroke: #000000; stroke-width: 0.6"/>
      </g>
     </g>
    </g>
    <g id="ytick_25">
     <g id="line2d_33">
      <g>
       <use xlink:href="#m042a00113f" x="444.864228" y="192.986588" style="stroke: #000000; stroke-width: 0.6"/>
      </g>
     </g>
    </g>
    <g id="ytick_26">
     <g id="line2d_34">
      <g>
       <use xlink:href="#m042a00113f" x="444.864228" y="186.021221" style="stroke: #000000; stroke-width: 0.6"/>
      </g>
     </g>
    </g>
    <g id="ytick_27">
     <g id="line2d_35">
      <g>
       <use xlink:href="#m042a00113f" x="444.864228" y="179.987546" style="stroke: #000000; stroke-width: 0.6"/>
      </g>
     </g>
    </g>
    <g id="ytick_28">
     <g id="line2d_36">
      <g>
       <use xlink:href="#m042a00113f" x="444.864228" y="174.665468" style="stroke: #000000; stroke-width: 0.6"/>
      </g>
     </g>
    </g>
    <g id="ytick_29">
     <g id="line2d_37">
      <g>
       <use xlink:href="#m042a00113f" x="444.864228" y="138.584545" style="stroke: #000000; stroke-width: 0.6"/>
      </g>
     </g>
    </g>
    <g id="ytick_30">
     <g id="line2d_38">
      <g>
       <use xlink:href="#m042a00113f" x="444.864228" y="120.263425" style="stroke: #000000; stroke-width: 0.6"/>
      </g>
     </g>
    </g>
    <g id="ytick_31">
     <g id="line2d_39">
      <g>
       <use xlink:href="#m042a00113f" x="444.864228" y="107.264383" style="stroke: #000000; stroke-width: 0.6"/>
      </g>
     </g>
    </g>
    <g id="ytick_32">
     <g id="line2d_40">
      <g>
       <use xlink:href="#m042a00113f" x="444.864228" y="97.181544" style="stroke: #000000; stroke-width: 0.6"/>
      </g>
     </g>
    </g>
    <g id="ytick_33">
     <g id="line2d_41">
      <g>
       <use xlink:href="#m042a00113f" x="444.864228" y="88.943263" style="stroke: #000000; stroke-width: 0.6"/>
      </g>
     </g>
    </g>
    <g id="ytick_34">
     <g id="line2d_42">
      <g>
       <use xlink:href="#m042a00113f" x="444.864228" y="81.977897" style="stroke: #000000; stroke-width: 0.6"/>
      </g>
     </g>
    </g>
    <g id="ytick_35">
     <g id="line2d_43">
      <g>
       <use xlink:href="#m042a00113f" x="444.864228" y="75.944222" style="stroke: #000000; stroke-width: 0.6"/>
      </g>
     </g>
    </g>
    <g id="ytick_36">
     <g id="line2d_44">
      <g>
       <use xlink:href="#m042a00113f" x="444.864228" y="70.622144" style="stroke: #000000; stroke-width: 0.6"/>
      </g>
     </g>
    </g>
    <g id="ytick_37">
     <g id="line2d_45">
      <g>
       <use xlink:href="#m042a00113f" x="444.864228" y="34.541221" style="stroke: #000000; stroke-width: 0.6"/>
      </g>
     </g>
    </g>
    <g id="ytick_38">
     <g id="line2d_46">
      <g>
       <use xlink:href="#m042a00113f" x="444.864228" y="16.220101" style="stroke: #000000; stroke-width: 0.6"/>
      </g>
     </g>
    </g>
   </g>
   <g id="line2d_47">
    <path d="M 458.698938 17.28 
L 461.46588 17.530956 
L 464.232823 17.939837 
L 466.999765 18.376914 
L 469.766707 18.732495 
L 472.533649 18.866957 
L 475.300591 18.872678 
L 478.067533 19.038336 
L 480.834475 19.421123 
L 483.601418 19.894472 
L 486.36836 20.369992 
L 489.135302 20.731659 
L 491.902244 20.881623 
L 494.669186 20.959683 
L 497.436128 21.201563 
L 500.203071 21.644421 
L 502.970013 22.163631 
L 505.736955 22.707957 
L 508.503897 23.1666 
L 511.270839 23.444 
L 514.037781 23.59365 
L 516.804723 23.840221 
L 519.571666 24.2656 
L 522.338608 24.839833 
L 525.10555 25.428646 
L 527.872492 25.997113 
L 530.639434 26.518292 
L 533.406376 26.895009 
L 536.173318 27.1741 
L 538.940261 27.499585 
L 541.707203 28.010186 
L 544.474145 28.678578 
L 547.241087 29.40096 
L 550.008029 30.052594 
L 552.774971 30.70185 
L 555.541913 31.270103 
L 558.308856 31.734059 
L 561.075798 32.194518 
L 563.84274 32.742578 
L 566.609682 33.388326 
L 569.376624 34.181459 
L 572.143566 34.974499 
L 574.910509 35.767625 
L 577.677451 36.550274 
L 580.444393 37.311518 
L 583.211335 37.961682 
L 585.978277 38.70291 
L 588.745219 39.485663 
L 591.512161 40.338004 
L 594.279104 41.211858 
L 597.046046 42.152914 
L 599.812988 43.206822 
L 602.57993 44.295227 
L 605.346872 45.341339 
L 608.113814 46.279094 
L 610.880756 47.289943 
L 613.647699 48.416425 
L 616.414641 49.514548 
L 619.181583 50.715548 
L 621.948525 51.941321 
L 624.715467 53.270076 
L 627.482409 54.731786 
L 630.249351 56.039138 
L 633.016294 57.332789 
L 635.783236 58.827338 
L 638.550178 60.286538 
L 641.31712 61.709971 
L 644.084062 63.199685 
L 646.851004 64.869331 
L 649.617947 66.633915 
L 652.384889 68.546666 
L 655.151831 70.494974 
L 657.918773 72.395857 
L 660.685715 74.452412 
L 663.452657 76.767483 
L 666.219599 79.176348 
L 668.986542 81.587674 
L 671.753484 83.967951 
L 674.520426 86.35882 
L 677.287368 89.036638 
L 680.05431 92.338098 
L 682.821252 95.971441 
L 685.588194 99.553957 
L 688.355137 103.107586 
L 691.122079 106.897048 
L 693.889021 111.116718 
L 696.655963 115.825244 
L 699.422905 120.873712 
L 702.189847 126.132481 
L 704.95679 131.763394 
L 707.723732 138.079297 
L 710.490674 145.336864 
L 713.257616 153.587082 
L 716.024558 162.799128 
L 718.7915 172.808976 
L 721.558442 183.367518 
L 724.325385 194.08803 
L 727.092327 204.297556 
L 729.859269 212.810251 
L 732.626211 217.922817 
L 735.393153 218.192047 
" clip-path="url(#p1791e9154e)" style="fill: none; stroke: #800080; stroke-width: 3; stroke-linecap: square"/>
   </g>
   <g id="line2d_48">
    <path d="M 458.698938 17.438795 
L 461.493829 17.822559 
L 464.28872 18.285729 
L 467.083611 18.737034 
L 469.878503 19.034093 
L 472.673394 19.121546 
L 475.468285 19.216892 
L 478.263176 19.527248 
L 481.058067 20.001048 
L 483.852958 20.505775 
L 486.647849 20.975615 
L 489.44274 21.284095 
L 492.237631 21.417443 
L 495.032522 21.582116 
L 497.827413 21.945749 
L 500.622304 22.466852 
L 503.417195 23.023644 
L 506.212086 23.564558 
L 509.006977 23.992799 
L 511.801868 24.257501 
L 514.596759 24.45622 
L 517.391651 24.790087 
L 520.186542 25.306676 
L 522.981433 25.92621 
L 525.776324 26.551608 
L 528.571215 27.144104 
L 531.366106 27.637179 
L 534.160997 28.011035 
L 536.955888 28.338948 
L 539.750779 28.763087 
L 542.54567 29.339436 
L 545.340561 30.033694 
L 548.135452 30.763483 
L 550.930343 31.468156 
L 553.725234 32.114154 
L 556.520125 32.688489 
L 559.315016 33.212358 
L 562.109907 33.742902 
L 564.904799 34.348948 
L 567.69969 35.06115 
L 570.494581 35.867955 
L 573.289472 36.721518 
L 576.084363 37.569967 
L 578.879254 38.382837 
L 581.674145 39.159403 
L 584.469036 39.922458 
L 587.263927 40.698497 
L 590.058818 41.516154 
L 592.853709 42.398783 
L 595.6486 43.354206 
L 598.443491 44.368255 
L 601.238382 45.412288 
L 604.033273 46.457552 
L 606.828164 47.494582 
L 609.623055 48.535804 
L 612.417947 49.60264 
L 615.212838 50.713209 
L 618.007729 51.879325 
L 620.80262 53.106834 
L 623.597511 54.397434 
L 626.392402 55.752564 
L 629.187293 57.162986 
L 631.982184 58.610502 
L 634.777075 60.076759 
L 637.571966 61.555124 
L 640.366857 63.055312 
L 643.161748 64.596791 
L 645.956639 66.202311 
L 648.75153 67.888525 
L 651.546421 69.669954 
L 654.341312 71.551165 
L 657.136203 73.539092 
L 659.931095 75.63575 
L 662.725986 77.840929 
L 665.520877 80.152089 
L 668.315768 82.5677 
L 671.110659 85.089103 
L 673.90555 87.724924 
L 676.700441 90.490629 
L 679.495332 93.408037 
L 682.290223 96.504939 
L 685.085114 99.812148 
L 687.880005 103.362704 
L 690.674896 107.192054 
L 693.469787 111.339175 
L 696.264678 115.847441 
L 699.059569 120.76538 
L 701.85446 126.148605 
L 704.649351 132.060849 
L 707.444243 138.573635 
L 710.239134 145.764114 
L 713.034025 153.710841 
L 715.828916 162.478566 
L 718.623807 172.085804 
L 721.418698 182.438079 
L 724.213589 193.200873 
L 727.00848 203.59673 
L 729.803371 212.214019 
L 732.598262 217.190449 
L 735.393153 217.190449 
" clip-path="url(#p1791e9154e)" style="fill: none; stroke-dasharray: 7.4,3.2; stroke-dashoffset: 0; stroke: #00a645; stroke-width: 2"/>
   </g>
   <g id="patch_8">
    <path d="M 444.864228 228.96 
L 444.864228 7.2 
" style="fill: none; stroke: #000000; stroke-width: 0.8; stroke-linejoin: miter; stroke-linecap: square"/>
   </g>
   <g id="patch_9">
    <path d="M 749.227864 228.96 
L 749.227864 7.2 
" style="fill: none; stroke: #000000; stroke-width: 0.8; stroke-linejoin: miter; stroke-linecap: square"/>
   </g>
   <g id="patch_10">
    <path d="M 444.864228 228.96 
L 749.227864 228.96 
" style="fill: none; stroke: #000000; stroke-width: 0.8; stroke-linejoin: miter; stroke-linecap: square"/>
   </g>
   <g id="patch_11">
    <path d="M 444.864228 7.2 
L 749.227864 7.2 
" style="fill: none; stroke: #000000; stroke-width: 0.8; stroke-linejoin: miter; stroke-linecap: square"/>
   </g>
  </g>
  <g id="text_14">
   <!-- dQA -->
   <g transform="translate(377.31367 -2.860444) scale(0.264 -0.264)">
    <defs>
     <path id="NimbusSanL-Regu-64" d="M 3168 4672 
L 2637 4672 
L 2637 2937 
C 2413 3276 2054 3456 1606 3456 
C 736 3456 166 2761 166 1695 
C 166 566 723 -128 1626 -128 
C 2086 -128 2406 45 2694 461 
L 2694 -2 
L 3168 -2 
L 3168 4672 
z
M 1696 2956 
C 2272 2956 2637 2447 2637 1651 
C 2637 881 2266 372 1702 372 
C 1114 372 723 887 723 1664 
C 723 2440 1114 2956 1696 2956 
z
" transform="scale(0.015625)"/>
     <path id="NimbusSanL-Regu-51" d="M 4691 13 
L 4090 505 
C 4531 990 4749 1590 4749 2324 
C 4749 3766 3840 4750 2496 4750 
C 1152 4750 243 3766 243 2311 
C 243 855 1152 -128 2496 -128 
C 2957 -128 3341 -26 3718 199 
L 4390 -359 
L 4691 13 
z
M 3078 1330 
L 2784 971 
L 3258 576 
C 2982 449 2771 397 2490 397 
C 1498 397 838 1163 838 2311 
C 838 3459 1504 4224 2496 4224 
C 3488 4224 4154 3459 4154 2317 
C 4154 1717 3994 1252 3648 863 
L 3078 1330 
z
" transform="scale(0.015625)"/>
     <path id="NimbusSanL-Regu-41" d="M 3034 1408 
L 3514 0 
L 4179 0 
L 2541 4672 
L 1773 4672 
L 109 0 
L 742 0 
L 1235 1408 
L 3034 1408 
z
M 2867 1908 
L 1382 1908 
L 2150 4032 
L 2867 1908 
z
" transform="scale(0.015625)"/>
    </defs>
    <use xlink:href="#NimbusSanL-Regu-64" transform="scale(0.996264)"/>
    <use xlink:href="#NimbusSanL-Regu-51" transform="translate(55.391677 0) scale(0.996264)"/>
    <use xlink:href="#NimbusSanL-Regu-41" transform="translate(132.900047 0) scale(0.996264)"/>
   </g>
  </g>
  <g id="legend_1">
   <g id="patch_12">
    <path d="M 131.174412 324.330264 
L 676.081315 324.330264 
L 676.081315 286.04 
L 131.174412 286.04 
z
" style="fill: #ffffff; opacity: 0.8; stroke: #cccccc; stroke-linejoin: miter"/>
   </g>
   <g id="line2d_49">
    <path d="M 139.974412 303.161903 
L 161.974412 303.161903 
L 183.974412 303.161903 
" style="fill: none; stroke: #fda85a; stroke-width: 3; stroke-linecap: square"/>
   </g>
   <g id="text_15">
    <!-- MPS (quimb) -->
    <g transform="translate(201.574412 310.861903) scale(0.22 -0.22)">
     <defs>
      <path id="NimbusSanL-Regu-4d" d="M 2995 -2 
L 4307 3915 
L 4307 -2 
L 4870 -2 
L 4870 4672 
L 4045 4672 
L 2688 601 
L 1306 4672 
L 480 4672 
L 480 -2 
L 1043 -2 
L 1043 3915 
L 2368 -2 
L 2995 -2 
z
" transform="scale(0.015625)"/>
      <path id="NimbusSanL-Regu-50" d="M 1178 1984 
L 2643 1984 
C 3008 1984 3296 2093 3546 2316 
C 3827 2573 3949 2873 3949 3303 
C 3949 4179 3430 4672 2509 4672 
L 582 4672 
L 582 -14 
L 1178 -14 
L 1178 1984 
z
M 1178 2510 
L 1178 4146 
L 2419 4146 
C 2989 4146 3328 3839 3328 3327 
C 3328 2816 2989 2510 2419 2510 
L 1178 2510 
z
" transform="scale(0.015625)"/>
      <path id="NimbusSanL-Regu-53" d="M 3814 3335 
C 3808 4255 3181 4788 2106 4788 
C 1082 4788 448 4260 448 3410 
C 448 2837 749 2477 1363 2316 
L 2522 2007 
C 3110 1852 3379 1614 3379 1247 
C 3379 995 3245 738 3046 597 
C 2861 468 2566 397 2189 397 
C 1683 397 1338 520 1114 790 
C 941 996 864 1222 870 1511 
L 307 1511 
C 314 1081 397 798 582 540 
C 902 103 1440 -128 2150 -128 
C 2707 -128 3162 1 3462 232 
C 3776 483 3974 901 3974 1307 
C 3974 1886 3616 2311 2982 2485 
L 1811 2801 
C 1248 2955 1043 3135 1043 3496 
C 1043 3972 1459 4288 2086 4288 
C 2829 4288 3245 3947 3251 3335 
L 3814 3335 
z
" transform="scale(0.015625)"/>
      <path id="NimbusSanL-Regu-28" d="M 1510 4672 
C 870 3830 467 2660 467 1651 
C 467 636 870 -534 1510 -1376 
L 1862 -1376 
C 1299 -457 986 623 986 1651 
C 986 2673 1299 3759 1862 4672 
L 1510 4672 
z
" transform="scale(0.015625)"/>
      <path id="NimbusSanL-Regu-71" d="M 3168 -1408 
L 3168 3349 
L 2694 3349 
L 2694 2899 
C 2445 3251 2067 3444 1626 3444 
C 742 3444 166 2715 166 1593 
C 166 497 717 -180 1600 -180 
C 2067 -180 2387 -14 2637 352 
L 2637 -1408 
L 3168 -1408 
z
M 1702 2944 
C 2272 2944 2637 2427 2637 1612 
C 2637 837 2266 320 1702 320 
C 1114 320 723 843 723 1632 
C 723 2414 1114 2944 1702 2944 
z
" transform="scale(0.015625)"/>
      <path id="NimbusSanL-Regu-75" d="M 3085 33 
L 3085 3392 
L 2554 3392 
L 2554 1479 
C 2554 790 2195 340 1638 340 
C 1216 340 947 597 947 1003 
L 947 3392 
L 416 3392 
L 416 792 
C 416 232 832 -128 1485 -128 
C 1978 -128 2291 45 2605 488 
L 2605 33 
L 3085 33 
z
" transform="scale(0.015625)"/>
      <path id="NimbusSanL-Regu-69" d="M 960 3359 
L 429 3359 
L 429 0 
L 960 0 
L 960 3359 
z
M 960 4672 
L 422 4672 
L 422 3999 
L 960 3999 
L 960 4672 
z
" transform="scale(0.015625)"/>
      <path id="NimbusSanL-Regu-6d" d="M 448 3359 
L 448 0 
L 986 0 
L 986 2109 
C 986 2597 1338 2988 1773 2988 
C 2170 2988 2394 2744 2394 2314 
L 2394 0 
L 2931 0 
L 2931 2109 
C 2931 2597 3283 2988 3718 2988 
C 4109 2988 4339 2738 4339 2314 
L 4339 0 
L 4877 0 
L 4877 2520 
C 4877 3122 4531 3456 3904 3456 
C 3456 3456 3187 3321 2874 2943 
C 2675 3302 2406 3456 1971 3456 
C 1523 3456 1229 3289 941 2885 
L 941 3359 
L 448 3359 
z
" transform="scale(0.015625)"/>
      <path id="NimbusSanL-Regu-62" d="M 346 4672 
L 346 -2 
L 826 -2 
L 826 448 
C 1082 57 1421 -128 1888 -128 
C 2771 -128 3347 592 3347 1702 
C 3347 2786 2797 3456 1914 3456 
C 1453 3456 1126 3282 877 2905 
L 877 4672 
L 346 4672 
z
M 1811 2956 
C 2406 2956 2790 2440 2790 1645 
C 2790 887 2394 372 1811 372 
C 1248 372 877 881 877 1664 
C 877 2447 1248 2956 1811 2956 
z
" transform="scale(0.015625)"/>
      <path id="NimbusSanL-Regu-29" d="M 595 -1376 
C 1235 -534 1638 636 1638 1644 
C 1638 2660 1235 3830 595 4672 
L 243 4672 
C 806 3753 1120 2673 1120 1644 
C 1120 623 806 -464 243 -1376 
L 595 -1376 
z
" transform="scale(0.015625)"/>
     </defs>
     <use xlink:href="#NimbusSanL-Regu-4d" transform="scale(0.996264)"/>
     <use xlink:href="#NimbusSanL-Regu-50" transform="translate(82.98843 0) scale(0.996264)"/>
     <use xlink:href="#NimbusSanL-Regu-53" transform="translate(149.438461 0) scale(0.996264)"/>
     <use xlink:href="#NimbusSanL-Regu-28" transform="translate(243.583662 0) scale(0.996264)"/>
     <use xlink:href="#NimbusSanL-Regu-71" transform="translate(276.758892 0) scale(0.996264)"/>
     <use xlink:href="#NimbusSanL-Regu-75" transform="translate(332.150569 0) scale(0.996264)"/>
     <use xlink:href="#NimbusSanL-Regu-69" transform="translate(387.542246 0) scale(0.996264)"/>
     <use xlink:href="#NimbusSanL-Regu-6d" transform="translate(409.65903 0) scale(0.996264)"/>
     <use xlink:href="#NimbusSanL-Regu-62" transform="translate(492.64746 0) scale(0.996264)"/>
     <use xlink:href="#NimbusSanL-Regu-29" transform="translate(548.039137 0) scale(0.996264)"/>
    </g>
   </g>
   <g id="line2d_50">
    <path d="M 373.441499 303.161903 
L 395.441499 303.161903 
L 417.441499 303.161903 
" style="fill: none; stroke-dasharray: 7.4,3.2; stroke-dashoffset: 0; stroke: #00a645; stroke-width: 2"/>
   </g>
   <g id="text_16">
    <!-- ED -->
    <g transform="translate(435.041499 310.861903) scale(0.22 -0.22)">
     <defs>
      <path id="NimbusSanL-Regu-45" d="M 1171 2112 
L 3712 2112 
L 3712 2638 
L 1171 2638 
L 1171 4146 
L 3808 4146 
L 3808 4672 
L 576 4672 
L 576 0 
L 3923 0 
L 3923 526 
L 1171 526 
L 1171 2112 
z
" transform="scale(0.015625)"/>
      <path id="NimbusSanL-Regu-44" d="M 570 0 
L 2368 0 
C 3546 0 4269 885 4269 2339 
C 4269 3787 3552 4672 2368 4672 
L 570 4672 
L 570 0 
z
M 1165 526 
L 1165 4146 
L 2266 4146 
C 3187 4146 3674 3524 3674 2333 
C 3674 1154 3187 526 2266 526 
L 1165 526 
z
" transform="scale(0.015625)"/>
     </defs>
     <use xlink:href="#NimbusSanL-Regu-45" transform="scale(0.996264)"/>
     <use xlink:href="#NimbusSanL-Regu-44" transform="translate(66.450031 0) scale(0.996264)"/>
    </g>
   </g>
   <g id="line2d_51">
    <path d="M 509.48509 303.161903 
L 531.48509 303.161903 
L 553.48509 303.161903 
" style="fill: none; stroke: #800080; stroke-width: 3; stroke-linecap: square"/>
   </g>
   <g id="text_17">
    <!-- MPS (jax) -->
    <g transform="translate(571.08509 310.861903) scale(0.22 -0.22)">
     <defs>
      <path id="NimbusSanL-Regu-6a" d="M 448 3356 
L 448 -496 
C 448 -831 339 -940 13 -940 
C -6 -940 -6 -940 -115 -940 
L -115 -1389 
C -51 -1408 -19 -1408 64 -1408 
C 666 -1408 979 -1164 979 -708 
L 979 3356 
L 448 3356 
z
M 979 4672 
L 448 4672 
L 448 3999 
L 979 3999 
L 979 4672 
z
" transform="scale(0.015625)"/>
      <path id="NimbusSanL-Regu-61" d="M 3424 333 
C 3366 320 3341 320 3309 320 
C 3123 320 3021 415 3021 581 
L 3021 2545 
C 3021 3137 2586 3456 1760 3456 
C 1274 3456 870 3316 646 3066 
C 493 2893 429 2702 416 2370 
L 954 2370 
C 998 2777 1242 2962 1741 2962 
C 2221 2962 2490 2783 2490 2465 
L 2490 2325 
C 2490 2101 2355 2006 1933 1955 
C 1178 1860 1062 1834 858 1751 
C 467 1592 269 1292 269 859 
C 269 254 691 -128 1370 -128 
C 1792 -128 2131 19 2509 365 
C 2547 25 2714 -128 3059 -128 
C 3168 -128 3251 -116 3424 -70 
L 3424 333 
z
M 2490 1072 
C 2490 893 2438 785 2278 639 
C 2061 441 1798 340 1485 340 
C 1069 340 826 537 826 874 
C 826 1225 1062 1403 1632 1486 
C 2195 1562 2310 1588 2490 1670 
L 2490 1072 
z
" transform="scale(0.015625)"/>
      <path id="NimbusSanL-Regu-78" d="M 1869 1737 
L 2995 3359 
L 2394 3359 
L 1587 2141 
L 781 3359 
L 173 3359 
L 1293 1712 
L 109 0 
L 717 0 
L 1568 1288 
L 2406 0 
L 3027 0 
L 1869 1737 
z
" transform="scale(0.015625)"/>
     </defs>
     <use xlink:href="#NimbusSanL-Regu-4d" transform="scale(0.996264)"/>
     <use xlink:href="#NimbusSanL-Regu-50" transform="translate(82.98843 0) scale(0.996264)"/>
     <use xlink:href="#NimbusSanL-Regu-53" transform="translate(149.438461 0) scale(0.996264)"/>
     <use xlink:href="#NimbusSanL-Regu-28" transform="translate(243.583662 0) scale(0.996264)"/>
     <use xlink:href="#NimbusSanL-Regu-6a" transform="translate(276.758892 0) scale(0.996264)"/>
     <use xlink:href="#NimbusSanL-Regu-61" transform="translate(298.875676 0) scale(0.996264)"/>
     <use xlink:href="#NimbusSanL-Regu-78" transform="translate(354.267353 0) scale(0.996264)"/>
     <use xlink:href="#NimbusSanL-Regu-29" transform="translate(404.080554 0) scale(0.996264)"/>
    </g>
   </g>
  </g>
 </g>
 <defs>
  <clipPath id="p7aa3e7a806">
   <rect x="79.627864" y="7.2" width="304.363636" height="221.76"/>
  </clipPath>
  <clipPath id="p1791e9154e">
   <rect x="444.864228" y="7.2" width="304.363636" height="221.76"/>
  </clipPath>
 </defs>
</svg>
