<?xml version="1.0" encoding="utf-8" standalone="no"?>
<!DOCTYPE svg PUBLIC "-//W3C//DTD SVG 1.1//EN"
  "http://www.w3.org/Graphics/SVG/1.1/DTD/svg11.dtd">
<svg xmlns:xlink="http://www.w3.org/1999/xlink" width="648pt" height="432pt" viewBox="0 0 648 432" xmlns="http://www.w3.org/2000/svg" version="1.1">
 <metadata>
  <rdf:RDF xmlns:dc="http://purl.org/dc/elements/1.1/" xmlns:cc="http://creativecommons.org/ns#" xmlns:rdf="http://www.w3.org/1999/02/22-rdf-syntax-ns#">
   <cc:Work>
    <dc:type rdf:resource="http://purl.org/dc/dcmitype/StillImage"/>
    <dc:date>2023-03-28T12:07:27.251526</dc:date>
    <dc:format>image/svg+xml</dc:format>
    <dc:creator>
     <cc:Agent>
      <dc:title>Matplotlib v3.6.0, https://matplotlib.org/</dc:title>
     </cc:Agent>
    </dc:creator>
   </cc:Work>
  </rdf:RDF>
 </metadata>
 <defs>
  <style type="text/css">*{stroke-linejoin: round; stroke-linecap: butt}</style>
 </defs>
 <g id="figure_1">
  <g id="patch_1">
   <path d="M 0 432 
L 648 432 
L 648 0 
L 0 0 
L 0 432 
z
" style="fill: none"/>
  </g>
  <g id="axes_1">
   <g id="patch_2">
    <path d="M 70.308121 380.955334 
L 624.24 380.955334 
L 624.24 24.704378 
L 70.308121 24.704378 
L 70.308121 380.955334 
z
" style="fill: none"/>
   </g>
   <g id="PathCollection_1">
    <defs>
     <path id="mc989395f33" d="M 0 -5.477226 
L -1.229714 -1.692556 
L -5.209151 -1.692556 
L -1.989719 0.646499 
L -3.219432 4.431169 
L -0 2.092114 
L 3.219432 4.431169 
L 1.989719 0.646499 
L 5.209151 -1.692556 
L 1.229714 -1.692556 
z
" style="stroke: #006ec2; stroke-width: 3"/>
    </defs>
    <g clip-path="url(#pbbcf0dbd25)">
     <use xlink:href="#mc989395f33" x="95.486843" y="117.038037" style="fill: #006ec2; stroke: #006ec2; stroke-width: 3"/>
     <use xlink:href="#mc989395f33" x="120.665564" y="139.463363" style="fill: #006ec2; stroke: #006ec2; stroke-width: 3"/>
     <use xlink:href="#mc989395f33" x="145.844286" y="155.887197" style="fill: #006ec2; stroke: #006ec2; stroke-width: 3"/>
     <use xlink:href="#mc989395f33" x="171.023008" y="172.253772" style="fill: #006ec2; stroke: #006ec2; stroke-width: 3"/>
     <use xlink:href="#mc989395f33" x="196.20173" y="186.496949" style="fill: #006ec2; stroke: #006ec2; stroke-width: 3"/>
     <use xlink:href="#mc989395f33" x="221.380452" y="196.873719" style="fill: #006ec2; stroke: #006ec2; stroke-width: 3"/>
     <use xlink:href="#mc989395f33" x="246.559173" y="208.18822" style="fill: #006ec2; stroke: #006ec2; stroke-width: 3"/>
     <use xlink:href="#mc989395f33" x="271.737895" y="214.653487" style="fill: #006ec2; stroke: #006ec2; stroke-width: 3"/>
     <use xlink:href="#mc989395f33" x="296.916617" y="223.228013" style="fill: #006ec2; stroke: #006ec2; stroke-width: 3"/>
     <use xlink:href="#mc989395f33" x="322.095339" y="220.638021" style="fill: #006ec2; stroke: #006ec2; stroke-width: 3"/>
     <use xlink:href="#mc989395f33" x="347.27406" y="225.488002" style="fill: #006ec2; stroke: #006ec2; stroke-width: 3"/>
     <use xlink:href="#mc989395f33" x="372.452782" y="190.266264" style="fill: #006ec2; stroke: #006ec2; stroke-width: 3"/>
     <use xlink:href="#mc989395f33" x="397.631504" y="224.248685" style="fill: #006ec2; stroke: #006ec2; stroke-width: 3"/>
     <use xlink:href="#mc989395f33" x="422.810226" y="227.063157" style="fill: #006ec2; stroke: #006ec2; stroke-width: 3"/>
     <use xlink:href="#mc989395f33" x="447.988948" y="221.287446" style="fill: #006ec2; stroke: #006ec2; stroke-width: 3"/>
     <use xlink:href="#mc989395f33" x="473.167669" y="217.784554" style="fill: #006ec2; stroke: #006ec2; stroke-width: 3"/>
     <use xlink:href="#mc989395f33" x="498.346391" y="215.966983" style="fill: #006ec2; stroke: #006ec2; stroke-width: 3"/>
     <use xlink:href="#mc989395f33" x="523.525113" y="200.566014" style="fill: #006ec2; stroke: #006ec2; stroke-width: 3"/>
     <use xlink:href="#mc989395f33" x="548.703835" y="147.179179" style="fill: #006ec2; stroke: #006ec2; stroke-width: 3"/>
     <use xlink:href="#mc989395f33" x="573.882556" y="57.311392" style="fill: #006ec2; stroke: #006ec2; stroke-width: 3"/>
    </g>
   </g>
   <g id="PathCollection_2">
    <defs>
     <path id="mbfb7fa5ae3" d="M -5 5 
L 5 5 
L 5 -5 
L -5 -5 
z
" style="stroke: #ff7b00; stroke-width: 3"/>
    </defs>
    <g clip-path="url(#pbbcf0dbd25)">
     <use xlink:href="#mbfb7fa5ae3" x="95.486843" y="201.028282" style="fill: #ff7b00; stroke: #ff7b00; stroke-width: 3"/>
     <use xlink:href="#mbfb7fa5ae3" x="120.665564" y="258.339504" style="fill: #ff7b00; stroke: #ff7b00; stroke-width: 3"/>
     <use xlink:href="#mbfb7fa5ae3" x="145.844286" y="274.382137" style="fill: #ff7b00; stroke: #ff7b00; stroke-width: 3"/>
     <use xlink:href="#mbfb7fa5ae3" x="171.023008" y="286.38971" style="fill: #ff7b00; stroke: #ff7b00; stroke-width: 3"/>
     <use xlink:href="#mbfb7fa5ae3" x="196.20173" y="293.870632" style="fill: #ff7b00; stroke: #ff7b00; stroke-width: 3"/>
     <use xlink:href="#mbfb7fa5ae3" x="221.380452" y="283.934132" style="fill: #ff7b00; stroke: #ff7b00; stroke-width: 3"/>
     <use xlink:href="#mbfb7fa5ae3" x="246.559173" y="292.96684" style="fill: #ff7b00; stroke: #ff7b00; stroke-width: 3"/>
     <use xlink:href="#mbfb7fa5ae3" x="271.737895" y="296.251565" style="fill: #ff7b00; stroke: #ff7b00; stroke-width: 3"/>
     <use xlink:href="#mbfb7fa5ae3" x="296.916617" y="296.774939" style="fill: #ff7b00; stroke: #ff7b00; stroke-width: 3"/>
     <use xlink:href="#mbfb7fa5ae3" x="322.095339" y="295.616802" style="fill: #ff7b00; stroke: #ff7b00; stroke-width: 3"/>
     <use xlink:href="#mbfb7fa5ae3" x="347.27406" y="293.652541" style="fill: #ff7b00; stroke: #ff7b00; stroke-width: 3"/>
     <use xlink:href="#mbfb7fa5ae3" x="372.452782" y="277.466103" style="fill: #ff7b00; stroke: #ff7b00; stroke-width: 3"/>
     <use xlink:href="#mbfb7fa5ae3" x="397.631504" y="298.079902" style="fill: #ff7b00; stroke: #ff7b00; stroke-width: 3"/>
     <use xlink:href="#mbfb7fa5ae3" x="422.810226" y="287.631417" style="fill: #ff7b00; stroke: #ff7b00; stroke-width: 3"/>
     <use xlink:href="#mbfb7fa5ae3" x="447.988948" y="279.016463" style="fill: #ff7b00; stroke: #ff7b00; stroke-width: 3"/>
     <use xlink:href="#mbfb7fa5ae3" x="473.167669" y="274.128113" style="fill: #ff7b00; stroke: #ff7b00; stroke-width: 3"/>
     <use xlink:href="#mbfb7fa5ae3" x="498.346391" y="275.046162" style="fill: #ff7b00; stroke: #ff7b00; stroke-width: 3"/>
     <use xlink:href="#mbfb7fa5ae3" x="523.525113" y="40.897603" style="fill: #ff7b00; stroke: #ff7b00; stroke-width: 3"/>
     <use xlink:href="#mbfb7fa5ae3" x="548.703835" y="41.844848" style="fill: #ff7b00; stroke: #ff7b00; stroke-width: 3"/>
     <use xlink:href="#mbfb7fa5ae3" x="573.882556" y="44.246261" style="fill: #ff7b00; stroke: #ff7b00; stroke-width: 3"/>
    </g>
   </g>
   <g id="matplotlib.axis_1">
    <g id="xtick_1">
     <g id="line2d_1">
      <defs>
       <path id="m66a2038fc4" d="M 0 0 
L 0 3.5 
" style="stroke: #000000; stroke-width: 0.8"/>
      </defs>
      <g>
       <use xlink:href="#m66a2038fc4" x="70.308121" y="380.955334" style="stroke: #000000; stroke-width: 0.8"/>
      </g>
     </g>
     <g id="text_1">
      <!-- $\mathdefault{0.0}$ -->
      <g transform="translate(57.275526 403.571639) scale(0.22 -0.22)">
       <defs>
        <path id="CMR17-30" d="M 2688 2025 
C 2688 2416 2682 3080 2413 3591 
C 2176 4039 1798 4198 1466 4198 
C 1158 4198 768 4058 525 3597 
C 269 3118 243 2524 243 2025 
C 243 1661 250 1106 448 619 
C 723 -39 1216 -128 1466 -128 
C 1760 -128 2208 -7 2470 600 
C 2662 1042 2688 1559 2688 2025 
z
M 1466 -26 
C 1056 -26 813 325 723 812 
C 653 1188 653 1738 653 2096 
C 653 2588 653 2997 736 3387 
C 858 3929 1216 4096 1466 4096 
C 1728 4096 2067 3923 2189 3400 
C 2272 3036 2278 2607 2278 2096 
C 2278 1680 2278 1169 2202 792 
C 2067 95 1690 -26 1466 -26 
z
" transform="scale(0.015625)"/>
        <path id="CMMI12-3a" d="M 1178 307 
C 1178 492 1024 619 870 619 
C 685 619 557 466 557 313 
C 557 128 710 0 864 0 
C 1050 0 1178 153 1178 307 
z
" transform="scale(0.015625)"/>
       </defs>
       <use xlink:href="#CMR17-30" transform="scale(0.996264)"/>
       <use xlink:href="#CMMI12-3a" transform="translate(45.690477 0) scale(0.996264)"/>
       <use xlink:href="#CMR17-30" transform="translate(72.787654 0) scale(0.996264)"/>
      </g>
     </g>
    </g>
    <g id="xtick_2">
     <g id="line2d_2">
      <g>
       <use xlink:href="#m66a2038fc4" x="196.20173" y="380.955334" style="stroke: #000000; stroke-width: 0.8"/>
      </g>
     </g>
     <g id="text_2">
      <!-- $\mathdefault{0.5}$ -->
      <g transform="translate(183.169135 403.571639) scale(0.22 -0.22)">
       <defs>
        <path id="CMR17-35" d="M 730 3692 
C 794 3666 1056 3584 1325 3584 
C 1920 3584 2246 3911 2432 4100 
C 2432 4157 2432 4192 2394 4192 
C 2387 4192 2374 4192 2323 4163 
C 2099 4058 1837 3973 1517 3973 
C 1325 3973 1037 3999 723 4139 
C 653 4171 640 4171 634 4171 
C 602 4171 595 4164 595 4037 
L 595 2203 
C 595 2089 595 2057 659 2057 
C 691 2057 704 2070 736 2114 
C 941 2401 1222 2522 1542 2522 
C 1766 2522 2246 2382 2246 1289 
C 2246 1085 2246 715 2054 421 
C 1894 159 1645 25 1370 25 
C 947 25 518 320 403 814 
C 429 807 480 795 506 795 
C 589 795 749 840 749 1038 
C 749 1210 627 1280 506 1280 
C 358 1280 262 1190 262 1011 
C 262 454 704 -128 1382 -128 
C 2042 -128 2669 440 2669 1264 
C 2669 2030 2170 2624 1549 2624 
C 1222 2624 947 2503 730 2274 
L 730 3692 
z
" transform="scale(0.015625)"/>
       </defs>
       <use xlink:href="#CMR17-30" transform="scale(0.996264)"/>
       <use xlink:href="#CMMI12-3a" transform="translate(45.690477 0) scale(0.996264)"/>
       <use xlink:href="#CMR17-35" transform="translate(72.787654 0) scale(0.996264)"/>
      </g>
     </g>
    </g>
    <g id="xtick_3">
     <g id="line2d_3">
      <g>
       <use xlink:href="#m66a2038fc4" x="322.095339" y="380.955334" style="stroke: #000000; stroke-width: 0.8"/>
      </g>
     </g>
     <g id="text_3">
      <!-- $\mathdefault{1.0}$ -->
      <g transform="translate(309.062744 403.571639) scale(0.22 -0.22)">
       <defs>
        <path id="CMR17-31" d="M 1702 4058 
C 1702 4192 1696 4192 1606 4192 
C 1357 3916 979 3827 621 3827 
C 602 3827 570 3827 563 3808 
C 557 3795 557 3782 557 3648 
C 755 3648 1088 3686 1344 3839 
L 1344 461 
C 1344 236 1331 160 781 160 
L 589 160 
L 589 0 
C 896 0 1216 0 1523 0 
C 1830 0 2150 0 2458 0 
L 2458 160 
L 2266 160 
C 1715 160 1702 230 1702 458 
L 1702 4058 
z
" transform="scale(0.015625)"/>
       </defs>
       <use xlink:href="#CMR17-31" transform="scale(0.996264)"/>
       <use xlink:href="#CMMI12-3a" transform="translate(45.690477 0) scale(0.996264)"/>
       <use xlink:href="#CMR17-30" transform="translate(72.787654 0) scale(0.996264)"/>
      </g>
     </g>
    </g>
    <g id="xtick_4">
     <g id="line2d_4">
      <g>
       <use xlink:href="#m66a2038fc4" x="447.988948" y="380.955334" style="stroke: #000000; stroke-width: 0.8"/>
      </g>
     </g>
     <g id="text_4">
      <!-- $\mathdefault{1.5}$ -->
      <g transform="translate(434.956353 403.571639) scale(0.22 -0.22)">
       <use xlink:href="#CMR17-31" transform="scale(0.996264)"/>
       <use xlink:href="#CMMI12-3a" transform="translate(45.690477 0) scale(0.996264)"/>
       <use xlink:href="#CMR17-35" transform="translate(72.787654 0) scale(0.996264)"/>
      </g>
     </g>
    </g>
    <g id="xtick_5">
     <g id="line2d_5">
      <g>
       <use xlink:href="#m66a2038fc4" x="573.882556" y="380.955334" style="stroke: #000000; stroke-width: 0.8"/>
      </g>
     </g>
     <g id="text_5">
      <!-- $\mathdefault{2.0}$ -->
      <g transform="translate(560.849962 403.571639) scale(0.22 -0.22)">
       <defs>
        <path id="CMR17-32" d="M 2669 989 
L 2554 989 
C 2490 536 2438 459 2413 420 
C 2381 369 1920 369 1830 369 
L 602 369 
C 832 619 1280 1072 1824 1597 
C 2214 1967 2669 2402 2669 3035 
C 2669 3790 2067 4224 1395 4224 
C 691 4224 262 3604 262 3030 
C 262 2780 448 2748 525 2748 
C 589 2748 781 2787 781 3010 
C 781 3207 614 3264 525 3264 
C 486 3264 448 3258 422 3245 
C 544 3790 915 4058 1306 4058 
C 1862 4058 2227 3617 2227 3035 
C 2227 2479 1901 2000 1536 1584 
L 262 146 
L 262 0 
L 2515 0 
L 2669 989 
z
" transform="scale(0.015625)"/>
       </defs>
       <use xlink:href="#CMR17-32" transform="scale(0.996264)"/>
       <use xlink:href="#CMMI12-3a" transform="translate(45.690477 0) scale(0.996264)"/>
       <use xlink:href="#CMR17-30" transform="translate(72.787654 0) scale(0.996264)"/>
      </g>
     </g>
    </g>
    <g id="text_6">
     <!-- $\delta t$ -->
     <g transform="translate(338.23562 427.856305) scale(0.22 -0.22)">
      <defs>
       <path id="CMMI12-e" d="M 1664 2795 
C 845 2597 256 1748 256 1001 
C 256 319 717 -64 1229 -64 
C 1984 -64 2496 970 2496 1818 
C 2496 2392 2227 2744 2067 2954 
C 1830 3254 1446 3746 1446 4052 
C 1446 4161 1530 4352 1811 4352 
C 2010 4352 2131 4282 2323 4173 
C 2381 4134 2528 4052 2611 4052 
C 2746 4052 2842 4185 2842 4287 
C 2842 4409 2746 4428 2522 4479 
C 2221 4543 2131 4543 2022 4543 
C 1914 4543 1286 4543 1286 3892 
C 1286 3579 1446 3216 1664 2795 
z
M 1734 2669 
C 1978 2165 2074 1974 2074 1560 
C 2074 1063 1805 63 1235 63 
C 986 63 627 229 627 821 
C 627 1235 864 2439 1734 2669 
z
" transform="scale(0.015625)"/>
       <path id="CMMI12-74" d="M 1286 2566 
L 1875 2566 
C 1997 2566 2061 2566 2061 2681 
C 2061 2752 2022 2752 1894 2752 
L 1331 2752 
L 1568 3692 
C 1594 3781 1594 3794 1594 3840 
C 1594 3943 1510 4000 1427 4000 
C 1376 4000 1229 3981 1178 3775 
L 928 2752 
L 326 2752 
C 198 2752 141 2752 141 2630 
C 141 2566 186 2566 307 2566 
L 877 2566 
L 454 881 
C 403 658 384 594 384 511 
C 384 211 595 -64 954 -64 
C 1600 -64 1946 868 1946 912 
C 1946 951 1920 970 1882 970 
C 1869 970 1843 970 1830 944 
C 1824 938 1818 931 1773 829 
C 1638 511 1344 64 973 64 
C 781 64 768 224 768 364 
C 768 370 768 492 787 568 
L 1286 2566 
z
" transform="scale(0.015625)"/>
      </defs>
      <use xlink:href="#CMMI12-e" transform="scale(0.996264)"/>
      <use xlink:href="#CMMI12-74" transform="translate(46.941386 0) scale(0.996264)"/>
     </g>
    </g>
   </g>
   <g id="matplotlib.axis_2">
    <g id="ytick_1">
     <g id="line2d_6">
      <defs>
       <path id="m6b582c6859" d="M 0 0 
L -3.5 0 
" style="stroke: #000000; stroke-width: 0.8"/>
      </defs>
      <g>
       <use xlink:href="#m6b582c6859" x="70.308121" y="343.741863" style="stroke: #000000; stroke-width: 0.8"/>
      </g>
     </g>
     <g id="text_7">
      <!-- $\mathdefault{10^{-5}}$ -->
      <g transform="translate(23.76 351.550015) scale(0.22 -0.22)">
       <defs>
        <path id="CMSY10-0" d="M 4218 1472 
C 4326 1472 4442 1472 4442 1600 
C 4442 1728 4326 1728 4218 1728 
L 755 1728 
C 646 1728 531 1728 531 1600 
C 531 1472 646 1472 755 1472 
L 4218 1472 
z
" transform="scale(0.015625)"/>
       </defs>
       <use xlink:href="#CMR17-31" transform="scale(0.996264)"/>
       <use xlink:href="#CMR17-30" transform="translate(45.690477 0) scale(0.996264)"/>
       <use xlink:href="#CMSY10-0" transform="translate(91.380954 36.153639) scale(0.697382)"/>
       <use xlink:href="#CMR17-35" transform="translate(145.621947 36.153639) scale(0.697382)"/>
      </g>
     </g>
    </g>
    <g id="ytick_2">
     <g id="line2d_7">
      <g>
       <use xlink:href="#m6b582c6859" x="70.308121" y="281.404559" style="stroke: #000000; stroke-width: 0.8"/>
      </g>
     </g>
     <g id="text_8">
      <!-- $\mathdefault{10^{-4}}$ -->
      <g transform="translate(23.76 289.212712) scale(0.22 -0.22)">
       <defs>
        <path id="CMR17-34" d="M 2150 4122 
C 2150 4256 2144 4256 2029 4256 
L 128 1254 
L 128 1088 
L 1779 1088 
L 1779 457 
C 1779 224 1766 160 1318 160 
L 1197 160 
L 1197 0 
C 1402 0 1747 0 1965 0 
C 2182 0 2528 0 2733 0 
L 2733 160 
L 2611 160 
C 2163 160 2150 224 2150 457 
L 2150 1088 
L 2803 1088 
L 2803 1254 
L 2150 1254 
L 2150 4122 
z
M 1798 3703 
L 1798 1254 
L 256 1254 
L 1798 3703 
z
" transform="scale(0.015625)"/>
       </defs>
       <use xlink:href="#CMR17-31" transform="scale(0.996264)"/>
       <use xlink:href="#CMR17-30" transform="translate(45.690477 0) scale(0.996264)"/>
       <use xlink:href="#CMSY10-0" transform="translate(91.380954 36.153639) scale(0.697382)"/>
       <use xlink:href="#CMR17-34" transform="translate(145.621947 36.153639) scale(0.697382)"/>
      </g>
     </g>
    </g>
    <g id="ytick_3">
     <g id="line2d_8">
      <g>
       <use xlink:href="#m6b582c6859" x="70.308121" y="219.067256" style="stroke: #000000; stroke-width: 0.8"/>
      </g>
     </g>
     <g id="text_9">
      <!-- $\mathdefault{10^{-3}}$ -->
      <g transform="translate(23.76 226.875408) scale(0.22 -0.22)">
       <defs>
        <path id="CMR17-33" d="M 1414 2157 
C 1984 2157 2234 1662 2234 1090 
C 2234 320 1824 25 1453 25 
C 1114 25 563 194 390 693 
C 422 680 454 680 486 680 
C 640 680 755 782 755 948 
C 755 1133 614 1216 486 1216 
C 378 1216 211 1165 211 926 
C 211 335 787 -128 1466 -128 
C 2176 -128 2720 430 2720 1085 
C 2720 1707 2208 2157 1600 2227 
C 2086 2328 2554 2756 2554 3329 
C 2554 3820 2048 4179 1472 4179 
C 890 4179 378 3829 378 3329 
C 378 3110 544 3072 627 3072 
C 762 3072 877 3155 877 3321 
C 877 3486 762 3569 627 3569 
C 602 3569 570 3569 544 3557 
C 730 3959 1235 4032 1459 4032 
C 1683 4032 2106 3925 2106 3320 
C 2106 3143 2080 2828 1862 2550 
C 1670 2304 1453 2304 1242 2284 
C 1210 2284 1062 2269 1037 2269 
C 992 2263 966 2257 966 2208 
C 966 2163 973 2157 1101 2157 
L 1414 2157 
z
" transform="scale(0.015625)"/>
       </defs>
       <use xlink:href="#CMR17-31" transform="scale(0.996264)"/>
       <use xlink:href="#CMR17-30" transform="translate(45.690477 0) scale(0.996264)"/>
       <use xlink:href="#CMSY10-0" transform="translate(91.380954 36.153639) scale(0.697382)"/>
       <use xlink:href="#CMR17-33" transform="translate(145.621947 36.153639) scale(0.697382)"/>
      </g>
     </g>
    </g>
    <g id="ytick_4">
     <g id="line2d_9">
      <g>
       <use xlink:href="#m6b582c6859" x="70.308121" y="156.729953" style="stroke: #000000; stroke-width: 0.8"/>
      </g>
     </g>
     <g id="text_10">
      <!-- $\mathdefault{10^{-2}}$ -->
      <g transform="translate(23.76 164.538105) scale(0.22 -0.22)">
       <use xlink:href="#CMR17-31" transform="scale(0.996264)"/>
       <use xlink:href="#CMR17-30" transform="translate(45.690477 0) scale(0.996264)"/>
       <use xlink:href="#CMSY10-0" transform="translate(91.380954 36.153639) scale(0.697382)"/>
       <use xlink:href="#CMR17-32" transform="translate(145.621947 36.153639) scale(0.697382)"/>
      </g>
     </g>
    </g>
    <g id="ytick_5">
     <g id="line2d_10">
      <g>
       <use xlink:href="#m6b582c6859" x="70.308121" y="94.39265" style="stroke: #000000; stroke-width: 0.8"/>
      </g>
     </g>
     <g id="text_11">
      <!-- $\mathdefault{10^{-1}}$ -->
      <g transform="translate(23.76 102.200802) scale(0.22 -0.22)">
       <use xlink:href="#CMR17-31" transform="scale(0.996264)"/>
       <use xlink:href="#CMR17-30" transform="translate(45.690477 0) scale(0.996264)"/>
       <use xlink:href="#CMSY10-0" transform="translate(91.380954 36.153639) scale(0.697382)"/>
       <use xlink:href="#CMR17-31" transform="translate(145.621947 36.153639) scale(0.697382)"/>
      </g>
     </g>
    </g>
    <g id="ytick_6">
     <g id="line2d_11">
      <g>
       <use xlink:href="#m6b582c6859" x="70.308121" y="32.055346" style="stroke: #000000; stroke-width: 0.8"/>
      </g>
     </g>
     <g id="text_12">
      <!-- $\mathdefault{10^{0}}$ -->
      <g transform="translate(35.693019 39.863499) scale(0.22 -0.22)">
       <use xlink:href="#CMR17-31" transform="scale(0.996264)"/>
       <use xlink:href="#CMR17-30" transform="translate(45.690477 0) scale(0.996264)"/>
       <use xlink:href="#CMR17-30" transform="translate(91.380954 36.153639) scale(0.697382)"/>
      </g>
     </g>
    </g>
    <g id="ytick_7">
     <g id="line2d_12">
      <defs>
       <path id="mf944620c34" d="M 0 0 
L -2 0 
" style="stroke: #000000; stroke-width: 0.6"/>
      </defs>
      <g>
       <use xlink:href="#mf944620c34" x="70.308121" y="376.336713" style="stroke: #000000; stroke-width: 0.6"/>
      </g>
     </g>
    </g>
    <g id="ytick_8">
     <g id="line2d_13">
      <g>
       <use xlink:href="#mf944620c34" x="70.308121" y="368.54837" style="stroke: #000000; stroke-width: 0.6"/>
      </g>
     </g>
    </g>
    <g id="ytick_9">
     <g id="line2d_14">
      <g>
       <use xlink:href="#mf944620c34" x="70.308121" y="362.507261" style="stroke: #000000; stroke-width: 0.6"/>
      </g>
     </g>
    </g>
    <g id="ytick_10">
     <g id="line2d_15">
      <g>
       <use xlink:href="#mf944620c34" x="70.308121" y="357.571315" style="stroke: #000000; stroke-width: 0.6"/>
      </g>
     </g>
    </g>
    <g id="ytick_11">
     <g id="line2d_16">
      <g>
       <use xlink:href="#mf944620c34" x="70.308121" y="353.398033" style="stroke: #000000; stroke-width: 0.6"/>
      </g>
     </g>
    </g>
    <g id="ytick_12">
     <g id="line2d_17">
      <g>
       <use xlink:href="#mf944620c34" x="70.308121" y="349.782971" style="stroke: #000000; stroke-width: 0.6"/>
      </g>
     </g>
    </g>
    <g id="ytick_13">
     <g id="line2d_18">
      <g>
       <use xlink:href="#mf944620c34" x="70.308121" y="346.594261" style="stroke: #000000; stroke-width: 0.6"/>
      </g>
     </g>
    </g>
    <g id="ytick_14">
     <g id="line2d_19">
      <g>
       <use xlink:href="#mf944620c34" x="70.308121" y="324.976464" style="stroke: #000000; stroke-width: 0.6"/>
      </g>
     </g>
    </g>
    <g id="ytick_15">
     <g id="line2d_20">
      <g>
       <use xlink:href="#mf944620c34" x="70.308121" y="313.99941" style="stroke: #000000; stroke-width: 0.6"/>
      </g>
     </g>
    </g>
    <g id="ytick_16">
     <g id="line2d_21">
      <g>
       <use xlink:href="#mf944620c34" x="70.308121" y="306.211066" style="stroke: #000000; stroke-width: 0.6"/>
      </g>
     </g>
    </g>
    <g id="ytick_17">
     <g id="line2d_22">
      <g>
       <use xlink:href="#mf944620c34" x="70.308121" y="300.169957" style="stroke: #000000; stroke-width: 0.6"/>
      </g>
     </g>
    </g>
    <g id="ytick_18">
     <g id="line2d_23">
      <g>
       <use xlink:href="#mf944620c34" x="70.308121" y="295.234012" style="stroke: #000000; stroke-width: 0.6"/>
      </g>
     </g>
    </g>
    <g id="ytick_19">
     <g id="line2d_24">
      <g>
       <use xlink:href="#mf944620c34" x="70.308121" y="291.06073" style="stroke: #000000; stroke-width: 0.6"/>
      </g>
     </g>
    </g>
    <g id="ytick_20">
     <g id="line2d_25">
      <g>
       <use xlink:href="#mf944620c34" x="70.308121" y="287.445668" style="stroke: #000000; stroke-width: 0.6"/>
      </g>
     </g>
    </g>
    <g id="ytick_21">
     <g id="line2d_26">
      <g>
       <use xlink:href="#mf944620c34" x="70.308121" y="284.256958" style="stroke: #000000; stroke-width: 0.6"/>
      </g>
     </g>
    </g>
    <g id="ytick_22">
     <g id="line2d_27">
      <g>
       <use xlink:href="#mf944620c34" x="70.308121" y="262.639161" style="stroke: #000000; stroke-width: 0.6"/>
      </g>
     </g>
    </g>
    <g id="ytick_23">
     <g id="line2d_28">
      <g>
       <use xlink:href="#mf944620c34" x="70.308121" y="251.662107" style="stroke: #000000; stroke-width: 0.6"/>
      </g>
     </g>
    </g>
    <g id="ytick_24">
     <g id="line2d_29">
      <g>
       <use xlink:href="#mf944620c34" x="70.308121" y="243.873763" style="stroke: #000000; stroke-width: 0.6"/>
      </g>
     </g>
    </g>
    <g id="ytick_25">
     <g id="line2d_30">
      <g>
       <use xlink:href="#mf944620c34" x="70.308121" y="237.832654" style="stroke: #000000; stroke-width: 0.6"/>
      </g>
     </g>
    </g>
    <g id="ytick_26">
     <g id="line2d_31">
      <g>
       <use xlink:href="#mf944620c34" x="70.308121" y="232.896709" style="stroke: #000000; stroke-width: 0.6"/>
      </g>
     </g>
    </g>
    <g id="ytick_27">
     <g id="line2d_32">
      <g>
       <use xlink:href="#mf944620c34" x="70.308121" y="228.723427" style="stroke: #000000; stroke-width: 0.6"/>
      </g>
     </g>
    </g>
    <g id="ytick_28">
     <g id="line2d_33">
      <g>
       <use xlink:href="#mf944620c34" x="70.308121" y="225.108365" style="stroke: #000000; stroke-width: 0.6"/>
      </g>
     </g>
    </g>
    <g id="ytick_29">
     <g id="line2d_34">
      <g>
       <use xlink:href="#mf944620c34" x="70.308121" y="221.919655" style="stroke: #000000; stroke-width: 0.6"/>
      </g>
     </g>
    </g>
    <g id="ytick_30">
     <g id="line2d_35">
      <g>
       <use xlink:href="#mf944620c34" x="70.308121" y="200.301858" style="stroke: #000000; stroke-width: 0.6"/>
      </g>
     </g>
    </g>
    <g id="ytick_31">
     <g id="line2d_36">
      <g>
       <use xlink:href="#mf944620c34" x="70.308121" y="189.324804" style="stroke: #000000; stroke-width: 0.6"/>
      </g>
     </g>
    </g>
    <g id="ytick_32">
     <g id="line2d_37">
      <g>
       <use xlink:href="#mf944620c34" x="70.308121" y="181.53646" style="stroke: #000000; stroke-width: 0.6"/>
      </g>
     </g>
    </g>
    <g id="ytick_33">
     <g id="line2d_38">
      <g>
       <use xlink:href="#mf944620c34" x="70.308121" y="175.495351" style="stroke: #000000; stroke-width: 0.6"/>
      </g>
     </g>
    </g>
    <g id="ytick_34">
     <g id="line2d_39">
      <g>
       <use xlink:href="#mf944620c34" x="70.308121" y="170.559406" style="stroke: #000000; stroke-width: 0.6"/>
      </g>
     </g>
    </g>
    <g id="ytick_35">
     <g id="line2d_40">
      <g>
       <use xlink:href="#mf944620c34" x="70.308121" y="166.386123" style="stroke: #000000; stroke-width: 0.6"/>
      </g>
     </g>
    </g>
    <g id="ytick_36">
     <g id="line2d_41">
      <g>
       <use xlink:href="#mf944620c34" x="70.308121" y="162.771062" style="stroke: #000000; stroke-width: 0.6"/>
      </g>
     </g>
    </g>
    <g id="ytick_37">
     <g id="line2d_42">
      <g>
       <use xlink:href="#mf944620c34" x="70.308121" y="159.582351" style="stroke: #000000; stroke-width: 0.6"/>
      </g>
     </g>
    </g>
    <g id="ytick_38">
     <g id="line2d_43">
      <g>
       <use xlink:href="#mf944620c34" x="70.308121" y="137.964555" style="stroke: #000000; stroke-width: 0.6"/>
      </g>
     </g>
    </g>
    <g id="ytick_39">
     <g id="line2d_44">
      <g>
       <use xlink:href="#mf944620c34" x="70.308121" y="126.987501" style="stroke: #000000; stroke-width: 0.6"/>
      </g>
     </g>
    </g>
    <g id="ytick_40">
     <g id="line2d_45">
      <g>
       <use xlink:href="#mf944620c34" x="70.308121" y="119.199157" style="stroke: #000000; stroke-width: 0.6"/>
      </g>
     </g>
    </g>
    <g id="ytick_41">
     <g id="line2d_46">
      <g>
       <use xlink:href="#mf944620c34" x="70.308121" y="113.158048" style="stroke: #000000; stroke-width: 0.6"/>
      </g>
     </g>
    </g>
    <g id="ytick_42">
     <g id="line2d_47">
      <g>
       <use xlink:href="#mf944620c34" x="70.308121" y="108.222102" style="stroke: #000000; stroke-width: 0.6"/>
      </g>
     </g>
    </g>
    <g id="ytick_43">
     <g id="line2d_48">
      <g>
       <use xlink:href="#mf944620c34" x="70.308121" y="104.04882" style="stroke: #000000; stroke-width: 0.6"/>
      </g>
     </g>
    </g>
    <g id="ytick_44">
     <g id="line2d_49">
      <g>
       <use xlink:href="#mf944620c34" x="70.308121" y="100.433759" style="stroke: #000000; stroke-width: 0.6"/>
      </g>
     </g>
    </g>
    <g id="ytick_45">
     <g id="line2d_50">
      <g>
       <use xlink:href="#mf944620c34" x="70.308121" y="97.245048" style="stroke: #000000; stroke-width: 0.6"/>
      </g>
     </g>
    </g>
    <g id="ytick_46">
     <g id="line2d_51">
      <g>
       <use xlink:href="#mf944620c34" x="70.308121" y="75.627252" style="stroke: #000000; stroke-width: 0.6"/>
      </g>
     </g>
    </g>
    <g id="ytick_47">
     <g id="line2d_52">
      <g>
       <use xlink:href="#mf944620c34" x="70.308121" y="64.650197" style="stroke: #000000; stroke-width: 0.6"/>
      </g>
     </g>
    </g>
    <g id="ytick_48">
     <g id="line2d_53">
      <g>
       <use xlink:href="#mf944620c34" x="70.308121" y="56.861853" style="stroke: #000000; stroke-width: 0.6"/>
      </g>
     </g>
    </g>
    <g id="ytick_49">
     <g id="line2d_54">
      <g>
       <use xlink:href="#mf944620c34" x="70.308121" y="50.820745" style="stroke: #000000; stroke-width: 0.6"/>
      </g>
     </g>
    </g>
    <g id="ytick_50">
     <g id="line2d_55">
      <g>
       <use xlink:href="#mf944620c34" x="70.308121" y="45.884799" style="stroke: #000000; stroke-width: 0.6"/>
      </g>
     </g>
    </g>
    <g id="ytick_51">
     <g id="line2d_56">
      <g>
       <use xlink:href="#mf944620c34" x="70.308121" y="41.711517" style="stroke: #000000; stroke-width: 0.6"/>
      </g>
     </g>
    </g>
    <g id="ytick_52">
     <g id="line2d_57">
      <g>
       <use xlink:href="#mf944620c34" x="70.308121" y="38.096455" style="stroke: #000000; stroke-width: 0.6"/>
      </g>
     </g>
    </g>
    <g id="ytick_53">
     <g id="line2d_58">
      <g>
       <use xlink:href="#mf944620c34" x="70.308121" y="34.907745" style="stroke: #000000; stroke-width: 0.6"/>
      </g>
     </g>
    </g>
    <g id="text_13">
     <!-- $\varepsilon(1)$ -->
     <g transform="translate(14.298881 220.639086) rotate(-90) scale(0.22 -0.22)">
      <defs>
       <path id="CMMI12-22" d="M 890 1427 
C 1094 1345 1312 1345 1434 1345 
C 1600 1345 1933 1345 1933 1550 
C 1933 1678 1811 1728 1485 1728 
C 1325 1728 1133 1709 909 1613 
C 710 1708 634 1852 634 1990 
C 634 2379 1261 2606 1830 2606 
C 1939 2606 2170 2606 2438 2411 
C 2477 2387 2496 2367 2541 2367 
C 2618 2367 2701 2449 2701 2526 
C 2701 2639 2330 2880 1888 2880 
C 1171 2880 493 2449 493 1972 
C 493 1734 646 1586 755 1509 
C 384 1301 166 961 166 652 
C 166 219 563 -128 1178 -128 
C 2022 -128 2362 424 2362 512 
C 2362 543 2336 568 2304 568 
C 2272 568 2259 549 2234 512 
C 2163 395 1997 146 1235 146 
C 838 146 314 245 314 686 
C 314 898 474 1214 890 1427 
z
M 1088 1518 
C 1261 1600 1427 1600 1472 1600 
C 1651 1600 1683 1583 1786 1545 
C 1677 1472 1664 1472 1434 1472 
C 1318 1472 1216 1472 1088 1518 
z
" transform="scale(0.015625)"/>
       <path id="CMR17-28" d="M 1958 -1561 
C 1958 -1555 1958 -1542 1939 -1523 
C 1645 -1224 858 -407 858 1581 
C 858 3569 1632 4379 1946 4697 
C 1946 4704 1958 4717 1958 4736 
C 1958 4755 1939 4768 1914 4768 
C 1843 4768 1299 4296 986 3594 
C 666 2887 576 2199 576 1588 
C 576 1128 621 351 1005 -471 
C 1312 -1135 1837 -1600 1914 -1600 
C 1946 -1600 1958 -1587 1958 -1561 
z
" transform="scale(0.015625)"/>
       <path id="CMR17-29" d="M 1683 1581 
C 1683 2040 1638 2817 1254 3639 
C 947 4303 422 4768 346 4768 
C 326 4768 301 4761 301 4729 
C 301 4717 307 4710 314 4697 
C 621 4378 1402 3568 1402 1584 
C 1402 -407 627 -1217 314 -1537 
C 307 -1549 301 -1556 301 -1568 
C 301 -1600 326 -1600 346 -1600 
C 416 -1600 960 -1128 1274 -426 
C 1594 281 1683 969 1683 1581 
z
" transform="scale(0.015625)"/>
      </defs>
      <use xlink:href="#CMMI12-22" transform="scale(0.996264)"/>
      <use xlink:href="#CMR17-28" transform="translate(45.650192 0) scale(0.996264)"/>
      <use xlink:href="#CMR17-31" transform="translate(80.93096 0) scale(0.996264)"/>
      <use xlink:href="#CMR17-29" transform="translate(126.621437 0) scale(0.996264)"/>
     </g>
    </g>
   </g>
   <g id="line2d_59">
    <path d="M 95.486843 117.038037 
L 120.665564 139.463363 
L 145.844286 155.887197 
L 171.023008 172.253772 
L 196.20173 186.496949 
L 221.380452 196.873719 
L 246.559173 208.18822 
L 271.737895 214.653487 
L 296.916617 223.228013 
L 322.095339 220.638021 
L 347.27406 225.488002 
L 372.452782 190.266264 
L 397.631504 224.248685 
L 422.810226 227.063157 
L 447.988948 221.287446 
L 473.167669 217.784554 
L 498.346391 215.966983 
L 523.525113 200.566014 
L 548.703835 147.179179 
L 573.882556 57.311392 
" clip-path="url(#pbbcf0dbd25)" style="fill: none; stroke: #006ec2; stroke-linecap: square"/>
   </g>
   <g id="line2d_60">
    <path d="M 95.486843 201.028282 
L 120.665564 258.339504 
L 145.844286 274.382137 
L 171.023008 286.38971 
L 196.20173 293.870632 
L 221.380452 283.934132 
L 246.559173 292.96684 
L 271.737895 296.251565 
L 296.916617 296.774939 
L 322.095339 295.616802 
L 347.27406 293.652541 
L 372.452782 277.466103 
L 397.631504 298.079902 
L 422.810226 287.631417 
L 447.988948 279.016463 
L 473.167669 274.128113 
L 498.346391 275.046162 
L 523.525113 40.897603 
L 548.703835 41.844848 
L 573.882556 44.246261 
" clip-path="url(#pbbcf0dbd25)" style="fill: none; stroke: #ff7b00; stroke-linecap: square"/>
   </g>
   <g id="line2d_61">
    <path d="M 95.486843 118.905573 
L 120.665564 138.893748 
L 145.844286 155.192173 
L 171.023008 170.396062 
L 196.20173 185.06109 
L 221.380452 199.283379 
L 246.559173 212.360266 
L 271.737895 223.874278 
L 296.916617 233.577102 
L 322.095339 241.188823 
L 347.27406 247.170712 
L 372.452782 251.472776 
L 397.631504 255.035758 
L 422.810226 258.010235 
L 447.988948 259.848142 
L 473.167669 260.246117 
L 498.346391 258.253424 
L 523.525113 261.522727 
L 548.703835 259.705746 
L 573.882556 260.241262 
L 599.061278 257.908382 
" clip-path="url(#pbbcf0dbd25)" style="fill: none; stroke: #006ec2; stroke-width: 3; stroke-linecap: square"/>
   </g>
   <g id="line2d_62">
    <path d="M 95.486843 242.930582 
L 120.665564 283.260473 
L 145.844286 305.878023 
L 171.023008 321.721202 
L 196.20173 333.629834 
L 221.380452 343.208646 
L 246.559173 350.854246 
L 271.737895 355.888956 
L 296.916617 360.293341 
L 322.095339 362.928668 
L 347.27406 364.34372 
L 372.452782 364.762109 
L 397.631504 364.129264 
L 422.810226 363.02515 
L 447.988948 361.302904 
L 473.167669 351.777447 
L 498.346391 348.246895 
L 523.525113 345.260173 
L 548.703835 343.316076 
L 573.882556 339.358003 
L 599.061278 335.510934 
" clip-path="url(#pbbcf0dbd25)" style="fill: none; stroke: #ff7b00; stroke-width: 3; stroke-linecap: square"/>
   </g>
   <g id="patch_3">
    <path d="M 70.308121 380.955334 
L 70.308121 24.704378 
" style="fill: none; stroke: #000000; stroke-width: 0.8; stroke-linejoin: miter; stroke-linecap: square"/>
   </g>
   <g id="patch_4">
    <path d="M 624.24 380.955334 
L 624.24 24.704378 
" style="fill: none; stroke: #000000; stroke-width: 0.8; stroke-linejoin: miter; stroke-linecap: square"/>
   </g>
   <g id="patch_5">
    <path d="M 70.308121 380.955334 
L 624.24 380.955334 
" style="fill: none; stroke: #000000; stroke-width: 0.8; stroke-linejoin: miter; stroke-linecap: square"/>
   </g>
   <g id="patch_6">
    <path d="M 70.308121 24.704378 
L 624.24 24.704378 
" style="fill: none; stroke: #000000; stroke-width: 0.8; stroke-linejoin: miter; stroke-linecap: square"/>
   </g>
   <g id="text_14">
    <!-- numpy MPS ($N = 12$) -->
    <g transform="translate(223.248662 18.704378) scale(0.264 -0.264)">
     <defs>
      <path id="NimbusSanL-Regu-6e" d="M 448 3359 
L 448 0 
L 986 0 
L 986 1853 
C 986 2539 1344 2988 1894 2988 
C 2317 2988 2586 2731 2586 2327 
L 2586 0 
L 3117 0 
L 3117 2539 
C 3117 3097 2701 3456 2054 3456 
C 1555 3456 1235 3263 941 2796 
L 941 3359 
L 448 3359 
z
" transform="scale(0.015625)"/>
      <path id="NimbusSanL-Regu-75" d="M 3085 33 
L 3085 3392 
L 2554 3392 
L 2554 1479 
C 2554 790 2195 340 1638 340 
C 1216 340 947 597 947 1003 
L 947 3392 
L 416 3392 
L 416 792 
C 416 232 832 -128 1485 -128 
C 1978 -128 2291 45 2605 488 
L 2605 33 
L 3085 33 
z
" transform="scale(0.015625)"/>
      <path id="NimbusSanL-Regu-6d" d="M 448 3359 
L 448 0 
L 986 0 
L 986 2109 
C 986 2597 1338 2988 1773 2988 
C 2170 2988 2394 2744 2394 2314 
L 2394 0 
L 2931 0 
L 2931 2109 
C 2931 2597 3283 2988 3718 2988 
C 4109 2988 4339 2738 4339 2314 
L 4339 0 
L 4877 0 
L 4877 2520 
C 4877 3122 4531 3456 3904 3456 
C 3456 3456 3187 3321 2874 2943 
C 2675 3302 2406 3456 1971 3456 
C 1523 3456 1229 3289 941 2885 
L 941 3359 
L 448 3359 
z
" transform="scale(0.015625)"/>
      <path id="NimbusSanL-Regu-70" d="M 346 -1408 
L 883 -1408 
L 883 320 
C 1165 -27 1478 -180 1914 -180 
C 2778 -180 3347 522 3347 1599 
C 3347 2734 2797 3444 1907 3444 
C 1453 3444 1088 3238 838 2841 
L 838 3349 
L 346 3349 
L 346 -1408 
z
M 1818 2944 
C 2406 2944 2790 2420 2790 1612 
C 2790 843 2400 320 1818 320 
C 1254 320 883 837 883 1632 
C 883 2427 1254 2944 1818 2944 
z
" transform="scale(0.015625)"/>
      <path id="NimbusSanL-Regu-79" d="M 2483 3360 
L 1555 738 
L 698 3360 
L 128 3360 
L 1261 -21 
L 1056 -554 
C 973 -792 851 -882 627 -882 
C 550 -882 461 -869 346 -843 
L 346 -1325 
C 454 -1382 563 -1408 704 -1408 
C 877 -1408 1062 -1350 1203 -1247 
C 1370 -1125 1466 -983 1568 -713 
L 3059 3360 
L 2483 3360 
z
" transform="scale(0.015625)"/>
      <path id="NimbusSanL-Regu-4d" d="M 2995 -2 
L 4307 3915 
L 4307 -2 
L 4870 -2 
L 4870 4672 
L 4045 4672 
L 2688 601 
L 1306 4672 
L 480 4672 
L 480 -2 
L 1043 -2 
L 1043 3915 
L 2368 -2 
L 2995 -2 
z
" transform="scale(0.015625)"/>
      <path id="NimbusSanL-Regu-50" d="M 1178 1984 
L 2643 1984 
C 3008 1984 3296 2093 3546 2316 
C 3827 2573 3949 2873 3949 3303 
C 3949 4179 3430 4672 2509 4672 
L 582 4672 
L 582 -14 
L 1178 -14 
L 1178 1984 
z
M 1178 2510 
L 1178 4146 
L 2419 4146 
C 2989 4146 3328 3839 3328 3327 
C 3328 2816 2989 2510 2419 2510 
L 1178 2510 
z
" transform="scale(0.015625)"/>
      <path id="NimbusSanL-Regu-53" d="M 3814 3335 
C 3808 4255 3181 4788 2106 4788 
C 1082 4788 448 4260 448 3410 
C 448 2837 749 2477 1363 2316 
L 2522 2007 
C 3110 1852 3379 1614 3379 1247 
C 3379 995 3245 738 3046 597 
C 2861 468 2566 397 2189 397 
C 1683 397 1338 520 1114 790 
C 941 996 864 1222 870 1511 
L 307 1511 
C 314 1081 397 798 582 540 
C 902 103 1440 -128 2150 -128 
C 2707 -128 3162 1 3462 232 
C 3776 483 3974 901 3974 1307 
C 3974 1886 3616 2311 2982 2485 
L 1811 2801 
C 1248 2955 1043 3135 1043 3496 
C 1043 3972 1459 4288 2086 4288 
C 2829 4288 3245 3947 3251 3335 
L 3814 3335 
z
" transform="scale(0.015625)"/>
      <path id="NimbusSanL-Regu-28" d="M 1510 4672 
C 870 3830 467 2660 467 1651 
C 467 636 870 -534 1510 -1376 
L 1862 -1376 
C 1299 -457 986 623 986 1651 
C 986 2673 1299 3759 1862 4672 
L 1510 4672 
z
" transform="scale(0.015625)"/>
      <path id="CMMI12-4e" d="M 4736 3698 
C 4806 3974 4909 4166 5395 4166 
C 5414 4166 5491 4166 5491 4279 
C 5491 4352 5434 4352 5408 4352 
C 5280 4352 4954 4352 4826 4352 
L 4518 4352 
C 4429 4352 4314 4352 4224 4352 
C 4186 4352 4109 4352 4109 4230 
C 4109 4166 4160 4166 4205 4166 
C 4589 4166 4614 4019 4614 3903 
C 4614 3846 4608 3826 4589 3737 
L 3866 850 
L 2496 4249 
C 2451 4352 2445 4352 2304 4352 
L 1523 4352 
C 1395 4352 1338 4352 1338 4230 
C 1338 4166 1382 4166 1504 4166 
C 1536 4166 1914 4166 1914 4115 
C 1914 4102 1901 4051 1894 4032 
L 1043 635 
C 966 320 813 186 390 186 
C 358 186 294 186 294 67 
C 294 0 358 0 378 0 
C 506 0 832 0 960 0 
L 1267 0 
C 1357 0 1466 0 1555 0 
C 1600 0 1670 0 1670 122 
C 1670 180 1606 186 1581 186 
C 1370 186 1165 224 1165 454 
C 1165 505 1178 562 1190 613 
L 2054 4032 
C 2093 3968 2093 3956 2118 3898 
L 3642 115 
C 3674 38 3686 0 3744 0 
C 3808 0 3814 19 3840 128 
L 4736 3698 
z
" transform="scale(0.015625)"/>
      <path id="CMR17-3d" d="M 4115 2017 
C 4211 2017 4307 2017 4307 2125 
C 4307 2240 4198 2240 4090 2240 
L 512 2240 
C 403 2240 294 2240 294 2125 
C 294 2017 390 2017 486 2017 
L 4115 2017 
z
M 4090 896 
C 4198 896 4307 896 4307 1011 
C 4307 1119 4211 1119 4115 1119 
L 486 1119 
C 390 1119 294 1119 294 1011 
C 294 896 403 896 512 896 
L 4090 896 
z
" transform="scale(0.015625)"/>
      <path id="NimbusSanL-Regu-29" d="M 595 -1376 
C 1235 -534 1638 636 1638 1644 
C 1638 2660 1235 3830 595 4672 
L 243 4672 
C 806 3753 1120 2673 1120 1644 
C 1120 623 806 -464 243 -1376 
L 595 -1376 
z
" transform="scale(0.015625)"/>
     </defs>
     <use xlink:href="#NimbusSanL-Regu-6e" transform="scale(0.996264)"/>
     <use xlink:href="#NimbusSanL-Regu-75" transform="translate(54.39558 0) scale(0.996264)"/>
     <use xlink:href="#NimbusSanL-Regu-6d" transform="translate(109.787257 0) scale(0.996264)"/>
     <use xlink:href="#NimbusSanL-Regu-70" transform="translate(192.775687 0) scale(0.996264)"/>
     <use xlink:href="#NimbusSanL-Regu-79" transform="translate(245.179256 0) scale(0.996264)"/>
     <use xlink:href="#NimbusSanL-Regu-4d" transform="translate(322.687626 0) scale(0.996264)"/>
     <use xlink:href="#NimbusSanL-Regu-50" transform="translate(405.676057 0) scale(0.996264)"/>
     <use xlink:href="#NimbusSanL-Regu-53" transform="translate(472.126088 0) scale(0.996264)"/>
     <use xlink:href="#NimbusSanL-Regu-28" transform="translate(566.271289 0) scale(0.996264)"/>
     <use xlink:href="#CMMI12-4e" transform="translate(599.446518 0) scale(0.996264)"/>
     <use xlink:href="#CMR17-3d" transform="translate(715.6423 0) scale(0.996264)"/>
     <use xlink:href="#CMR17-31" transform="translate(815.031097 0) scale(0.996264)"/>
     <use xlink:href="#CMR17-32" transform="translate(860.721574 0) scale(0.996264)"/>
     <use xlink:href="#NimbusSanL-Regu-29" transform="translate(906.412051 0) scale(0.996264)"/>
    </g>
   </g>
   <g id="legend_1">
    <g id="patch_7">
     <path d="M 101.539991 514.562309 
L 537.614942 514.562309 
Q 542.014942 514.562309 542.014942 510.162309 
L 542.014942 449.792978 
Q 542.014942 445.392978 537.614942 445.392978 
L 101.539991 445.392978 
Q 97.139991 445.392978 97.139991 449.792978 
L 97.139991 510.162309 
Q 97.139991 514.562309 101.539991 514.562309 
z
" style="fill: #ffffff; opacity: 0.8; stroke: #cccccc; stroke-linejoin: miter"/>
    </g>
    <g id="PathCollection_3">
     <g>
      <use xlink:href="#mc989395f33" x="127.939991" y="464.034283" style="fill: #006ec2; stroke: #006ec2; stroke-width: 3"/>
     </g>
    </g>
    <g id="text_15">
     <!-- MPS $P=100$ -->
     <g transform="translate(167.539991 469.809283) scale(0.22 -0.22)">
      <defs>
       <path id="CMMI12-50" d="M 1894 2023 
L 2970 2023 
C 3853 2023 4736 2673 4736 3401 
C 4736 3898 4314 4352 3507 4352 
L 1530 4352 
C 1408 4352 1350 4352 1350 4231 
C 1350 4167 1408 4167 1504 4167 
C 1894 4167 1894 4116 1894 4046 
C 1894 4034 1894 3995 1869 3899 
L 1005 472 
C 947 249 934 185 486 185 
C 365 185 301 185 301 70 
C 301 0 358 0 397 0 
C 518 0 646 0 768 0 
L 1517 0 
C 1638 0 1773 0 1894 0 
C 1946 0 2016 0 2016 121 
C 2016 185 1958 185 1862 185 
C 1478 185 1472 230 1472 293 
C 1472 325 1478 369 1485 401 
L 1894 2023 
z
M 2355 3930 
C 2413 4167 2438 4167 2688 4167 
L 3322 4167 
C 3802 4167 4198 4013 4198 3535 
C 4198 3369 4115 2827 3821 2534 
C 3712 2419 3405 2176 2822 2176 
L 1920 2176 
L 2355 3930 
z
" transform="scale(0.015625)"/>
      </defs>
      <use xlink:href="#NimbusSanL-Regu-4d" transform="scale(0.996264)"/>
      <use xlink:href="#NimbusSanL-Regu-50" transform="translate(82.98843 0) scale(0.996264)"/>
      <use xlink:href="#NimbusSanL-Regu-53" transform="translate(149.438461 0) scale(0.996264)"/>
      <use xlink:href="#CMMI12-50" transform="translate(243.583662 0) scale(0.996264)"/>
      <use xlink:href="#CMR17-3d" transform="translate(347.683492 0) scale(0.996264)"/>
      <use xlink:href="#CMR17-31" transform="translate(447.072289 0) scale(0.996264)"/>
      <use xlink:href="#CMR17-30" transform="translate(492.762766 0) scale(0.996264)"/>
      <use xlink:href="#CMR17-30" transform="translate(538.453243 0) scale(0.996264)"/>
     </g>
    </g>
    <g id="PathCollection_4">
     <g>
      <use xlink:href="#mbfb7fa5ae3" x="127.939991" y="495.318948" style="fill: #ff7b00; stroke: #ff7b00; stroke-width: 3"/>
     </g>
    </g>
    <g id="text_16">
     <!-- MPS $P=1000$ -->
     <g transform="translate(167.539991 501.093948) scale(0.22 -0.22)">
      <use xlink:href="#NimbusSanL-Regu-4d" transform="scale(0.996264)"/>
      <use xlink:href="#NimbusSanL-Regu-50" transform="translate(82.98843 0) scale(0.996264)"/>
      <use xlink:href="#NimbusSanL-Regu-53" transform="translate(149.438461 0) scale(0.996264)"/>
      <use xlink:href="#CMMI12-50" transform="translate(243.583662 0) scale(0.996264)"/>
      <use xlink:href="#CMR17-3d" transform="translate(347.683492 0) scale(0.996264)"/>
      <use xlink:href="#CMR17-31" transform="translate(447.072289 0) scale(0.996264)"/>
      <use xlink:href="#CMR17-30" transform="translate(492.762766 0) scale(0.996264)"/>
      <use xlink:href="#CMR17-30" transform="translate(538.453243 0) scale(0.996264)"/>
      <use xlink:href="#CMR17-30" transform="translate(584.14372 0) scale(0.996264)"/>
     </g>
    </g>
    <g id="line2d_63">
     <path style="fill: none; stroke: #006ec2; stroke-width: 3; stroke-linecap: square"/>
    </g>
    <g id="text_17">
     <!-- ED $P=100$ -->
     <g transform="translate(411.703401 469.809283) scale(0.22 -0.22)">
      <defs>
       <path id="NimbusSanL-Regu-45" d="M 1171 2112 
L 3712 2112 
L 3712 2638 
L 1171 2638 
L 1171 4146 
L 3808 4146 
L 3808 4672 
L 576 4672 
L 576 0 
L 3923 0 
L 3923 526 
L 1171 526 
L 1171 2112 
z
" transform="scale(0.015625)"/>
       <path id="NimbusSanL-Regu-44" d="M 570 0 
L 2368 0 
C 3546 0 4269 885 4269 2339 
C 4269 3787 3552 4672 2368 4672 
L 570 4672 
L 570 0 
z
M 1165 526 
L 1165 4146 
L 2266 4146 
C 3187 4146 3674 3524 3674 2333 
C 3674 1154 3187 526 2266 526 
L 1165 526 
z
" transform="scale(0.015625)"/>
      </defs>
      <use xlink:href="#NimbusSanL-Regu-45" transform="scale(0.996264)"/>
      <use xlink:href="#NimbusSanL-Regu-44" transform="translate(66.450031 0) scale(0.996264)"/>
      <use xlink:href="#CMMI12-50" transform="translate(166.075186 0) scale(0.996264)"/>
      <use xlink:href="#CMR17-3d" transform="translate(270.175015 0) scale(0.996264)"/>
      <use xlink:href="#CMR17-31" transform="translate(369.563812 0) scale(0.996264)"/>
      <use xlink:href="#CMR17-30" transform="translate(415.254289 0) scale(0.996264)"/>
      <use xlink:href="#CMR17-30" transform="translate(460.944766 0) scale(0.996264)"/>
     </g>
    </g>
    <g id="line2d_64">
     <path style="fill: none; stroke: #ff7b00; stroke-width: 3; stroke-linecap: square"/>
    </g>
    <g id="text_18">
     <!-- ED $P=1000$ -->
     <g transform="translate(411.703401 501.093948) scale(0.22 -0.22)">
      <use xlink:href="#NimbusSanL-Regu-45" transform="scale(0.996264)"/>
      <use xlink:href="#NimbusSanL-Regu-44" transform="translate(66.450031 0) scale(0.996264)"/>
      <use xlink:href="#CMMI12-50" transform="translate(166.075186 0) scale(0.996264)"/>
      <use xlink:href="#CMR17-3d" transform="translate(270.175015 0) scale(0.996264)"/>
      <use xlink:href="#CMR17-31" transform="translate(369.563812 0) scale(0.996264)"/>
      <use xlink:href="#CMR17-30" transform="translate(415.254289 0) scale(0.996264)"/>
      <use xlink:href="#CMR17-30" transform="translate(460.944766 0) scale(0.996264)"/>
      <use xlink:href="#CMR17-30" transform="translate(506.635244 0) scale(0.996264)"/>
     </g>
    </g>
   </g>
  </g>
 </g>
 <defs>
  <clipPath id="pbbcf0dbd25">
   <rect x="70.308121" y="24.704378" width="553.931879" height="356.250956"/>
  </clipPath>
 </defs>
</svg>
