<?xml version="1.0" encoding="utf-8" standalone="no"?>
<!DOCTYPE svg PUBLIC "-//W3C//DTD SVG 1.1//EN"
  "http://www.w3.org/Graphics/SVG/1.1/DTD/svg11.dtd">
<svg xmlns:xlink="http://www.w3.org/1999/xlink" width="589.027864pt" height="502.331618pt" viewBox="0 0 589.027864 502.331618" xmlns="http://www.w3.org/2000/svg" version="1.1">
 <metadata>
  <rdf:RDF xmlns:dc="http://purl.org/dc/elements/1.1/" xmlns:cc="http://creativecommons.org/ns#" xmlns:rdf="http://www.w3.org/1999/02/22-rdf-syntax-ns#">
   <cc:Work>
    <dc:type rdf:resource="http://purl.org/dc/dcmitype/StillImage"/>
    <dc:date>2023-03-29T17:44:24.520646</dc:date>
    <dc:format>image/svg+xml</dc:format>
    <dc:creator>
     <cc:Agent>
      <dc:title>Matplotlib v3.6.0, https://matplotlib.org/</dc:title>
     </cc:Agent>
    </dc:creator>
   </cc:Work>
  </rdf:RDF>
 </metadata>
 <defs>
  <style type="text/css">*{stroke-linejoin: round; stroke-linecap: butt}</style>
 </defs>
 <g id="figure_1">
  <g id="patch_1">
   <path d="M -0 502.331618 
L 589.027864 502.331618 
L 589.027864 0 
L -0 0 
L -0 502.331618 
z
" style="fill: none"/>
  </g>
  <g id="axes_1">
   <g id="patch_2">
    <path d="M 79.627864 365.066287 
L 581.827864 365.066287 
L 581.827864 32.426287 
L 79.627864 32.426287 
L 79.627864 365.066287 
z
" style="fill: none"/>
   </g>
   <g id="PathCollection_1">
    <defs>
     <path id="m6bccdce3dd" d="M 0 -5.477226 
L -1.229714 -1.692556 
L -5.209151 -1.692556 
L -1.989719 0.646499 
L -3.219432 4.431169 
L -0 2.092114 
L 3.219432 4.431169 
L 1.989719 0.646499 
L 5.209151 -1.692556 
L 1.229714 -1.692556 
z
" style="stroke: #006ec2; stroke-width: 3"/>
    </defs>
    <g clip-path="url(#pa83e6a5d38)">
     <use xlink:href="#m6bccdce3dd" x="102.455137" y="118.640423" style="fill: #006ec2; stroke: #006ec2; stroke-width: 3"/>
     <use xlink:href="#m6bccdce3dd" x="125.282409" y="139.579483" style="fill: #006ec2; stroke: #006ec2; stroke-width: 3"/>
     <use xlink:href="#m6bccdce3dd" x="148.109682" y="154.914808" style="fill: #006ec2; stroke: #006ec2; stroke-width: 3"/>
     <use xlink:href="#m6bccdce3dd" x="170.936955" y="170.196669" style="fill: #006ec2; stroke: #006ec2; stroke-width: 3"/>
     <use xlink:href="#m6bccdce3dd" x="193.764228" y="183.495863" style="fill: #006ec2; stroke: #006ec2; stroke-width: 3"/>
     <use xlink:href="#m6bccdce3dd" x="216.5915" y="193.1849" style="fill: #006ec2; stroke: #006ec2; stroke-width: 3"/>
     <use xlink:href="#m6bccdce3dd" x="239.418773" y="203.749519" style="fill: #006ec2; stroke: #006ec2; stroke-width: 3"/>
     <use xlink:href="#m6bccdce3dd" x="262.246046" y="209.786293" style="fill: #006ec2; stroke: #006ec2; stroke-width: 3"/>
     <use xlink:href="#m6bccdce3dd" x="285.073318" y="217.792532" style="fill: #006ec2; stroke: #006ec2; stroke-width: 3"/>
     <use xlink:href="#m6bccdce3dd" x="307.900591" y="215.374195" style="fill: #006ec2; stroke: #006ec2; stroke-width: 3"/>
     <use xlink:href="#m6bccdce3dd" x="330.727864" y="219.902738" style="fill: #006ec2; stroke: #006ec2; stroke-width: 3"/>
     <use xlink:href="#m6bccdce3dd" x="353.555137" y="187.015362" style="fill: #006ec2; stroke: #006ec2; stroke-width: 3"/>
     <use xlink:href="#m6bccdce3dd" x="376.382409" y="218.745557" style="fill: #006ec2; stroke: #006ec2; stroke-width: 3"/>
     <use xlink:href="#m6bccdce3dd" x="399.209682" y="221.373497" style="fill: #006ec2; stroke: #006ec2; stroke-width: 3"/>
     <use xlink:href="#m6bccdce3dd" x="422.036955" y="215.980578" style="fill: #006ec2; stroke: #006ec2; stroke-width: 3"/>
     <use xlink:href="#m6bccdce3dd" x="444.864228" y="212.709844" style="fill: #006ec2; stroke: #006ec2; stroke-width: 3"/>
     <use xlink:href="#m6bccdce3dd" x="467.6915" y="211.012735" style="fill: #006ec2; stroke: #006ec2; stroke-width: 3"/>
     <use xlink:href="#m6bccdce3dd" x="490.518773" y="196.632483" style="fill: #006ec2; stroke: #006ec2; stroke-width: 3"/>
     <use xlink:href="#m6bccdce3dd" x="513.346046" y="146.783924" style="fill: #006ec2; stroke: #006ec2; stroke-width: 3"/>
     <use xlink:href="#m6bccdce3dd" x="536.173318" y="62.872233" style="fill: #006ec2; stroke: #006ec2; stroke-width: 3"/>
    </g>
   </g>
   <g id="PathCollection_2">
    <defs>
     <path id="mbdbf28fb78" d="M -5 5 
L 5 5 
L 5 -5 
L -5 -5 
z
" style="stroke: #ff7b00; stroke-width: 3"/>
    </defs>
    <g clip-path="url(#pa83e6a5d38)">
     <use xlink:href="#mbdbf28fb78" x="102.455137" y="197.064114" style="fill: #ff7b00; stroke: #ff7b00; stroke-width: 3"/>
     <use xlink:href="#mbdbf28fb78" x="125.282409" y="250.576967" style="fill: #ff7b00; stroke: #ff7b00; stroke-width: 3"/>
     <use xlink:href="#mbdbf28fb78" x="148.109682" y="265.556355" style="fill: #ff7b00; stroke: #ff7b00; stroke-width: 3"/>
     <use xlink:href="#mbdbf28fb78" x="170.936955" y="276.768112" style="fill: #ff7b00; stroke: #ff7b00; stroke-width: 3"/>
     <use xlink:href="#mbdbf28fb78" x="193.764228" y="283.753227" style="fill: #ff7b00; stroke: #ff7b00; stroke-width: 3"/>
     <use xlink:href="#mbdbf28fb78" x="216.5915" y="274.47528" style="fill: #ff7b00; stroke: #ff7b00; stroke-width: 3"/>
     <use xlink:href="#mbdbf28fb78" x="239.418773" y="282.909335" style="fill: #ff7b00; stroke: #ff7b00; stroke-width: 3"/>
     <use xlink:href="#mbdbf28fb78" x="262.246046" y="285.976361" style="fill: #ff7b00; stroke: #ff7b00; stroke-width: 3"/>
     <use xlink:href="#mbdbf28fb78" x="285.073318" y="286.465047" style="fill: #ff7b00; stroke: #ff7b00; stroke-width: 3"/>
     <use xlink:href="#mbdbf28fb78" x="307.900591" y="285.383668" style="fill: #ff7b00; stroke: #ff7b00; stroke-width: 3"/>
     <use xlink:href="#mbdbf28fb78" x="330.727864" y="283.549591" style="fill: #ff7b00; stroke: #ff7b00; stroke-width: 3"/>
     <use xlink:href="#mbdbf28fb78" x="353.555137" y="268.435927" style="fill: #ff7b00; stroke: #ff7b00; stroke-width: 3"/>
     <use xlink:href="#mbdbf28fb78" x="376.382409" y="287.683523" style="fill: #ff7b00; stroke: #ff7b00; stroke-width: 3"/>
     <use xlink:href="#mbdbf28fb78" x="399.209682" y="277.927524" style="fill: #ff7b00; stroke: #ff7b00; stroke-width: 3"/>
     <use xlink:href="#mbdbf28fb78" x="422.036955" y="269.883535" style="fill: #ff7b00; stroke: #ff7b00; stroke-width: 3"/>
     <use xlink:href="#mbdbf28fb78" x="444.864228" y="265.319167" style="fill: #ff7b00; stroke: #ff7b00; stroke-width: 3"/>
     <use xlink:href="#mbdbf28fb78" x="467.6915" y="266.176371" style="fill: #ff7b00; stroke: #ff7b00; stroke-width: 3"/>
     <use xlink:href="#mbdbf28fb78" x="490.518773" y="47.546287" style="fill: #ff7b00; stroke: #ff7b00; stroke-width: 3"/>
     <use xlink:href="#mbdbf28fb78" x="513.346046" y="48.430752" style="fill: #ff7b00; stroke: #ff7b00; stroke-width: 3"/>
     <use xlink:href="#mbdbf28fb78" x="536.173318" y="50.673008" style="fill: #ff7b00; stroke: #ff7b00; stroke-width: 3"/>
    </g>
   </g>
   <g id="matplotlib.axis_1">
    <g id="xtick_1">
     <g id="line2d_1">
      <defs>
       <path id="ma12905eccd" d="M 0 0 
L 0 3.5 
" style="stroke: #000000; stroke-width: 0.8"/>
      </defs>
      <g>
       <use xlink:href="#ma12905eccd" x="79.627864" y="365.066287" style="stroke: #000000; stroke-width: 0.8"/>
      </g>
     </g>
     <g id="text_1">
      <!-- $\mathdefault{0.0}$ -->
      <g transform="translate(66.595269 387.682592) scale(0.22 -0.22)">
       <defs>
        <path id="CMR17-30" d="M 2688 2025 
C 2688 2416 2682 3080 2413 3591 
C 2176 4039 1798 4198 1466 4198 
C 1158 4198 768 4058 525 3597 
C 269 3118 243 2524 243 2025 
C 243 1661 250 1106 448 619 
C 723 -39 1216 -128 1466 -128 
C 1760 -128 2208 -7 2470 600 
C 2662 1042 2688 1559 2688 2025 
z
M 1466 -26 
C 1056 -26 813 325 723 812 
C 653 1188 653 1738 653 2096 
C 653 2588 653 2997 736 3387 
C 858 3929 1216 4096 1466 4096 
C 1728 4096 2067 3923 2189 3400 
C 2272 3036 2278 2607 2278 2096 
C 2278 1680 2278 1169 2202 792 
C 2067 95 1690 -26 1466 -26 
z
" transform="scale(0.015625)"/>
        <path id="CMMI12-3a" d="M 1178 307 
C 1178 492 1024 619 870 619 
C 685 619 557 466 557 313 
C 557 128 710 0 864 0 
C 1050 0 1178 153 1178 307 
z
" transform="scale(0.015625)"/>
       </defs>
       <use xlink:href="#CMR17-30" transform="scale(0.996264)"/>
       <use xlink:href="#CMMI12-3a" transform="translate(45.690477 0) scale(0.996264)"/>
       <use xlink:href="#CMR17-30" transform="translate(72.787654 0) scale(0.996264)"/>
      </g>
     </g>
    </g>
    <g id="xtick_2">
     <g id="line2d_2">
      <g>
       <use xlink:href="#ma12905eccd" x="193.764228" y="365.066287" style="stroke: #000000; stroke-width: 0.8"/>
      </g>
     </g>
     <g id="text_2">
      <!-- $\mathdefault{0.5}$ -->
      <g transform="translate(180.731633 387.682592) scale(0.22 -0.22)">
       <defs>
        <path id="CMR17-35" d="M 730 3692 
C 794 3666 1056 3584 1325 3584 
C 1920 3584 2246 3911 2432 4100 
C 2432 4157 2432 4192 2394 4192 
C 2387 4192 2374 4192 2323 4163 
C 2099 4058 1837 3973 1517 3973 
C 1325 3973 1037 3999 723 4139 
C 653 4171 640 4171 634 4171 
C 602 4171 595 4164 595 4037 
L 595 2203 
C 595 2089 595 2057 659 2057 
C 691 2057 704 2070 736 2114 
C 941 2401 1222 2522 1542 2522 
C 1766 2522 2246 2382 2246 1289 
C 2246 1085 2246 715 2054 421 
C 1894 159 1645 25 1370 25 
C 947 25 518 320 403 814 
C 429 807 480 795 506 795 
C 589 795 749 840 749 1038 
C 749 1210 627 1280 506 1280 
C 358 1280 262 1190 262 1011 
C 262 454 704 -128 1382 -128 
C 2042 -128 2669 440 2669 1264 
C 2669 2030 2170 2624 1549 2624 
C 1222 2624 947 2503 730 2274 
L 730 3692 
z
" transform="scale(0.015625)"/>
       </defs>
       <use xlink:href="#CMR17-30" transform="scale(0.996264)"/>
       <use xlink:href="#CMMI12-3a" transform="translate(45.690477 0) scale(0.996264)"/>
       <use xlink:href="#CMR17-35" transform="translate(72.787654 0) scale(0.996264)"/>
      </g>
     </g>
    </g>
    <g id="xtick_3">
     <g id="line2d_3">
      <g>
       <use xlink:href="#ma12905eccd" x="307.900591" y="365.066287" style="stroke: #000000; stroke-width: 0.8"/>
      </g>
     </g>
     <g id="text_3">
      <!-- $\mathdefault{1.0}$ -->
      <g transform="translate(294.867997 387.682592) scale(0.22 -0.22)">
       <defs>
        <path id="CMR17-31" d="M 1702 4058 
C 1702 4192 1696 4192 1606 4192 
C 1357 3916 979 3827 621 3827 
C 602 3827 570 3827 563 3808 
C 557 3795 557 3782 557 3648 
C 755 3648 1088 3686 1344 3839 
L 1344 461 
C 1344 236 1331 160 781 160 
L 589 160 
L 589 0 
C 896 0 1216 0 1523 0 
C 1830 0 2150 0 2458 0 
L 2458 160 
L 2266 160 
C 1715 160 1702 230 1702 458 
L 1702 4058 
z
" transform="scale(0.015625)"/>
       </defs>
       <use xlink:href="#CMR17-31" transform="scale(0.996264)"/>
       <use xlink:href="#CMMI12-3a" transform="translate(45.690477 0) scale(0.996264)"/>
       <use xlink:href="#CMR17-30" transform="translate(72.787654 0) scale(0.996264)"/>
      </g>
     </g>
    </g>
    <g id="xtick_4">
     <g id="line2d_4">
      <g>
       <use xlink:href="#ma12905eccd" x="422.036955" y="365.066287" style="stroke: #000000; stroke-width: 0.8"/>
      </g>
     </g>
     <g id="text_4">
      <!-- $\mathdefault{1.5}$ -->
      <g transform="translate(409.00436 387.682592) scale(0.22 -0.22)">
       <use xlink:href="#CMR17-31" transform="scale(0.996264)"/>
       <use xlink:href="#CMMI12-3a" transform="translate(45.690477 0) scale(0.996264)"/>
       <use xlink:href="#CMR17-35" transform="translate(72.787654 0) scale(0.996264)"/>
      </g>
     </g>
    </g>
    <g id="xtick_5">
     <g id="line2d_5">
      <g>
       <use xlink:href="#ma12905eccd" x="536.173318" y="365.066287" style="stroke: #000000; stroke-width: 0.8"/>
      </g>
     </g>
     <g id="text_5">
      <!-- $\mathdefault{2.0}$ -->
      <g transform="translate(523.140724 387.682592) scale(0.22 -0.22)">
       <defs>
        <path id="CMR17-32" d="M 2669 989 
L 2554 989 
C 2490 536 2438 459 2413 420 
C 2381 369 1920 369 1830 369 
L 602 369 
C 832 619 1280 1072 1824 1597 
C 2214 1967 2669 2402 2669 3035 
C 2669 3790 2067 4224 1395 4224 
C 691 4224 262 3604 262 3030 
C 262 2780 448 2748 525 2748 
C 589 2748 781 2787 781 3010 
C 781 3207 614 3264 525 3264 
C 486 3264 448 3258 422 3245 
C 544 3790 915 4058 1306 4058 
C 1862 4058 2227 3617 2227 3035 
C 2227 2479 1901 2000 1536 1584 
L 262 146 
L 262 0 
L 2515 0 
L 2669 989 
z
" transform="scale(0.015625)"/>
       </defs>
       <use xlink:href="#CMR17-32" transform="scale(0.996264)"/>
       <use xlink:href="#CMMI12-3a" transform="translate(45.690477 0) scale(0.996264)"/>
       <use xlink:href="#CMR17-30" transform="translate(72.787654 0) scale(0.996264)"/>
      </g>
     </g>
    </g>
    <g id="text_6">
     <!-- $\delta t$ -->
     <g transform="translate(321.689424 411.967257) scale(0.22 -0.22)">
      <defs>
       <path id="CMMI12-e" d="M 1664 2795 
C 845 2597 256 1748 256 1001 
C 256 319 717 -64 1229 -64 
C 1984 -64 2496 970 2496 1818 
C 2496 2392 2227 2744 2067 2954 
C 1830 3254 1446 3746 1446 4052 
C 1446 4161 1530 4352 1811 4352 
C 2010 4352 2131 4282 2323 4173 
C 2381 4134 2528 4052 2611 4052 
C 2746 4052 2842 4185 2842 4287 
C 2842 4409 2746 4428 2522 4479 
C 2221 4543 2131 4543 2022 4543 
C 1914 4543 1286 4543 1286 3892 
C 1286 3579 1446 3216 1664 2795 
z
M 1734 2669 
C 1978 2165 2074 1974 2074 1560 
C 2074 1063 1805 63 1235 63 
C 986 63 627 229 627 821 
C 627 1235 864 2439 1734 2669 
z
" transform="scale(0.015625)"/>
       <path id="CMMI12-74" d="M 1286 2566 
L 1875 2566 
C 1997 2566 2061 2566 2061 2681 
C 2061 2752 2022 2752 1894 2752 
L 1331 2752 
L 1568 3692 
C 1594 3781 1594 3794 1594 3840 
C 1594 3943 1510 4000 1427 4000 
C 1376 4000 1229 3981 1178 3775 
L 928 2752 
L 326 2752 
C 198 2752 141 2752 141 2630 
C 141 2566 186 2566 307 2566 
L 877 2566 
L 454 881 
C 403 658 384 594 384 511 
C 384 211 595 -64 954 -64 
C 1600 -64 1946 868 1946 912 
C 1946 951 1920 970 1882 970 
C 1869 970 1843 970 1830 944 
C 1824 938 1818 931 1773 829 
C 1638 511 1344 64 973 64 
C 781 64 768 224 768 364 
C 768 370 768 492 787 568 
L 1286 2566 
z
" transform="scale(0.015625)"/>
      </defs>
      <use xlink:href="#CMMI12-e" transform="scale(0.996264)"/>
      <use xlink:href="#CMMI12-74" transform="translate(46.941386 0) scale(0.996264)"/>
     </g>
    </g>
   </g>
   <g id="matplotlib.axis_2">
    <g id="ytick_1">
     <g id="line2d_6">
      <defs>
       <path id="mdf56750aea" d="M 0 0 
L -3.5 0 
" style="stroke: #000000; stroke-width: 0.8"/>
      </defs>
      <g>
       <use xlink:href="#mdf56750aea" x="79.627864" y="330.319182" style="stroke: #000000; stroke-width: 0.8"/>
      </g>
     </g>
     <g id="text_7">
      <!-- $\mathdefault{10^{-5}}$ -->
      <g transform="translate(33.079743 338.127335) scale(0.22 -0.22)">
       <defs>
        <path id="CMSY10-0" d="M 4218 1472 
C 4326 1472 4442 1472 4442 1600 
C 4442 1728 4326 1728 4218 1728 
L 755 1728 
C 646 1728 531 1728 531 1600 
C 531 1472 646 1472 755 1472 
L 4218 1472 
z
" transform="scale(0.015625)"/>
       </defs>
       <use xlink:href="#CMR17-31" transform="scale(0.996264)"/>
       <use xlink:href="#CMR17-30" transform="translate(45.690477 0) scale(0.996264)"/>
       <use xlink:href="#CMSY10-0" transform="translate(91.380954 36.153639) scale(0.697382)"/>
       <use xlink:href="#CMR17-35" transform="translate(145.621947 36.153639) scale(0.697382)"/>
      </g>
     </g>
    </g>
    <g id="ytick_2">
     <g id="line2d_7">
      <g>
       <use xlink:href="#mdf56750aea" x="79.627864" y="272.113358" style="stroke: #000000; stroke-width: 0.8"/>
      </g>
     </g>
     <g id="text_8">
      <!-- $\mathdefault{10^{-4}}$ -->
      <g transform="translate(33.079743 279.92151) scale(0.22 -0.22)">
       <defs>
        <path id="CMR17-34" d="M 2150 4122 
C 2150 4256 2144 4256 2029 4256 
L 128 1254 
L 128 1088 
L 1779 1088 
L 1779 457 
C 1779 224 1766 160 1318 160 
L 1197 160 
L 1197 0 
C 1402 0 1747 0 1965 0 
C 2182 0 2528 0 2733 0 
L 2733 160 
L 2611 160 
C 2163 160 2150 224 2150 457 
L 2150 1088 
L 2803 1088 
L 2803 1254 
L 2150 1254 
L 2150 4122 
z
M 1798 3703 
L 1798 1254 
L 256 1254 
L 1798 3703 
z
" transform="scale(0.015625)"/>
       </defs>
       <use xlink:href="#CMR17-31" transform="scale(0.996264)"/>
       <use xlink:href="#CMR17-30" transform="translate(45.690477 0) scale(0.996264)"/>
       <use xlink:href="#CMSY10-0" transform="translate(91.380954 36.153639) scale(0.697382)"/>
       <use xlink:href="#CMR17-34" transform="translate(145.621947 36.153639) scale(0.697382)"/>
      </g>
     </g>
    </g>
    <g id="ytick_3">
     <g id="line2d_8">
      <g>
       <use xlink:href="#mdf56750aea" x="79.627864" y="213.907534" style="stroke: #000000; stroke-width: 0.8"/>
      </g>
     </g>
     <g id="text_9">
      <!-- $\mathdefault{10^{-3}}$ -->
      <g transform="translate(33.079743 221.715686) scale(0.22 -0.22)">
       <defs>
        <path id="CMR17-33" d="M 1414 2157 
C 1984 2157 2234 1662 2234 1090 
C 2234 320 1824 25 1453 25 
C 1114 25 563 194 390 693 
C 422 680 454 680 486 680 
C 640 680 755 782 755 948 
C 755 1133 614 1216 486 1216 
C 378 1216 211 1165 211 926 
C 211 335 787 -128 1466 -128 
C 2176 -128 2720 430 2720 1085 
C 2720 1707 2208 2157 1600 2227 
C 2086 2328 2554 2756 2554 3329 
C 2554 3820 2048 4179 1472 4179 
C 890 4179 378 3829 378 3329 
C 378 3110 544 3072 627 3072 
C 762 3072 877 3155 877 3321 
C 877 3486 762 3569 627 3569 
C 602 3569 570 3569 544 3557 
C 730 3959 1235 4032 1459 4032 
C 1683 4032 2106 3925 2106 3320 
C 2106 3143 2080 2828 1862 2550 
C 1670 2304 1453 2304 1242 2284 
C 1210 2284 1062 2269 1037 2269 
C 992 2263 966 2257 966 2208 
C 966 2163 973 2157 1101 2157 
L 1414 2157 
z
" transform="scale(0.015625)"/>
       </defs>
       <use xlink:href="#CMR17-31" transform="scale(0.996264)"/>
       <use xlink:href="#CMR17-30" transform="translate(45.690477 0) scale(0.996264)"/>
       <use xlink:href="#CMSY10-0" transform="translate(91.380954 36.153639) scale(0.697382)"/>
       <use xlink:href="#CMR17-33" transform="translate(145.621947 36.153639) scale(0.697382)"/>
      </g>
     </g>
    </g>
    <g id="ytick_4">
     <g id="line2d_9">
      <g>
       <use xlink:href="#mdf56750aea" x="79.627864" y="155.70171" style="stroke: #000000; stroke-width: 0.8"/>
      </g>
     </g>
     <g id="text_10">
      <!-- $\mathdefault{10^{-2}}$ -->
      <g transform="translate(33.079743 163.509862) scale(0.22 -0.22)">
       <use xlink:href="#CMR17-31" transform="scale(0.996264)"/>
       <use xlink:href="#CMR17-30" transform="translate(45.690477 0) scale(0.996264)"/>
       <use xlink:href="#CMSY10-0" transform="translate(91.380954 36.153639) scale(0.697382)"/>
       <use xlink:href="#CMR17-32" transform="translate(145.621947 36.153639) scale(0.697382)"/>
      </g>
     </g>
    </g>
    <g id="ytick_5">
     <g id="line2d_10">
      <g>
       <use xlink:href="#mdf56750aea" x="79.627864" y="97.495885" style="stroke: #000000; stroke-width: 0.8"/>
      </g>
     </g>
     <g id="text_11">
      <!-- $\mathdefault{10^{-1}}$ -->
      <g transform="translate(33.079743 105.304038) scale(0.22 -0.22)">
       <use xlink:href="#CMR17-31" transform="scale(0.996264)"/>
       <use xlink:href="#CMR17-30" transform="translate(45.690477 0) scale(0.996264)"/>
       <use xlink:href="#CMSY10-0" transform="translate(91.380954 36.153639) scale(0.697382)"/>
       <use xlink:href="#CMR17-31" transform="translate(145.621947 36.153639) scale(0.697382)"/>
      </g>
     </g>
    </g>
    <g id="ytick_6">
     <g id="line2d_11">
      <g>
       <use xlink:href="#mdf56750aea" x="79.627864" y="39.290061" style="stroke: #000000; stroke-width: 0.8"/>
      </g>
     </g>
     <g id="text_12">
      <!-- $\mathdefault{10^{0}}$ -->
      <g transform="translate(45.012762 47.098214) scale(0.22 -0.22)">
       <use xlink:href="#CMR17-31" transform="scale(0.996264)"/>
       <use xlink:href="#CMR17-30" transform="translate(45.690477 0) scale(0.996264)"/>
       <use xlink:href="#CMR17-30" transform="translate(91.380954 36.153639) scale(0.697382)"/>
      </g>
     </g>
    </g>
    <g id="ytick_7">
     <g id="line2d_12">
      <defs>
       <path id="mf1b4a4a194" d="M 0 0 
L -2 0 
" style="stroke: #000000; stroke-width: 0.6"/>
      </defs>
      <g>
       <use xlink:href="#mf1b4a4a194" x="79.627864" y="360.753771" style="stroke: #000000; stroke-width: 0.6"/>
      </g>
     </g>
    </g>
    <g id="ytick_8">
     <g id="line2d_13">
      <g>
       <use xlink:href="#mf1b4a4a194" x="79.627864" y="353.481609" style="stroke: #000000; stroke-width: 0.6"/>
      </g>
     </g>
    </g>
    <g id="ytick_9">
     <g id="line2d_14">
      <g>
       <use xlink:href="#mf1b4a4a194" x="79.627864" y="347.840881" style="stroke: #000000; stroke-width: 0.6"/>
      </g>
     </g>
    </g>
    <g id="ytick_10">
     <g id="line2d_15">
      <g>
       <use xlink:href="#mf1b4a4a194" x="79.627864" y="343.232072" style="stroke: #000000; stroke-width: 0.6"/>
      </g>
     </g>
    </g>
    <g id="ytick_11">
     <g id="line2d_16">
      <g>
       <use xlink:href="#mf1b4a4a194" x="79.627864" y="339.335379" style="stroke: #000000; stroke-width: 0.6"/>
      </g>
     </g>
    </g>
    <g id="ytick_12">
     <g id="line2d_17">
      <g>
       <use xlink:href="#mf1b4a4a194" x="79.627864" y="335.959909" style="stroke: #000000; stroke-width: 0.6"/>
      </g>
     </g>
    </g>
    <g id="ytick_13">
     <g id="line2d_18">
      <g>
       <use xlink:href="#mf1b4a4a194" x="79.627864" y="332.982535" style="stroke: #000000; stroke-width: 0.6"/>
      </g>
     </g>
    </g>
    <g id="ytick_14">
     <g id="line2d_19">
      <g>
       <use xlink:href="#mf1b4a4a194" x="79.627864" y="312.797483" style="stroke: #000000; stroke-width: 0.6"/>
      </g>
     </g>
    </g>
    <g id="ytick_15">
     <g id="line2d_20">
      <g>
       <use xlink:href="#mf1b4a4a194" x="79.627864" y="302.547946" style="stroke: #000000; stroke-width: 0.6"/>
      </g>
     </g>
    </g>
    <g id="ytick_16">
     <g id="line2d_21">
      <g>
       <use xlink:href="#mf1b4a4a194" x="79.627864" y="295.275784" style="stroke: #000000; stroke-width: 0.6"/>
      </g>
     </g>
    </g>
    <g id="ytick_17">
     <g id="line2d_22">
      <g>
       <use xlink:href="#mf1b4a4a194" x="79.627864" y="289.635057" style="stroke: #000000; stroke-width: 0.6"/>
      </g>
     </g>
    </g>
    <g id="ytick_18">
     <g id="line2d_23">
      <g>
       <use xlink:href="#mf1b4a4a194" x="79.627864" y="285.026247" style="stroke: #000000; stroke-width: 0.6"/>
      </g>
     </g>
    </g>
    <g id="ytick_19">
     <g id="line2d_24">
      <g>
       <use xlink:href="#mf1b4a4a194" x="79.627864" y="281.129554" style="stroke: #000000; stroke-width: 0.6"/>
      </g>
     </g>
    </g>
    <g id="ytick_20">
     <g id="line2d_25">
      <g>
       <use xlink:href="#mf1b4a4a194" x="79.627864" y="277.754085" style="stroke: #000000; stroke-width: 0.6"/>
      </g>
     </g>
    </g>
    <g id="ytick_21">
     <g id="line2d_26">
      <g>
       <use xlink:href="#mf1b4a4a194" x="79.627864" y="274.776711" style="stroke: #000000; stroke-width: 0.6"/>
      </g>
     </g>
    </g>
    <g id="ytick_22">
     <g id="line2d_27">
      <g>
       <use xlink:href="#mf1b4a4a194" x="79.627864" y="254.591659" style="stroke: #000000; stroke-width: 0.6"/>
      </g>
     </g>
    </g>
    <g id="ytick_23">
     <g id="line2d_28">
      <g>
       <use xlink:href="#mf1b4a4a194" x="79.627864" y="244.342122" style="stroke: #000000; stroke-width: 0.6"/>
      </g>
     </g>
    </g>
    <g id="ytick_24">
     <g id="line2d_29">
      <g>
       <use xlink:href="#mf1b4a4a194" x="79.627864" y="237.06996" style="stroke: #000000; stroke-width: 0.6"/>
      </g>
     </g>
    </g>
    <g id="ytick_25">
     <g id="line2d_30">
      <g>
       <use xlink:href="#mf1b4a4a194" x="79.627864" y="231.429233" style="stroke: #000000; stroke-width: 0.6"/>
      </g>
     </g>
    </g>
    <g id="ytick_26">
     <g id="line2d_31">
      <g>
       <use xlink:href="#mf1b4a4a194" x="79.627864" y="226.820423" style="stroke: #000000; stroke-width: 0.6"/>
      </g>
     </g>
    </g>
    <g id="ytick_27">
     <g id="line2d_32">
      <g>
       <use xlink:href="#mf1b4a4a194" x="79.627864" y="222.92373" style="stroke: #000000; stroke-width: 0.6"/>
      </g>
     </g>
    </g>
    <g id="ytick_28">
     <g id="line2d_33">
      <g>
       <use xlink:href="#mf1b4a4a194" x="79.627864" y="219.548261" style="stroke: #000000; stroke-width: 0.6"/>
      </g>
     </g>
    </g>
    <g id="ytick_29">
     <g id="line2d_34">
      <g>
       <use xlink:href="#mf1b4a4a194" x="79.627864" y="216.570886" style="stroke: #000000; stroke-width: 0.6"/>
      </g>
     </g>
    </g>
    <g id="ytick_30">
     <g id="line2d_35">
      <g>
       <use xlink:href="#mf1b4a4a194" x="79.627864" y="196.385835" style="stroke: #000000; stroke-width: 0.6"/>
      </g>
     </g>
    </g>
    <g id="ytick_31">
     <g id="line2d_36">
      <g>
       <use xlink:href="#mf1b4a4a194" x="79.627864" y="186.136298" style="stroke: #000000; stroke-width: 0.6"/>
      </g>
     </g>
    </g>
    <g id="ytick_32">
     <g id="line2d_37">
      <g>
       <use xlink:href="#mf1b4a4a194" x="79.627864" y="178.864136" style="stroke: #000000; stroke-width: 0.6"/>
      </g>
     </g>
    </g>
    <g id="ytick_33">
     <g id="line2d_38">
      <g>
       <use xlink:href="#mf1b4a4a194" x="79.627864" y="173.223409" style="stroke: #000000; stroke-width: 0.6"/>
      </g>
     </g>
    </g>
    <g id="ytick_34">
     <g id="line2d_39">
      <g>
       <use xlink:href="#mf1b4a4a194" x="79.627864" y="168.614599" style="stroke: #000000; stroke-width: 0.6"/>
      </g>
     </g>
    </g>
    <g id="ytick_35">
     <g id="line2d_40">
      <g>
       <use xlink:href="#mf1b4a4a194" x="79.627864" y="164.717906" style="stroke: #000000; stroke-width: 0.6"/>
      </g>
     </g>
    </g>
    <g id="ytick_36">
     <g id="line2d_41">
      <g>
       <use xlink:href="#mf1b4a4a194" x="79.627864" y="161.342437" style="stroke: #000000; stroke-width: 0.6"/>
      </g>
     </g>
    </g>
    <g id="ytick_37">
     <g id="line2d_42">
      <g>
       <use xlink:href="#mf1b4a4a194" x="79.627864" y="158.365062" style="stroke: #000000; stroke-width: 0.6"/>
      </g>
     </g>
    </g>
    <g id="ytick_38">
     <g id="line2d_43">
      <g>
       <use xlink:href="#mf1b4a4a194" x="79.627864" y="138.180011" style="stroke: #000000; stroke-width: 0.6"/>
      </g>
     </g>
    </g>
    <g id="ytick_39">
     <g id="line2d_44">
      <g>
       <use xlink:href="#mf1b4a4a194" x="79.627864" y="127.930474" style="stroke: #000000; stroke-width: 0.6"/>
      </g>
     </g>
    </g>
    <g id="ytick_40">
     <g id="line2d_45">
      <g>
       <use xlink:href="#mf1b4a4a194" x="79.627864" y="120.658312" style="stroke: #000000; stroke-width: 0.6"/>
      </g>
     </g>
    </g>
    <g id="ytick_41">
     <g id="line2d_46">
      <g>
       <use xlink:href="#mf1b4a4a194" x="79.627864" y="115.017584" style="stroke: #000000; stroke-width: 0.6"/>
      </g>
     </g>
    </g>
    <g id="ytick_42">
     <g id="line2d_47">
      <g>
       <use xlink:href="#mf1b4a4a194" x="79.627864" y="110.408775" style="stroke: #000000; stroke-width: 0.6"/>
      </g>
     </g>
    </g>
    <g id="ytick_43">
     <g id="line2d_48">
      <g>
       <use xlink:href="#mf1b4a4a194" x="79.627864" y="106.512082" style="stroke: #000000; stroke-width: 0.6"/>
      </g>
     </g>
    </g>
    <g id="ytick_44">
     <g id="line2d_49">
      <g>
       <use xlink:href="#mf1b4a4a194" x="79.627864" y="103.136613" style="stroke: #000000; stroke-width: 0.6"/>
      </g>
     </g>
    </g>
    <g id="ytick_45">
     <g id="line2d_50">
      <g>
       <use xlink:href="#mf1b4a4a194" x="79.627864" y="100.159238" style="stroke: #000000; stroke-width: 0.6"/>
      </g>
     </g>
    </g>
    <g id="ytick_46">
     <g id="line2d_51">
      <g>
       <use xlink:href="#mf1b4a4a194" x="79.627864" y="79.974186" style="stroke: #000000; stroke-width: 0.6"/>
      </g>
     </g>
    </g>
    <g id="ytick_47">
     <g id="line2d_52">
      <g>
       <use xlink:href="#mf1b4a4a194" x="79.627864" y="69.72465" style="stroke: #000000; stroke-width: 0.6"/>
      </g>
     </g>
    </g>
    <g id="ytick_48">
     <g id="line2d_53">
      <g>
       <use xlink:href="#mf1b4a4a194" x="79.627864" y="62.452487" style="stroke: #000000; stroke-width: 0.6"/>
      </g>
     </g>
    </g>
    <g id="ytick_49">
     <g id="line2d_54">
      <g>
       <use xlink:href="#mf1b4a4a194" x="79.627864" y="56.81176" style="stroke: #000000; stroke-width: 0.6"/>
      </g>
     </g>
    </g>
    <g id="ytick_50">
     <g id="line2d_55">
      <g>
       <use xlink:href="#mf1b4a4a194" x="79.627864" y="52.202951" style="stroke: #000000; stroke-width: 0.6"/>
      </g>
     </g>
    </g>
    <g id="ytick_51">
     <g id="line2d_56">
      <g>
       <use xlink:href="#mf1b4a4a194" x="79.627864" y="48.306258" style="stroke: #000000; stroke-width: 0.6"/>
      </g>
     </g>
    </g>
    <g id="ytick_52">
     <g id="line2d_57">
      <g>
       <use xlink:href="#mf1b4a4a194" x="79.627864" y="44.930788" style="stroke: #000000; stroke-width: 0.6"/>
      </g>
     </g>
    </g>
    <g id="ytick_53">
     <g id="line2d_58">
      <g>
       <use xlink:href="#mf1b4a4a194" x="79.627864" y="41.953414" style="stroke: #000000; stroke-width: 0.6"/>
      </g>
     </g>
    </g>
    <g id="text_13">
     <!-- $\varepsilon(1)$ -->
     <g transform="translate(23.618624 216.555517) rotate(-90) scale(0.22 -0.22)">
      <defs>
       <path id="CMMI12-22" d="M 890 1427 
C 1094 1345 1312 1345 1434 1345 
C 1600 1345 1933 1345 1933 1550 
C 1933 1678 1811 1728 1485 1728 
C 1325 1728 1133 1709 909 1613 
C 710 1708 634 1852 634 1990 
C 634 2379 1261 2606 1830 2606 
C 1939 2606 2170 2606 2438 2411 
C 2477 2387 2496 2367 2541 2367 
C 2618 2367 2701 2449 2701 2526 
C 2701 2639 2330 2880 1888 2880 
C 1171 2880 493 2449 493 1972 
C 493 1734 646 1586 755 1509 
C 384 1301 166 961 166 652 
C 166 219 563 -128 1178 -128 
C 2022 -128 2362 424 2362 512 
C 2362 543 2336 568 2304 568 
C 2272 568 2259 549 2234 512 
C 2163 395 1997 146 1235 146 
C 838 146 314 245 314 686 
C 314 898 474 1214 890 1427 
z
M 1088 1518 
C 1261 1600 1427 1600 1472 1600 
C 1651 1600 1683 1583 1786 1545 
C 1677 1472 1664 1472 1434 1472 
C 1318 1472 1216 1472 1088 1518 
z
" transform="scale(0.015625)"/>
       <path id="CMR17-28" d="M 1958 -1561 
C 1958 -1555 1958 -1542 1939 -1523 
C 1645 -1224 858 -407 858 1581 
C 858 3569 1632 4379 1946 4697 
C 1946 4704 1958 4717 1958 4736 
C 1958 4755 1939 4768 1914 4768 
C 1843 4768 1299 4296 986 3594 
C 666 2887 576 2199 576 1588 
C 576 1128 621 351 1005 -471 
C 1312 -1135 1837 -1600 1914 -1600 
C 1946 -1600 1958 -1587 1958 -1561 
z
" transform="scale(0.015625)"/>
       <path id="CMR17-29" d="M 1683 1581 
C 1683 2040 1638 2817 1254 3639 
C 947 4303 422 4768 346 4768 
C 326 4768 301 4761 301 4729 
C 301 4717 307 4710 314 4697 
C 621 4378 1402 3568 1402 1584 
C 1402 -407 627 -1217 314 -1537 
C 307 -1549 301 -1556 301 -1568 
C 301 -1600 326 -1600 346 -1600 
C 416 -1600 960 -1128 1274 -426 
C 1594 281 1683 969 1683 1581 
z
" transform="scale(0.015625)"/>
      </defs>
      <use xlink:href="#CMMI12-22" transform="scale(0.996264)"/>
      <use xlink:href="#CMR17-28" transform="translate(45.650192 0) scale(0.996264)"/>
      <use xlink:href="#CMR17-31" transform="translate(80.93096 0) scale(0.996264)"/>
      <use xlink:href="#CMR17-29" transform="translate(126.621437 0) scale(0.996264)"/>
     </g>
    </g>
   </g>
   <g id="line2d_59">
    <path d="M 102.455137 118.640423 
L 125.282409 139.579483 
L 148.109682 154.914808 
L 170.936955 170.196669 
L 193.764228 183.495863 
L 216.5915 193.1849 
L 239.418773 203.749519 
L 262.246046 209.786293 
L 285.073318 217.792532 
L 307.900591 215.374195 
L 330.727864 219.902738 
L 353.555137 187.015362 
L 376.382409 218.745557 
L 399.209682 221.373497 
L 422.036955 215.980578 
L 444.864228 212.709844 
L 467.6915 211.012735 
L 490.518773 196.632483 
L 513.346046 146.783924 
L 536.173318 62.872233 
" clip-path="url(#pa83e6a5d38)" style="fill: none; stroke: #006ec2; stroke-linecap: square"/>
   </g>
   <g id="line2d_60">
    <path d="M 102.455137 197.064114 
L 125.282409 250.576967 
L 148.109682 265.556355 
L 170.936955 276.768112 
L 193.764228 283.753227 
L 216.5915 274.47528 
L 239.418773 282.909335 
L 262.246046 285.976361 
L 285.073318 286.465047 
L 307.900591 285.383668 
L 330.727864 283.549591 
L 353.555137 268.435927 
L 376.382409 287.683523 
L 399.209682 277.927524 
L 422.036955 269.883535 
L 444.864228 265.319167 
L 467.6915 266.176371 
L 490.518773 47.546287 
L 513.346046 48.430752 
L 536.173318 50.673008 
" clip-path="url(#pa83e6a5d38)" style="fill: none; stroke: #ff7b00; stroke-linecap: square"/>
   </g>
   <g id="line2d_61">
    <path d="M 102.455137 120.384186 
L 125.282409 139.047621 
L 148.109682 154.265848 
L 170.936955 168.462081 
L 193.764228 182.155167 
L 216.5915 195.434856 
L 239.418773 207.645057 
L 262.246046 218.395964 
L 285.073318 227.455723 
L 307.900591 234.562968 
L 330.727864 240.1484 
L 353.555137 244.16534 
L 376.382409 247.49218 
L 399.209682 250.269521 
L 422.036955 251.985618 
L 444.864228 252.357217 
L 467.6915 250.496591 
L 490.518773 253.549218 
L 513.346046 251.852659 
L 536.173318 252.352683 
L 559.000591 250.174418 
" clip-path="url(#pa83e6a5d38)" style="fill: none; stroke: #006ec2; stroke-width: 3; stroke-linecap: square"/>
   </g>
   <g id="line2d_62">
    <path d="M 102.455137 236.18929 
L 125.282409 273.846269 
L 148.109682 294.964814 
L 170.936955 309.757967 
L 193.764228 320.87734 
L 216.5915 329.821306 
L 239.418773 336.960184 
L 262.246046 341.661213 
L 285.073318 345.773692 
L 307.900591 348.234359 
L 330.727864 349.555627 
L 353.555137 349.946287 
L 376.382409 349.355384 
L 399.209682 348.324447 
L 422.036955 346.716345 
L 444.864228 337.822199 
L 467.6915 334.525638 
L 490.518773 331.736865 
L 513.346046 329.921615 
L 536.173318 326.225868 
L 559.000591 322.633768 
" clip-path="url(#pa83e6a5d38)" style="fill: none; stroke: #ff7b00; stroke-width: 3; stroke-linecap: square"/>
   </g>
   <g id="patch_3">
    <path d="M 79.627864 365.066287 
L 79.627864 32.426287 
" style="fill: none; stroke: #000000; stroke-width: 0.8; stroke-linejoin: miter; stroke-linecap: square"/>
   </g>
   <g id="patch_4">
    <path d="M 581.827864 365.066287 
L 581.827864 32.426287 
" style="fill: none; stroke: #000000; stroke-width: 0.8; stroke-linejoin: miter; stroke-linecap: square"/>
   </g>
   <g id="patch_5">
    <path d="M 79.627864 365.066287 
L 581.827864 365.066287 
" style="fill: none; stroke: #000000; stroke-width: 0.8; stroke-linejoin: miter; stroke-linecap: square"/>
   </g>
   <g id="patch_6">
    <path d="M 79.627864 32.426287 
L 581.827864 32.426287 
" style="fill: none; stroke: #000000; stroke-width: 0.8; stroke-linejoin: miter; stroke-linecap: square"/>
   </g>
   <g id="text_14">
    <!-- numpy MPS ($N = 12$) -->
    <g transform="translate(206.702465 26.426287) scale(0.264 -0.264)">
     <defs>
      <path id="NimbusSanL-Regu-6e" d="M 448 3359 
L 448 0 
L 986 0 
L 986 1853 
C 986 2539 1344 2988 1894 2988 
C 2317 2988 2586 2731 2586 2327 
L 2586 0 
L 3117 0 
L 3117 2539 
C 3117 3097 2701 3456 2054 3456 
C 1555 3456 1235 3263 941 2796 
L 941 3359 
L 448 3359 
z
" transform="scale(0.015625)"/>
      <path id="NimbusSanL-Regu-75" d="M 3085 33 
L 3085 3392 
L 2554 3392 
L 2554 1479 
C 2554 790 2195 340 1638 340 
C 1216 340 947 597 947 1003 
L 947 3392 
L 416 3392 
L 416 792 
C 416 232 832 -128 1485 -128 
C 1978 -128 2291 45 2605 488 
L 2605 33 
L 3085 33 
z
" transform="scale(0.015625)"/>
      <path id="NimbusSanL-Regu-6d" d="M 448 3359 
L 448 0 
L 986 0 
L 986 2109 
C 986 2597 1338 2988 1773 2988 
C 2170 2988 2394 2744 2394 2314 
L 2394 0 
L 2931 0 
L 2931 2109 
C 2931 2597 3283 2988 3718 2988 
C 4109 2988 4339 2738 4339 2314 
L 4339 0 
L 4877 0 
L 4877 2520 
C 4877 3122 4531 3456 3904 3456 
C 3456 3456 3187 3321 2874 2943 
C 2675 3302 2406 3456 1971 3456 
C 1523 3456 1229 3289 941 2885 
L 941 3359 
L 448 3359 
z
" transform="scale(0.015625)"/>
      <path id="NimbusSanL-Regu-70" d="M 346 -1408 
L 883 -1408 
L 883 320 
C 1165 -27 1478 -180 1914 -180 
C 2778 -180 3347 522 3347 1599 
C 3347 2734 2797 3444 1907 3444 
C 1453 3444 1088 3238 838 2841 
L 838 3349 
L 346 3349 
L 346 -1408 
z
M 1818 2944 
C 2406 2944 2790 2420 2790 1612 
C 2790 843 2400 320 1818 320 
C 1254 320 883 837 883 1632 
C 883 2427 1254 2944 1818 2944 
z
" transform="scale(0.015625)"/>
      <path id="NimbusSanL-Regu-79" d="M 2483 3360 
L 1555 738 
L 698 3360 
L 128 3360 
L 1261 -21 
L 1056 -554 
C 973 -792 851 -882 627 -882 
C 550 -882 461 -869 346 -843 
L 346 -1325 
C 454 -1382 563 -1408 704 -1408 
C 877 -1408 1062 -1350 1203 -1247 
C 1370 -1125 1466 -983 1568 -713 
L 3059 3360 
L 2483 3360 
z
" transform="scale(0.015625)"/>
      <path id="NimbusSanL-Regu-4d" d="M 2995 -2 
L 4307 3915 
L 4307 -2 
L 4870 -2 
L 4870 4672 
L 4045 4672 
L 2688 601 
L 1306 4672 
L 480 4672 
L 480 -2 
L 1043 -2 
L 1043 3915 
L 2368 -2 
L 2995 -2 
z
" transform="scale(0.015625)"/>
      <path id="NimbusSanL-Regu-50" d="M 1178 1984 
L 2643 1984 
C 3008 1984 3296 2093 3546 2316 
C 3827 2573 3949 2873 3949 3303 
C 3949 4179 3430 4672 2509 4672 
L 582 4672 
L 582 -14 
L 1178 -14 
L 1178 1984 
z
M 1178 2510 
L 1178 4146 
L 2419 4146 
C 2989 4146 3328 3839 3328 3327 
C 3328 2816 2989 2510 2419 2510 
L 1178 2510 
z
" transform="scale(0.015625)"/>
      <path id="NimbusSanL-Regu-53" d="M 3814 3335 
C 3808 4255 3181 4788 2106 4788 
C 1082 4788 448 4260 448 3410 
C 448 2837 749 2477 1363 2316 
L 2522 2007 
C 3110 1852 3379 1614 3379 1247 
C 3379 995 3245 738 3046 597 
C 2861 468 2566 397 2189 397 
C 1683 397 1338 520 1114 790 
C 941 996 864 1222 870 1511 
L 307 1511 
C 314 1081 397 798 582 540 
C 902 103 1440 -128 2150 -128 
C 2707 -128 3162 1 3462 232 
C 3776 483 3974 901 3974 1307 
C 3974 1886 3616 2311 2982 2485 
L 1811 2801 
C 1248 2955 1043 3135 1043 3496 
C 1043 3972 1459 4288 2086 4288 
C 2829 4288 3245 3947 3251 3335 
L 3814 3335 
z
" transform="scale(0.015625)"/>
      <path id="NimbusSanL-Regu-28" d="M 1510 4672 
C 870 3830 467 2660 467 1651 
C 467 636 870 -534 1510 -1376 
L 1862 -1376 
C 1299 -457 986 623 986 1651 
C 986 2673 1299 3759 1862 4672 
L 1510 4672 
z
" transform="scale(0.015625)"/>
      <path id="CMMI12-4e" d="M 4736 3698 
C 4806 3974 4909 4166 5395 4166 
C 5414 4166 5491 4166 5491 4279 
C 5491 4352 5434 4352 5408 4352 
C 5280 4352 4954 4352 4826 4352 
L 4518 4352 
C 4429 4352 4314 4352 4224 4352 
C 4186 4352 4109 4352 4109 4230 
C 4109 4166 4160 4166 4205 4166 
C 4589 4166 4614 4019 4614 3903 
C 4614 3846 4608 3826 4589 3737 
L 3866 850 
L 2496 4249 
C 2451 4352 2445 4352 2304 4352 
L 1523 4352 
C 1395 4352 1338 4352 1338 4230 
C 1338 4166 1382 4166 1504 4166 
C 1536 4166 1914 4166 1914 4115 
C 1914 4102 1901 4051 1894 4032 
L 1043 635 
C 966 320 813 186 390 186 
C 358 186 294 186 294 67 
C 294 0 358 0 378 0 
C 506 0 832 0 960 0 
L 1267 0 
C 1357 0 1466 0 1555 0 
C 1600 0 1670 0 1670 122 
C 1670 180 1606 186 1581 186 
C 1370 186 1165 224 1165 454 
C 1165 505 1178 562 1190 613 
L 2054 4032 
C 2093 3968 2093 3956 2118 3898 
L 3642 115 
C 3674 38 3686 0 3744 0 
C 3808 0 3814 19 3840 128 
L 4736 3698 
z
" transform="scale(0.015625)"/>
      <path id="CMR17-3d" d="M 4115 2017 
C 4211 2017 4307 2017 4307 2125 
C 4307 2240 4198 2240 4090 2240 
L 512 2240 
C 403 2240 294 2240 294 2125 
C 294 2017 390 2017 486 2017 
L 4115 2017 
z
M 4090 896 
C 4198 896 4307 896 4307 1011 
C 4307 1119 4211 1119 4115 1119 
L 486 1119 
C 390 1119 294 1119 294 1011 
C 294 896 403 896 512 896 
L 4090 896 
z
" transform="scale(0.015625)"/>
      <path id="NimbusSanL-Regu-29" d="M 595 -1376 
C 1235 -534 1638 636 1638 1644 
C 1638 2660 1235 3830 595 4672 
L 243 4672 
C 806 3753 1120 2673 1120 1644 
C 1120 623 806 -464 243 -1376 
L 595 -1376 
z
" transform="scale(0.015625)"/>
     </defs>
     <use xlink:href="#NimbusSanL-Regu-6e" transform="scale(0.996264)"/>
     <use xlink:href="#NimbusSanL-Regu-75" transform="translate(54.39558 0) scale(0.996264)"/>
     <use xlink:href="#NimbusSanL-Regu-6d" transform="translate(109.787257 0) scale(0.996264)"/>
     <use xlink:href="#NimbusSanL-Regu-70" transform="translate(192.775687 0) scale(0.996264)"/>
     <use xlink:href="#NimbusSanL-Regu-79" transform="translate(245.179256 0) scale(0.996264)"/>
     <use xlink:href="#NimbusSanL-Regu-4d" transform="translate(322.687626 0) scale(0.996264)"/>
     <use xlink:href="#NimbusSanL-Regu-50" transform="translate(405.676057 0) scale(0.996264)"/>
     <use xlink:href="#NimbusSanL-Regu-53" transform="translate(472.126088 0) scale(0.996264)"/>
     <use xlink:href="#NimbusSanL-Regu-28" transform="translate(566.271289 0) scale(0.996264)"/>
     <use xlink:href="#CMMI12-4e" transform="translate(599.446518 0) scale(0.996264)"/>
     <use xlink:href="#CMR17-3d" transform="translate(715.6423 0) scale(0.996264)"/>
     <use xlink:href="#CMR17-31" transform="translate(815.031097 0) scale(0.996264)"/>
     <use xlink:href="#CMR17-32" transform="translate(860.721574 0) scale(0.996264)"/>
     <use xlink:href="#NimbusSanL-Regu-29" transform="translate(906.412051 0) scale(0.996264)"/>
    </g>
   </g>
   <g id="legend_1">
    <g id="patch_7">
     <path d="M 87.580388 495.131618 
L 523.655339 495.131618 
Q 528.055339 495.131618 528.055339 490.731618 
L 528.055339 430.362287 
Q 528.055339 425.962287 523.655339 425.962287 
L 87.580388 425.962287 
Q 83.180388 425.962287 83.180388 430.362287 
L 83.180388 490.731618 
Q 83.180388 495.131618 87.580388 495.131618 
z
" style="fill: #ffffff; opacity: 0.8; stroke: #cccccc; stroke-linejoin: miter"/>
    </g>
    <g id="PathCollection_3">
     <g>
      <use xlink:href="#m6bccdce3dd" x="113.980388" y="444.603592" style="fill: #006ec2; stroke: #006ec2; stroke-width: 3"/>
     </g>
    </g>
    <g id="text_15">
     <!-- MPS $P=100$ -->
     <g transform="translate(153.580388 450.378592) scale(0.22 -0.22)">
      <defs>
       <path id="CMMI12-50" d="M 1894 2023 
L 2970 2023 
C 3853 2023 4736 2673 4736 3401 
C 4736 3898 4314 4352 3507 4352 
L 1530 4352 
C 1408 4352 1350 4352 1350 4231 
C 1350 4167 1408 4167 1504 4167 
C 1894 4167 1894 4116 1894 4046 
C 1894 4034 1894 3995 1869 3899 
L 1005 472 
C 947 249 934 185 486 185 
C 365 185 301 185 301 70 
C 301 0 358 0 397 0 
C 518 0 646 0 768 0 
L 1517 0 
C 1638 0 1773 0 1894 0 
C 1946 0 2016 0 2016 121 
C 2016 185 1958 185 1862 185 
C 1478 185 1472 230 1472 293 
C 1472 325 1478 369 1485 401 
L 1894 2023 
z
M 2355 3930 
C 2413 4167 2438 4167 2688 4167 
L 3322 4167 
C 3802 4167 4198 4013 4198 3535 
C 4198 3369 4115 2827 3821 2534 
C 3712 2419 3405 2176 2822 2176 
L 1920 2176 
L 2355 3930 
z
" transform="scale(0.015625)"/>
      </defs>
      <use xlink:href="#NimbusSanL-Regu-4d" transform="scale(0.996264)"/>
      <use xlink:href="#NimbusSanL-Regu-50" transform="translate(82.98843 0) scale(0.996264)"/>
      <use xlink:href="#NimbusSanL-Regu-53" transform="translate(149.438461 0) scale(0.996264)"/>
      <use xlink:href="#CMMI12-50" transform="translate(243.583662 0) scale(0.996264)"/>
      <use xlink:href="#CMR17-3d" transform="translate(347.683492 0) scale(0.996264)"/>
      <use xlink:href="#CMR17-31" transform="translate(447.072289 0) scale(0.996264)"/>
      <use xlink:href="#CMR17-30" transform="translate(492.762766 0) scale(0.996264)"/>
      <use xlink:href="#CMR17-30" transform="translate(538.453243 0) scale(0.996264)"/>
     </g>
    </g>
    <g id="PathCollection_4">
     <g>
      <use xlink:href="#mbdbf28fb78" x="113.980388" y="475.888257" style="fill: #ff7b00; stroke: #ff7b00; stroke-width: 3"/>
     </g>
    </g>
    <g id="text_16">
     <!-- MPS $P=1000$ -->
     <g transform="translate(153.580388 481.663257) scale(0.22 -0.22)">
      <use xlink:href="#NimbusSanL-Regu-4d" transform="scale(0.996264)"/>
      <use xlink:href="#NimbusSanL-Regu-50" transform="translate(82.98843 0) scale(0.996264)"/>
      <use xlink:href="#NimbusSanL-Regu-53" transform="translate(149.438461 0) scale(0.996264)"/>
      <use xlink:href="#CMMI12-50" transform="translate(243.583662 0) scale(0.996264)"/>
      <use xlink:href="#CMR17-3d" transform="translate(347.683492 0) scale(0.996264)"/>
      <use xlink:href="#CMR17-31" transform="translate(447.072289 0) scale(0.996264)"/>
      <use xlink:href="#CMR17-30" transform="translate(492.762766 0) scale(0.996264)"/>
      <use xlink:href="#CMR17-30" transform="translate(538.453243 0) scale(0.996264)"/>
      <use xlink:href="#CMR17-30" transform="translate(584.14372 0) scale(0.996264)"/>
     </g>
    </g>
    <g id="line2d_63">
     <path d="M 336.143799 442.678592 
L 358.143799 442.678592 
L 380.143799 442.678592 
" style="fill: none; stroke: #006ec2; stroke-width: 3; stroke-linecap: square"/>
    </g>
    <g id="text_17">
     <!-- ED $P=100$ -->
     <g transform="translate(397.743799 450.378592) scale(0.22 -0.22)">
      <defs>
       <path id="NimbusSanL-Regu-45" d="M 1171 2112 
L 3712 2112 
L 3712 2638 
L 1171 2638 
L 1171 4146 
L 3808 4146 
L 3808 4672 
L 576 4672 
L 576 0 
L 3923 0 
L 3923 526 
L 1171 526 
L 1171 2112 
z
" transform="scale(0.015625)"/>
       <path id="NimbusSanL-Regu-44" d="M 570 0 
L 2368 0 
C 3546 0 4269 885 4269 2339 
C 4269 3787 3552 4672 2368 4672 
L 570 4672 
L 570 0 
z
M 1165 526 
L 1165 4146 
L 2266 4146 
C 3187 4146 3674 3524 3674 2333 
C 3674 1154 3187 526 2266 526 
L 1165 526 
z
" transform="scale(0.015625)"/>
      </defs>
      <use xlink:href="#NimbusSanL-Regu-45" transform="scale(0.996264)"/>
      <use xlink:href="#NimbusSanL-Regu-44" transform="translate(66.450031 0) scale(0.996264)"/>
      <use xlink:href="#CMMI12-50" transform="translate(166.075186 0) scale(0.996264)"/>
      <use xlink:href="#CMR17-3d" transform="translate(270.175015 0) scale(0.996264)"/>
      <use xlink:href="#CMR17-31" transform="translate(369.563812 0) scale(0.996264)"/>
      <use xlink:href="#CMR17-30" transform="translate(415.254289 0) scale(0.996264)"/>
      <use xlink:href="#CMR17-30" transform="translate(460.944766 0) scale(0.996264)"/>
     </g>
    </g>
    <g id="line2d_64">
     <path d="M 336.143799 473.963257 
L 358.143799 473.963257 
L 380.143799 473.963257 
" style="fill: none; stroke: #ff7b00; stroke-width: 3; stroke-linecap: square"/>
    </g>
    <g id="text_18">
     <!-- ED $P=1000$ -->
     <g transform="translate(397.743799 481.663257) scale(0.22 -0.22)">
      <use xlink:href="#NimbusSanL-Regu-45" transform="scale(0.996264)"/>
      <use xlink:href="#NimbusSanL-Regu-44" transform="translate(66.450031 0) scale(0.996264)"/>
      <use xlink:href="#CMMI12-50" transform="translate(166.075186 0) scale(0.996264)"/>
      <use xlink:href="#CMR17-3d" transform="translate(270.175015 0) scale(0.996264)"/>
      <use xlink:href="#CMR17-31" transform="translate(369.563812 0) scale(0.996264)"/>
      <use xlink:href="#CMR17-30" transform="translate(415.254289 0) scale(0.996264)"/>
      <use xlink:href="#CMR17-30" transform="translate(460.944766 0) scale(0.996264)"/>
      <use xlink:href="#CMR17-30" transform="translate(506.635244 0) scale(0.996264)"/>
     </g>
    </g>
   </g>
  </g>
 </g>
 <defs>
  <clipPath id="pa83e6a5d38">
   <rect x="79.627864" y="32.426287" width="502.2" height="332.64"/>
  </clipPath>
 </defs>
</svg>
